%FSLAX44Y44*%
%MOMM*%
G71*
G01*
G75*
G04 Layer_Color=16777215*
%ADD10C,0.2032*%
%ADD11C,0.2540*%
%ADD12C,0.4572*%
%ADD13C,0.4000*%
%ADD14C,0.3048*%
%ADD15C,0.1300*%
%ADD16C,0.1600*%
%ADD17C,0.1016*%
%ADD18C,0.1750*%
%ADD19C,0.1524*%
%ADD20C,0.1750*%
%ADD21C,0.1500*%
%ADD22C,0.3810*%
%ADD23C,0.6350*%
%ADD24C,0.4064*%
%ADD25C,0.5080*%
%ADD26C,0.5000*%
%ADD27C,0.6604*%
%ADD28C,0.1727*%
%ADD29C,0.7620*%
%ADD30R,0.4500X0.4000*%
%ADD31R,1.8000X1.1500*%
%ADD32R,0.4000X0.4500*%
%ADD33R,1.0000X0.9000*%
%ADD34R,0.9000X1.0000*%
%ADD35R,3.1800X2.0300*%
%ADD36R,1.4000X0.7600*%
%ADD37R,0.6000X0.6000*%
%ADD38R,0.6000X0.6000*%
%ADD39R,3.2000X1.4000*%
%ADD40R,0.6200X0.6200*%
%ADD41R,0.9500X1.0000*%
%ADD42R,1.1500X1.8000*%
%ADD43R,1.8000X1.1500*%
%ADD44R,2.3500X2.5000*%
%ADD45R,2.7000X1.1500*%
%ADD46R,1.1500X1.8000*%
%ADD47R,1.1500X2.7000*%
%ADD48C,1.2000*%
%ADD49R,1.7000X2.4000*%
%ADD50R,0.6000X0.6200*%
%ADD51R,0.6200X0.6200*%
%ADD52R,1.3000X1.5450*%
%ADD53R,2.1500X1.7000*%
%ADD54R,1.1500X1.4500*%
%ADD55R,1.0000X0.9500*%
%ADD56P,0.8485X4X90.0*%
%ADD57R,2.0000X4.0000*%
G04:AMPARAMS|DCode=58|XSize=0.45mm|YSize=0.4mm|CornerRadius=0mm|HoleSize=0mm|Usage=FLASHONLY|Rotation=315.000|XOffset=0mm|YOffset=0mm|HoleType=Round|Shape=Rectangle|*
%AMROTATEDRECTD58*
4,1,4,-0.3005,0.0177,-0.0177,0.3005,0.3005,-0.0177,0.0177,-0.3005,-0.3005,0.0177,0.0*
%
%ADD58ROTATEDRECTD58*%

%ADD59R,0.9500X0.9500*%
%ADD60P,6.4944X8X202.5*%
%ADD61R,1.7780X2.0320*%
%ADD62R,1.7000X0.4800*%
%ADD63R,1.2000X0.4800*%
%ADD64R,3.1000X0.4800*%
%ADD65R,1.3250X0.4800*%
%ADD66R,1.5750X0.4800*%
%ADD67R,1.0500X1.4000*%
%ADD68R,0.8000X0.6000*%
%ADD69R,1.5000X3.5000*%
%ADD70R,0.6200X0.6000*%
%ADD71R,1.0000X0.8500*%
%ADD72R,0.8500X1.0000*%
%ADD73C,1.0000*%
%ADD74P,1.4142X4X360.0*%
G04:AMPARAMS|DCode=75|XSize=0.45mm|YSize=0.4mm|CornerRadius=0mm|HoleSize=0mm|Usage=FLASHONLY|Rotation=225.000|XOffset=0mm|YOffset=0mm|HoleType=Round|Shape=Rectangle|*
%AMROTATEDRECTD75*
4,1,4,0.0177,0.3005,0.3005,0.0177,-0.0177,-0.3005,-0.3005,-0.0177,0.0177,0.3005,0.0*
%
%ADD75ROTATEDRECTD75*%

G04:AMPARAMS|DCode=76|XSize=0.45mm|YSize=0.4mm|CornerRadius=0mm|HoleSize=0mm|Usage=FLASHONLY|Rotation=80.000|XOffset=0mm|YOffset=0mm|HoleType=Round|Shape=Rectangle|*
%AMROTATEDRECTD76*
4,1,4,0.1579,-0.2563,-0.2360,-0.1868,-0.1579,0.2563,0.2360,0.1868,0.1579,-0.2563,0.0*
%
%ADD76ROTATEDRECTD76*%

G04:AMPARAMS|DCode=77|XSize=0.45mm|YSize=0.4mm|CornerRadius=0mm|HoleSize=0mm|Usage=FLASHONLY|Rotation=290.000|XOffset=0mm|YOffset=0mm|HoleType=Round|Shape=Rectangle|*
%AMROTATEDRECTD77*
4,1,4,-0.2649,0.1430,0.1110,0.2798,0.2649,-0.1430,-0.1110,-0.2798,-0.2649,0.1430,0.0*
%
%ADD77ROTATEDRECTD77*%

%ADD78R,1.9000X1.3000*%
G04:AMPARAMS|DCode=79|XSize=1mm|YSize=0.95mm|CornerRadius=0mm|HoleSize=0mm|Usage=FLASHONLY|Rotation=135.000|XOffset=0mm|YOffset=0mm|HoleType=Round|Shape=Rectangle|*
%AMROTATEDRECTD79*
4,1,4,0.6894,-0.0177,0.0177,-0.6894,-0.6894,0.0177,-0.0177,0.6894,0.6894,-0.0177,0.0*
%
%ADD79ROTATEDRECTD79*%

%ADD80R,0.9500X1.0000*%
%ADD81R,2.0300X3.1800*%
%ADD82R,0.7600X1.4000*%
%ADD83P,0.8485X4X360.0*%
G04:AMPARAMS|DCode=84|XSize=0.95mm|YSize=1mm|CornerRadius=0mm|HoleSize=0mm|Usage=FLASHONLY|Rotation=315.000|XOffset=0mm|YOffset=0mm|HoleType=Round|Shape=Rectangle|*
%AMROTATEDRECTD84*
4,1,4,-0.6894,-0.0177,0.0177,0.6894,0.6894,0.0177,-0.0177,-0.6894,-0.6894,-0.0177,0.0*
%
%ADD84ROTATEDRECTD84*%

%ADD85R,0.6000X0.8000*%
G04:AMPARAMS|DCode=86|XSize=0.95mm|YSize=1mm|CornerRadius=0mm|HoleSize=0mm|Usage=FLASHONLY|Rotation=225.000|XOffset=0mm|YOffset=0mm|HoleType=Round|Shape=Rectangle|*
%AMROTATEDRECTD86*
4,1,4,-0.0177,0.6894,0.6894,-0.0177,0.0177,-0.6894,-0.6894,0.0177,-0.0177,0.6894,0.0*
%
%ADD86ROTATEDRECTD86*%

%ADD87R,3.3500X3.3500*%
%ADD88O,0.3000X1.0500*%
%ADD89O,1.0500X0.3000*%
%ADD90R,1.2700X0.9144*%
%ADD91R,0.9144X0.9144*%
%ADD92R,1.7780X0.4064*%
%ADD93R,0.3000X1.0000*%
%ADD94R,3.4000X1.6000*%
%ADD95R,1.6000X3.4000*%
%ADD96R,0.6500X0.5000*%
%ADD97R,0.8000X1.0000*%
%ADD98O,1.5000X0.2700*%
%ADD99R,1.5000X0.2700*%
%ADD100R,1.3000X1.0000*%
%ADD101R,1.3000X0.6000*%
%ADD102R,0.9144X1.2700*%
%ADD103R,0.9144X0.9144*%
%ADD104O,0.6096X2.0320*%
%ADD105R,0.3000X0.8500*%
%ADD106R,2.5000X1.7500*%
%ADD107R,2.3000X4.3000*%
%ADD108O,0.3000X0.8000*%
%ADD109O,0.8000X0.3000*%
%ADD110O,1.5500X0.4500*%
%ADD111R,0.4500X0.3000*%
%ADD112R,1.5000X0.4500*%
%ADD113R,0.7620X0.7620*%
%ADD114R,0.6000X1.0500*%
%ADD115O,1.0000X0.3000*%
%ADD116R,1.0000X0.3000*%
%ADD117R,0.7000X0.2500*%
%ADD118R,0.2500X0.7000*%
%ADD119R,4.2000X4.2000*%
G04:AMPARAMS|DCode=120|XSize=0.6mm|YSize=1.55mm|CornerRadius=0mm|HoleSize=0mm|Usage=FLASHONLY|Rotation=225.000|XOffset=0mm|YOffset=0mm|HoleType=Round|Shape=Rectangle|*
%AMROTATEDRECTD120*
4,1,4,-0.3359,0.7601,0.7601,-0.3359,0.3359,-0.7601,-0.7601,0.3359,-0.3359,0.7601,0.0*
%
%ADD120ROTATEDRECTD120*%

%ADD121R,4.8000X5.1600*%
%ADD122R,0.5500X1.0000*%
%ADD123R,6.5000X6.5000*%
%ADD124R,1.5000X0.3000*%
%ADD125R,0.3000X1.5000*%
%ADD126O,0.3000X1.5000*%
%ADD127R,0.6500X1.0500*%
%ADD128O,2.0320X0.6096*%
%ADD129R,1.0500X0.6000*%
%ADD130R,1.0160X0.2500*%
%ADD131R,0.2500X1.0160*%
%ADD132O,0.2500X1.0160*%
%ADD133R,2.0000X0.6000*%
%ADD134R,0.7620X0.7620*%
%ADD135O,0.9000X0.3000*%
%ADD136O,0.3000X0.9000*%
%ADD137R,3.5500X3.5500*%
%ADD138R,1.1000X0.6000*%
%ADD139R,0.4500X1.5000*%
%ADD140R,1.8000X2.0000*%
%ADD141O,1.5000X0.3000*%
%ADD142R,0.7000X0.8000*%
%ADD143R,0.4000X0.4000*%
%ADD144R,1.4500X1.1500*%
%ADD145R,4.8000X6.4000*%
%ADD146R,1.5000X1.5000*%
%ADD147R,1.5000X1.5000*%
%ADD148P,2.1213X4X180.0*%
%ADD149C,0.5000*%
%ADD150R,1.2500X1.3500*%
%ADD151R,1.1000X0.9000*%
%ADD152C,0.1270*%
%ADD153C,1.0000*%
%ADD154C,0.3556*%
%ADD155C,0.1778*%
%ADD156R,0.2500X1.1500*%
%ADD157C,2.0000*%
%ADD158C,5.0000*%
%ADD159C,1.5000*%
%ADD160C,1.8000*%
%ADD161C,6.0000*%
%ADD162C,3.2000*%
%ADD163O,11.0000X2.0000*%
%ADD164C,0.8000*%
%ADD165O,2.7000X1.7000*%
%ADD166O,1.5000X1.0000*%
%ADD167C,0.6000*%
%ADD168C,2.1000*%
%ADD169C,0.4000*%
%ADD170C,0.4500*%
%ADD171C,0.4572*%
%ADD172C,0.1300*%
%ADD173C,0.1650*%
%ADD174R,2.0000X0.4800*%
%ADD175R,0.9000X0.4800*%
%ADD176R,1.8500X3.4000*%
%ADD177R,1.4000X3.2000*%
%ADD178R,0.9500X0.9500*%
%ADD179R,2.5000X2.3500*%
%ADD180R,2.0000X1.5000*%
%ADD181R,2.7900X2.9200*%
%ADD182R,7.6200X3.1800*%
%ADD183R,1.2500X1.8500*%
%ADD184R,0.9500X0.5500*%
%ADD185P,1.4142X4X270.0*%
%ADD186R,2.5500X2.5500*%
G04:AMPARAMS|DCode=187|XSize=1.1mm|YSize=2.2mm|CornerRadius=0mm|HoleSize=0mm|Usage=FLASHONLY|Rotation=135.000|XOffset=0mm|YOffset=0mm|HoleType=Round|Shape=Rectangle|*
%AMROTATEDRECTD187*
4,1,4,1.1667,0.3889,-0.3889,-1.1667,-1.1667,-0.3889,0.3889,1.1667,1.1667,0.3889,0.0*
%
%ADD187ROTATEDRECTD187*%

G04:AMPARAMS|DCode=188|XSize=1mm|YSize=1.1mm|CornerRadius=0mm|HoleSize=0mm|Usage=FLASHONLY|Rotation=135.000|XOffset=0mm|YOffset=0mm|HoleType=Round|Shape=Rectangle|*
%AMROTATEDRECTD188*
4,1,4,0.7425,0.0354,-0.0354,-0.7425,-0.7425,-0.0354,0.0354,0.7425,0.7425,0.0354,0.0*
%
%ADD188ROTATEDRECTD188*%

%ADD189R,2.2000X1.1000*%
%ADD190R,1.1000X1.0000*%
%ADD191R,3.1500X1.0200*%
%ADD192C,0.3048*%
%ADD193R,1.5000X2.3000*%
%ADD194R,0.7000X0.3500*%
%ADD195C,0.6400*%
%ADD196R,0.6000X1.5500*%
%ADD197O,0.3000X0.9000*%
%ADD198R,5.4800X3.2400*%
%ADD199R,1.5500X0.6000*%
%ADD200R,3.5000X0.9000*%
%ADD201R,2.4000X0.9000*%
%ADD202R,1.0000X1.3000*%
%ADD203R,0.6000X1.3000*%
%ADD204C,0.2500*%
%ADD205C,0.2000*%
%ADD206C,0.1000*%
%ADD207C,0.6000*%
%ADD208C,0.0508*%
%ADD209C,0.1519*%
%ADD210R,0.2500X1.0250*%
%ADD211R,1.2192X1.1938*%
%ADD212R,1.2000X1.2000*%
%ADD213R,0.9000X1.0250*%
%ADD214R,0.4500X1.1250*%
%ADD215R,0.4500X1.0500*%
%ADD216R,0.5770X0.5270*%
%ADD217R,1.9270X1.2770*%
%ADD218R,0.5270X0.5770*%
%ADD219R,1.1270X1.0270*%
%ADD220R,1.0270X1.1270*%
%ADD221R,3.3070X2.1570*%
%ADD222R,1.5270X0.8870*%
%ADD223R,0.7270X0.7270*%
%ADD224R,0.7270X0.7270*%
%ADD225R,3.3270X1.5270*%
%ADD226R,0.7470X0.7470*%
%ADD227R,1.0770X1.1270*%
%ADD228R,1.2770X1.9270*%
%ADD229R,1.9270X1.2770*%
%ADD230R,2.4770X2.6270*%
%ADD231R,2.8270X1.2770*%
%ADD232R,1.2770X1.9270*%
%ADD233R,1.2770X2.8270*%
%ADD234C,1.3270*%
%ADD235R,1.8270X2.5270*%
%ADD236R,0.7270X0.7470*%
%ADD237R,0.7470X0.7470*%
%ADD238R,1.4270X1.6720*%
%ADD239R,2.2770X1.8270*%
%ADD240R,1.2770X1.5770*%
%ADD241R,1.1270X1.0770*%
%ADD242P,1.0281X4X90.0*%
%ADD243R,2.1270X4.1270*%
G04:AMPARAMS|DCode=244|XSize=0.577mm|YSize=0.527mm|CornerRadius=0mm|HoleSize=0mm|Usage=FLASHONLY|Rotation=315.000|XOffset=0mm|YOffset=0mm|HoleType=Round|Shape=Rectangle|*
%AMROTATEDRECTD244*
4,1,4,-0.3903,0.0177,-0.0177,0.3903,0.3903,-0.0177,0.0177,-0.3903,-0.3903,0.0177,0.0*
%
%ADD244ROTATEDRECTD244*%

%ADD245R,1.0770X1.0770*%
%ADD246P,6.6319X8X202.5*%
%ADD247R,1.9050X2.1590*%
%ADD248R,1.8270X0.6070*%
%ADD249R,1.3270X0.6070*%
%ADD250R,3.2270X0.6070*%
%ADD251R,1.4520X0.6070*%
%ADD252R,1.7020X0.6070*%
%ADD253R,1.1770X1.5270*%
%ADD254R,0.9270X0.7270*%
%ADD255R,1.6270X3.6270*%
%ADD256R,0.7470X0.7270*%
%ADD257R,1.1270X0.9770*%
%ADD258R,0.9770X1.1270*%
%ADD259C,2.0000*%
G04:AMPARAMS|DCode=260|XSize=0.577mm|YSize=0.527mm|CornerRadius=0mm|HoleSize=0mm|Usage=FLASHONLY|Rotation=225.000|XOffset=0mm|YOffset=0mm|HoleType=Round|Shape=Rectangle|*
%AMROTATEDRECTD260*
4,1,4,0.0177,0.3903,0.3903,0.0177,-0.0177,-0.3903,-0.3903,-0.0177,0.0177,0.3903,0.0*
%
%ADD260ROTATEDRECTD260*%

G04:AMPARAMS|DCode=261|XSize=0.577mm|YSize=0.527mm|CornerRadius=0mm|HoleSize=0mm|Usage=FLASHONLY|Rotation=80.000|XOffset=0mm|YOffset=0mm|HoleType=Round|Shape=Rectangle|*
%AMROTATEDRECTD261*
4,1,4,0.2094,-0.3299,-0.3096,-0.2384,-0.2094,0.3299,0.3096,0.2384,0.2094,-0.3299,0.0*
%
%ADD261ROTATEDRECTD261*%

G04:AMPARAMS|DCode=262|XSize=0.577mm|YSize=0.527mm|CornerRadius=0mm|HoleSize=0mm|Usage=FLASHONLY|Rotation=290.000|XOffset=0mm|YOffset=0mm|HoleType=Round|Shape=Rectangle|*
%AMROTATEDRECTD262*
4,1,4,-0.3463,0.1810,0.1489,0.3612,0.3463,-0.1810,-0.1489,-0.3612,-0.3463,0.1810,0.0*
%
%ADD262ROTATEDRECTD262*%

%ADD263R,2.0270X1.4270*%
G04:AMPARAMS|DCode=264|XSize=1.127mm|YSize=1.077mm|CornerRadius=0mm|HoleSize=0mm|Usage=FLASHONLY|Rotation=135.000|XOffset=0mm|YOffset=0mm|HoleType=Round|Shape=Rectangle|*
%AMROTATEDRECTD264*
4,1,4,0.7792,-0.0177,0.0177,-0.7792,-0.7792,0.0177,-0.0177,0.7792,0.7792,-0.0177,0.0*
%
%ADD264ROTATEDRECTD264*%

%ADD265R,1.0770X1.1270*%
%ADD266R,2.1570X3.3070*%
%ADD267R,0.8870X1.5270*%
%ADD268P,1.0281X4X360.0*%
G04:AMPARAMS|DCode=269|XSize=1.077mm|YSize=1.127mm|CornerRadius=0mm|HoleSize=0mm|Usage=FLASHONLY|Rotation=315.000|XOffset=0mm|YOffset=0mm|HoleType=Round|Shape=Rectangle|*
%AMROTATEDRECTD269*
4,1,4,-0.7792,-0.0177,0.0177,0.7792,0.7792,0.0177,-0.0177,-0.7792,-0.7792,-0.0177,0.0*
%
%ADD269ROTATEDRECTD269*%

%ADD270R,0.7270X0.9270*%
G04:AMPARAMS|DCode=271|XSize=1.077mm|YSize=1.127mm|CornerRadius=0mm|HoleSize=0mm|Usage=FLASHONLY|Rotation=225.000|XOffset=0mm|YOffset=0mm|HoleType=Round|Shape=Rectangle|*
%AMROTATEDRECTD271*
4,1,4,-0.0177,0.7792,0.7792,-0.0177,0.0177,-0.7792,-0.7792,0.0177,-0.0177,0.7792,0.0*
%
%ADD271ROTATEDRECTD271*%

%ADD272R,3.4770X3.4770*%
%ADD273O,0.4270X1.1770*%
%ADD274O,1.1770X0.4270*%
%ADD275R,1.3970X1.0414*%
%ADD276R,1.0414X1.0414*%
%ADD277R,1.9050X0.5334*%
%ADD278R,0.4270X1.1270*%
%ADD279R,3.5270X1.7270*%
%ADD280R,1.7270X3.5270*%
%ADD281R,0.7770X0.6270*%
%ADD282R,0.9270X1.1270*%
%ADD283O,1.6270X0.3970*%
%ADD284R,1.6270X0.3970*%
%ADD285R,1.4270X1.1270*%
%ADD286R,1.4270X0.7270*%
%ADD287R,1.0414X1.3970*%
%ADD288R,1.0414X1.0414*%
%ADD289O,0.7366X2.1590*%
%ADD290R,0.4270X0.9770*%
%ADD291R,2.6270X1.8770*%
%ADD292R,2.4270X4.4270*%
%ADD293O,0.4270X0.9270*%
%ADD294O,0.9270X0.4270*%
%ADD295O,1.6770X0.5770*%
%ADD296R,0.5770X0.4270*%
%ADD297R,1.6270X0.5770*%
%ADD298R,0.8890X0.8890*%
%ADD299R,0.7270X1.1770*%
%ADD300O,1.1270X0.4270*%
%ADD301R,1.1270X0.4270*%
%ADD302R,0.8270X0.3770*%
%ADD303R,0.3770X0.8270*%
%ADD304R,4.3270X4.3270*%
G04:AMPARAMS|DCode=305|XSize=0.727mm|YSize=1.677mm|CornerRadius=0mm|HoleSize=0mm|Usage=FLASHONLY|Rotation=225.000|XOffset=0mm|YOffset=0mm|HoleType=Round|Shape=Rectangle|*
%AMROTATEDRECTD305*
4,1,4,-0.3359,0.8499,0.8499,-0.3359,0.3359,-0.8499,-0.8499,0.3359,-0.3359,0.8499,0.0*
%
%ADD305ROTATEDRECTD305*%

%ADD306R,4.9270X5.2870*%
%ADD307R,0.6770X1.1270*%
%ADD308R,6.6270X6.6270*%
%ADD309R,1.6270X0.4270*%
%ADD310R,0.4270X1.6270*%
%ADD311O,0.4270X1.6270*%
%ADD312R,0.7770X1.1770*%
%ADD313O,2.1590X0.7366*%
%ADD314R,1.1770X0.7270*%
%ADD315R,1.1430X0.3770*%
%ADD316R,0.3770X1.1430*%
%ADD317O,0.3770X1.1430*%
%ADD318R,2.1270X0.7270*%
%ADD319R,0.8890X0.8890*%
%ADD320O,1.0270X0.4270*%
%ADD321O,0.4270X1.0270*%
%ADD322R,3.6770X3.6770*%
%ADD323R,1.2270X0.7270*%
%ADD324R,0.5770X1.6270*%
%ADD325R,1.9270X2.1270*%
%ADD326O,1.6270X0.4270*%
%ADD327R,0.8270X0.9270*%
%ADD328R,0.5270X0.5270*%
%ADD329R,1.5770X1.2770*%
%ADD330R,4.9270X6.5270*%
%ADD331R,1.6270X1.6270*%
%ADD332R,1.6270X1.6270*%
%ADD333P,2.3009X4X180.0*%
%ADD334C,0.6270*%
%ADD335R,1.3770X1.4770*%
%ADD336R,1.2270X1.0270*%
%ADD337C,2.1270*%
%ADD338C,5.1270*%
%ADD339C,1.6270*%
%ADD340C,0.8500*%
%ADD341C,0.6500*%
%ADD342C,1.9270*%
%ADD343C,6.1270*%
%ADD344C,3.3270*%
%ADD345O,11.1270X2.1270*%
%ADD346C,1.6000*%
%ADD347C,0.9270*%
%ADD348O,2.8270X1.8270*%
%ADD349O,1.6270X1.1270*%
%ADD350C,0.7270*%
%ADD351C,2.2270*%
%ADD352R,2.1270X0.6070*%
%ADD353R,1.0270X0.6070*%
%ADD354R,1.9770X3.5270*%
%ADD355R,1.5270X3.3270*%
%ADD356R,1.0770X1.0770*%
%ADD357R,2.6270X2.4770*%
%ADD358R,2.1270X1.6270*%
%ADD359R,2.9170X3.0470*%
%ADD360R,7.7470X3.3070*%
%ADD361R,1.3770X1.9770*%
%ADD362R,1.0770X0.6770*%
%ADD363O,0.4400X1.0400*%
%ADD364O,1.0400X0.4400*%
%ADD365R,2.6900X2.6900*%
G04:AMPARAMS|DCode=366|XSize=1.227mm|YSize=2.327mm|CornerRadius=0mm|HoleSize=0mm|Usage=FLASHONLY|Rotation=135.000|XOffset=0mm|YOffset=0mm|HoleType=Round|Shape=Rectangle|*
%AMROTATEDRECTD366*
4,1,4,1.2565,0.3889,-0.3889,-1.2565,-1.2565,-0.3889,0.3889,1.2565,1.2565,0.3889,0.0*
%
%ADD366ROTATEDRECTD366*%

G04:AMPARAMS|DCode=367|XSize=1.127mm|YSize=1.227mm|CornerRadius=0mm|HoleSize=0mm|Usage=FLASHONLY|Rotation=135.000|XOffset=0mm|YOffset=0mm|HoleType=Round|Shape=Rectangle|*
%AMROTATEDRECTD367*
4,1,4,0.8323,0.0354,-0.0354,-0.8323,-0.8323,-0.0354,0.0354,0.8323,0.8323,0.0354,0.0*
%
%ADD367ROTATEDRECTD367*%

%ADD368R,2.3270X1.2270*%
%ADD369R,1.2270X1.1270*%
%ADD370R,3.2770X1.1470*%
%ADD371C,0.4318*%
%ADD372C,1.1270*%
%ADD373R,1.6270X2.4270*%
%ADD374R,0.8270X0.4770*%
%ADD375C,0.7670*%
%ADD376R,0.7270X1.6770*%
%ADD377O,0.4270X1.0270*%
%ADD378R,5.6070X3.3670*%
%ADD379R,1.6770X0.7270*%
%ADD380R,3.6270X1.0270*%
%ADD381R,2.5270X1.0270*%
%ADD382R,1.1270X1.4270*%
%ADD383R,0.7270X1.4270*%
%ADD384R,1.5000X1.3500*%
%ADD385R,2.0000X1.2500*%
%ADD386R,1.2000X4.9750*%
%ADD387R,1.2000X5.3500*%
D10*
X1391608Y320526D02*
Y348974D01*
X1377892Y348974D02*
X1391608Y348974D01*
X1377892Y320526D02*
X1391608Y320526D01*
X1377892Y320526D02*
Y348974D01*
X1108358Y395526D02*
X1108358Y423974D01*
X1094642D02*
X1108358D01*
X1094642Y395526D02*
X1108358D01*
X1094642D02*
X1094642Y423974D01*
X978096Y-2728D02*
Y26228D01*
Y-2728D02*
X991304D01*
X978096Y26228D02*
X991304D01*
Y-2728D02*
Y26228D01*
X920648Y-422D02*
X965860D01*
X920648Y21422D02*
X965860D01*
Y-422D02*
Y21422D01*
X920648Y-422D02*
Y21422D01*
X1433104Y35022D02*
Y63978D01*
X1419896D02*
X1433104D01*
X1419896Y35022D02*
X1433104D01*
X1419896D02*
Y63978D01*
X1354250Y1098250D02*
X1380250D01*
X806500Y774500D02*
Y800500D01*
X1354294Y502745D02*
X1354295Y528745D01*
X1187528Y453661D02*
X1187528Y427661D01*
X1409672Y112106D02*
X1409672Y66894D01*
X1387828D02*
X1387828Y112106D01*
X1409672D01*
X1387828Y66894D02*
X1409672D01*
X1409396Y82772D02*
Y111728D01*
Y82772D02*
X1422604D01*
X1409396Y111728D02*
X1422604Y111728D01*
Y82772D02*
Y111728D01*
X1069828Y254352D02*
X1069828Y209140D01*
X1091672D02*
X1091672Y254352D01*
X1069828Y209140D02*
X1091672D01*
X1069828Y254352D02*
X1091672D01*
X1191672Y-8606D02*
X1191672Y36606D01*
X1169828D02*
X1169828Y-8606D01*
X1169828Y36606D02*
X1191672D01*
X1169828Y-8606D02*
X1191672D01*
X1191396Y7272D02*
Y36228D01*
Y7272D02*
X1204604D01*
X1191396Y36228D02*
X1204604D01*
Y7272D02*
Y36228D01*
X1174578Y209640D02*
X1174578Y254852D01*
X1196422D02*
X1196422Y209640D01*
X1174578D02*
X1196422D01*
X1174578Y254852D02*
X1196422D01*
X1071358Y160776D02*
Y189224D01*
X1057642D02*
X1071358D01*
X1057642Y160776D02*
X1071358D01*
X1057642D02*
Y189224D01*
X1091026Y461142D02*
X1119474D01*
X1119474Y474858D01*
X1091026Y461142D02*
Y474858D01*
X1119474Y474858D01*
X1371608Y320276D02*
Y348724D01*
X1357892D02*
X1371608D01*
X1357892Y320276D02*
X1371608D01*
X1357892D02*
Y348724D01*
X842642Y160526D02*
Y188974D01*
Y160526D02*
X856358D01*
X842642Y188974D02*
X856358D01*
Y160526D02*
Y188974D01*
X1092526Y433642D02*
X1120974D01*
X1120974Y447358D01*
X1092526Y433642D02*
X1092526Y447358D01*
X1120974Y447358D01*
X1153358Y243776D02*
Y272224D01*
X1139642D02*
X1153358D01*
X1139642Y243776D02*
X1153358D01*
X1139642D02*
Y272224D01*
X1173358Y243776D02*
Y272224D01*
X1159642Y272224D02*
X1173358Y272224D01*
X1159642Y243776D02*
X1173358D01*
X1159642D02*
Y272224D01*
X1613394Y1112422D02*
X1658606D01*
X1613394Y1090578D02*
X1658606Y1090578D01*
X1613394Y1112422D02*
X1613394Y1090578D01*
X1658606Y1112422D02*
X1658606Y1090578D01*
X1613394Y1089922D02*
X1658606Y1089922D01*
X1613394Y1068078D02*
X1658606D01*
X1613394D02*
X1613394Y1089922D01*
X1658606Y1068078D02*
X1658606Y1089922D01*
X1613394Y1067422D02*
X1658606D01*
X1613394Y1045578D02*
X1658606D01*
X1613394Y1067422D02*
X1613394Y1045578D01*
X1658606Y1067422D02*
X1658606Y1045578D01*
X1613394Y1044922D02*
X1658606D01*
X1613394Y1023078D02*
X1658606Y1023078D01*
X1613394Y1023078D02*
Y1044922D01*
X1658606D02*
X1658606Y1023078D01*
X1572828Y910144D02*
Y955356D01*
X1594672Y910144D02*
Y955356D01*
X1572828Y910144D02*
X1594672Y910144D01*
X1572828Y955356D02*
X1594672D01*
X1595328Y955356D02*
X1595328Y910144D01*
X1617172Y910144D02*
Y955356D01*
X1595328Y910144D02*
X1617172Y910144D01*
X1595328Y955356D02*
X1617172Y955356D01*
X1617828Y910144D02*
Y955356D01*
X1639672Y910144D02*
X1639672Y955356D01*
X1617828Y910144D02*
X1639672Y910144D01*
X1617828Y955356D02*
X1639672Y955356D01*
X1613394Y955578D02*
X1658606D01*
X1613394Y977422D02*
X1658606D01*
Y955578D02*
Y977422D01*
X1613394Y955578D02*
Y977422D01*
Y1000578D02*
X1658606D01*
X1613394Y1022422D02*
X1658606D01*
Y1000578D02*
Y1022422D01*
X1613394Y1000578D02*
Y1022422D01*
X1613394Y999922D02*
X1658606Y999922D01*
X1613394Y978078D02*
X1658606Y978078D01*
X1613394Y978078D02*
Y999922D01*
X1658606Y999922D02*
X1658606Y978078D01*
X1559142Y849526D02*
Y877974D01*
Y849526D02*
X1572858D01*
X1559142Y877974D02*
X1572858D01*
Y849526D02*
Y877974D01*
X1493526Y851108D02*
X1521974D01*
X1493526Y837392D02*
Y851108D01*
X1521974Y837392D02*
Y851108D01*
X1493526Y837392D02*
X1521974D01*
X1478642Y853026D02*
Y881474D01*
Y853026D02*
X1492358D01*
X1478642Y881474D02*
X1492358D01*
Y853026D02*
Y881474D01*
X1493642Y853026D02*
Y881474D01*
Y853026D02*
X1507358D01*
X1493642Y881474D02*
X1507358D01*
Y853026D02*
Y881474D01*
X1508642Y853026D02*
Y881474D01*
Y853026D02*
X1522358D01*
X1508642Y881474D02*
X1522358D01*
Y853026D02*
Y881474D01*
X331269Y197461D02*
X352103Y218295D01*
X342045Y228353D02*
X352103Y218295D01*
X321211Y207519D02*
X331269Y197461D01*
X321211Y207519D02*
X342045Y228353D01*
X832646Y1366022D02*
Y1394978D01*
Y1366022D02*
X845854D01*
X832646Y1394978D02*
X845854D01*
Y1366022D02*
Y1394978D01*
X1137436Y476838D02*
X1145056D01*
X1137690Y465662D02*
X1145056D01*
X855088Y137194D02*
Y144814D01*
X843912Y137194D02*
Y144560D01*
X1370338Y296724D02*
Y304344D01*
X1359162Y296724D02*
Y304090D01*
X1390338Y296724D02*
Y304344D01*
X1379162Y296724D02*
Y304090D01*
X1138436Y447338D02*
X1146056Y447338D01*
X1138690Y436162D02*
X1146056D01*
X1070088Y137474D02*
Y145094D01*
X1058912Y137474D02*
X1058912Y144840D01*
X1152088Y220224D02*
Y227844D01*
X1140912Y220224D02*
Y227590D01*
X1172088Y220194D02*
Y227814D01*
X1160912Y220194D02*
Y227560D01*
X118088Y1408974D02*
Y1416594D01*
X106912Y1408974D02*
Y1416340D01*
D11*
X1390995Y386585D02*
G03*
X1390995Y399285I0J6350D01*
G01*
X1224228Y311501D02*
G03*
X1224228Y324201I0J6350D01*
G01*
X1321456Y1276007D02*
G03*
X1321406Y1276626I2218J493D01*
G01*
X1318250Y835750D02*
G03*
X1319553Y835726I617J-1852D01*
G01*
X1104797Y1275887D02*
G03*
X1104746Y1276506I2218J493D01*
G01*
X995706Y1275878D02*
G03*
X995656Y1276497I2218J493D01*
G01*
X1212958Y1276011D02*
G03*
X1212908Y1276630I2218J493D01*
G01*
X1535250Y88500D02*
X1543250D01*
X1546000Y85750D01*
Y54250D02*
Y85750D01*
Y24000D02*
Y54250D01*
Y24000D02*
X1562250Y7750D01*
X1588558Y21098D02*
Y25670D01*
Y22368D02*
Y25670D01*
Y40402D01*
X1572810Y17750D02*
Y21098D01*
Y17750D02*
X1627166D01*
Y21352D01*
X1573318Y40402D02*
Y43750D01*
X1624626D01*
X1627166Y40402D02*
Y43750D01*
X1613958D02*
X1627166D01*
X805024Y282888D02*
X807145Y285009D01*
X814216Y277938D01*
X811388Y275110D02*
X814216Y277938D01*
X819520Y266978D02*
X819520Y259200D01*
X796185Y290312D02*
X819520Y266978D01*
X786285Y290312D02*
X796185Y290312D01*
X768254Y272281D02*
X786285Y290312D01*
X768254Y256018D02*
X768254Y272281D01*
X768254Y256018D02*
X783811Y240461D01*
X800781D01*
X819520Y259200D01*
X847000Y234750D02*
X850000Y234750D01*
X850000Y224750D01*
X846000D02*
X850000D01*
X840500Y207750D02*
X846000Y213250D01*
Y246250D01*
X839000Y253250D02*
X846000Y246250D01*
X813500Y253250D02*
X839000D01*
X802000Y241750D02*
X813500Y253250D01*
X802000Y219750D02*
X802000Y241750D01*
X802000Y219750D02*
X814000Y207750D01*
X840500D01*
X834000Y937750D02*
X837000D01*
Y927750D02*
Y937750D01*
X833000Y927750D02*
X837000D01*
X827500Y910750D02*
X833000Y916250D01*
Y949250D01*
X826000Y956250D02*
X833000Y949250D01*
X800500Y956250D02*
X826000D01*
X789000Y944750D02*
X800500Y956250D01*
X789000Y922750D02*
Y944750D01*
Y922750D02*
X801000Y910750D01*
X827500Y910750D01*
X834000Y892750D02*
X837000D01*
X837000Y882750D02*
X837000Y892750D01*
X833000Y882750D02*
X837000Y882750D01*
X827500Y865750D02*
X833000Y871250D01*
Y904250D01*
X826000Y911250D02*
X833000Y904250D01*
X800500Y911250D02*
X826000D01*
X789000Y899750D02*
X800500Y911250D01*
X789000Y877750D02*
Y899750D01*
Y877750D02*
X801000Y865750D01*
X827500D01*
X1390995Y399285D02*
X1390995Y405635D01*
X1390995Y386585D02*
X1390995Y380235D01*
X1441795Y380235D01*
X1441794Y405635D02*
X1441795Y380235D01*
X1390995Y405635D02*
X1441794Y405635D01*
X1224228Y330551D02*
X1224228Y324201D01*
X1224228Y305151D02*
X1224228Y311501D01*
X1224228Y305151D02*
X1275028Y305151D01*
X1275028Y330551D02*
X1275028Y305151D01*
X1224228Y330551D02*
X1275028Y330551D01*
X1326000Y862000D02*
X1353500D01*
X1332716Y834534D02*
X1332750Y834500D01*
X1353500D01*
X1329844Y834534D02*
X1332716D01*
X746584Y19976D02*
X756584Y29976D01*
X746584Y19976D02*
X756584Y9976D01*
Y29976D01*
X819250Y-306D02*
Y31694D01*
X763250Y-306D02*
X819250D01*
X763250Y32694D02*
X763250Y-306D01*
X819250Y46694D02*
Y51694D01*
X819250Y52694D01*
X819250Y72694D02*
X819250Y66694D01*
X819250Y86694D02*
X819250Y92694D01*
X819250Y112694D02*
X819250Y106694D01*
X819250Y126694D02*
X819250Y132694D01*
X819250Y146694D02*
Y152694D01*
Y199694D02*
X819250Y166694D01*
X763250Y199694D02*
X819250D01*
X763250Y166694D02*
X763250Y199694D01*
X769250Y5694D02*
Y32694D01*
Y5694D02*
X813250D01*
Y31694D01*
X813250Y46694D02*
X813250Y52694D01*
X813250Y72694D02*
X813250Y66694D01*
Y86694D02*
Y92694D01*
X813250Y106694D02*
Y112694D01*
Y126694D02*
X813250Y132694D01*
X813250Y146694D02*
Y152694D01*
Y166694D02*
X813250Y193694D01*
X768250D02*
X813250D01*
X768250Y166694D02*
Y193694D01*
X763250Y146694D02*
Y152694D01*
X768250Y146694D02*
Y152694D01*
Y126694D02*
Y132694D01*
X763250D02*
X763250Y126694D01*
X769250Y52694D02*
X769250Y46694D01*
X763250Y52694D02*
X763250Y46694D01*
X769250Y66694D02*
X769250Y72694D01*
X763250Y66694D02*
X763250Y72694D01*
X1471500Y371750D02*
Y467750D01*
X1462500Y371750D02*
X1471500D01*
X1461500Y363750D02*
X1461500Y371750D01*
X1461500Y363750D02*
X1481500D01*
Y373750D01*
Y463750D02*
Y468750D01*
X1471500D02*
X1481500D01*
X1608750Y357650D02*
Y453650D01*
X1617750D01*
X1618750Y461650D02*
X1618750Y453650D01*
X1598750Y461650D02*
X1618750Y461650D01*
X1598750Y451650D02*
X1598750Y461650D01*
Y356650D02*
Y361650D01*
Y356650D02*
X1608750D01*
X44250Y704500D02*
X47250D01*
X44250D02*
Y714500D01*
X48250D01*
Y726000D02*
X53750Y731500D01*
X48250Y693000D02*
Y726000D01*
Y693000D02*
X55250Y686000D01*
X80750D01*
X92250Y697500D01*
Y719500D01*
X80250Y731500D02*
X92250Y719500D01*
X53750Y731500D02*
X80250D01*
X948250Y303500D02*
X951250D01*
X948250D02*
Y313500D01*
X952250D01*
Y325000D02*
X957750Y330500D01*
X952250Y292000D02*
Y325000D01*
Y292000D02*
X959250Y285000D01*
X984750D01*
X996250Y296500D01*
Y318500D01*
X984250Y330500D02*
X996250Y318500D01*
X957750Y330500D02*
X984250D01*
X1046500Y312000D02*
X1049500D01*
Y302000D02*
Y312000D01*
X1045500Y302000D02*
X1049500D01*
X1040000Y285000D02*
X1045500Y290500D01*
Y323500D01*
X1038500Y330500D02*
X1045500Y323500D01*
X1013000Y330500D02*
X1038500D01*
X1001500Y319000D02*
X1013000Y330500D01*
X1001500Y297000D02*
Y319000D01*
Y297000D02*
X1013500Y285000D01*
X1040000D01*
D14*
X1158410Y495300D02*
Y500380D01*
X1181270Y485140D02*
Y486410D01*
X1158410Y471170D02*
Y476250D01*
Y500380D02*
X1169840D01*
X1158410Y471170D02*
X1169840D01*
X1140590Y408250D02*
X1140590Y403170D01*
X1117730Y417140D02*
Y418410D01*
X1140590Y432380D02*
X1140590Y427300D01*
X1129160Y403170D02*
X1140590Y403170D01*
X1129160Y432380D02*
X1140590D01*
D21*
X1431250Y92594D02*
X1441250D01*
X1431250D02*
Y112152D01*
X1441250D01*
Y92594D02*
Y112152D01*
X1422000Y112406D02*
X1432000D01*
Y92848D02*
Y112406D01*
X1422000Y92848D02*
X1432000D01*
X1422000D02*
Y112406D01*
X871906Y1383000D02*
Y1393000D01*
X852348Y1383000D02*
X871906Y1383000D01*
X852348Y1393000D02*
X852348Y1383000D01*
X852348Y1393000D02*
X871906Y1393000D01*
X1305500Y856656D02*
X1315500D01*
X1315500Y837098D02*
X1315500Y856656D01*
X1305500Y837098D02*
X1315500D01*
X1305500D02*
X1305500Y856656D01*
X871906Y1393000D02*
Y1403000D01*
X852348Y1393000D02*
X871906Y1393000D01*
X852348Y1403000D02*
X852348Y1393000D01*
X852348Y1403000D02*
X871906D01*
X823094Y1423000D02*
Y1433000D01*
X842652D01*
Y1423000D02*
Y1433000D01*
X823094Y1423000D02*
X842652D01*
X823094Y1423000D02*
X823094Y1413000D01*
X823094Y1423000D02*
X842652D01*
Y1413000D02*
Y1423000D01*
X823094Y1413000D02*
X842652Y1413000D01*
X823094Y1403000D02*
Y1413000D01*
X842652Y1413000D01*
Y1403000D02*
Y1413000D01*
X823094Y1403000D02*
X842652D01*
X371906Y1295250D02*
Y1305250D01*
X352348Y1295250D02*
X371906D01*
X352348D02*
Y1305250D01*
X371906D01*
X396906Y1319500D02*
Y1329500D01*
X377348Y1319500D02*
X396906D01*
X377348D02*
Y1329500D01*
X396906D01*
X396906Y1309250D02*
Y1319250D01*
X377348Y1309250D02*
X396906D01*
X377348D02*
Y1319250D01*
X396906D01*
X396906Y1298500D02*
Y1308500D01*
X377348Y1298500D02*
X396906D01*
X377348D02*
Y1308500D01*
X396906D01*
X991250Y26906D02*
X1001250D01*
Y7348D02*
Y26906D01*
X991250Y7348D02*
X1001250D01*
X991250D02*
Y26906D01*
X1000500Y7094D02*
X1010500D01*
X1000500D02*
Y26652D01*
X1010500D01*
Y7094D02*
Y26652D01*
X1204000Y36906D02*
X1214000D01*
Y17348D02*
Y36906D01*
X1204000Y17348D02*
X1214000D01*
X1204000D02*
Y36906D01*
X1213000Y17094D02*
X1223000D01*
X1213000D02*
Y36652D01*
X1223000D01*
Y17094D02*
Y36652D01*
X396906Y1247250D02*
Y1257250D01*
X377348Y1247250D02*
X396906D01*
X377348D02*
Y1257250D01*
X396906D01*
X396906Y1257750D02*
Y1267750D01*
X377348Y1257750D02*
X396906D01*
X377348D02*
Y1267750D01*
X396906D01*
X396906Y1267250D02*
Y1277250D01*
X377348Y1267250D02*
X396906D01*
X377348D02*
Y1277250D01*
X396906D01*
Y1276250D02*
Y1286250D01*
X377348Y1276250D02*
X396906D01*
X377348D02*
Y1286250D01*
X396906D01*
X466844Y171250D02*
Y181250D01*
X486402D01*
Y171250D02*
Y181250D01*
X466844Y171250D02*
X486402D01*
X556594Y869500D02*
Y879500D01*
X576152D01*
Y869500D02*
Y879500D01*
X556594Y869500D02*
X576152D01*
X558844Y180000D02*
X558844Y170000D01*
X558844Y180000D02*
X578402D01*
Y170000D02*
Y180000D01*
X558844Y170000D02*
X578402Y170000D01*
X555406Y871000D02*
Y881000D01*
X535848Y871000D02*
X555406D01*
X535848D02*
Y881000D01*
X555406D01*
X557656Y171500D02*
Y181500D01*
X538098Y171500D02*
X557656D01*
X538098D02*
Y181500D01*
X557656D01*
X556594Y831500D02*
Y841500D01*
X576152D01*
Y831500D02*
Y841500D01*
X556594Y831500D02*
X576152D01*
X558844Y132000D02*
Y142000D01*
X578402Y142000D01*
Y132000D02*
Y142000D01*
X558844Y132000D02*
X578402Y132000D01*
X871906Y1403000D02*
Y1413000D01*
X852348Y1403000D02*
X871906Y1403000D01*
X852348Y1403000D02*
Y1413000D01*
X871906Y1413000D01*
Y1423000D01*
X852348Y1413000D02*
X871906D01*
X852348D02*
Y1423000D01*
X871906D01*
Y1423000D02*
Y1433000D01*
X852348Y1423000D02*
X871906D01*
X852348D02*
Y1433000D01*
X871906D01*
X675906Y1393250D02*
Y1403250D01*
X656348Y1393250D02*
X675906Y1393250D01*
X656348Y1393250D02*
Y1403250D01*
X675906Y1403250D01*
X675906D02*
Y1413250D01*
X656348Y1403250D02*
X675906D01*
X656348D02*
Y1413250D01*
X675906D01*
X708656Y1410500D02*
Y1420500D01*
X689098Y1410500D02*
X708656D01*
X689098D02*
Y1420500D01*
X708656D01*
X1523344Y1200250D02*
Y1210250D01*
X1542902Y1210250D01*
Y1200250D02*
Y1210250D01*
X1523344Y1200250D02*
X1542902Y1200250D01*
X1544250Y1176844D02*
X1554250D01*
X1544250Y1196402D02*
X1544250Y1176844D01*
X1544250Y1196402D02*
X1554250D01*
X1554250Y1176844D01*
X1565594Y101500D02*
Y111500D01*
X1585152D01*
Y101500D02*
Y111500D01*
X1565594Y101500D02*
X1585152D01*
X1563844Y208750D02*
Y218750D01*
X1583402D01*
Y208750D02*
Y218750D01*
X1563844Y208750D02*
X1583402D01*
X1525383Y1313571D02*
X1544941D01*
Y1323571D01*
X1525383D02*
X1544941D01*
X1525383Y1313571D02*
Y1323571D01*
X1556289Y1290165D02*
Y1309723D01*
X1546289D02*
X1556289D01*
X1546289Y1290165D02*
Y1309723D01*
Y1290165D02*
X1556289D01*
X1625336Y1242497D02*
X1628668D01*
X1627002D01*
Y1234166D01*
X1628668Y1232500D01*
X1630334D01*
X1632000Y1234166D01*
X1617005Y1232500D02*
Y1242497D01*
X1622003Y1237498D01*
X1615339D01*
X1612007Y1242497D02*
Y1232500D01*
X1607008D01*
X1605342Y1234166D01*
Y1235832D01*
X1607008Y1237498D01*
X1612007D01*
X1607008D01*
X1605342Y1239165D01*
Y1240831D01*
X1607008Y1242497D01*
X1612007D01*
X1595572Y1328219D02*
X1592240D01*
X1593906D01*
Y1318222D01*
X1595572D01*
X1592240D01*
X1580577Y1326552D02*
X1582243Y1328219D01*
X1585576D01*
X1587242Y1326552D01*
Y1319888D01*
X1585576Y1318222D01*
X1582243D01*
X1580577Y1319888D01*
X1570580Y1328219D02*
X1573913Y1326552D01*
X1577245Y1323220D01*
Y1319888D01*
X1575579Y1318222D01*
X1572247D01*
X1570580Y1319888D01*
Y1321554D01*
X1572247Y1323220D01*
X1577245D01*
X1567248Y1326552D02*
X1565582Y1328219D01*
X1562250D01*
X1560584Y1326552D01*
Y1324886D01*
X1562250Y1323220D01*
X1563916D01*
X1562250D01*
X1560584Y1321554D01*
Y1319888D01*
X1562250Y1318222D01*
X1565582D01*
X1567248Y1319888D01*
X1557251Y1328219D02*
Y1318222D01*
X1552253D01*
X1550587Y1319888D01*
Y1321554D01*
X1552253Y1323220D01*
X1557251D01*
X1552253D01*
X1550587Y1324886D01*
Y1326552D01*
X1552253Y1328219D01*
X1557251D01*
X1025335Y345497D02*
X1028668D01*
X1027002D01*
Y337166D01*
X1028668Y335500D01*
X1030334D01*
X1032000Y337166D01*
X1022003Y335500D02*
X1018671D01*
X1020337D01*
Y345497D01*
X1022003Y343831D01*
X1013673Y335500D02*
X1010340D01*
X1012006D01*
Y345497D01*
X1013673Y343831D01*
X972586Y346497D02*
X975918D01*
X974252D01*
Y338166D01*
X975918Y336500D01*
X977584D01*
X979250Y338166D01*
X969253Y346497D02*
X962589D01*
Y344831D01*
X969253Y338166D01*
Y336500D01*
X99223Y739400D02*
X102556D01*
X100890D01*
Y731069D01*
X102556Y729403D01*
X104222D01*
X105888Y731069D01*
X89227Y739400D02*
X95891D01*
Y734401D01*
X92559Y736067D01*
X90893D01*
X89227Y734401D01*
Y731069D01*
X90893Y729403D01*
X94225D01*
X95891Y731069D01*
X900250Y24997D02*
X893586D01*
X896918D01*
Y15000D01*
X890253D02*
X886921D01*
X888587D01*
Y24997D01*
X890253Y23331D01*
X886500Y681747D02*
Y671750D01*
Y676748D01*
X879836D01*
Y681747D01*
Y671750D01*
X876503D02*
Y681747D01*
X871505D01*
X869839Y680081D01*
Y676748D01*
X871505Y675082D01*
X876503D01*
X859842Y680081D02*
X861508Y681747D01*
X864840D01*
X866506Y680081D01*
Y673416D01*
X864840Y671750D01*
X861508D01*
X859842Y673416D01*
X849845Y671750D02*
X856510D01*
X849845Y678415D01*
Y680081D01*
X851511Y681747D01*
X854844D01*
X856510Y680081D01*
X833184Y671750D02*
X836516Y675082D01*
Y678415D01*
X833184Y681747D01*
X821521D02*
X824853D01*
X823187D01*
Y673416D01*
X824853Y671750D01*
X826519D01*
X828186Y673416D01*
X818189Y671750D02*
X814856D01*
X816523D01*
Y681747D01*
X818189Y680081D01*
X809858Y681747D02*
Y671750D01*
X804860D01*
X803194Y673416D01*
Y675082D01*
X804860Y676748D01*
X809858D01*
X804860D01*
X803194Y678415D01*
Y680081D01*
X804860Y681747D01*
X809858D01*
X799861Y671750D02*
X796529Y675082D01*
Y678415D01*
X799861Y681747D01*
X1593533Y1214898D02*
X1590201D01*
X1591867D01*
Y1204901D01*
X1593533D01*
X1590201D01*
X1578538Y1213232D02*
X1580204Y1214898D01*
X1583536D01*
X1585202Y1213232D01*
Y1206567D01*
X1583536Y1204901D01*
X1580204D01*
X1578538Y1206567D01*
X1568541Y1214898D02*
X1571873Y1213232D01*
X1575206Y1209899D01*
Y1206567D01*
X1573539Y1204901D01*
X1570207D01*
X1568541Y1206567D01*
Y1208233D01*
X1570207Y1209899D01*
X1575206D01*
X1565209Y1213232D02*
X1563543Y1214898D01*
X1560210D01*
X1558544Y1213232D01*
Y1211565D01*
X1560210Y1209899D01*
X1561877D01*
X1560210D01*
X1558544Y1208233D01*
Y1206567D01*
X1560210Y1204901D01*
X1563543D01*
X1565209Y1206567D01*
X1555212Y1204901D02*
Y1211565D01*
X1551880Y1214898D01*
X1548548Y1211565D01*
Y1204901D01*
Y1209899D01*
X1555212D01*
X1565836Y498497D02*
X1569168D01*
X1567502D01*
Y490166D01*
X1569168Y488500D01*
X1570834D01*
X1572500Y490166D01*
X1562503Y488500D02*
X1559171D01*
X1560837D01*
Y498497D01*
X1562503Y496831D01*
X1549174Y488500D02*
Y498497D01*
X1554173Y493498D01*
X1547508D01*
X1523336Y501997D02*
X1526668D01*
X1525002D01*
Y493666D01*
X1526668Y492000D01*
X1528334D01*
X1530000Y493666D01*
X1520003Y492000D02*
X1516671D01*
X1518337D01*
Y501997D01*
X1520003Y500331D01*
X1511673D02*
X1510006Y501997D01*
X1506674D01*
X1505008Y500331D01*
Y498665D01*
X1506674Y496998D01*
X1508340D01*
X1506674D01*
X1505008Y495332D01*
Y493666D01*
X1506674Y492000D01*
X1510006D01*
X1511673Y493666D01*
X534500Y123997D02*
X531168D01*
X532834D01*
Y114000D01*
X534500D01*
X531168D01*
X519505Y122331D02*
X521171Y123997D01*
X524503D01*
X526169Y122331D01*
Y115666D01*
X524503Y114000D01*
X521171D01*
X519505Y115666D01*
X511174Y114000D02*
Y123997D01*
X516173Y118998D01*
X509508D01*
X506176Y115666D02*
X504510Y114000D01*
X501177D01*
X499511Y115666D01*
Y122331D01*
X501177Y123997D01*
X504510D01*
X506176Y122331D01*
Y120665D01*
X504510Y118998D01*
X499511D01*
X536500Y823497D02*
X533168D01*
X534834D01*
Y813500D01*
X536500D01*
X533168D01*
X521505Y821831D02*
X523171Y823497D01*
X526503D01*
X528169Y821831D01*
Y815166D01*
X526503Y813500D01*
X523171D01*
X521505Y815166D01*
X511508Y823497D02*
X514840Y821831D01*
X518173Y818498D01*
Y815166D01*
X516506Y813500D01*
X513174D01*
X511508Y815166D01*
Y816832D01*
X513174Y818498D01*
X518173D01*
X501511Y823497D02*
X504843Y821831D01*
X508176Y818498D01*
Y815166D01*
X506510Y813500D01*
X503177D01*
X501511Y815166D01*
Y816832D01*
X503177Y818498D01*
X508176D01*
X534500Y163247D02*
X531168D01*
X532834D01*
Y153250D01*
X534500D01*
X531168D01*
X519505Y161581D02*
X521171Y163247D01*
X524503D01*
X526169Y161581D01*
Y154916D01*
X524503Y153250D01*
X521171D01*
X519505Y154916D01*
X511174Y153250D02*
Y163247D01*
X516173Y158248D01*
X509508D01*
X506176Y163247D02*
X499511D01*
Y161581D01*
X506176Y154916D01*
Y153250D01*
X536194Y857598D02*
X532862D01*
X534528D01*
Y847601D01*
X536194D01*
X532862D01*
X521199Y855932D02*
X522865Y857598D01*
X526197D01*
X527863Y855932D01*
Y849268D01*
X526197Y847601D01*
X522865D01*
X521199Y849268D01*
X512868Y847601D02*
Y857598D01*
X517867Y852600D01*
X511202D01*
X501205Y857598D02*
X504538Y855932D01*
X507870Y852600D01*
Y849268D01*
X506204Y847601D01*
X502871D01*
X501205Y849268D01*
Y850934D01*
X502871Y852600D01*
X507870D01*
X127250Y1388997D02*
Y1379000D01*
X120585D01*
X110589Y1388997D02*
X117253D01*
Y1379000D01*
X110589D01*
X117253Y1383998D02*
X113921D01*
X107256Y1388997D02*
Y1379000D01*
X102258D01*
X100592Y1380666D01*
Y1387331D01*
X102258Y1388997D01*
X107256D01*
X97260Y1379000D02*
X93927D01*
X95594D01*
Y1388997D01*
X97260Y1387331D01*
X88929Y1388997D02*
X82264D01*
Y1387331D01*
X88929Y1380666D01*
Y1379000D01*
X1547750Y201247D02*
X1544418D01*
X1546084D01*
Y191250D01*
X1547750D01*
X1544418D01*
X1532755Y199581D02*
X1534421Y201247D01*
X1537753D01*
X1539419Y199581D01*
Y192916D01*
X1537753Y191250D01*
X1534421D01*
X1532755Y192916D01*
X1524424Y191250D02*
Y201247D01*
X1529423Y196248D01*
X1522758D01*
X1519426Y199581D02*
X1517760Y201247D01*
X1514427D01*
X1512761Y199581D01*
Y192916D01*
X1514427Y191250D01*
X1517760D01*
X1519426Y192916D01*
Y199581D01*
X1272750Y1420247D02*
X1269418D01*
X1271084D01*
Y1410250D01*
X1272750D01*
X1269418D01*
X1257755Y1418581D02*
X1259421Y1420247D01*
X1262753D01*
X1264419Y1418581D01*
Y1411916D01*
X1262753Y1410250D01*
X1259421D01*
X1257755Y1411916D01*
X1247758Y1410250D02*
X1254423D01*
X1247758Y1416915D01*
Y1418581D01*
X1249424Y1420247D01*
X1252756D01*
X1254423Y1418581D01*
X1237761Y1420247D02*
X1241094Y1418581D01*
X1244426Y1415248D01*
Y1411916D01*
X1242760Y1410250D01*
X1239427D01*
X1237761Y1411916D01*
Y1413582D01*
X1239427Y1415248D01*
X1244426D01*
X1050000Y1419997D02*
X1046668D01*
X1048334D01*
Y1410000D01*
X1050000D01*
X1046668D01*
X1035005Y1418331D02*
X1036671Y1419997D01*
X1040003D01*
X1041669Y1418331D01*
Y1411666D01*
X1040003Y1410000D01*
X1036671D01*
X1035005Y1411666D01*
X1025008Y1410000D02*
X1031673D01*
X1025008Y1416664D01*
Y1418331D01*
X1026674Y1419997D01*
X1030006D01*
X1031673Y1418331D01*
X1016677Y1410000D02*
Y1419997D01*
X1021676Y1414998D01*
X1015011D01*
X1157250Y1420247D02*
X1153918D01*
X1155584D01*
Y1410250D01*
X1157250D01*
X1153918D01*
X1142255Y1418581D02*
X1143921Y1420247D01*
X1147253D01*
X1148919Y1418581D01*
Y1411916D01*
X1147253Y1410250D01*
X1143921D01*
X1142255Y1411916D01*
X1138923Y1410250D02*
X1135590D01*
X1137256D01*
Y1420247D01*
X1138923Y1418581D01*
X1123927Y1420247D02*
X1127260Y1418581D01*
X1130592Y1415248D01*
Y1411916D01*
X1128926Y1410250D01*
X1125594D01*
X1123927Y1411916D01*
Y1413582D01*
X1125594Y1415248D01*
X1130592D01*
X1493336Y-6003D02*
X1496668D01*
X1495002D01*
Y-14334D01*
X1496668Y-16000D01*
X1498334D01*
X1500000Y-14334D01*
X1483339Y-16000D02*
X1490003D01*
X1483339Y-9336D01*
Y-7669D01*
X1485005Y-6003D01*
X1488337D01*
X1490003Y-7669D01*
X720835Y17747D02*
X724168D01*
X722502D01*
Y9416D01*
X724168Y7750D01*
X725834D01*
X727500Y9416D01*
X710839Y17747D02*
X714171Y16081D01*
X717503Y12748D01*
Y9416D01*
X715837Y7750D01*
X712505D01*
X710839Y9416D01*
Y11082D01*
X712505Y12748D01*
X717503D01*
X1627336Y1127247D02*
X1630668D01*
X1629002D01*
Y1118916D01*
X1630668Y1117250D01*
X1632334D01*
X1634000Y1118916D01*
X1619005Y1117250D02*
Y1127247D01*
X1624003Y1122248D01*
X1617339D01*
X1614006Y1117250D02*
Y1123914D01*
X1610674Y1127247D01*
X1607342Y1123914D01*
Y1117250D01*
Y1122248D01*
X1614006D01*
X1459750Y1122247D02*
X1456418D01*
X1458084D01*
Y1112250D01*
X1459750D01*
X1456418D01*
X1444755Y1120581D02*
X1446421Y1122247D01*
X1449753D01*
X1451419Y1120581D01*
Y1113916D01*
X1449753Y1112250D01*
X1446421D01*
X1444755Y1113916D01*
X1441423Y1120581D02*
X1439756Y1122247D01*
X1436424D01*
X1434758Y1120581D01*
Y1118914D01*
X1436424Y1117248D01*
X1438090D01*
X1436424D01*
X1434758Y1115582D01*
Y1113916D01*
X1436424Y1112250D01*
X1439756D01*
X1441423Y1113916D01*
X1431426Y1120581D02*
X1429760Y1122247D01*
X1426427D01*
X1424761Y1120581D01*
Y1118914D01*
X1426427Y1117248D01*
X1428094D01*
X1426427D01*
X1424761Y1115582D01*
Y1113916D01*
X1426427Y1112250D01*
X1429760D01*
X1431426Y1113916D01*
X265000Y362747D02*
X261668D01*
X263334D01*
Y352750D01*
X265000D01*
X261668D01*
X250005Y361081D02*
X251671Y362747D01*
X255003D01*
X256669Y361081D01*
Y354416D01*
X255003Y352750D01*
X251671D01*
X250005Y354416D01*
X246673Y361081D02*
X245006Y362747D01*
X241674D01*
X240008Y361081D01*
Y359414D01*
X241674Y357748D01*
X243340D01*
X241674D01*
X240008Y356082D01*
Y354416D01*
X241674Y352750D01*
X245006D01*
X246673Y354416D01*
X236676Y352750D02*
X233344D01*
X235010D01*
Y362747D01*
X236676Y361081D01*
X309750Y1103747D02*
X306418D01*
X308084D01*
Y1093750D01*
X309750D01*
X306418D01*
X294755Y1102081D02*
X296421Y1103747D01*
X299753D01*
X301419Y1102081D01*
Y1095416D01*
X299753Y1093750D01*
X296421D01*
X294755Y1095416D01*
X291423Y1102081D02*
X289756Y1103747D01*
X286424D01*
X284758Y1102081D01*
Y1100415D01*
X286424Y1098748D01*
X288090D01*
X286424D01*
X284758Y1097082D01*
Y1095416D01*
X286424Y1093750D01*
X289756D01*
X291423Y1095416D01*
X281426Y1102081D02*
X279760Y1103747D01*
X276427D01*
X274761Y1102081D01*
Y1095416D01*
X276427Y1093750D01*
X279760D01*
X281426Y1095416D01*
Y1102081D01*
X1499500Y955997D02*
X1496168D01*
X1497834D01*
Y946000D01*
X1499500D01*
X1496168D01*
X1484505Y954331D02*
X1486171Y955997D01*
X1489503D01*
X1491169Y954331D01*
Y947666D01*
X1489503Y946000D01*
X1486171D01*
X1484505Y947666D01*
X1481173Y946000D02*
X1477840D01*
X1479506D01*
Y955997D01*
X1481173Y954331D01*
X1467843Y946000D02*
Y955997D01*
X1472842Y950998D01*
X1466177D01*
X1253750Y41497D02*
X1247085D01*
X1250418D01*
Y31500D01*
X1237089Y41497D02*
X1240421Y39831D01*
X1243753Y36498D01*
Y33166D01*
X1242087Y31500D01*
X1238755D01*
X1237089Y33166D01*
Y34832D01*
X1238755Y36498D01*
X1243753D01*
X1117500Y37997D02*
X1110835D01*
X1114168D01*
Y28000D01*
X1100839Y37997D02*
X1107503D01*
Y32998D01*
X1104171Y34664D01*
X1102505D01*
X1100839Y32998D01*
Y29666D01*
X1102505Y28000D01*
X1105837D01*
X1107503Y29666D01*
X1505250Y187247D02*
X1498586D01*
X1501918D01*
Y177250D01*
X1490255D02*
Y187247D01*
X1495253Y182248D01*
X1488589D01*
X1334500Y113747D02*
X1327836D01*
X1331168D01*
Y103750D01*
X1324503Y112081D02*
X1322837Y113747D01*
X1319505D01*
X1317839Y112081D01*
Y110414D01*
X1319505Y108748D01*
X1321171D01*
X1319505D01*
X1317839Y107082D01*
Y105416D01*
X1319505Y103750D01*
X1322837D01*
X1324503Y105416D01*
X1039250Y27997D02*
X1032586D01*
X1035918D01*
Y18000D01*
X1022589D02*
X1029253D01*
X1022589Y24664D01*
Y26331D01*
X1024255Y27997D01*
X1027587D01*
X1029253Y26331D01*
X781086Y1360997D02*
X784418D01*
X782752D01*
Y1352666D01*
X784418Y1351000D01*
X786084D01*
X787750Y1352666D01*
X777753Y1351000D02*
Y1360997D01*
X772755D01*
X771089Y1359331D01*
Y1355998D01*
X772755Y1354332D01*
X777753D01*
X761092Y1351000D02*
X767757D01*
X761092Y1357664D01*
Y1359331D01*
X762758Y1360997D01*
X766090D01*
X767757Y1359331D01*
X885335Y542747D02*
X888668D01*
X887002D01*
Y534416D01*
X888668Y532750D01*
X890334D01*
X892000Y534416D01*
X882003Y532750D02*
Y542747D01*
X877005D01*
X875339Y541081D01*
Y537748D01*
X877005Y536082D01*
X882003D01*
X872006Y532750D02*
X868674D01*
X870340D01*
Y542747D01*
X872006Y541081D01*
X1193250Y112497D02*
X1189918D01*
X1191584D01*
Y102500D01*
X1193250D01*
X1189918D01*
X1178255Y110831D02*
X1179921Y112497D01*
X1183253D01*
X1184919Y110831D01*
Y104166D01*
X1183253Y102500D01*
X1179921D01*
X1178255Y104166D01*
X1174923Y102500D02*
X1171590D01*
X1173256D01*
Y112497D01*
X1174923Y110831D01*
X1159927Y102500D02*
X1166592D01*
X1159927Y109164D01*
Y110831D01*
X1161593Y112497D01*
X1164926D01*
X1166592Y110831D01*
X1410750Y189497D02*
X1407418D01*
X1409084D01*
Y179500D01*
X1410750D01*
X1407418D01*
X1395755Y187831D02*
X1397421Y189497D01*
X1400753D01*
X1402419Y187831D01*
Y181166D01*
X1400753Y179500D01*
X1397421D01*
X1395755Y181166D01*
X1392423Y179500D02*
X1389090D01*
X1390757D01*
Y189497D01*
X1392423Y187831D01*
X1384092D02*
X1382426Y189497D01*
X1379094D01*
X1377427Y187831D01*
Y181166D01*
X1379094Y179500D01*
X1382426D01*
X1384092Y181166D01*
Y187831D01*
X1681250Y186747D02*
X1677918D01*
X1679584D01*
Y176750D01*
X1681250D01*
X1677918D01*
X1666255Y185081D02*
X1667921Y186747D01*
X1671253D01*
X1672919Y185081D01*
Y178416D01*
X1671253Y176750D01*
X1667921D01*
X1666255Y178416D01*
X1656258Y186747D02*
X1662923D01*
Y181748D01*
X1659590Y183414D01*
X1657924D01*
X1656258Y181748D01*
Y178416D01*
X1657924Y176750D01*
X1661256D01*
X1662923Y178416D01*
X1299750Y1233247D02*
X1296418D01*
X1298084D01*
Y1223250D01*
X1299750D01*
X1296418D01*
X1284755Y1231581D02*
X1286421Y1233247D01*
X1289753D01*
X1291419Y1231581D01*
Y1224916D01*
X1289753Y1223250D01*
X1286421D01*
X1284755Y1224916D01*
X1274758Y1223250D02*
X1281423D01*
X1274758Y1229914D01*
Y1231581D01*
X1276424Y1233247D01*
X1279756D01*
X1281423Y1231581D01*
X887000Y741247D02*
Y731250D01*
Y736248D01*
X880335D01*
Y741247D01*
Y731250D01*
X877003D02*
Y741247D01*
X872005D01*
X870339Y739581D01*
Y736248D01*
X872005Y734582D01*
X877003D01*
X860342Y739581D02*
X862008Y741247D01*
X865340D01*
X867006Y739581D01*
Y732916D01*
X865340Y731250D01*
X862008D01*
X860342Y732916D01*
X857010Y731250D02*
X853677D01*
X855343D01*
Y741247D01*
X857010Y739581D01*
X835350Y731250D02*
X838682Y734582D01*
Y737915D01*
X835350Y741247D01*
X823687D02*
X827019D01*
X825353D01*
Y732916D01*
X827019Y731250D01*
X828686D01*
X830352Y732916D01*
X820355Y731250D02*
X817023D01*
X818689D01*
Y741247D01*
X820355Y739581D01*
X812024Y731250D02*
Y737915D01*
X808692Y741247D01*
X805360Y737915D01*
Y731250D01*
Y736248D01*
X812024D01*
X802027Y731250D02*
X798695Y734582D01*
Y737915D01*
X802027Y741247D01*
X1344000Y880247D02*
X1340668D01*
X1342334D01*
Y870250D01*
X1344000D01*
X1340668D01*
X1329005Y878581D02*
X1330671Y880247D01*
X1334003D01*
X1335669Y878581D01*
Y871916D01*
X1334003Y870250D01*
X1330671D01*
X1329005Y871916D01*
X1325673Y870250D02*
X1322340D01*
X1324006D01*
Y880247D01*
X1325673Y878581D01*
X1317342D02*
X1315676Y880247D01*
X1312344D01*
X1310677Y878581D01*
Y876915D01*
X1312344Y875248D01*
X1310677Y873582D01*
Y871916D01*
X1312344Y870250D01*
X1315676D01*
X1317342Y871916D01*
Y873582D01*
X1315676Y875248D01*
X1317342Y876915D01*
Y878581D01*
X1315676Y875248D02*
X1312344D01*
X1378750Y1420247D02*
X1375418D01*
X1377084D01*
Y1410250D01*
X1378750D01*
X1375418D01*
X1363755Y1418581D02*
X1365421Y1420247D01*
X1368753D01*
X1370419Y1418581D01*
Y1411916D01*
X1368753Y1410250D01*
X1365421D01*
X1363755Y1411916D01*
X1360423Y1410250D02*
X1357090D01*
X1358756D01*
Y1420247D01*
X1360423Y1418581D01*
X1345427Y1420247D02*
X1352092D01*
Y1415248D01*
X1348760Y1416915D01*
X1347094D01*
X1345427Y1415248D01*
Y1411916D01*
X1347094Y1410250D01*
X1350426D01*
X1352092Y1411916D01*
X889585Y430331D02*
X891252Y431997D01*
X894584D01*
X896250Y430331D01*
Y423666D01*
X894584Y422000D01*
X891252D01*
X889585Y423666D01*
X881255Y431997D02*
X884587D01*
X886253Y430331D01*
Y423666D01*
X884587Y422000D01*
X881255D01*
X879589Y423666D01*
Y430331D01*
X881255Y431997D01*
X876256Y422000D02*
Y431997D01*
X869592Y422000D01*
Y431997D01*
X866260Y422000D02*
X862927D01*
X864594D01*
Y431997D01*
X866260Y430331D01*
X1292500Y372747D02*
X1289168D01*
X1290834D01*
Y362750D01*
X1292500D01*
X1289168D01*
X1277505Y371081D02*
X1279171Y372747D01*
X1282503D01*
X1284169Y371081D01*
Y364416D01*
X1282503Y362750D01*
X1279171D01*
X1277505Y364416D01*
X1267508Y372747D02*
X1274173D01*
Y367748D01*
X1270840Y369414D01*
X1269174D01*
X1267508Y367748D01*
Y364416D01*
X1269174Y362750D01*
X1272506D01*
X1274173Y364416D01*
X1257511Y372747D02*
X1264176D01*
Y367748D01*
X1260844Y369414D01*
X1259177D01*
X1257511Y367748D01*
Y364416D01*
X1259177Y362750D01*
X1262510D01*
X1264176Y364416D01*
X1435500Y348247D02*
X1432168D01*
X1433834D01*
Y338250D01*
X1435500D01*
X1432168D01*
X1420505Y346581D02*
X1422171Y348247D01*
X1425503D01*
X1427169Y346581D01*
Y339916D01*
X1425503Y338250D01*
X1422171D01*
X1420505Y339916D01*
X1410508Y348247D02*
X1417173D01*
Y343248D01*
X1413840Y344915D01*
X1412174D01*
X1410508Y343248D01*
Y339916D01*
X1412174Y338250D01*
X1415506D01*
X1417173Y339916D01*
X1407176Y348247D02*
X1400511D01*
Y346581D01*
X1407176Y339916D01*
Y338250D01*
X786585Y869247D02*
X789918D01*
X788252D01*
Y860916D01*
X789918Y859250D01*
X791584D01*
X793250Y860916D01*
X783253Y867581D02*
X781587Y869247D01*
X778255D01*
X776589Y867581D01*
Y865915D01*
X778255Y864248D01*
X779921D01*
X778255D01*
X776589Y862582D01*
Y860916D01*
X778255Y859250D01*
X781587D01*
X783253Y860916D01*
X782586Y965247D02*
X785918D01*
X784252D01*
Y956916D01*
X785918Y955250D01*
X787584D01*
X789250Y956916D01*
X779253Y963581D02*
X777587Y965247D01*
X774255D01*
X772589Y963581D01*
Y961915D01*
X774255Y960248D01*
X772589Y958582D01*
Y956916D01*
X774255Y955250D01*
X777587D01*
X779253Y956916D01*
Y958582D01*
X777587Y960248D01*
X779253Y961915D01*
Y963581D01*
X777587Y960248D02*
X774255D01*
X842856Y272031D02*
X845212Y269675D01*
X844034Y270853D01*
X838144Y264963D01*
Y262606D01*
X839322Y261428D01*
X841678D01*
X834609Y268497D02*
X832253D01*
X829897Y270853D01*
Y273209D01*
X834609Y277922D01*
X836966Y277922D01*
X839322Y275566D01*
Y273209D01*
X838144Y272031D01*
X835788Y272031D01*
X832253Y275566D01*
X803106Y308531D02*
X805462Y306175D01*
X804284Y307353D01*
X798394Y301462D01*
Y299106D01*
X799572Y297928D01*
X801928D01*
X793681Y303819D02*
X791325Y306175D01*
X792503Y304997D01*
X799572Y312066D01*
Y309709D01*
X793681Y315600D02*
Y317956D01*
X791325Y320313D01*
X788969Y320313D01*
X784256Y315600D01*
X784256Y313244D01*
X786612Y310888D01*
X788969D01*
X793681Y315600D01*
X982750Y103497D02*
X979418D01*
X981084D01*
Y93500D01*
X982750D01*
X979418D01*
X967755Y101831D02*
X969421Y103497D01*
X972753D01*
X974419Y101831D01*
Y95166D01*
X972753Y93500D01*
X969421D01*
X967755Y95166D01*
X959424Y93500D02*
Y103497D01*
X964423Y98498D01*
X957758D01*
X954426Y101831D02*
X952760Y103497D01*
X949427D01*
X947761Y101831D01*
Y100164D01*
X949427Y98498D01*
X951094D01*
X949427D01*
X947761Y96832D01*
Y95166D01*
X949427Y93500D01*
X952760D01*
X954426Y95166D01*
X1138836Y496666D02*
Y503331D01*
X1140502Y504997D01*
X1143834D01*
X1145500Y503331D01*
Y496666D01*
X1143834Y495000D01*
X1140502D01*
X1142168Y498332D02*
X1138836Y495000D01*
X1140502D02*
X1138836Y496666D01*
X1135503Y495000D02*
X1132171D01*
X1133837D01*
Y504997D01*
X1135503Y503331D01*
X1120508Y495000D02*
X1127173D01*
X1120508Y501665D01*
Y503331D01*
X1122174Y504997D01*
X1125506D01*
X1127173Y503331D01*
X1558081Y373414D02*
X1559747Y371748D01*
Y368416D01*
X1558081Y366750D01*
X1556414D01*
X1554748Y368416D01*
Y371748D01*
X1553082Y373414D01*
X1551416D01*
X1549750Y371748D01*
Y368416D01*
X1551416Y366750D01*
X1549750Y376747D02*
X1556414D01*
X1559747Y380079D01*
X1556414Y383411D01*
X1549750D01*
X1554748D01*
Y376747D01*
X1559747Y386744D02*
Y393408D01*
Y390076D01*
X1549750D01*
Y396740D02*
X1556414D01*
X1559747Y400073D01*
X1556414Y403405D01*
X1549750D01*
X1554748D01*
Y396740D01*
X1549750Y416734D02*
X1559747D01*
Y421732D01*
X1558081Y423398D01*
X1554748D01*
X1553082Y421732D01*
Y416734D01*
X1559747Y431729D02*
Y428397D01*
X1558081Y426731D01*
X1551416D01*
X1549750Y428397D01*
Y431729D01*
X1551416Y433395D01*
X1558081D01*
X1559747Y431729D01*
X1549750Y436727D02*
X1559747D01*
Y441726D01*
X1558081Y443392D01*
X1554748D01*
X1553082Y441726D01*
Y436727D01*
Y440060D02*
X1549750Y443392D01*
X1559747Y446724D02*
Y453389D01*
Y450056D01*
X1549750D01*
X1558081Y456721D02*
X1559747Y458387D01*
Y461719D01*
X1558081Y463386D01*
X1556414D01*
X1554748Y461719D01*
Y460053D01*
Y461719D01*
X1553082Y463386D01*
X1551416D01*
X1549750Y461719D01*
Y458387D01*
X1551416Y456721D01*
X1522581Y373414D02*
X1524247Y371748D01*
Y368416D01*
X1522581Y366750D01*
X1520914D01*
X1519248Y368416D01*
Y371748D01*
X1517582Y373414D01*
X1515916D01*
X1514250Y371748D01*
Y368416D01*
X1515916Y366750D01*
X1514250Y376747D02*
X1520914D01*
X1524247Y380079D01*
X1520914Y383411D01*
X1514250D01*
X1519248D01*
Y376747D01*
X1524247Y386744D02*
Y393408D01*
Y390076D01*
X1514250D01*
Y396740D02*
X1520914D01*
X1524247Y400073D01*
X1520914Y403405D01*
X1514250D01*
X1519248D01*
Y396740D01*
X1514250Y416734D02*
X1524247D01*
Y421732D01*
X1522581Y423398D01*
X1519248D01*
X1517582Y421732D01*
Y416734D01*
X1524247Y431729D02*
Y428397D01*
X1522581Y426731D01*
X1515916D01*
X1514250Y428397D01*
Y431729D01*
X1515916Y433395D01*
X1522581D01*
X1524247Y431729D01*
X1514250Y436727D02*
X1524247D01*
Y441726D01*
X1522581Y443392D01*
X1519248D01*
X1517582Y441726D01*
Y436727D01*
Y440060D02*
X1514250Y443392D01*
X1524247Y446724D02*
Y453389D01*
Y450056D01*
X1514250D01*
Y463386D02*
Y456721D01*
X1520914Y463386D01*
X1522581D01*
X1524247Y461719D01*
Y458387D01*
X1522581Y456721D01*
X233585Y709581D02*
X235252Y711247D01*
X238584D01*
X240250Y709581D01*
Y707915D01*
X238584Y706248D01*
X235252D01*
X233585Y704582D01*
Y702916D01*
X235252Y701250D01*
X238584D01*
X240250Y702916D01*
X230253Y711247D02*
X226921D01*
X228587D01*
Y701250D01*
X230253D01*
X226921D01*
X215258Y711247D02*
X221923D01*
Y706248D01*
X218590Y707915D01*
X216924D01*
X215258Y706248D01*
Y702916D01*
X216924Y701250D01*
X220256D01*
X221923Y702916D01*
X211926Y711247D02*
X205261D01*
Y709581D01*
X211926Y702916D01*
Y701250D01*
X191932D02*
Y707915D01*
X188600Y711247D01*
X185268Y707915D01*
Y701250D01*
Y706248D01*
X191932D01*
X181936Y711247D02*
Y702916D01*
X180269Y701250D01*
X176937D01*
X175271Y702916D01*
Y711247D01*
X171939D02*
X165274Y701250D01*
Y711247D02*
X171939Y701250D01*
X145281Y709581D02*
X146947Y711247D01*
X150279D01*
X151945Y709581D01*
Y702916D01*
X150279Y701250D01*
X146947D01*
X145281Y702916D01*
X141948Y711247D02*
Y701250D01*
X135284D01*
X131952Y711247D02*
Y701250D01*
Y704582D01*
X125287Y711247D01*
X130285Y706248D01*
X125287Y701250D01*
X111958Y711247D02*
X108626D01*
X110292D01*
Y701250D01*
X111958D01*
X108626D01*
X103627D02*
Y711247D01*
X96963Y701250D01*
Y711247D01*
X764497Y833250D02*
X754500D01*
X759498D01*
Y839914D01*
X764497D01*
X754500D01*
Y843247D02*
X764497D01*
Y848245D01*
X762831Y849911D01*
X759498D01*
X757832Y848245D01*
Y843247D01*
X762831Y859908D02*
X764497Y858242D01*
Y854910D01*
X762831Y853244D01*
X756166D01*
X754500Y854910D01*
Y858242D01*
X756166Y859908D01*
X754500Y863240D02*
Y866573D01*
Y864906D01*
X764497D01*
X762831Y863240D01*
Y888232D02*
X764497Y886566D01*
Y883234D01*
X762831Y881568D01*
X756166D01*
X754500Y883234D01*
Y886566D01*
X756166Y888232D01*
X764497Y891564D02*
X754500D01*
Y898229D01*
X764497Y901561D02*
X754500D01*
X757832D01*
X764497Y908226D01*
X759498Y903227D01*
X754500Y908226D01*
Y918223D02*
Y911558D01*
X761164Y918223D01*
X762831D01*
X764497Y916556D01*
Y913224D01*
X762831Y911558D01*
X764497Y931552D02*
X754500D01*
Y936550D01*
X756166Y938216D01*
X757832D01*
X759498Y936550D01*
Y931552D01*
Y936550D01*
X761164Y938216D01*
X762831D01*
X764497Y936550D01*
Y931552D01*
Y941548D02*
Y944881D01*
Y943215D01*
X754500D01*
Y941548D01*
Y944881D01*
X764497Y949879D02*
X754500D01*
Y954877D01*
X756166Y956544D01*
X762831D01*
X764497Y954877D01*
Y949879D01*
Y959876D02*
Y963208D01*
Y961542D01*
X754500D01*
Y959876D01*
Y963208D01*
Y968206D02*
X764497D01*
Y973205D01*
X762831Y974871D01*
X759498D01*
X757832Y973205D01*
Y968206D01*
Y971539D02*
X754500Y974871D01*
X764497Y988200D02*
Y991532D01*
Y989866D01*
X754500D01*
Y988200D01*
Y991532D01*
Y996531D02*
X764497D01*
X754500Y1003195D01*
X764497D01*
X825500Y965000D02*
Y974997D01*
X818836Y965000D01*
Y974997D01*
X808839D02*
X815503D01*
Y965000D01*
X808839D01*
X815503Y969998D02*
X812171D01*
X798842Y973331D02*
X800508Y974997D01*
X803840D01*
X805506Y973331D01*
Y966666D01*
X803840Y965000D01*
X800508D01*
X798842Y966666D01*
Y969998D01*
X802174D01*
X825750Y851250D02*
Y861247D01*
X820752D01*
X819085Y859581D01*
Y856248D01*
X820752Y854582D01*
X825750D01*
X810755Y861247D02*
X814087D01*
X815753Y859581D01*
Y852916D01*
X814087Y851250D01*
X810755D01*
X809089Y852916D01*
Y859581D01*
X810755Y861247D01*
X799092Y859581D02*
X800758Y861247D01*
X804090D01*
X805757Y859581D01*
Y857915D01*
X804090Y856248D01*
X800758D01*
X799092Y854582D01*
Y852916D01*
X800758Y851250D01*
X804090D01*
X805757Y852916D01*
X871000Y224250D02*
X878069Y231319D01*
X874534Y234853D01*
X872178D01*
X869822Y232497D01*
Y230141D01*
X873356Y226606D01*
X867466Y241922D02*
X869822Y239566D01*
Y237209D01*
X865109Y232497D01*
X862753D01*
X860397Y234853D01*
Y237209D01*
X865109Y241922D01*
X867466Y241922D01*
X858041Y248991D02*
X860397Y248991D01*
X862753Y246635D01*
Y244278D01*
X861575Y243100D01*
X859219D01*
X856862Y245456D01*
X854506Y245456D01*
X853328Y244278D01*
X853328Y241922D01*
X855684Y239566D01*
X858041D01*
X762250Y277000D02*
X769319Y284069D01*
X757538Y281712D01*
X764606Y288781D01*
X757538Y295850D02*
X762250Y291138D01*
X755181Y284069D01*
X750469Y288781D01*
X758716Y287603D02*
X756359Y289959D01*
X749291Y301741D02*
X751647Y301741D01*
X754003Y299384D01*
Y297028D01*
X749291Y292316D01*
X746934D01*
X744578Y294672D01*
X744578Y297028D01*
X746934Y299384D01*
X749291Y297028D01*
X906319Y233819D02*
X899250Y226750D01*
X902784Y230284D01*
X898072Y234997D01*
X901606Y238531D01*
X894538Y231462D01*
X892181Y233819D02*
X899250Y240888D01*
X895716Y244422D01*
X893359Y244422D01*
X891003Y242066D01*
Y239709D01*
X894538Y236175D01*
X886291Y251491D02*
X888647Y251491D01*
X891003Y249135D01*
Y246778D01*
X886291Y242066D01*
X883934D01*
X881578Y244422D01*
X881578Y246778D01*
X873331Y252669D02*
X878044Y247956D01*
Y257381D01*
X879222Y258559D01*
X881578Y258560D01*
X883934Y256203D01*
Y253847D01*
X865084Y272697D02*
X867440D01*
X869797Y270341D01*
Y267985D01*
X865084Y263272D01*
X862728D01*
X860372Y265628D01*
X860372Y267985D01*
X863906Y276231D02*
X856837Y269163D01*
X852125Y273875D01*
X856837Y283300D02*
X849769Y276231D01*
X852125Y278588D01*
X852125Y288013D01*
X852125Y280944D01*
X845056Y280944D01*
X837987Y288013D02*
X842700Y283300D01*
Y292725D01*
X843878Y293904D01*
X846234Y293904D01*
X848590Y291547D01*
Y289191D01*
X835631Y304507D02*
X828562Y297438D01*
X825028Y300972D01*
X825028Y303329D01*
X826206Y304507D01*
X828562D01*
X832096Y300972D01*
X828562Y304507D01*
Y306863D01*
X829740Y308041D01*
X832096Y308041D01*
X835631Y304507D01*
X828562Y311576D02*
X826206Y313932D01*
X827384Y312754D01*
X820315Y305685D01*
X821493Y304507D01*
X819137Y306863D01*
X822671Y317466D02*
X815603Y310397D01*
X812068Y313932D01*
X812068Y316288D01*
X816781Y321001D01*
X819137Y321001D01*
X822671Y317466D01*
X815603Y324535D02*
X813246Y326891D01*
X814425Y325713D01*
X807356Y318644D01*
X808534Y317466D01*
X806178Y319822D01*
X802643Y323357D02*
X809712Y330426D01*
X806178Y333960D01*
X803821D01*
X801465Y331604D01*
Y329247D01*
X804999Y325713D01*
X802643Y328069D02*
X797931D01*
X795574Y344563D02*
X793218Y346919D01*
X794396Y345741D01*
X787327Y338672D01*
X788506Y337494D01*
X786149Y339851D01*
X782615Y343385D02*
X789684Y350454D01*
X777903Y348097D01*
X784971Y355166D01*
X560500Y210747D02*
X553835D01*
X557168D01*
Y200750D01*
X543839Y209081D02*
X545505Y210747D01*
X548837D01*
X550503Y209081D01*
Y202416D01*
X548837Y200750D01*
X545505D01*
X543839Y202416D01*
X540506Y210747D02*
Y200750D01*
X533842D01*
X530510Y210747D02*
Y200750D01*
Y204082D01*
X523845Y210747D01*
X528843Y205748D01*
X523845Y200750D01*
X520513Y210747D02*
Y200750D01*
X515514D01*
X513848Y202416D01*
Y209081D01*
X515514Y210747D01*
X520513D01*
X500519D02*
X497187D01*
X498853D01*
Y200750D01*
X500519D01*
X497187D01*
X492189D02*
Y210747D01*
X485524Y200750D01*
Y210747D01*
X590250Y243747D02*
X583586D01*
X586918D01*
Y233750D01*
X573589Y242081D02*
X575255Y243747D01*
X578587D01*
X580253Y242081D01*
Y235416D01*
X578587Y233750D01*
X575255D01*
X573589Y235416D01*
X570256Y243747D02*
Y233750D01*
X563592D01*
X560260Y243747D02*
Y233750D01*
Y237082D01*
X553595Y243747D01*
X558593Y238748D01*
X553595Y233750D01*
X543598Y242081D02*
X545265Y243747D01*
X548597D01*
X550263Y242081D01*
Y235416D01*
X548597Y233750D01*
X545265D01*
X543598Y235416D01*
X530269Y243747D02*
X526937D01*
X528603D01*
Y233750D01*
X530269D01*
X526937D01*
X521939D02*
Y243747D01*
X515274Y233750D01*
Y243747D01*
X560250Y290747D02*
X553586D01*
X556918D01*
Y280750D01*
X543589Y289081D02*
X545255Y290747D01*
X548587D01*
X550253Y289081D01*
Y282416D01*
X548587Y280750D01*
X545255D01*
X543589Y282416D01*
X540257Y290747D02*
Y280750D01*
X533592D01*
X530260Y290747D02*
Y280750D01*
Y284082D01*
X523595Y290747D01*
X528593Y285748D01*
X523595Y280750D01*
X520263Y290747D02*
Y280750D01*
X515265D01*
X513598Y282416D01*
Y284082D01*
X515265Y285748D01*
X520263D01*
X515265D01*
X513598Y287414D01*
Y289081D01*
X515265Y290747D01*
X520263D01*
X500269D02*
X496937D01*
X498603D01*
Y280750D01*
X500269D01*
X496937D01*
X491939D02*
Y290747D01*
X485274Y280750D01*
Y290747D01*
X590750Y274247D02*
X584086D01*
X587418D01*
Y264250D01*
X574089Y272581D02*
X575755Y274247D01*
X579087D01*
X580753Y272581D01*
Y265916D01*
X579087Y264250D01*
X575755D01*
X574089Y265916D01*
X570756Y274247D02*
Y264250D01*
X564092D01*
X560760Y274247D02*
Y264250D01*
Y267582D01*
X554095Y274247D01*
X559094Y269248D01*
X554095Y264250D01*
X550763D02*
Y270914D01*
X547431Y274247D01*
X544098Y270914D01*
Y264250D01*
Y269248D01*
X550763D01*
X530769Y274247D02*
X527437D01*
X529103D01*
Y264250D01*
X530769D01*
X527437D01*
X522439D02*
Y274247D01*
X515774Y264250D01*
Y274247D01*
X1082000Y289500D02*
Y299497D01*
X1075335Y289500D01*
Y299497D01*
X1065339D02*
X1072003D01*
Y289500D01*
X1065339D01*
X1072003Y294498D02*
X1068671D01*
X1055342Y297831D02*
X1057008Y299497D01*
X1060340D01*
X1062006Y297831D01*
Y291166D01*
X1060340Y289500D01*
X1057008D01*
X1055342Y291166D01*
Y294498D01*
X1058674D01*
X942000Y289000D02*
Y298997D01*
X937002D01*
X935335Y297331D01*
Y293998D01*
X937002Y292332D01*
X942000D01*
X927005Y298997D02*
X930337D01*
X932003Y297331D01*
Y290666D01*
X930337Y289000D01*
X927005D01*
X925339Y290666D01*
Y297331D01*
X927005Y298997D01*
X915342Y297331D02*
X917008Y298997D01*
X920340D01*
X922006Y297331D01*
Y295665D01*
X920340Y293998D01*
X917008D01*
X915342Y292332D01*
Y290666D01*
X917008Y289000D01*
X920340D01*
X922006Y290666D01*
X1042000Y353750D02*
Y360415D01*
X1038668Y363747D01*
X1035335Y360415D01*
Y353750D01*
Y358748D01*
X1042000D01*
X1032003Y363747D02*
Y355416D01*
X1030337Y353750D01*
X1027005D01*
X1025339Y355416D01*
Y363747D01*
X1022006D02*
X1015342Y353750D01*
Y363747D02*
X1022006Y353750D01*
X995348Y362081D02*
X997014Y363747D01*
X1000347D01*
X1002013Y362081D01*
Y355416D01*
X1000347Y353750D01*
X997014D01*
X995348Y355416D01*
X992016Y363747D02*
Y353750D01*
X985352D01*
X982019Y363747D02*
Y353750D01*
Y357082D01*
X975355Y363747D01*
X980353Y358748D01*
X975355Y353750D01*
X957027Y363747D02*
X960360D01*
X962026Y362081D01*
Y355416D01*
X960360Y353750D01*
X957027D01*
X955361Y355416D01*
Y362081D01*
X957027Y363747D01*
X952029D02*
Y355416D01*
X950363Y353750D01*
X947031D01*
X945365Y355416D01*
Y363747D01*
X942032D02*
X935368D01*
X938700D01*
Y353750D01*
X1447750Y323997D02*
Y314000D01*
Y318998D01*
X1441086D01*
Y323997D01*
Y314000D01*
X1437753D02*
Y323997D01*
X1432755D01*
X1431089Y322331D01*
Y318998D01*
X1432755Y317332D01*
X1437753D01*
X1421092Y322331D02*
X1422758Y323997D01*
X1426090D01*
X1427756Y322331D01*
Y315666D01*
X1426090Y314000D01*
X1422758D01*
X1421092Y315666D01*
X1417760Y314000D02*
X1414427D01*
X1416093D01*
Y323997D01*
X1417760Y322331D01*
X1337000Y334747D02*
Y324750D01*
Y329748D01*
X1330336D01*
Y334747D01*
Y324750D01*
X1327003D02*
Y334747D01*
X1322005D01*
X1320339Y333081D01*
Y329748D01*
X1322005Y328082D01*
X1327003D01*
X1310342Y333081D02*
X1312008Y334747D01*
X1315340D01*
X1317006Y333081D01*
Y326416D01*
X1315340Y324750D01*
X1312008D01*
X1310342Y326416D01*
X1300345Y324750D02*
X1307010D01*
X1300345Y331414D01*
Y333081D01*
X1302011Y334747D01*
X1305343D01*
X1307010Y333081D01*
X1129497Y225250D02*
X1119500D01*
X1124498D01*
Y231915D01*
X1129497D01*
X1119500D01*
Y235247D02*
X1129497D01*
Y240245D01*
X1127831Y241911D01*
X1124498D01*
X1122832Y240245D01*
Y235247D01*
X1127831Y251908D02*
X1129497Y250242D01*
Y246910D01*
X1127831Y245244D01*
X1121166D01*
X1119500Y246910D01*
Y250242D01*
X1121166Y251908D01*
X1119500Y261905D02*
Y255240D01*
X1126164Y261905D01*
X1127831D01*
X1129497Y260239D01*
Y256907D01*
X1127831Y255240D01*
X1238997Y235500D02*
X1229000D01*
X1233998D01*
Y242164D01*
X1238997D01*
X1229000D01*
Y245497D02*
X1238997D01*
Y250495D01*
X1237331Y252161D01*
X1233998D01*
X1232332Y250495D01*
Y245497D01*
X1237331Y262158D02*
X1238997Y260492D01*
Y257160D01*
X1237331Y255494D01*
X1230666D01*
X1229000Y257160D01*
Y260492D01*
X1230666Y262158D01*
X1229000Y265490D02*
Y268823D01*
Y267157D01*
X1238997D01*
X1237331Y265490D01*
X851250Y129750D02*
Y126418D01*
Y128084D01*
X841253D01*
X842919Y129750D01*
X851250Y121419D02*
X849584D01*
Y119753D01*
X851250D01*
Y121419D01*
X841253Y106424D02*
Y113089D01*
X846252D01*
X844585Y109756D01*
Y108090D01*
X846252Y106424D01*
X849584D01*
X851250Y108090D01*
Y111423D01*
X849584Y113089D01*
X841253Y103092D02*
X847918D01*
X851250Y99760D01*
X847918Y96427D01*
X841253D01*
Y78100D02*
Y81432D01*
X842919Y83098D01*
X849584D01*
X851250Y81432D01*
Y78100D01*
X849584Y76434D01*
X842919D01*
X841253Y78100D01*
X851250Y73102D02*
X841253D01*
X851250Y66437D01*
X841253D01*
X1065581Y193750D02*
X1067247Y195416D01*
Y198748D01*
X1065581Y200415D01*
X1063914D01*
X1062248Y198748D01*
Y197082D01*
Y198748D01*
X1060582Y200415D01*
X1058916D01*
X1057250Y198748D01*
Y195416D01*
X1058916Y193750D01*
X1057250Y203747D02*
X1058916D01*
Y205413D01*
X1057250D01*
Y203747D01*
X1065581Y212077D02*
X1067247Y213744D01*
Y217076D01*
X1065581Y218742D01*
X1063914D01*
X1062248Y217076D01*
Y215410D01*
Y217076D01*
X1060582Y218742D01*
X1058916D01*
X1057250Y217076D01*
Y213744D01*
X1058916Y212077D01*
X1067247Y222074D02*
X1060582D01*
X1057250Y225406D01*
X1060582Y228739D01*
X1067247D01*
Y247066D02*
Y243734D01*
X1065581Y242068D01*
X1058916D01*
X1057250Y243734D01*
Y247066D01*
X1058916Y248732D01*
X1065581D01*
X1067247Y247066D01*
X1057250Y252064D02*
X1067247D01*
X1057250Y258729D01*
X1067247D01*
X1085750Y438250D02*
X1082418D01*
X1084084D01*
Y448247D01*
X1085750Y446581D01*
X1077419Y438250D02*
Y439916D01*
X1075753D01*
Y438250D01*
X1077419D01*
X1062424D02*
X1069089D01*
X1062424Y444915D01*
Y446581D01*
X1064090Y448247D01*
X1067423D01*
X1069089Y446581D01*
X1059092Y448247D02*
Y441582D01*
X1055760Y438250D01*
X1052427Y441582D01*
Y448247D01*
X1034100D02*
X1037432D01*
X1039098Y446581D01*
Y439916D01*
X1037432Y438250D01*
X1034100D01*
X1032434Y439916D01*
Y446581D01*
X1034100Y448247D01*
X1029102Y438250D02*
Y448247D01*
X1022437Y438250D01*
Y448247D01*
X1085250Y462500D02*
X1081918D01*
X1083584D01*
Y472497D01*
X1085250Y470831D01*
X1076919Y462500D02*
Y464166D01*
X1075253D01*
Y462500D01*
X1076919D01*
X1068589Y470831D02*
X1066923Y472497D01*
X1063590D01*
X1061924Y470831D01*
Y469165D01*
X1063590Y467498D01*
X1061924Y465832D01*
Y464166D01*
X1063590Y462500D01*
X1066923D01*
X1068589Y464166D01*
Y465832D01*
X1066923Y467498D01*
X1068589Y469165D01*
Y470831D01*
X1066923Y467498D02*
X1063590D01*
X1058592Y472497D02*
Y465832D01*
X1055260Y462500D01*
X1051927Y465832D01*
Y472497D01*
X1033600D02*
X1036932D01*
X1038598Y470831D01*
Y464166D01*
X1036932Y462500D01*
X1033600D01*
X1031934Y464166D01*
Y470831D01*
X1033600Y472497D01*
X1028602Y462500D02*
Y472497D01*
X1021937Y462500D01*
Y472497D01*
X1277028Y388898D02*
Y392230D01*
Y390564D01*
X1287025D01*
X1285358Y388898D01*
X1277028Y397228D02*
X1278694D01*
Y398894D01*
X1277028D01*
Y397228D01*
X1285358Y405559D02*
X1287025Y407225D01*
Y410557D01*
X1285358Y412223D01*
X1283692D01*
X1282026Y410557D01*
X1280360Y412223D01*
X1278694D01*
X1277028Y410557D01*
Y407225D01*
X1278694Y405559D01*
X1280360D01*
X1282026Y407225D01*
X1283692Y405559D01*
X1285358D01*
X1282026Y407225D02*
Y410557D01*
X1287025Y415556D02*
X1280360D01*
X1277028Y418888D01*
X1280360Y422220D01*
X1287025D01*
Y435549D02*
X1277028D01*
Y440548D01*
X1278694Y442214D01*
X1285358D01*
X1287025Y440548D01*
Y435549D01*
X1285358Y452211D02*
X1287025Y450544D01*
Y447212D01*
X1285358Y445546D01*
X1278694D01*
X1277028Y447212D01*
Y450544D01*
X1278694Y452211D01*
X1287025Y455543D02*
X1277028D01*
Y460541D01*
X1278694Y462207D01*
X1285358D01*
X1287025Y460541D01*
Y455543D01*
X1285358Y472204D02*
X1287025Y470538D01*
Y467206D01*
X1285358Y465540D01*
X1278694D01*
X1277028Y467206D01*
Y470538D01*
X1278694Y472204D01*
X1114000Y282250D02*
Y285582D01*
Y283916D01*
X1123997D01*
X1122331Y282250D01*
X1114000Y290581D02*
X1115666D01*
Y292247D01*
X1114000D01*
Y290581D01*
Y305576D02*
Y298911D01*
X1120665Y305576D01*
X1122331D01*
X1123997Y303910D01*
Y300577D01*
X1122331Y298911D01*
X1123997Y308908D02*
X1117332D01*
X1114000Y312240D01*
X1117332Y315573D01*
X1123997D01*
Y328902D02*
X1114000D01*
Y333900D01*
X1115666Y335566D01*
X1122331D01*
X1123997Y333900D01*
Y328902D01*
X1122331Y345563D02*
X1123997Y343897D01*
Y340564D01*
X1122331Y338898D01*
X1115666D01*
X1114000Y340564D01*
Y343897D01*
X1115666Y345563D01*
X1123997Y348895D02*
X1114000D01*
Y353894D01*
X1115666Y355560D01*
X1122331D01*
X1123997Y353894D01*
Y348895D01*
X1122331Y365556D02*
X1123997Y363890D01*
Y360558D01*
X1122331Y358892D01*
X1115666D01*
X1114000Y360558D01*
Y363890D01*
X1115666Y365556D01*
X1589000Y1112000D02*
X1585668D01*
X1587334D01*
Y1121997D01*
X1589000Y1120331D01*
X1580669Y1112000D02*
Y1113666D01*
X1579003D01*
Y1112000D01*
X1580669D01*
X1572339Y1120331D02*
X1570673Y1121997D01*
X1567340D01*
X1565674Y1120331D01*
Y1113666D01*
X1567340Y1112000D01*
X1570673D01*
X1572339Y1113666D01*
Y1120331D01*
X1562342Y1121997D02*
Y1115332D01*
X1559010Y1112000D01*
X1555677Y1115332D01*
Y1121997D01*
X1542348D02*
Y1112000D01*
X1537350D01*
X1535684Y1113666D01*
Y1120331D01*
X1537350Y1121997D01*
X1542348D01*
X1525687Y1120331D02*
X1527353Y1121997D01*
X1530685D01*
X1532352Y1120331D01*
Y1113666D01*
X1530685Y1112000D01*
X1527353D01*
X1525687Y1113666D01*
X1522355Y1121997D02*
Y1112000D01*
X1517356D01*
X1515690Y1113666D01*
Y1120331D01*
X1517356Y1121997D01*
X1522355D01*
X1505694Y1120331D02*
X1507360Y1121997D01*
X1510692D01*
X1512358Y1120331D01*
Y1113666D01*
X1510692Y1112000D01*
X1507360D01*
X1505694Y1113666D01*
X1378250Y278997D02*
Y269000D01*
Y273998D01*
X1371586D01*
Y278997D01*
Y269000D01*
X1368253D02*
Y278997D01*
X1363255D01*
X1361589Y277331D01*
Y273998D01*
X1363255Y272332D01*
X1368253D01*
X1351592Y277331D02*
X1353258Y278997D01*
X1356590D01*
X1358256Y277331D01*
Y270666D01*
X1356590Y269000D01*
X1353258D01*
X1351592Y270666D01*
X1341595Y269000D02*
X1348260D01*
X1341595Y275665D01*
Y277331D01*
X1343261Y278997D01*
X1346593D01*
X1348260Y277331D01*
X1328266Y278997D02*
Y272332D01*
X1324934Y269000D01*
X1321602Y272332D01*
Y278997D01*
X1318269Y269000D02*
Y275665D01*
X1314937Y278997D01*
X1311605Y275665D01*
Y269000D01*
Y273998D01*
X1318269D01*
X1308273Y278997D02*
Y269000D01*
X1303274D01*
X1301608Y270666D01*
Y277331D01*
X1303274Y278997D01*
X1308273D01*
X1291611D02*
X1294944D01*
X1293277D01*
Y270666D01*
X1294944Y269000D01*
X1296610D01*
X1298276Y270666D01*
X1491713Y278424D02*
Y268427D01*
Y273426D01*
X1485048D01*
Y278424D01*
Y268427D01*
X1481716D02*
Y278424D01*
X1476718D01*
X1475052Y276758D01*
Y273426D01*
X1476718Y271759D01*
X1481716D01*
X1465055Y276758D02*
X1466721Y278424D01*
X1470053D01*
X1471719Y276758D01*
Y270093D01*
X1470053Y268427D01*
X1466721D01*
X1465055Y270093D01*
X1461723Y268427D02*
X1458390D01*
X1460056D01*
Y278424D01*
X1461723Y276758D01*
X1443395Y278424D02*
Y271759D01*
X1440063Y268427D01*
X1436730Y271759D01*
Y278424D01*
X1433398Y268427D02*
Y275092D01*
X1430066Y278424D01*
X1426734Y275092D01*
Y268427D01*
Y273426D01*
X1433398D01*
X1423401Y278424D02*
Y268427D01*
X1418403D01*
X1416737Y270093D01*
Y276758D01*
X1418403Y278424D01*
X1423401D01*
X1406740D02*
X1410072D01*
X1408406D01*
Y270093D01*
X1410072Y268427D01*
X1411739D01*
X1413405Y270093D01*
X946500Y181250D02*
X943168D01*
X944834D01*
Y191247D01*
X946500Y189581D01*
X938169Y181250D02*
Y182916D01*
X936503D01*
Y181250D01*
X938169D01*
X923174Y191247D02*
X929839D01*
Y186248D01*
X926507Y187915D01*
X924840D01*
X923174Y186248D01*
Y182916D01*
X924840Y181250D01*
X928173D01*
X929839Y182916D01*
X919842Y191247D02*
Y184582D01*
X916510Y181250D01*
X913177Y184582D01*
Y191247D01*
X899848D02*
Y181250D01*
X894850D01*
X893184Y182916D01*
Y189581D01*
X894850Y191247D01*
X899848D01*
X883187Y189581D02*
X884853Y191247D01*
X888186D01*
X889852Y189581D01*
Y182916D01*
X888186Y181250D01*
X884853D01*
X883187Y182916D01*
X879855Y191247D02*
Y181250D01*
X874856D01*
X873190Y182916D01*
Y189581D01*
X874856Y191247D01*
X879855D01*
X863194Y189581D02*
X864860Y191247D01*
X868192D01*
X869858Y189581D01*
Y182916D01*
X868192Y181250D01*
X864860D01*
X863194Y182916D01*
X1050500Y191581D02*
X1048834Y193247D01*
X1045502D01*
X1043836Y191581D01*
Y189914D01*
X1045502Y188248D01*
X1047168D01*
X1045502D01*
X1043836Y186582D01*
Y184916D01*
X1045502Y183250D01*
X1048834D01*
X1050500Y184916D01*
X1040503Y183250D02*
Y184916D01*
X1038837D01*
Y183250D01*
X1040503D01*
X1032173Y191581D02*
X1030506Y193247D01*
X1027174D01*
X1025508Y191581D01*
Y189914D01*
X1027174Y188248D01*
X1028840D01*
X1027174D01*
X1025508Y186582D01*
Y184916D01*
X1027174Y183250D01*
X1030506D01*
X1032173Y184916D01*
X1022176Y193247D02*
Y186582D01*
X1018844Y183250D01*
X1015511Y186582D01*
Y193247D01*
X1002182D02*
Y183250D01*
X997184D01*
X995518Y184916D01*
Y191581D01*
X997184Y193247D01*
X1002182D01*
X985521Y191581D02*
X987187Y193247D01*
X990519D01*
X992186Y191581D01*
Y184916D01*
X990519Y183250D01*
X987187D01*
X985521Y184916D01*
X982189Y193247D02*
Y183250D01*
X977190D01*
X975524Y184916D01*
Y191581D01*
X977190Y193247D01*
X982189D01*
X965527Y191581D02*
X967194Y193247D01*
X970526D01*
X972192Y191581D01*
Y184916D01*
X970526Y183250D01*
X967194D01*
X965527Y184916D01*
X1165500Y202997D02*
Y193000D01*
Y197998D01*
X1158836D01*
Y202997D01*
Y193000D01*
X1155503D02*
Y202997D01*
X1150505D01*
X1148839Y201331D01*
Y197998D01*
X1150505Y196332D01*
X1155503D01*
X1138842Y201331D02*
X1140508Y202997D01*
X1143840D01*
X1145506Y201331D01*
Y194666D01*
X1143840Y193000D01*
X1140508D01*
X1138842Y194666D01*
X1128845Y193000D02*
X1135510D01*
X1128845Y199664D01*
Y201331D01*
X1130511Y202997D01*
X1133844D01*
X1135510Y201331D01*
X1115516D02*
X1113850Y202997D01*
X1110518D01*
X1108852Y201331D01*
Y199664D01*
X1110518Y197998D01*
X1112184D01*
X1110518D01*
X1108852Y196332D01*
Y194666D01*
X1110518Y193000D01*
X1113850D01*
X1115516Y194666D01*
X1105519Y193000D02*
Y194666D01*
X1103853D01*
Y193000D01*
X1105519D01*
X1097189Y201331D02*
X1095523Y202997D01*
X1092190D01*
X1090524Y201331D01*
Y199664D01*
X1092190Y197998D01*
X1093856D01*
X1092190D01*
X1090524Y196332D01*
Y194666D01*
X1092190Y193000D01*
X1095523D01*
X1097189Y194666D01*
X1087192Y202997D02*
Y196332D01*
X1083860Y193000D01*
X1080527Y196332D01*
Y202997D01*
X1273500Y202747D02*
Y192750D01*
Y197748D01*
X1266835D01*
Y202747D01*
Y192750D01*
X1263503D02*
Y202747D01*
X1258505D01*
X1256839Y201081D01*
Y197748D01*
X1258505Y196082D01*
X1263503D01*
X1246842Y201081D02*
X1248508Y202747D01*
X1251840D01*
X1253506Y201081D01*
Y194416D01*
X1251840Y192750D01*
X1248508D01*
X1246842Y194416D01*
X1243510Y192750D02*
X1240177D01*
X1241843D01*
Y202747D01*
X1243510Y201081D01*
X1225182D02*
X1223516Y202747D01*
X1220184D01*
X1218518Y201081D01*
Y199415D01*
X1220184Y197748D01*
X1221850D01*
X1220184D01*
X1218518Y196082D01*
Y194416D01*
X1220184Y192750D01*
X1223516D01*
X1225182Y194416D01*
X1215185Y192750D02*
Y194416D01*
X1213519D01*
Y192750D01*
X1215185D01*
X1206855Y201081D02*
X1205189Y202747D01*
X1201856D01*
X1200190Y201081D01*
Y199415D01*
X1201856Y197748D01*
X1203523D01*
X1201856D01*
X1200190Y196082D01*
Y194416D01*
X1201856Y192750D01*
X1205189D01*
X1206855Y194416D01*
X1196858Y202747D02*
Y196082D01*
X1193526Y192750D01*
X1190193Y196082D01*
Y202747D01*
X1618000Y2081D02*
X1616334Y3747D01*
X1613002D01*
X1611335Y2081D01*
Y415D01*
X1613002Y-1252D01*
X1614668D01*
X1613002D01*
X1611335Y-2918D01*
Y-4584D01*
X1613002Y-6250D01*
X1616334D01*
X1618000Y-4584D01*
X1608003Y-6250D02*
Y-4584D01*
X1606337D01*
Y-6250D01*
X1608003D01*
X1599673Y2081D02*
X1598006Y3747D01*
X1594674D01*
X1593008Y2081D01*
Y415D01*
X1594674Y-1252D01*
X1596340D01*
X1594674D01*
X1593008Y-2918D01*
Y-4584D01*
X1594674Y-6250D01*
X1598006D01*
X1599673Y-4584D01*
X1589676Y3747D02*
Y-2918D01*
X1586344Y-6250D01*
X1583011Y-2918D01*
Y3747D01*
X1579679Y-6250D02*
Y3747D01*
X1576347Y415D01*
X1573015Y3747D01*
Y-6250D01*
X1569682D02*
Y3747D01*
X1564684D01*
X1563018Y2081D01*
Y-1252D01*
X1564684Y-2918D01*
X1569682D01*
X1466000Y-2500D02*
X1462668D01*
X1464334D01*
Y7497D01*
X1466000Y5831D01*
X1451005Y-2500D02*
X1457669D01*
X1451005Y4164D01*
Y5831D01*
X1452671Y7497D01*
X1456003D01*
X1457669Y5831D01*
X1447673Y7497D02*
Y832D01*
X1444340Y-2500D01*
X1441008Y832D01*
Y7497D01*
X1432585Y77581D02*
X1434252Y79247D01*
X1437584D01*
X1439250Y77581D01*
Y70916D01*
X1437584Y69250D01*
X1434252D01*
X1432585Y70916D01*
Y74248D01*
X1435918D01*
X1429253Y69250D02*
Y79247D01*
X1422589Y69250D01*
Y79247D01*
X1419256D02*
Y69250D01*
X1414258D01*
X1412592Y70916D01*
Y77581D01*
X1414258Y79247D01*
X1419256D01*
X1535585Y6081D02*
X1537252Y7747D01*
X1540584D01*
X1542250Y6081D01*
Y-584D01*
X1540584Y-2250D01*
X1537252D01*
X1535585Y-584D01*
Y2748D01*
X1538918D01*
X1532253Y-2250D02*
Y7747D01*
X1525589Y-2250D01*
Y7747D01*
X1522256D02*
Y-2250D01*
X1517258D01*
X1515592Y-584D01*
Y6081D01*
X1517258Y7747D01*
X1522256D01*
X723085Y247D02*
X726418D01*
X724752D01*
Y-8084D01*
X726418Y-9750D01*
X728084D01*
X729750Y-8084D01*
X719753Y247D02*
X713089D01*
X716421D01*
Y-9750D01*
X709756D02*
Y-3086D01*
X706424Y247D01*
X703092Y-3086D01*
Y-9750D01*
Y-4752D01*
X709756D01*
X693095Y-1419D02*
X694761Y247D01*
X698093D01*
X699760Y-1419D01*
Y-8084D01*
X698093Y-9750D01*
X694761D01*
X693095Y-8084D01*
Y-4752D01*
X696427D01*
X1587511Y1265839D02*
X1589177Y1267505D01*
X1592510D01*
X1594176Y1265839D01*
Y1259175D01*
X1592510Y1257509D01*
X1589177D01*
X1587511Y1259175D01*
X1584179Y1257509D02*
Y1267505D01*
X1579181D01*
X1577514Y1265839D01*
Y1262507D01*
X1579181Y1260841D01*
X1584179D01*
X1574182Y1267505D02*
Y1259175D01*
X1572516Y1257509D01*
X1569184D01*
X1567518Y1259175D01*
Y1267505D01*
X1554189D02*
Y1259175D01*
X1552523Y1257509D01*
X1549190D01*
X1547524Y1259175D01*
Y1267505D01*
X1544192Y1257509D02*
Y1264173D01*
X1540860Y1267505D01*
X1537527Y1264173D01*
Y1257509D01*
Y1262507D01*
X1544192D01*
X1534195Y1257509D02*
Y1267505D01*
X1529197D01*
X1527531Y1265839D01*
Y1262507D01*
X1529197Y1260841D01*
X1534195D01*
X1530863D02*
X1527531Y1257509D01*
X1524198Y1267505D02*
X1517534D01*
X1520866D01*
Y1257509D01*
X1586335Y1153747D02*
X1593000D01*
Y1148748D01*
X1589668D01*
X1593000D01*
Y1143750D01*
X1583003D02*
Y1153747D01*
X1578005D01*
X1576339Y1152081D01*
Y1148748D01*
X1578005Y1147082D01*
X1583003D01*
X1566342Y1152081D02*
X1568008Y1153747D01*
X1571340D01*
X1573006Y1152081D01*
Y1145416D01*
X1571340Y1143750D01*
X1568008D01*
X1566342Y1145416D01*
Y1148748D01*
X1569674D01*
X1563010Y1143750D02*
Y1150415D01*
X1559677Y1153747D01*
X1556345Y1150415D01*
Y1143750D01*
Y1148748D01*
X1563010D01*
X1543016Y1153747D02*
Y1145416D01*
X1541350Y1143750D01*
X1538018D01*
X1536352Y1145416D01*
Y1153747D01*
X1533019Y1143750D02*
Y1150415D01*
X1529687Y1153747D01*
X1526355Y1150415D01*
Y1143750D01*
Y1148748D01*
X1533019D01*
X1523022Y1143750D02*
Y1153747D01*
X1518024D01*
X1516358Y1152081D01*
Y1148748D01*
X1518024Y1147082D01*
X1523022D01*
X1519690D02*
X1516358Y1143750D01*
X1513026Y1153747D02*
X1506361D01*
X1509693D01*
Y1143750D01*
X130750Y1364750D02*
Y1374747D01*
X125752D01*
X124086Y1373081D01*
Y1369748D01*
X125752Y1368082D01*
X130750D01*
X115755Y1364750D02*
Y1374747D01*
X120753Y1369748D01*
X114089D01*
X100760Y1374747D02*
Y1364750D01*
X94095D01*
X84098Y1374747D02*
X90763D01*
Y1364750D01*
X84098D01*
X90763Y1369748D02*
X87431D01*
X80766Y1374747D02*
Y1364750D01*
X75768D01*
X74102Y1366416D01*
Y1373081D01*
X75768Y1374747D01*
X80766D01*
X1020000Y396000D02*
Y402664D01*
X1016668Y405997D01*
X1013335Y402664D01*
Y396000D01*
Y400998D01*
X1020000D01*
X1010003Y405997D02*
X1003339D01*
X1006671D01*
Y396000D01*
X1000006Y402664D02*
X993342Y396000D01*
X996674Y399332D01*
X993342Y402664D01*
X1000006Y396000D01*
X990010D02*
Y405997D01*
X986677Y402664D01*
X983345Y405997D01*
Y396000D01*
X973348Y405997D02*
X980013D01*
Y396000D01*
X973348D01*
X980013Y400998D02*
X976681D01*
X963352Y404331D02*
X965018Y405997D01*
X968350D01*
X970016Y404331D01*
Y397666D01*
X968350Y396000D01*
X965018D01*
X963352Y397666D01*
Y400998D01*
X966684D01*
X960019Y396000D02*
Y402664D01*
X956687Y405997D01*
X953355Y402664D01*
Y396000D01*
Y400998D01*
X960019D01*
X940026Y396000D02*
Y405997D01*
X935027D01*
X933361Y404331D01*
Y400998D01*
X935027Y399332D01*
X940026D01*
X930029Y405997D02*
Y396000D01*
X925031D01*
X923364Y397666D01*
Y404331D01*
X925031Y405997D01*
X930029D01*
X920032D02*
X916700D01*
X918366D01*
Y396000D01*
X920032D01*
X916700D01*
X901705D02*
Y405997D01*
X896706D01*
X895040Y404331D01*
Y400998D01*
X896706Y399332D01*
X901705D01*
X891708Y396000D02*
Y405997D01*
X886710D01*
X885043Y404331D01*
Y400998D01*
X886710Y399332D01*
X891708D01*
X888376D02*
X885043Y396000D01*
X876713Y405997D02*
X880045D01*
X881711Y404331D01*
Y397666D01*
X880045Y396000D01*
X876713D01*
X875047Y397666D01*
Y404331D01*
X876713Y405997D01*
X865050Y404331D02*
X866716Y405997D01*
X870048D01*
X871714Y404331D01*
Y397666D01*
X870048Y396000D01*
X866716D01*
X865050Y397666D01*
Y400998D01*
X868382D01*
X988250Y523497D02*
X984918D01*
X986584D01*
Y513500D01*
X988250D01*
X984918D01*
X979919D02*
Y523497D01*
X974921D01*
X973255Y521831D01*
Y518498D01*
X974921Y516832D01*
X979919D01*
X969923Y513500D02*
Y523497D01*
X966590Y520164D01*
X963258Y523497D01*
Y513500D01*
X959926Y523497D02*
X956593D01*
X958260D01*
Y513500D01*
X959926D01*
X956593D01*
X934934Y521831D02*
X936600Y523497D01*
X939932D01*
X941598Y521831D01*
Y515166D01*
X939932Y513500D01*
X936600D01*
X934934Y515166D01*
X931602Y513500D02*
Y523497D01*
X926603D01*
X924937Y521831D01*
Y518498D01*
X926603Y516832D01*
X931602D01*
X921605Y523497D02*
Y515166D01*
X919939Y513500D01*
X916606D01*
X914940Y515166D01*
Y523497D01*
X894947D02*
X898279D01*
X896613D01*
Y515166D01*
X898279Y513500D01*
X899945D01*
X901611Y515166D01*
X891615Y523497D02*
X884950D01*
X888282D01*
Y513500D01*
X881618D02*
Y520164D01*
X878285Y523497D01*
X874953Y520164D01*
Y513500D01*
Y518498D01*
X881618D01*
X864956Y521831D02*
X866622Y523497D01*
X869955D01*
X871621Y521831D01*
Y515166D01*
X869955Y513500D01*
X866622D01*
X864956Y515166D01*
Y518498D01*
X868289D01*
X817250Y1341997D02*
Y1332000D01*
X810585D01*
X807253D02*
Y1341997D01*
X802255D01*
X800589Y1340331D01*
Y1336998D01*
X802255Y1335332D01*
X807253D01*
X790592Y1340331D02*
X792258Y1341997D01*
X795590D01*
X797256Y1340331D01*
Y1333666D01*
X795590Y1332000D01*
X792258D01*
X790592Y1333666D01*
X777263Y1332000D02*
Y1341997D01*
X772264D01*
X770598Y1340331D01*
Y1336998D01*
X772264Y1335332D01*
X777263D01*
X767266Y1332000D02*
Y1341997D01*
X762268D01*
X760602Y1340331D01*
Y1336998D01*
X762268Y1335332D01*
X767266D01*
X763934D02*
X760602Y1332000D01*
X752271Y1341997D02*
X755603D01*
X757269Y1340331D01*
Y1333666D01*
X755603Y1332000D01*
X752271D01*
X750605Y1333666D01*
Y1340331D01*
X752271Y1341997D01*
X740608Y1340331D02*
X742274Y1341997D01*
X745606D01*
X747272Y1340331D01*
Y1333666D01*
X745606Y1332000D01*
X742274D01*
X740608Y1333666D01*
Y1336998D01*
X743940D01*
X1277750Y45252D02*
X1284415D01*
X1281082Y41919D02*
Y48584D01*
X1574453Y749368D02*
Y756032D01*
X1571121Y759365D01*
X1567789Y756032D01*
Y749368D01*
Y754366D01*
X1574453D01*
X1564456Y749368D02*
Y759365D01*
X1561124Y756032D01*
X1557792Y759365D01*
Y749368D01*
X1547795Y757699D02*
X1549461Y759365D01*
X1552793D01*
X1554460Y757699D01*
Y751034D01*
X1552793Y749368D01*
X1549461D01*
X1547795Y751034D01*
X1527802Y759365D02*
X1534466D01*
Y754366D01*
X1531134D01*
X1534466D01*
Y749368D01*
X1524469D02*
Y759365D01*
X1521137Y756032D01*
X1517805Y759365D01*
Y749368D01*
X1507808Y757699D02*
X1509474Y759365D01*
X1512806D01*
X1514473Y757699D01*
Y751034D01*
X1512806Y749368D01*
X1509474D01*
X1507808Y751034D01*
X1487814Y757699D02*
X1489481Y759365D01*
X1492813D01*
X1494479Y757699D01*
Y751034D01*
X1492813Y749368D01*
X1489481D01*
X1487814Y751034D01*
X1484482Y749368D02*
Y756032D01*
X1481150Y759365D01*
X1477818Y756032D01*
Y749368D01*
Y754366D01*
X1484482D01*
X1474485Y749368D02*
Y759365D01*
X1469487D01*
X1467821Y757699D01*
Y754366D01*
X1469487Y752700D01*
X1474485D01*
X1471153D02*
X1467821Y749368D01*
X1464489D02*
Y759365D01*
X1459490D01*
X1457824Y757699D01*
Y754366D01*
X1459490Y752700D01*
X1464489D01*
X1461156D02*
X1457824Y749368D01*
X1454492Y759365D02*
X1451160D01*
X1452826D01*
Y749368D01*
X1454492D01*
X1451160D01*
X1439497Y759365D02*
X1446161D01*
Y749368D01*
X1439497D01*
X1446161Y754366D02*
X1442829D01*
X1436164Y749368D02*
Y759365D01*
X1431166D01*
X1429500Y757699D01*
Y754366D01*
X1431166Y752700D01*
X1436164D01*
X1432832D02*
X1429500Y749368D01*
X1416171Y756032D02*
X1412839Y749368D01*
X1409506Y756032D01*
X1399510Y749368D02*
X1406174D01*
X1399510Y756032D01*
Y757699D01*
X1401176Y759365D01*
X1404508D01*
X1406174Y757699D01*
X1396177Y749368D02*
Y751034D01*
X1394511D01*
Y749368D01*
X1396177D01*
X1387847Y757699D02*
X1386181Y759365D01*
X1382848D01*
X1381182Y757699D01*
Y751034D01*
X1382848Y749368D01*
X1386181D01*
X1387847Y751034D01*
Y757699D01*
X1587502Y783747D02*
X1590834D01*
X1592500Y782081D01*
Y775416D01*
X1590834Y773750D01*
X1587502D01*
X1585836Y775416D01*
Y782081D01*
X1587502Y783747D01*
X1582503Y770418D02*
Y780415D01*
X1577505D01*
X1575839Y778748D01*
Y775416D01*
X1577505Y773750D01*
X1582503D01*
X1567508D02*
X1570840D01*
X1572506Y775416D01*
Y778748D01*
X1570840Y780415D01*
X1567508D01*
X1565842Y778748D01*
Y777082D01*
X1572506D01*
X1562510Y773750D02*
Y780415D01*
X1557511D01*
X1555845Y778748D01*
Y773750D01*
X1542516Y783747D02*
Y773750D01*
Y778748D01*
X1535852D01*
Y783747D01*
Y773750D01*
X1530853Y780415D02*
X1527521D01*
X1525855Y778748D01*
Y773750D01*
X1530853D01*
X1532519Y775416D01*
X1530853Y777082D01*
X1525855D01*
X1522522Y780415D02*
Y773750D01*
Y777082D01*
X1520856Y778748D01*
X1519190Y780415D01*
X1517524D01*
X1505861Y783747D02*
Y773750D01*
X1510860D01*
X1512526Y775416D01*
Y778748D01*
X1510860Y780415D01*
X1505861D01*
X1502529D02*
Y775416D01*
X1500863Y773750D01*
X1499197Y775416D01*
X1497531Y773750D01*
X1495865Y775416D01*
Y780415D01*
X1490866D02*
X1487534D01*
X1485868Y778748D01*
Y773750D01*
X1490866D01*
X1492532Y775416D01*
X1490866Y777082D01*
X1485868D01*
X1482535Y780415D02*
Y773750D01*
Y777082D01*
X1480869Y778748D01*
X1479203Y780415D01*
X1477537D01*
X1467540Y773750D02*
X1470872D01*
X1472539Y775416D01*
Y778748D01*
X1470872Y780415D01*
X1467540D01*
X1465874Y778748D01*
Y777082D01*
X1472539D01*
X1452545Y773750D02*
Y783747D01*
X1447547D01*
X1445881Y782081D01*
Y778748D01*
X1447547Y777082D01*
X1452545D01*
X1449213D02*
X1445881Y773750D01*
X1437550D02*
X1440882D01*
X1442548Y775416D01*
Y778748D01*
X1440882Y780415D01*
X1437550D01*
X1435884Y778748D01*
Y777082D01*
X1442548D01*
X1432552Y770418D02*
Y780415D01*
X1427553D01*
X1425887Y778748D01*
Y775416D01*
X1427553Y773750D01*
X1432552D01*
X1420889D02*
X1417556D01*
X1415890Y775416D01*
Y778748D01*
X1417556Y780415D01*
X1420889D01*
X1422555Y778748D01*
Y775416D01*
X1420889Y773750D01*
X1412558D02*
X1407560D01*
X1405894Y775416D01*
X1407560Y777082D01*
X1410892D01*
X1412558Y778748D01*
X1410892Y780415D01*
X1405894D01*
X1402561Y773750D02*
X1399229D01*
X1400895D01*
Y780415D01*
X1402561D01*
X1392564Y782081D02*
Y780415D01*
X1394230D01*
X1390898D01*
X1392564D01*
Y775416D01*
X1390898Y773750D01*
X1384234D02*
X1380901D01*
X1379235Y775416D01*
Y778748D01*
X1380901Y780415D01*
X1384234D01*
X1385900Y778748D01*
Y775416D01*
X1384234Y773750D01*
X1375903Y780415D02*
Y773750D01*
Y777082D01*
X1374237Y778748D01*
X1372571Y780415D01*
X1370905D01*
X1365906D02*
Y775416D01*
X1364240Y773750D01*
X1359242D01*
Y772084D01*
X1360908Y770418D01*
X1362574D01*
X1359242Y773750D02*
Y780415D01*
X1640750Y727497D02*
Y717500D01*
Y722498D01*
X1639084Y724165D01*
X1635752D01*
X1634086Y722498D01*
Y717500D01*
X1629087Y725831D02*
Y724165D01*
X1630753D01*
X1627421D01*
X1629087D01*
Y719166D01*
X1627421Y717500D01*
X1620756Y725831D02*
Y724165D01*
X1622423D01*
X1619090D01*
X1620756D01*
Y719166D01*
X1619090Y717500D01*
X1614092Y714168D02*
Y724165D01*
X1609093D01*
X1607427Y722498D01*
Y719166D01*
X1609093Y717500D01*
X1614092D01*
X1604095Y724165D02*
X1602429D01*
Y722498D01*
X1604095D01*
Y724165D01*
Y719166D02*
X1602429D01*
Y717500D01*
X1604095D01*
Y719166D01*
X1595764Y717500D02*
X1589100Y724165D01*
X1585768Y717500D02*
X1579103Y724165D01*
X1575771D02*
Y719166D01*
X1574105Y717500D01*
X1572439Y719166D01*
X1570773Y717500D01*
X1569106Y719166D01*
Y724165D01*
X1565774D02*
Y719166D01*
X1564108Y717500D01*
X1562442Y719166D01*
X1560776Y717500D01*
X1559110Y719166D01*
Y724165D01*
X1555777D02*
Y719166D01*
X1554111Y717500D01*
X1552445Y719166D01*
X1550779Y717500D01*
X1549113Y719166D01*
Y724165D01*
X1545781Y717500D02*
Y719166D01*
X1544115D01*
Y717500D01*
X1545781D01*
X1535784D02*
X1532452D01*
X1530786Y719166D01*
Y722498D01*
X1532452Y724165D01*
X1535784D01*
X1537450Y722498D01*
Y719166D01*
X1535784Y717500D01*
X1527453Y727497D02*
Y717500D01*
Y722498D01*
X1525787Y724165D01*
X1522455D01*
X1520789Y722498D01*
Y717500D01*
X1517456Y724165D02*
Y719166D01*
X1515790Y717500D01*
X1514124Y719166D01*
X1512458Y717500D01*
X1510792Y719166D01*
Y724165D01*
X1507460D02*
Y717500D01*
Y720832D01*
X1505793Y722498D01*
X1504127Y724165D01*
X1502461D01*
X1497463Y717500D02*
Y719166D01*
X1495797D01*
Y717500D01*
X1497463D01*
X1487466D02*
X1484134D01*
X1482468Y719166D01*
Y722498D01*
X1484134Y724165D01*
X1487466D01*
X1489132Y722498D01*
Y719166D01*
X1487466Y717500D01*
X1479135Y724165D02*
Y717500D01*
Y720832D01*
X1477469Y722498D01*
X1475803Y724165D01*
X1474137D01*
X1465806Y714168D02*
X1464140D01*
X1462474Y715834D01*
Y724165D01*
X1467473D01*
X1469139Y722498D01*
Y719166D01*
X1467473Y717500D01*
X1462474D01*
X1459142D02*
X1452477Y724165D01*
X1449145Y714168D02*
Y724165D01*
X1444147D01*
X1442481Y722498D01*
Y719166D01*
X1444147Y717500D01*
X1449145D01*
X1439148Y724165D02*
Y717500D01*
Y720832D01*
X1437482Y722498D01*
X1435816Y724165D01*
X1434150D01*
X1427485Y717500D02*
X1424153D01*
X1422487Y719166D01*
Y722498D01*
X1424153Y724165D01*
X1427485D01*
X1429151Y722498D01*
Y719166D01*
X1427485Y717500D01*
X1419155Y714168D02*
X1417489D01*
X1415822Y715834D01*
Y724165D01*
X1404160Y717500D02*
X1407492D01*
X1409158Y719166D01*
Y722498D01*
X1407492Y724165D01*
X1404160D01*
X1402493Y722498D01*
Y720832D01*
X1409158D01*
X1392497Y724165D02*
X1397495D01*
X1399161Y722498D01*
Y719166D01*
X1397495Y717500D01*
X1392497D01*
X1387498Y725831D02*
Y724165D01*
X1389164D01*
X1385832D01*
X1387498D01*
Y719166D01*
X1385832Y717500D01*
X1380834D02*
X1375835D01*
X1374169Y719166D01*
X1375835Y720832D01*
X1379168D01*
X1380834Y722498D01*
X1379168Y724165D01*
X1374169D01*
X1370837Y717500D02*
X1364173Y724165D01*
X1360840Y727497D02*
Y717500D01*
X1355842D01*
X1354176Y719166D01*
Y720832D01*
Y722498D01*
X1355842Y724165D01*
X1360840D01*
X1350843Y714168D02*
Y724165D01*
X1345845D01*
X1344179Y722498D01*
Y719166D01*
X1345845Y717500D01*
X1350843D01*
X1340847D02*
Y724165D01*
X1339180D01*
X1337514Y722498D01*
Y717500D01*
Y722498D01*
X1335848Y724165D01*
X1334182Y722498D01*
Y717500D01*
X1330850Y722498D02*
X1324185D01*
X1314189Y727497D02*
Y717500D01*
X1319187D01*
X1320853Y719166D01*
Y722498D01*
X1319187Y724165D01*
X1314189D01*
X1310856Y727497D02*
Y717500D01*
X1305858D01*
X1304192Y719166D01*
Y720832D01*
Y722498D01*
X1305858Y724165D01*
X1310856D01*
X1295861Y717500D02*
X1299193D01*
X1300860Y719166D01*
Y722498D01*
X1299193Y724165D01*
X1295861D01*
X1294195Y722498D01*
Y720832D01*
X1300860D01*
X734502Y806401D02*
X731170D01*
X732836D01*
Y816397D01*
X734502Y814731D01*
X1548170Y102163D02*
X1547218Y102640D01*
X1545789Y104068D01*
Y94070D01*
X1431239Y24998D02*
X1436000Y18333D01*
X1428859D01*
X1431239Y24998D02*
Y15000D01*
X1351500Y313247D02*
Y306582D01*
X1348168Y303250D01*
X1344836Y306582D01*
Y313247D01*
X1341503Y303250D02*
Y309914D01*
X1338171Y313247D01*
X1334839Y309914D01*
Y303250D01*
Y308248D01*
X1341503D01*
X1331506Y313247D02*
Y303250D01*
X1326508D01*
X1324842Y304916D01*
Y311581D01*
X1326508Y313247D01*
X1331506D01*
X1314845D02*
X1318177D01*
X1316511D01*
Y304916D01*
X1318177Y303250D01*
X1319843D01*
X1321510Y304916D01*
X1296518Y313247D02*
X1299850D01*
X1301516Y311581D01*
Y304916D01*
X1299850Y303250D01*
X1296518D01*
X1294852Y304916D01*
Y311581D01*
X1296518Y313247D01*
X1291519Y303250D02*
Y313247D01*
X1284855Y303250D01*
Y313247D01*
X1469750Y308497D02*
Y301832D01*
X1466418Y298500D01*
X1463085Y301832D01*
Y308497D01*
X1459753Y298500D02*
Y305165D01*
X1456421Y308497D01*
X1453089Y305165D01*
Y298500D01*
Y303498D01*
X1459753D01*
X1449756Y308497D02*
Y298500D01*
X1444758D01*
X1443092Y300166D01*
Y306831D01*
X1444758Y308497D01*
X1449756D01*
X1433095D02*
X1436427D01*
X1434761D01*
Y300166D01*
X1436427Y298500D01*
X1438094D01*
X1439760Y300166D01*
X1414768Y308497D02*
X1418100D01*
X1419766Y306831D01*
Y300166D01*
X1418100Y298500D01*
X1414768D01*
X1413102Y300166D01*
Y306831D01*
X1414768Y308497D01*
X1409769Y298500D02*
Y308497D01*
X1403105Y298500D01*
Y308497D01*
X1220331Y221000D02*
X1221997Y222666D01*
Y225998D01*
X1220331Y227665D01*
X1218664D01*
X1216998Y225998D01*
Y224332D01*
Y225998D01*
X1215332Y227665D01*
X1213666D01*
X1212000Y225998D01*
Y222666D01*
X1213666Y221000D01*
X1212000Y230997D02*
X1213666D01*
Y232663D01*
X1212000D01*
Y230997D01*
X1220331Y239327D02*
X1221997Y240993D01*
Y244326D01*
X1220331Y245992D01*
X1218664D01*
X1216998Y244326D01*
Y242660D01*
Y244326D01*
X1215332Y245992D01*
X1213666D01*
X1212000Y244326D01*
Y240993D01*
X1213666Y239327D01*
X1221997Y249324D02*
X1215332D01*
X1212000Y252656D01*
X1215332Y255989D01*
X1221997D01*
Y274316D02*
Y270984D01*
X1220331Y269318D01*
X1213666D01*
X1212000Y270984D01*
Y274316D01*
X1213666Y275982D01*
X1220331D01*
X1221997Y274316D01*
X1212000Y279314D02*
X1221997D01*
X1212000Y285979D01*
X1221997D01*
X1110581Y210750D02*
X1112247Y212416D01*
Y215748D01*
X1110581Y217414D01*
X1108914D01*
X1107248Y215748D01*
Y214082D01*
Y215748D01*
X1105582Y217414D01*
X1103916D01*
X1102250Y215748D01*
Y212416D01*
X1103916Y210750D01*
X1102250Y220747D02*
X1103916D01*
Y222413D01*
X1102250D01*
Y220747D01*
X1110581Y229077D02*
X1112247Y230744D01*
Y234076D01*
X1110581Y235742D01*
X1108914D01*
X1107248Y234076D01*
Y232410D01*
Y234076D01*
X1105582Y235742D01*
X1103916D01*
X1102250Y234076D01*
Y230744D01*
X1103916Y229077D01*
X1112247Y239074D02*
X1105582D01*
X1102250Y242406D01*
X1105582Y245739D01*
X1112247D01*
Y264066D02*
Y260734D01*
X1110581Y259068D01*
X1103916D01*
X1102250Y260734D01*
Y264066D01*
X1103916Y265732D01*
X1110581D01*
X1112247Y264066D01*
X1102250Y269065D02*
X1112247D01*
X1102250Y275729D01*
X1112247D01*
D152*
X726750Y1387270D02*
X731830Y1392350D01*
X726750Y1366950D02*
X726750Y1387270D01*
X726750Y1366950D02*
X790250D01*
X731830Y1392350D02*
X790250Y1392350D01*
X790250Y1366950D02*
X790250Y1392350D01*
D204*
X1387250Y1071250D02*
G03*
X1387250Y1071250I-2000J0D01*
G01*
X835500Y805500D02*
G03*
X835500Y805500I-2000J0D01*
G01*
X1329295Y497745D02*
G03*
X1329295Y497745I-2000J0D01*
G01*
X1162528Y422661D02*
G03*
X1162528Y422661I-2000J0D01*
G01*
X945212Y87706D02*
G03*
X945212Y87706I-1250J0D01*
G01*
X789426Y251240D02*
G03*
X790854Y250857I4198J12792D01*
G01*
X779445Y262200D02*
G03*
X779815Y260914I13107J3073D01*
G01*
X806153Y267533D02*
G03*
X796156Y277943I-13830J-3277D01*
G01*
X795503Y265210D02*
G03*
X795503Y265210I-2500J0D01*
G01*
X813592Y223400D02*
G03*
X814331Y222120I12013J6077D01*
G01*
X814284Y238208D02*
G03*
X813636Y237038I11442J-7095D01*
G01*
X836941Y223095D02*
G03*
X837233Y237524I-12096J7462D01*
G01*
X828500Y230750D02*
G03*
X828500Y230750I-2500J0D01*
G01*
X800592Y926401D02*
G03*
X801331Y925120I12013J6077D01*
G01*
X801284Y941208D02*
G03*
X800637Y940038I11442J-7095D01*
G01*
X823941Y926095D02*
G03*
X824233Y940524I-12096J7462D01*
G01*
X815500Y933750D02*
G03*
X815500Y933750I-2500J0D01*
G01*
X800592Y881400D02*
G03*
X801331Y880120I12013J6077D01*
G01*
X801284Y896208D02*
G03*
X800637Y895038I11442J-7095D01*
G01*
X823941Y881095D02*
G03*
X824233Y895524I-12096J7462D01*
G01*
X815500Y888750D02*
G03*
X815500Y888750I-2500J0D01*
G01*
X910314Y1171828D02*
G03*
X910314Y1171828I-1250J0D01*
G01*
X1685250Y172750D02*
G03*
X1685250Y172750I-1250J0D01*
G01*
X1375762Y173206D02*
G03*
X1375762Y173206I-1250J0D01*
G01*
X1157762Y97706D02*
G03*
X1157762Y97706I-1250J0D01*
G01*
X1058500Y50500D02*
G03*
X1058500Y50500I-1250J0D01*
G01*
X1353650Y130500D02*
G03*
X1353650Y130500I-1250J0D01*
G01*
X1489050Y136000D02*
G03*
X1489050Y136000I-1250J0D01*
G01*
X1135650Y55000D02*
G03*
X1135650Y55000I-1250J0D01*
G01*
X1271050Y60500D02*
G03*
X1271050Y60500I-1250J0D01*
G01*
X1505750Y948000D02*
G03*
X1505750Y948000I-1250J0D01*
G01*
X314060Y1088696D02*
G03*
X314060Y1088696I-1250J0D01*
G01*
X286300Y281000D02*
G03*
X286300Y281000I-1250J0D01*
G01*
X1480050Y1048000D02*
G03*
X1480050Y1048000I-1250J0D01*
G01*
X1529000Y115750D02*
G03*
X1529000Y115750I-1250J0D01*
G01*
X550750Y843000D02*
G03*
X550750Y843000I-1250J0D01*
G01*
X553000Y143500D02*
G03*
X553000Y143500I-1250J0D01*
G01*
X550750Y805000D02*
G03*
X550750Y805000I-1250J0D01*
G01*
X553000Y105500D02*
G03*
X553000Y105500I-1250J0D01*
G01*
X1596746Y1167350D02*
G03*
X1596746Y1167350I-1250J0D01*
G01*
X923100Y45000D02*
G03*
X923100Y45000I-1250J0D01*
G01*
X80658Y715850D02*
G03*
X79919Y717130I-12013J-6077D01*
G01*
X79966Y701042D02*
G03*
X80613Y702212I-11442J7095D01*
G01*
X57309Y716155D02*
G03*
X57017Y701726I12096J-7462D01*
G01*
X70750Y708500D02*
G03*
X70750Y708500I-2500J0D01*
G01*
X984658Y314850D02*
G03*
X983919Y316130I-12013J-6077D01*
G01*
X983966Y300042D02*
G03*
X984613Y301212I-11442J7095D01*
G01*
X961309Y315156D02*
G03*
X961017Y300726I12096J-7462D01*
G01*
X974750Y307500D02*
G03*
X974750Y307500I-2500J0D01*
G01*
X1013092Y300650D02*
G03*
X1013831Y299370I12013J6077D01*
G01*
X1013784Y315458D02*
G03*
X1013137Y314288I11442J-7095D01*
G01*
X1036441Y300345D02*
G03*
X1036733Y314774I-12096J7462D01*
G01*
X1028000Y308000D02*
G03*
X1028000Y308000I-2500J0D01*
G01*
X1598785Y1280671D02*
G03*
X1598785Y1280671I-1250J0D01*
G01*
X846500Y763328D02*
X1301500D01*
X846500Y1218328D02*
X1301500D01*
Y763328D02*
Y1218328D01*
X846500Y763328D02*
Y1218328D01*
X1449750Y500250D02*
X1495750D01*
X1495750Y493250D01*
X1500750Y493250D01*
Y488250D02*
Y493250D01*
Y488250D02*
X1506750Y488250D01*
X1506750Y486250D02*
X1506750Y347250D01*
X1498750D02*
X1506750D01*
X1498750Y341250D02*
Y347250D01*
Y331250D02*
Y341250D01*
X1444750Y496250D02*
Y500250D01*
X1480750D01*
X1506750Y351250D02*
X1506750Y488250D01*
X1444750Y331250D02*
X1498750D01*
X1444750D02*
Y495250D01*
X1581500Y494150D02*
X1626750D01*
X1635500Y330150D02*
Y463000D01*
X1584500Y325150D02*
X1630500Y325150D01*
X1584500Y332150D02*
X1584500Y325150D01*
X1579500Y332150D02*
X1584500D01*
X1579500D02*
Y337150D01*
X1573500Y337150D02*
X1579500Y337150D01*
X1573500Y339150D02*
Y478150D01*
X1581500Y478150D01*
Y484150D01*
Y494150D01*
X1635500Y329150D02*
X1635500Y325150D01*
X1599500Y325150D02*
X1635500Y325150D01*
X1573500Y337150D02*
Y474150D01*
D205*
X1432180Y211349D02*
G03*
X1464320Y211349I16070J19151D01*
G01*
X1432340Y214590D02*
G03*
X1437942Y210500I15910J15910D01*
G01*
X1458558D02*
G03*
X1464160Y214590I-10308J20000D01*
G01*
X1464320Y249651D02*
G03*
X1432180Y249651I-16070J-19151D01*
G01*
X1448250Y230500D02*
G03*
X1435550Y230500I-6350J0D01*
G01*
X1460950D02*
G03*
X1448250Y230500I-6350J0D01*
G01*
X1463712Y239644D02*
G03*
X1463712Y239644I-1000J0D01*
G01*
X1437942Y250500D02*
G03*
X1432340Y246410I10308J-20000D01*
G01*
X1464160D02*
G03*
X1458558Y250500I-15910J-15910D01*
G01*
X1001630Y125849D02*
G03*
X1033770Y125849I16070J19151D01*
G01*
X1001790Y129090D02*
G03*
X1007392Y125000I15910J15910D01*
G01*
X1028008D02*
G03*
X1033610Y129090I-10308J20000D01*
G01*
X1033770Y164151D02*
G03*
X1001630Y164151I-16070J-19151D01*
G01*
X1017700Y145000D02*
G03*
X1005000Y145000I-6350J0D01*
G01*
X1030400D02*
G03*
X1017700Y145000I-6350J0D01*
G01*
X1033162Y154144D02*
G03*
X1033162Y154144I-1000J0D01*
G01*
X1007392Y165000D02*
G03*
X1001790Y160910I10308J-20000D01*
G01*
X1033610D02*
G03*
X1028008Y165000I-15910J-15910D01*
G01*
X1107750Y318500D02*
G03*
X1107750Y318500I-15000J0D01*
G01*
X1503750Y1243750D02*
G03*
X1503750Y1243750I-15000J0D01*
G01*
X1374750Y43250D02*
G03*
X1374750Y43250I-50000J0D01*
G01*
X887962Y123469D02*
G03*
X920101Y123469I16070J19151D01*
G01*
X888122Y126710D02*
G03*
X893724Y122620I15910J15910D01*
G01*
X914339D02*
G03*
X919942Y126710I-10308J20000D01*
G01*
X920101Y161771D02*
G03*
X887962Y161771I-16070J-19151D01*
G01*
X904032Y142620D02*
G03*
X891332Y142620I-6350J0D01*
G01*
X916732D02*
G03*
X904032Y142620I-6350J0D01*
G01*
X919494Y151764D02*
G03*
X919494Y151764I-1000J0D01*
G01*
X893724Y162620D02*
G03*
X888122Y158530I10308J-20000D01*
G01*
X919942D02*
G03*
X914339Y162620I-15910J-15910D01*
G01*
X1194528Y310488D02*
G03*
X1194528Y383234I-21000J36373D01*
G01*
X1152528D02*
G03*
X1152528Y310488I21000J-36373D01*
G01*
X1318512Y208969D02*
G03*
X1350651Y208969I16070J19151D01*
G01*
X1318672Y212210D02*
G03*
X1324274Y208120I15910J15910D01*
G01*
X1344889D02*
G03*
X1350492Y212210I-10308J20000D01*
G01*
X1350651Y247271D02*
G03*
X1318512Y247271I-16070J-19151D01*
G01*
X1334582Y228120D02*
G03*
X1321882Y228120I-6350J0D01*
G01*
X1347282D02*
G03*
X1334582Y228120I-6350J0D01*
G01*
X1350044Y237264D02*
G03*
X1350044Y237264I-1000J0D01*
G01*
X1324274Y248120D02*
G03*
X1318672Y244030I10308J-20000D01*
G01*
X1350492D02*
G03*
X1344889Y248120I-15910J-15910D01*
G01*
X1100512Y133469D02*
G03*
X1132651Y133469I16070J19151D01*
G01*
X1100672Y136710D02*
G03*
X1106274Y132620I15910J15910D01*
G01*
X1126889D02*
G03*
X1132492Y136710I-10308J20000D01*
G01*
X1132651Y171771D02*
G03*
X1100512Y171771I-16070J-19151D01*
G01*
X1116582Y152620D02*
G03*
X1103882Y152620I-6350J0D01*
G01*
X1129282D02*
G03*
X1116582Y152620I-6350J0D01*
G01*
X1132044Y161764D02*
G03*
X1132044Y161764I-1000J0D01*
G01*
X1106274Y172620D02*
G03*
X1100672Y168530I10308J-20000D01*
G01*
X1132492D02*
G03*
X1126889Y172620I-15910J-15910D01*
G01*
X1214180Y135849D02*
G03*
X1246320Y135849I16070J19151D01*
G01*
X1214340Y139090D02*
G03*
X1219942Y135000I15910J15910D01*
G01*
X1240558D02*
G03*
X1246160Y139090I-10308J20000D01*
G01*
X1246320Y174151D02*
G03*
X1214180Y174151I-16070J-19151D01*
G01*
X1230250Y155000D02*
G03*
X1217550Y155000I-6350J0D01*
G01*
X1242950D02*
G03*
X1230250Y155000I-6350J0D01*
G01*
X1245712Y164144D02*
G03*
X1245712Y164144I-1000J0D01*
G01*
X1219942Y175000D02*
G03*
X1214340Y170910I10308J-20000D01*
G01*
X1246160D02*
G03*
X1240558Y175000I-15910J-15910D01*
G01*
X1361295Y385572D02*
G03*
X1361295Y458318I-21000J36373D01*
G01*
X1319294Y458318D02*
G03*
X1319294Y385572I21000J-36373D01*
G01*
X1486500Y1096880D02*
G03*
X1481500Y1091880I0J-5000D01*
G01*
X1610500Y1091880D02*
G03*
X1605500Y1096880I-5000J0D01*
G01*
Y968880D02*
G03*
X1610500Y973880I0J5000D01*
G01*
X1481500D02*
G03*
X1486500Y968880I5000J0D01*
G01*
X-8250Y667776D02*
G03*
X-6250Y665776I2000J0D01*
G01*
Y740776D02*
G03*
X-8250Y738776I0J-2000D01*
G01*
X-64250Y718276D02*
G03*
X-66250Y716276I0J-2000D01*
G01*
Y690276D02*
G03*
X-64250Y688276I2000J0D01*
G01*
X1447250Y108250D02*
G03*
X1444250Y105250I0J-3000D01*
G01*
X1444250Y15250D02*
G03*
X1447250Y12250I3000J0D01*
G01*
X1537250D02*
G03*
X1540250Y15250I0J3000D01*
G01*
X1117750Y382500D02*
X1127750Y382500D01*
X1437942Y250500D02*
X1458558D01*
X1437942Y210500D02*
X1458558D01*
X1415750Y253000D02*
X1425750Y263000D01*
X1470750D02*
X1480750Y253000D01*
Y198000D02*
Y208000D01*
X1425750Y263000D02*
X1470750D01*
X1415750Y198000D02*
X1480750D01*
X1415750D02*
Y208000D01*
X1460950Y230500D02*
X1464400D01*
X1432100D02*
X1435550D01*
X1007392Y165000D02*
X1028008D01*
X1007392Y125000D02*
X1028008D01*
X985200Y167500D02*
X995200Y177500D01*
X1040200D02*
X1050200Y167500D01*
Y112500D02*
Y122500D01*
X995200Y177500D02*
X1040200D01*
X985200Y112500D02*
X1050200D01*
X985200D02*
Y122500D01*
X1030400Y145000D02*
X1033850D01*
X1001550D02*
X1005000D01*
X866500Y1315250D02*
Y1326250D01*
X850500Y1315250D02*
Y1326250D01*
X962000Y745000D02*
X972000D01*
X955500Y703000D02*
Y713000D01*
X1344250Y1152750D02*
X1350750Y1152750D01*
X1344250Y1077750D02*
X1350750D01*
X1383750Y1152750D02*
X1390250Y1152750D01*
X1344250Y1077750D02*
Y1152750D01*
X1390250Y1104000D02*
Y1152750D01*
X752000Y764500D02*
X752000Y771000D01*
X827000D02*
X827000Y764500D01*
X752000Y810500D02*
X752000Y804000D01*
X827000D02*
Y810500D01*
X752000Y764500D02*
X827000D01*
X752000Y810500D02*
X827000D01*
X1056556Y740988D02*
X1056556Y729988D01*
X1081556D02*
X1081556Y740988D01*
X1408795Y532245D02*
X1408795Y538745D01*
X1333795Y532245D02*
Y538745D01*
X1408795Y492745D02*
X1408795Y499245D01*
X1333795Y499245D02*
X1333795Y492745D01*
Y538745D02*
X1408795Y538745D01*
X1333795Y492745D02*
X1408795Y492745D01*
X1242028Y463661D02*
X1242028Y457161D01*
X1167028Y463661D02*
X1167028Y457161D01*
X1242028Y424161D02*
X1242028Y417661D01*
X1167028D02*
Y424161D01*
X1167028Y463661D02*
X1242028Y463661D01*
X1167028Y417661D02*
X1242028D01*
X1415045Y481495D02*
X1426044Y481495D01*
X1415045Y456495D02*
X1426044Y456495D01*
X893724Y162620D02*
X914340D01*
X893724Y122620D02*
X914340D01*
X871532Y165120D02*
X881532Y175120D01*
X926532D02*
X936532Y165120D01*
Y120120D02*
X936532Y110120D01*
X881532Y175120D02*
X926532D01*
X871532Y110120D02*
X936532D01*
X871532D02*
Y120120D01*
X916732Y142620D02*
X920182D01*
X887882D02*
X891332D01*
X1126528Y327361D02*
X1156528Y281861D01*
X1126528Y327361D02*
X1126528Y366361D01*
X1190528Y411861D02*
X1220528Y366361D01*
X1190528Y281861D02*
X1220528Y327361D01*
Y366361D01*
X1324274Y248120D02*
X1344890D01*
X1324274Y208120D02*
X1344890D01*
X1302082Y250620D02*
X1312082Y260620D01*
X1357082D02*
X1367082Y250620D01*
Y195620D02*
Y205620D01*
X1312082Y260620D02*
X1357082D01*
X1302082Y195620D02*
X1367082D01*
X1302082D02*
Y205620D01*
X1347282Y228120D02*
X1350732D01*
X1318432D02*
X1321882D01*
X1106274Y172620D02*
X1126889D01*
X1106274Y132620D02*
X1126889D01*
X1084082Y175120D02*
X1094082Y185120D01*
X1139082D02*
X1149082Y175120D01*
Y120120D02*
Y130120D01*
X1094082Y185120D02*
X1139082D01*
X1084082Y120120D02*
X1149082D01*
X1084082D02*
X1084082Y130120D01*
X1129282Y152620D02*
X1132732D01*
X1100432D02*
X1103882D01*
X1219942Y175000D02*
X1240558D01*
X1219942Y135000D02*
X1240558D01*
X1197750Y177500D02*
X1207750Y187500D01*
X1252750D02*
X1262750Y177500D01*
Y132500D02*
X1262750Y122500D01*
X1207750Y187500D02*
X1252750D01*
X1197750Y122500D02*
X1262750D01*
X1197750D02*
Y132500D01*
X1242950Y155000D02*
X1246400D01*
X1214100D02*
X1217550D01*
X1248278Y406411D02*
X1259278D01*
X1248278Y381410D02*
X1259278D01*
X1293295Y402445D02*
X1323295Y356945D01*
X1293295Y402445D02*
X1293295Y441445D01*
X1323295Y486945D01*
X1357295Y486945D02*
X1387295Y441445D01*
X1357295Y356945D02*
X1387294Y402445D01*
X1387295Y441445D01*
X1551500Y851750D02*
X1551500Y840750D01*
X1526500D02*
X1526500Y851750D01*
X1590000Y882250D02*
X1590000Y893250D01*
X1615000Y893250D02*
X1615000Y882250D01*
X1620000Y882250D02*
Y893250D01*
X1645000Y893250D02*
X1645000Y882250D01*
X1675000Y882250D02*
X1675000Y893250D01*
X1650000Y893250D02*
X1650000Y882250D01*
X1460750Y1001000D02*
Y1015000D01*
X1481500Y973880D02*
X1481500Y1091880D01*
X1486500Y1096880D02*
X1505868Y1096880D01*
X1610500Y973880D02*
Y1091880D01*
X1586640Y968880D02*
X1605500Y968880D01*
X1486500D02*
X1505868Y968880D01*
X1586894Y1096880D02*
X1605500D01*
X1446750Y993750D02*
X1456750D01*
X1446750Y977750D02*
X1456750D01*
X275000Y11000D02*
Y18000D01*
X290770D02*
X291510D01*
X290770Y11000D02*
X291510D01*
X290770D02*
Y18000D01*
X292500Y500D02*
Y28500D01*
X257500Y500D02*
Y28500D01*
X1390750Y1046250D02*
X1400750D01*
X1408250D02*
X1418250D01*
X1408250Y1085500D02*
X1418250D01*
X1339000Y1046000D02*
X1349000D01*
X795500Y1003000D02*
Y1013000D01*
X1373250Y1046000D02*
X1383250D01*
X1001000Y699750D02*
Y709750D01*
X801000Y984250D02*
Y994250D01*
X830500Y835250D02*
Y845250D01*
X1022500Y729488D02*
X1022500Y740488D01*
X1047500D02*
X1047500Y729488D01*
X1087000Y740738D02*
X1097000D01*
X1145000Y726750D02*
X1145000Y737750D01*
X1170000D02*
X1170000Y726750D01*
X1111000Y727000D02*
X1111000Y738000D01*
X1136000D02*
X1136000Y727000D01*
X1338750Y1088000D02*
Y1099000D01*
X1313750Y1088000D02*
Y1099000D01*
X1355750Y1046000D02*
X1365750D01*
X828500Y813750D02*
Y823750D01*
X832182Y1104500D02*
Y1114500D01*
X830250Y1082500D02*
Y1092500D01*
X826250Y1066250D02*
Y1076250D01*
X1390750Y1085500D02*
X1400750D01*
X795750Y1055000D02*
X806750Y1055000D01*
X795750Y1030000D02*
X806750Y1030000D01*
X-6250Y665776D02*
X30513D01*
X57250D02*
Y672276D01*
X53563D02*
X57250D01*
X31750Y675276D02*
Y731276D01*
X53563Y734276D02*
X57250D01*
Y740776D01*
X53986D02*
X57250D01*
X-8250Y667776D02*
Y738776D01*
X-1750Y672276D02*
X11085D01*
X-1750Y734276D02*
X11085D01*
X-1750Y672276D02*
Y734276D01*
X-64250Y688276D02*
X-8250D01*
X-66250Y690576D02*
Y716276D01*
X-64250Y718276D02*
X-8250D01*
X-10250Y687276D02*
X-8250D01*
X-10250Y675276D02*
Y687276D01*
Y675276D02*
X-8250D01*
X-10250Y731276D02*
X-8250D01*
X-10250Y719276D02*
Y731276D01*
Y719276D02*
X-8250D01*
X-6250Y740776D02*
X30513D01*
X23414Y734276D02*
X29750D01*
X23414Y672276D02*
X29750D01*
X53986Y665776D02*
X57250D01*
X1248750Y712500D02*
Y722500D01*
X1248750Y750000D02*
Y760000D01*
X1248750Y730000D02*
Y740000D01*
X945250Y1248750D02*
X956250Y1248750D01*
X945250Y1223750D02*
X956250Y1223750D01*
X1312250Y781250D02*
Y792250D01*
X1337250Y792250D02*
X1337250Y781250D01*
X1191000Y485250D02*
X1201000D01*
X1220500Y488500D02*
Y498500D01*
X756250Y320000D02*
X769750D01*
X1035000Y231750D02*
Y245250D01*
X1288500Y506000D02*
X1302000D01*
X410750Y421750D02*
Y435250D01*
X101500Y437500D02*
Y451000D01*
X1071750Y-4000D02*
Y9500D01*
X1250750Y750D02*
Y14250D01*
X502000Y892500D02*
X515500D01*
X1498000Y307000D02*
X1511500D01*
X1587000Y811000D02*
Y824500D01*
X1418000Y1136250D02*
Y1149750D01*
X1065500Y351000D02*
X1079000D01*
X759000Y1132500D02*
X772500D01*
X984462Y79206D02*
Y82206D01*
X981462D02*
X984462D01*
Y40206D02*
Y43206D01*
X981462Y40206D02*
X984462D01*
X942462Y79206D02*
Y82206D01*
X945462D01*
X942462Y40206D02*
Y43206D01*
Y40206D02*
X945462D01*
X788132Y362718D02*
X795752D01*
X783052Y367798D02*
X788132Y362718D01*
X785592Y367798D02*
X790672Y362718D01*
X793212Y362718D02*
X795752Y362718D01*
X788132Y367798D02*
X793212Y362718D01*
X790672Y367798D02*
X795752Y362718D01*
X783052Y367798D02*
X790672D01*
X782620Y368230D02*
X787700Y363150D01*
X790240Y363150D01*
X782620Y383470D02*
Y388550D01*
X813100D01*
Y363150D02*
Y388550D01*
X782620Y434270D02*
Y439350D01*
X841040D01*
X841040Y434270D02*
X841040Y439350D01*
X787700Y363150D02*
X841040Y363150D01*
Y368230D01*
X597075Y1346575D02*
X638154D01*
X593000Y780408D02*
Y1296000D01*
X728750Y780408D02*
Y1284000D01*
X682096Y1346575D02*
X725425D01*
X599038Y786251D02*
X601578Y788791D01*
X599038Y786251D02*
Y807301D01*
X597768Y1309237D02*
Y1343781D01*
X601578Y1339971D01*
Y1314301D02*
Y1339971D01*
Y788791D02*
X638281D01*
Y778631D02*
Y788791D01*
Y778631D02*
X679712D01*
X704556Y788791D02*
X718672D01*
X721212Y786251D01*
X704578D02*
X721212D01*
X634471Y774820D02*
X684481D01*
X634471D02*
Y786251D01*
X599038D02*
X634471D01*
X593000Y780408D02*
X631677D01*
Y772027D02*
Y780408D01*
Y772027D02*
X688573D01*
Y773552D01*
X702754Y780408D02*
X728750D01*
X682096Y1338193D02*
Y1346575D01*
X672254Y1338193D02*
X682096D01*
X638154D02*
Y1346575D01*
X721212Y786251D02*
Y807301D01*
X718672Y1314301D02*
Y1339971D01*
X688700D02*
X718672D01*
X688700Y1329811D02*
Y1339971D01*
X674056Y1329811D02*
X688700D01*
X631550D02*
Y1339971D01*
X601578D02*
X631550D01*
X597768Y1343781D02*
X635360D01*
Y1332351D02*
Y1343781D01*
Y1332351D02*
X646172D01*
X684890D02*
Y1343781D01*
X722482D01*
Y1309237D02*
Y1343781D01*
X631550Y1339971D02*
X635360Y1343781D01*
X631550Y1329811D02*
X635360Y1332351D01*
X684890D02*
X688700Y1329811D01*
X684890Y1343781D02*
X688700Y1339971D01*
X718672D02*
X722482Y1343781D01*
X634471Y774820D02*
X638281Y778631D01*
X634471Y786251D02*
X638281Y788791D01*
X674078Y1332351D02*
X684890D01*
X631550Y1329811D02*
X646194D01*
X638154Y1338193D02*
X647996D01*
X899064Y1155828D02*
X909064Y1165828D01*
X899064Y1157828D02*
X907064Y1165828D01*
X899064Y1159828D02*
X905064Y1165828D01*
X899064Y1161828D02*
X903064Y1165828D01*
X899064Y1163828D02*
X901064Y1165828D01*
X1249064Y815828D02*
Y1165828D01*
X899064Y815828D02*
X1249064D01*
X899064D02*
Y1165828D01*
X1249064D01*
X1663000Y170250D02*
X1672000D01*
X1663000Y139250D02*
X1672000D01*
Y170250D01*
X1663000Y139250D02*
Y170250D01*
X1415012Y164706D02*
Y167706D01*
X1412012D02*
X1415012D01*
Y125706D02*
Y128706D01*
X1412012Y125706D02*
X1415012D01*
X1373012Y164706D02*
Y167706D01*
X1376012D01*
X1373012Y125706D02*
Y128706D01*
Y125706D02*
X1376012D01*
X1197012Y89206D02*
Y92206D01*
X1194012D02*
X1197012D01*
Y50206D02*
Y53206D01*
X1194012Y50206D02*
X1197012D01*
X1155012Y89206D02*
Y92206D01*
X1158012D01*
X1155012Y50206D02*
Y53206D01*
Y50206D02*
X1158012D01*
X836210Y582670D02*
X843830D01*
X831130Y587750D02*
X836210Y582670D01*
X833670Y587750D02*
X838750Y582670D01*
X831130Y587750D02*
X833670Y587750D01*
X836210D02*
X841290Y582670D01*
X838750Y587750D02*
X843830Y582670D01*
X831130Y587750D02*
X838750D01*
X813350Y562350D02*
X843830Y562350D01*
X813350Y562350D02*
Y587750D01*
X785410Y582670D02*
X785410Y587750D01*
X838750Y587750D01*
X785410Y460750D02*
Y465830D01*
Y460750D02*
X843830Y460750D01*
X843830Y465830D01*
X1004700Y59000D02*
Y90000D01*
X1054700Y59000D02*
Y90000D01*
X1004700D02*
X1054700D01*
X1004700Y59000D02*
X1054700D01*
X1299850Y139000D02*
Y170000D01*
X1349850Y139000D02*
Y170000D01*
X1299850D02*
X1349850D01*
X1299850Y139000D02*
X1349850D01*
X1435250Y144500D02*
Y175500D01*
X1485250Y144500D02*
Y175500D01*
X1435250D02*
X1485250D01*
X1435250Y144500D02*
X1485250D01*
X1081850Y63500D02*
Y94500D01*
X1131850Y63500D02*
Y94500D01*
X1081850D02*
X1131850D01*
X1081850Y63500D02*
X1131850D01*
X1217250Y69000D02*
Y100000D01*
X1267250Y69000D02*
Y100000D01*
X1217250D02*
X1267250D01*
X1217250Y69000D02*
X1267250D01*
X1510000Y896875D02*
Y919500D01*
X1571000Y919500D02*
X1571000Y896750D01*
X1510000Y919500D02*
Y947750D01*
X1571000Y919500D02*
Y947750D01*
X273310Y1036146D02*
X304310D01*
X273310Y1086146D02*
X304310D01*
X273310D02*
X273310Y1036146D01*
X304310Y1086146D02*
X304310Y1036146D01*
X232500Y289500D02*
Y320500D01*
X282500Y289500D02*
Y320500D01*
X232500D02*
X282500D01*
X232500Y289500D02*
X282500D01*
X1426250Y1056500D02*
Y1087500D01*
X1476250Y1056500D02*
Y1087500D01*
X1426250D02*
X1476250D01*
X1426250Y1056500D02*
X1476250D01*
X1607076Y1140794D02*
X1607326Y1141044D01*
Y1153250D01*
Y1213794D02*
X1607576Y1214044D01*
X1607326Y1202044D02*
Y1213794D01*
X1607576Y1214044D02*
X1642500D01*
X1607326Y1140794D02*
X1642500D01*
X1679500D02*
X1697326D01*
X1677250Y1214044D02*
X1697326D01*
Y1140794D02*
Y1214044D01*
X1461750Y96750D02*
X1464322D01*
X1478178Y19750D02*
X1488750D01*
X1453750D02*
X1464322D01*
X1478178Y96750D02*
X1480750D01*
X1495750Y61750D02*
Y96750D01*
Y61750D02*
X1530750D01*
Y96750D01*
X1522750Y54750D02*
X1530750Y46750D01*
X1503750Y54750D02*
X1522750D01*
X1495750Y46750D02*
X1503750Y54750D01*
X1495750Y19750D02*
Y46750D01*
X1530750Y19750D02*
Y46750D01*
X1522750Y54750D02*
X1530750Y46750D01*
X1453750Y54750D02*
X1488750D01*
X1453750Y19750D02*
Y54750D01*
X1488750Y19750D02*
Y54750D01*
X1480750Y96750D02*
X1488750Y88750D01*
X1453750D02*
X1461750Y96750D01*
X1453750Y61750D02*
Y88750D01*
Y61750D02*
X1488750D01*
Y88750D01*
X1480750Y96750D02*
X1488750Y88750D01*
X1444250Y42250D02*
X1444250Y105250D01*
X1440250Y38894D02*
X1444250Y42250D01*
X1440250Y25606D02*
Y38894D01*
Y25606D02*
X1444250Y22250D01*
X1444250Y15250D02*
X1444250Y22250D01*
X1447250Y12250D02*
X1537250D01*
X1540250Y82250D02*
X1540250Y15250D01*
X1509250Y-1750D02*
Y12250D01*
X1475250Y-1750D02*
X1509250D01*
X1475250D02*
Y12250D01*
X1495750Y96750D02*
X1506322D01*
X1520178Y19750D02*
X1530750D01*
X1495750D02*
X1506322D01*
X1520178Y96750D02*
X1530750D01*
X1525250Y124250D02*
X1525250Y121250D01*
X1528250D01*
X1559250D02*
X1562250D01*
Y124250D01*
Y175250D02*
Y178250D01*
X1559250D02*
X1562250D01*
X1525250D02*
X1528250D01*
X1525250Y175250D02*
X1525250Y178250D01*
X558500Y867000D02*
X574500D01*
Y847000D02*
Y867000D01*
X558500Y847000D02*
X574500D01*
X558500D02*
Y867000D01*
Y849000D02*
X560500Y847000D01*
X558500Y851000D02*
X562500Y847000D01*
X558500Y853000D02*
X564500Y847000D01*
X558500Y855000D02*
X566500Y847000D01*
X558500Y857000D02*
X568500Y847000D01*
X560750Y167500D02*
X576750D01*
Y147500D02*
Y167500D01*
X560750Y147500D02*
X576750D01*
X560750D02*
Y167500D01*
Y149500D02*
X562750Y147500D01*
X560750Y151500D02*
X564750Y147500D01*
X560750Y153500D02*
X566750Y147500D01*
X560750Y155500D02*
X568750Y147500D01*
X560750Y157500D02*
X570750Y147500D01*
X558500Y829000D02*
X574500D01*
Y809000D02*
Y829000D01*
X558500Y809000D02*
X574500D01*
X558500D02*
Y829000D01*
Y811000D02*
X560500Y809000D01*
X558500Y813000D02*
X562500Y809000D01*
X558500Y815000D02*
X564500Y809000D01*
X558500Y817000D02*
X566500Y809000D01*
X558500Y819000D02*
X568500Y809000D01*
X560750Y129500D02*
X576750D01*
Y109500D02*
Y129500D01*
X560750Y109500D02*
X576750D01*
X560750D02*
Y129500D01*
X560750Y111500D02*
X562750Y109500D01*
X560750Y113500D02*
X564750Y109500D01*
X560750Y115500D02*
X566750Y109500D01*
X560750Y117500D02*
X568750Y109500D01*
X560750Y119500D02*
X570750Y109500D01*
X1592396Y1170850D02*
Y1184850D01*
X1562396Y1170850D02*
Y1184850D01*
X1574396Y1170850D02*
X1577396D01*
X1573396Y1184850D02*
X1581396D01*
X727750Y80408D02*
Y606250D01*
X682096Y646575D02*
X725000D01*
X599038Y86250D02*
X601578Y88790D01*
X599038Y86250D02*
Y107301D01*
X597768Y609237D02*
Y643781D01*
X601578Y639971D01*
Y614301D02*
Y639971D01*
Y88790D02*
X638281D01*
Y78630D02*
Y88790D01*
Y78630D02*
X679712D01*
X704556Y88790D02*
X718672D01*
X721212Y86250D01*
X704578D02*
X721212D01*
X634471Y74820D02*
X684482D01*
X634471D02*
Y86250D01*
X599038D02*
X634471D01*
X592750Y80408D02*
X631677D01*
Y72026D02*
Y80408D01*
Y72026D02*
X688573D01*
Y73552D01*
X702754Y80408D02*
X727750D01*
X682096Y638193D02*
Y646575D01*
X672254Y638193D02*
X682096D01*
X638154D02*
Y646575D01*
X592750D02*
X638154D01*
X592750Y80408D02*
Y646575D01*
X721212Y86250D02*
Y100250D01*
X718672Y614301D02*
Y639971D01*
X688700D02*
X718672D01*
X688700Y629811D02*
Y639971D01*
X674056Y629811D02*
X688700D01*
X631550D02*
Y639971D01*
X601578D02*
X631550D01*
X597768Y643781D02*
X635360D01*
Y632351D02*
Y643781D01*
Y632351D02*
X646172D01*
X684890D02*
Y643781D01*
X722482D01*
Y609237D02*
Y643781D01*
X631550Y639971D02*
X635360Y643781D01*
X631550Y629811D02*
X635360Y632351D01*
X684890D02*
X688700Y629811D01*
X684890Y643781D02*
X688700Y639971D01*
X718672D02*
X722482Y643781D01*
X634471Y74820D02*
X638281Y78630D01*
X634471Y86250D02*
X638281Y88790D01*
X674078Y632351D02*
X684890D01*
X631550Y629811D02*
X646194D01*
X638154Y638193D02*
X647996D01*
X869300Y53500D02*
Y84500D01*
X919300Y53500D02*
Y84500D01*
X869300D02*
X919300D01*
X869300Y53500D02*
X919300D01*
X1575435Y1298171D02*
X1583435D01*
X1576435Y1284171D02*
X1579435D01*
X1564435D02*
Y1298171D01*
X1594435Y1284171D02*
Y1298171D01*
X1697500Y1254500D02*
Y1327750D01*
X1676556D02*
X1697500D01*
X1676556Y1254500D02*
X1697500D01*
X1607500D02*
X1643790D01*
X1607750Y1327750D02*
X1643536D01*
X1607500Y1315750D02*
Y1327500D01*
X1607750Y1327750D01*
X1607500Y1314114D02*
Y1315750D01*
Y1254750D02*
Y1267124D01*
X1607250Y1254500D02*
X1607500Y1254750D01*
D206*
X275000Y14500D02*
Y26750D01*
X269250Y20500D02*
X280500D01*
X1122958Y476584D02*
X1131086Y476584D01*
X1122958Y466170D02*
X1122958Y476584D01*
X1122958Y466170D02*
X1131340Y466170D01*
X1146326Y474552D02*
X1146326Y466932D01*
X1145056Y465662D02*
X1146326Y466932D01*
X1146326Y474552D02*
Y475568D01*
X1145056Y476838D02*
X1146326Y475568D01*
X1318574Y1286626D02*
X1424238D01*
Y1406626D01*
X1318574D02*
X1424238D01*
X1318574Y1286626D02*
Y1406626D01*
X854834Y159292D02*
X854834Y151164D01*
X844420Y159292D02*
X854834D01*
X844420Y150910D02*
X844420Y159292D01*
X845182Y135924D02*
X852802D01*
X843912Y137194D02*
X845182Y135924D01*
X852802D02*
X853818D01*
X855088Y137194D01*
X1370084Y318822D02*
X1370084Y310694D01*
X1359670Y318822D02*
X1370084D01*
X1359670Y310440D02*
X1359670Y318822D01*
X1360432Y295454D02*
X1368052D01*
X1359162Y296724D02*
X1360432Y295454D01*
X1368052D02*
X1369068Y295454D01*
X1370338Y296724D01*
X1390084Y310694D02*
X1390084Y318822D01*
X1379670Y318822D02*
X1390084Y318822D01*
X1379670Y310440D02*
Y318822D01*
X1380432Y295454D02*
X1388052D01*
X1379162Y296724D02*
X1380432Y295454D01*
X1388052D02*
X1389068D01*
X1390338Y296724D01*
X1123958Y447084D02*
X1132086Y447084D01*
X1123958Y436670D02*
Y447084D01*
Y436670D02*
X1132340Y436670D01*
X1147326Y445052D02*
X1147326Y437432D01*
X1146056Y436162D02*
X1147326Y437432D01*
X1147326Y445052D02*
X1147326Y446068D01*
X1146056Y447338D02*
X1147326Y446068D01*
X1069834Y151444D02*
Y159572D01*
X1059420D02*
X1069834D01*
X1059420Y151190D02*
Y159572D01*
X1060182Y136204D02*
X1067802D01*
X1058912Y137474D02*
X1060182Y136204D01*
X1067802D02*
X1068818D01*
X1070088Y137474D01*
X1151834Y234194D02*
X1151834Y242322D01*
X1141420D02*
X1151834D01*
X1141420Y233940D02*
Y242322D01*
X1142182Y218954D02*
X1149802D01*
X1140912Y220224D02*
X1142182Y218954D01*
X1149802D02*
X1150818Y218954D01*
X1152088Y220224D01*
X1171834Y234164D02*
Y242292D01*
X1161420D02*
X1171834D01*
X1161420Y233910D02*
X1161420Y242292D01*
X1162182Y218924D02*
X1169802D01*
X1160912Y220194D02*
X1162182Y218924D01*
X1169802D02*
X1170818D01*
X1172088Y220194D01*
X1101914Y1286506D02*
Y1406506D01*
X1207578D01*
Y1286506D02*
Y1406506D01*
X1101914Y1286506D02*
X1207578D01*
X992824Y1286497D02*
X1098488D01*
Y1406497D01*
X992824D02*
X1098488D01*
X992824Y1286497D02*
Y1406497D01*
X1210076Y1286630D02*
Y1406630D01*
X1315740D01*
Y1286630D02*
Y1406630D01*
X1210076Y1286630D02*
X1315740D01*
X117834Y1422944D02*
Y1431072D01*
X107420D02*
X117834D01*
X107420Y1422690D02*
Y1431072D01*
X108182Y1407704D02*
X115802D01*
X106912Y1408974D02*
X108182Y1407704D01*
X115802D02*
X116818D01*
X118088Y1408974D01*
D207*
X1047700Y69000D02*
G03*
X1047700Y69000I-3000J0D01*
G01*
X1342850Y149000D02*
G03*
X1342850Y149000I-3000J0D01*
G01*
X1478250Y154500D02*
G03*
X1478250Y154500I-3000J0D01*
G01*
X1124850Y73500D02*
G03*
X1124850Y73500I-3000J0D01*
G01*
X1260250Y79000D02*
G03*
X1260250Y79000I-3000J0D01*
G01*
X297310Y1076146D02*
G03*
X297310Y1076146I-3000J0D01*
G01*
X275500Y299500D02*
G03*
X275500Y299500I-3000J0D01*
G01*
X1469250Y1066500D02*
G03*
X1469250Y1066500I-3000J0D01*
G01*
X912300Y63500D02*
G03*
X912300Y63500I-3000J0D01*
G01*
D208*
X1377862Y940702D02*
Y946798D01*
X1363638Y940702D02*
X1377862D01*
X1363638D02*
Y946798D01*
X1377862D01*
X460138Y288452D02*
Y294548D01*
X474362D01*
Y288452D02*
Y294548D01*
X460138Y288452D02*
X474362D01*
X519862Y224202D02*
Y230298D01*
X505638Y224202D02*
X519862D01*
X505638D02*
Y230298D01*
X519862D01*
X519862Y217702D02*
Y223798D01*
X505638Y217702D02*
X519862D01*
X505638D02*
Y223798D01*
X519862D01*
X509862Y239202D02*
Y245298D01*
X495638Y239202D02*
X509862D01*
X495638D02*
Y245298D01*
X509862D01*
X1378952Y7138D02*
X1385048D01*
X1378952D02*
Y21362D01*
X1385048D01*
Y7138D02*
Y21362D01*
X509862Y232702D02*
Y238798D01*
X495638Y232702D02*
X509862D01*
X495638D02*
Y238798D01*
X509862D01*
X509862Y269202D02*
Y275298D01*
X495638Y269202D02*
X509862D01*
X495638D02*
Y275298D01*
X509862D01*
Y262702D02*
Y268798D01*
X495638Y262702D02*
X509862D01*
X495638Y268798D02*
X495638Y262702D01*
X495638Y268798D02*
X509862D01*
X519862Y254202D02*
Y260298D01*
X505638Y254202D02*
X519862D01*
X505638D02*
Y260298D01*
X519862D01*
X1688112Y407452D02*
Y413548D01*
X1673888Y407452D02*
X1688112D01*
X1673888D02*
X1673888Y413548D01*
X1688112D01*
X1467452Y1110138D02*
X1473548Y1110138D01*
X1467452Y1110138D02*
X1467452Y1124362D01*
X1473548D01*
Y1110138D02*
Y1124362D01*
X269138Y343202D02*
Y349298D01*
X283362D01*
Y343202D02*
Y349298D01*
X269138Y343202D02*
X283362D01*
X244452Y1081362D02*
X250548D01*
Y1067138D02*
Y1081362D01*
X244452Y1067138D02*
X250548D01*
X244452D02*
Y1081362D01*
X1377862Y934202D02*
Y940298D01*
X1363638Y934202D02*
X1377862D01*
X1363638D02*
Y940298D01*
X1377862D01*
X1673888Y301702D02*
Y307798D01*
X1688112D01*
Y301702D02*
Y307798D01*
X1673888Y301702D02*
X1688112D01*
X1673888Y308202D02*
Y314298D01*
X1688112D01*
X1688112Y308202D01*
X1673888D02*
X1688112D01*
X1673888Y290202D02*
Y296298D01*
X1688112D01*
X1688112Y290202D02*
X1688112Y296298D01*
X1673888Y290202D02*
X1688112D01*
X1673888Y283702D02*
X1673888Y289798D01*
X1688112Y289798D01*
X1688112Y283702D02*
X1688112Y289798D01*
X1673888Y283702D02*
X1688112D01*
X1673888Y261452D02*
Y267548D01*
X1688112D01*
X1688112Y261452D02*
X1688112Y267548D01*
X1673888Y261452D02*
X1688112D01*
X1673888Y267952D02*
Y274048D01*
X1688112D01*
X1688112Y267952D01*
X1673888D02*
X1688112D01*
X1692799Y244500D02*
Y250596D01*
X1707023D01*
Y244500D02*
Y250596D01*
X1692799Y244500D02*
X1707023D01*
X1692799Y238000D02*
Y244096D01*
X1707023D01*
X1707023Y238000D01*
X1692799D02*
X1707023D01*
X1634112Y241452D02*
Y247548D01*
X1619888Y241452D02*
X1634112D01*
X1619888D02*
Y247548D01*
X1634112D01*
X1584888Y172452D02*
Y178548D01*
X1599112D01*
Y172452D02*
Y178548D01*
X1584888Y172452D02*
X1599112D01*
X1648452Y190388D02*
X1654548D01*
X1648452D02*
Y204612D01*
X1654548Y204612D01*
Y190388D02*
Y204612D01*
X1648452Y229612D02*
X1654548D01*
Y215388D02*
Y229612D01*
X1648452Y215388D02*
X1654548D01*
X1648452D02*
Y229612D01*
X1634112Y172452D02*
Y178548D01*
X1619888Y172452D02*
X1634112D01*
X1619888D02*
Y178548D01*
X1634112D01*
X1584888Y241452D02*
Y247548D01*
X1599112D01*
Y241452D02*
Y247548D01*
X1584888Y241452D02*
X1599112D01*
X1321138Y831798D02*
X1321138Y825702D01*
X1321138Y831798D02*
X1335362D01*
X1335362Y825702D01*
X1321138D02*
X1335362D01*
X1688112Y391452D02*
Y397548D01*
X1673888Y391452D02*
X1688112D01*
X1673888D02*
Y397548D01*
X1688112D01*
Y384952D02*
Y391048D01*
X1673888Y384952D02*
X1688112D01*
X1673888D02*
X1673888Y391048D01*
X1688112D01*
X1688112Y532548D02*
X1688112Y526452D01*
X1673888D02*
X1688112D01*
X1673888D02*
Y532548D01*
X1688112Y532548D01*
Y519952D02*
Y526048D01*
X1673888Y519952D02*
X1688112D01*
X1673888D02*
Y526048D01*
X1688112D01*
X1688112Y504202D02*
X1688112Y510298D01*
X1673888Y504202D02*
X1688112D01*
X1673888D02*
X1673888Y510298D01*
X1688112Y510298D01*
X1688112Y497702D02*
Y503798D01*
X1673888Y497702D02*
X1688112D01*
X1673888D02*
Y503798D01*
X1688112D01*
X1688612Y481404D02*
Y487500D01*
X1674388Y481404D02*
X1688612D01*
X1674388D02*
X1674388Y487500D01*
X1688612D01*
X1688612Y474904D02*
X1688612Y481000D01*
X1674388Y474904D02*
X1688612D01*
X1674388D02*
X1674388Y481000D01*
X1688612Y481000D01*
X1688112Y458952D02*
Y465048D01*
X1673888Y458952D02*
X1688112Y458952D01*
X1673888Y465048D02*
X1673888Y458952D01*
X1673888Y465048D02*
X1688112D01*
X1688112Y452452D02*
Y458548D01*
X1673888Y452452D02*
X1688112D01*
X1673888D02*
Y458548D01*
X1688112D01*
X1688112Y413952D02*
Y420048D01*
X1673888Y413952D02*
X1688112D01*
X1673888D02*
Y420048D01*
X1688112D01*
X1688112Y368702D02*
Y374798D01*
X1673888Y368702D02*
X1688112D01*
X1673888D02*
Y374798D01*
X1688112D01*
X1688112Y368298D02*
X1688112Y362202D01*
X1673888D02*
X1688112D01*
X1673888D02*
Y368298D01*
X1688112D01*
X1688112Y346452D02*
Y352548D01*
X1673888Y346452D02*
X1688112D01*
X1673888D02*
X1673888Y352548D01*
X1688112D01*
Y339952D02*
Y346048D01*
X1673888Y339952D02*
X1688112D01*
X1673888D02*
X1673888Y346048D01*
X1688112D01*
X1671862Y515202D02*
Y521298D01*
X1657638Y515202D02*
X1671862D01*
X1657638D02*
Y521298D01*
X1671862D01*
Y508952D02*
Y515048D01*
X1657638Y508952D02*
X1671862D01*
X1657638D02*
Y515048D01*
X1671862D01*
X1663112Y476548D02*
X1663112Y470452D01*
X1648888D02*
X1663112D01*
X1648888D02*
Y476548D01*
X1663112D01*
X1663112Y470548D02*
X1663112Y464452D01*
X1648888D02*
X1663112D01*
X1648888D02*
X1648888Y470548D01*
X1663112D01*
X1691862Y558798D02*
X1691862Y552702D01*
X1677638D02*
X1691862D01*
X1677638D02*
X1677638Y558798D01*
X1691862D01*
X1691863Y546701D02*
Y552797D01*
X1677639Y546701D02*
X1691863D01*
X1677639D02*
Y552797D01*
X1691863D01*
X1654362Y538702D02*
Y544798D01*
X1640138Y538702D02*
X1654362D01*
X1640138D02*
Y544798D01*
X1654362D01*
Y532702D02*
X1654362Y538798D01*
X1640138Y532702D02*
X1654362D01*
X1640138D02*
Y538798D01*
X1654362D01*
X1691612Y600048D02*
X1691612Y593952D01*
X1677388D02*
X1691612D01*
X1677388D02*
Y600048D01*
X1691612D01*
X1691612Y587952D02*
Y594048D01*
X1677388Y587952D02*
X1691612D01*
X1677388D02*
Y594048D01*
X1691612D01*
X1691862Y577548D02*
X1691862Y571452D01*
X1677638D02*
X1691862D01*
X1677638D02*
Y577548D01*
X1691862Y577548D01*
X1691862Y571298D02*
X1691862Y565202D01*
X1677638Y565202D02*
X1691862Y565202D01*
X1677638Y565202D02*
Y571298D01*
X1691862D01*
X1691362Y638702D02*
X1691362Y644798D01*
X1677138Y638702D02*
X1691362D01*
X1677138Y644798D02*
X1677138Y638702D01*
X1677138Y644798D02*
X1691362D01*
Y632452D02*
Y638548D01*
X1677138Y632452D02*
X1691362D01*
X1677138Y638548D02*
X1677138Y632452D01*
X1677138Y638548D02*
X1691362D01*
X1691612Y622048D02*
X1691612Y615952D01*
X1677388D02*
X1691612D01*
X1677388D02*
Y622048D01*
X1691612D01*
X1691612Y609702D02*
Y615798D01*
X1677388Y609702D02*
X1691612D01*
X1677388D02*
Y615798D01*
X1691612D01*
X911362Y1393322D02*
X911362Y1399418D01*
X897138Y1393322D02*
X911362Y1393322D01*
X897138Y1399418D02*
X897138Y1393322D01*
X897138Y1399418D02*
X911362D01*
X911362Y1281322D02*
X911362Y1287418D01*
X897138Y1281322D02*
X911362D01*
X897138Y1287418D02*
X897138Y1281322D01*
X897138Y1287418D02*
X911362D01*
Y1363418D02*
X911362Y1357322D01*
X897138Y1357322D02*
X911362Y1357322D01*
X897138Y1363418D02*
X897138Y1357322D01*
X897138Y1363418D02*
X911362D01*
X911362Y1321322D02*
Y1327418D01*
X897138Y1321322D02*
X911362D01*
X897138D02*
X897138Y1327418D01*
X911362D01*
X1551202Y222638D02*
X1557298D01*
X1551202D02*
Y236862D01*
X1557298Y236862D01*
Y222638D02*
Y236862D01*
X1551202Y246638D02*
X1557298Y246638D01*
X1551202Y260862D02*
X1551202Y246638D01*
X1551202Y260862D02*
X1557298Y260862D01*
Y246638D02*
Y260862D01*
X1509638Y116202D02*
Y122298D01*
X1523862Y122298D01*
Y116202D02*
Y122298D01*
X1509638Y116202D02*
X1523862Y116202D01*
X1642702Y119612D02*
X1648798D01*
Y105388D02*
Y119612D01*
X1642702Y105388D02*
X1648798D01*
X1642702D02*
Y119612D01*
X1648452Y80388D02*
X1654548D01*
X1648452D02*
Y94612D01*
X1654548D01*
Y80388D02*
Y94612D01*
X1634612Y131452D02*
Y137548D01*
X1620388Y131452D02*
X1634612D01*
X1620388D02*
Y137548D01*
X1634612D01*
X1584888Y131452D02*
Y137548D01*
X1599112D01*
Y131452D02*
Y137548D01*
X1584888Y131452D02*
X1599112D01*
X1584888Y62452D02*
Y68548D01*
X1599112D01*
Y62452D02*
Y68548D01*
X1584888Y62452D02*
X1599112D01*
X1631612Y62452D02*
Y68548D01*
X1617388Y62452D02*
X1631612D01*
X1617388D02*
Y68548D01*
X1631612D01*
X519862Y247702D02*
Y253798D01*
X505638Y247702D02*
X519862D01*
X505638D02*
Y253798D01*
X519862D01*
X1320112Y860952D02*
Y867048D01*
X1305888Y860952D02*
X1320112Y860952D01*
X1305888Y867048D02*
X1305888Y860952D01*
X1305888Y867048D02*
X1320112D01*
X716452Y1407138D02*
X722548D01*
X716452D02*
Y1421362D01*
X722548D01*
Y1407138D02*
Y1421362D01*
X495862Y243452D02*
Y249548D01*
X481638Y243452D02*
X495862D01*
X481638D02*
Y249548D01*
X495862D01*
X460638Y258452D02*
X474862D01*
Y264548D01*
X460638D02*
X474862D01*
X460638Y258452D02*
Y264548D01*
D385*
X1614326Y1213544D02*
D03*
Y1141044D02*
D03*
X1614500Y1254750D02*
D03*
Y1327250D02*
D03*
D386*
X1671326Y1177375D02*
D03*
D387*
X1671500Y1291000D02*
D03*
M02*
