%FSLAX44Y44*%
%MOMM*%
G71*
G01*
G75*
G04 Layer_Physical_Order=4*
G04 Layer_Color=8388736*
%ADD10C,0.2032*%
%ADD11C,0.2540*%
%ADD12C,0.4572*%
%ADD13C,0.4000*%
%ADD14C,0.3048*%
%ADD15C,0.1300*%
%ADD16C,0.1600*%
%ADD17C,0.1016*%
%ADD18C,0.1750*%
%ADD19C,0.1524*%
%ADD20C,0.1750*%
%ADD21C,0.1500*%
%ADD22C,0.3810*%
%ADD23C,0.6350*%
%ADD24C,0.4064*%
%ADD25C,0.5080*%
%ADD26C,0.5000*%
%ADD27C,0.6604*%
%ADD28C,0.1727*%
%ADD29C,0.7620*%
%ADD30R,1.2500X1.3500*%
%ADD31R,1.1000X0.9000*%
%ADD32R,1.8000X2.0000*%
%ADD33R,0.7000X0.8000*%
%ADD34R,0.4000X0.4000*%
%ADD35R,1.2700X0.9144*%
%ADD36R,0.9144X0.9144*%
%ADD37O,0.6096X2.0320*%
%ADD38R,0.6500X1.0500*%
%ADD39R,0.9144X1.2700*%
%ADD40R,0.9144X0.9144*%
%ADD41R,0.6500X0.5000*%
%ADD42R,0.8000X1.0000*%
%ADD43R,0.4500X0.4000*%
%ADD44R,1.8000X1.1500*%
%ADD45R,0.4000X0.4500*%
%ADD46R,1.0000X0.9000*%
%ADD47R,0.9000X1.0000*%
%ADD48R,3.1800X2.0300*%
%ADD49R,1.4000X0.7600*%
%ADD50R,0.6000X0.6000*%
%ADD51R,0.6000X0.6000*%
%ADD52R,3.2000X1.4000*%
%ADD53R,0.6200X0.6200*%
%ADD54R,0.9500X1.0000*%
%ADD55R,1.1500X1.8000*%
%ADD56R,1.8000X1.1500*%
%ADD57R,2.3500X2.5000*%
%ADD58R,2.7000X1.1500*%
%ADD59R,1.1500X1.8000*%
%ADD60R,1.1500X2.7000*%
%ADD61C,1.2000*%
%ADD62R,1.7000X2.4000*%
%ADD63R,0.6000X0.6200*%
%ADD64R,0.6200X0.6200*%
%ADD65R,1.3000X1.5450*%
%ADD66R,2.1500X1.7000*%
%ADD67R,1.1500X1.4500*%
%ADD68R,1.0000X0.9500*%
%ADD69P,0.8485X4X90.0*%
%ADD70R,2.0000X4.0000*%
G04:AMPARAMS|DCode=71|XSize=0.45mm|YSize=0.4mm|CornerRadius=0mm|HoleSize=0mm|Usage=FLASHONLY|Rotation=315.000|XOffset=0mm|YOffset=0mm|HoleType=Round|Shape=Rectangle|*
%AMROTATEDRECTD71*
4,1,4,-0.3005,0.0177,-0.0177,0.3005,0.3005,-0.0177,0.0177,-0.3005,-0.3005,0.0177,0.0*
%
%ADD71ROTATEDRECTD71*%

%ADD72R,0.9500X0.9500*%
%ADD73P,6.4944X8X202.5*%
%ADD74R,1.7780X2.0320*%
%ADD75R,1.7000X0.4800*%
%ADD76R,1.2000X0.4800*%
%ADD77R,3.1000X0.4800*%
%ADD78R,1.3250X0.4800*%
%ADD79R,1.5750X0.4800*%
%ADD80R,1.0500X1.4000*%
%ADD81R,0.8000X0.6000*%
%ADD82R,1.5000X3.5000*%
%ADD83R,0.6200X0.6000*%
%ADD84R,1.0000X0.8500*%
%ADD85R,0.8500X1.0000*%
%ADD86C,1.0000*%
%ADD87P,1.4142X4X360.0*%
G04:AMPARAMS|DCode=88|XSize=0.45mm|YSize=0.4mm|CornerRadius=0mm|HoleSize=0mm|Usage=FLASHONLY|Rotation=225.000|XOffset=0mm|YOffset=0mm|HoleType=Round|Shape=Rectangle|*
%AMROTATEDRECTD88*
4,1,4,0.0177,0.3005,0.3005,0.0177,-0.0177,-0.3005,-0.3005,-0.0177,0.0177,0.3005,0.0*
%
%ADD88ROTATEDRECTD88*%

G04:AMPARAMS|DCode=89|XSize=0.45mm|YSize=0.4mm|CornerRadius=0mm|HoleSize=0mm|Usage=FLASHONLY|Rotation=80.000|XOffset=0mm|YOffset=0mm|HoleType=Round|Shape=Rectangle|*
%AMROTATEDRECTD89*
4,1,4,0.1579,-0.2563,-0.2360,-0.1868,-0.1579,0.2563,0.2360,0.1868,0.1579,-0.2563,0.0*
%
%ADD89ROTATEDRECTD89*%

G04:AMPARAMS|DCode=90|XSize=0.45mm|YSize=0.4mm|CornerRadius=0mm|HoleSize=0mm|Usage=FLASHONLY|Rotation=290.000|XOffset=0mm|YOffset=0mm|HoleType=Round|Shape=Rectangle|*
%AMROTATEDRECTD90*
4,1,4,-0.2649,0.1430,0.1110,0.2798,0.2649,-0.1430,-0.1110,-0.2798,-0.2649,0.1430,0.0*
%
%ADD90ROTATEDRECTD90*%

%ADD91R,1.9000X1.3000*%
G04:AMPARAMS|DCode=92|XSize=1mm|YSize=0.95mm|CornerRadius=0mm|HoleSize=0mm|Usage=FLASHONLY|Rotation=135.000|XOffset=0mm|YOffset=0mm|HoleType=Round|Shape=Rectangle|*
%AMROTATEDRECTD92*
4,1,4,0.6894,-0.0177,0.0177,-0.6894,-0.6894,0.0177,-0.0177,0.6894,0.6894,-0.0177,0.0*
%
%ADD92ROTATEDRECTD92*%

%ADD93R,0.9500X1.0000*%
%ADD94R,2.0300X3.1800*%
%ADD95R,0.7600X1.4000*%
%ADD96P,0.8485X4X360.0*%
G04:AMPARAMS|DCode=97|XSize=0.95mm|YSize=1mm|CornerRadius=0mm|HoleSize=0mm|Usage=FLASHONLY|Rotation=315.000|XOffset=0mm|YOffset=0mm|HoleType=Round|Shape=Rectangle|*
%AMROTATEDRECTD97*
4,1,4,-0.6894,-0.0177,0.0177,0.6894,0.6894,0.0177,-0.0177,-0.6894,-0.6894,-0.0177,0.0*
%
%ADD97ROTATEDRECTD97*%

%ADD98R,0.6000X0.8000*%
G04:AMPARAMS|DCode=99|XSize=0.95mm|YSize=1mm|CornerRadius=0mm|HoleSize=0mm|Usage=FLASHONLY|Rotation=225.000|XOffset=0mm|YOffset=0mm|HoleType=Round|Shape=Rectangle|*
%AMROTATEDRECTD99*
4,1,4,-0.0177,0.6894,0.6894,-0.0177,0.0177,-0.6894,-0.6894,0.0177,-0.0177,0.6894,0.0*
%
%ADD99ROTATEDRECTD99*%

%ADD100C,0.5000*%
%ADD101R,1.5000X1.5000*%
%ADD102R,1.5000X1.5000*%
%ADD103P,2.1213X4X180.0*%
%ADD104R,2.0000X0.6000*%
%ADD105R,4.8000X6.4000*%
%ADD106R,0.5500X1.0000*%
%ADD107R,1.4500X1.1500*%
%ADD108R,0.3000X1.5000*%
%ADD109R,1.5000X0.3000*%
%ADD110O,1.5000X0.3000*%
%ADD111R,0.4500X1.5000*%
%ADD112R,1.1000X0.6000*%
%ADD113O,0.9000X0.3000*%
%ADD114O,0.3000X0.9000*%
%ADD115R,3.5500X3.5500*%
%ADD116R,1.0160X0.2500*%
%ADD117R,0.2500X1.0160*%
%ADD118O,0.2500X1.0160*%
%ADD119R,1.0500X0.6000*%
%ADD120O,2.0320X0.6096*%
%ADD121R,6.5000X6.5000*%
%ADD122O,0.3000X1.5000*%
%ADD123R,4.8000X5.1600*%
G04:AMPARAMS|DCode=124|XSize=0.6mm|YSize=1.55mm|CornerRadius=0mm|HoleSize=0mm|Usage=FLASHONLY|Rotation=225.000|XOffset=0mm|YOffset=0mm|HoleType=Round|Shape=Rectangle|*
%AMROTATEDRECTD124*
4,1,4,-0.3359,0.7601,0.7601,-0.3359,0.3359,-0.7601,-0.7601,0.3359,-0.3359,0.7601,0.0*
%
%ADD124ROTATEDRECTD124*%

%ADD125O,1.5000X0.2700*%
%ADD126R,1.5000X0.2700*%
%ADD127R,0.7000X0.2500*%
%ADD128R,0.2500X0.7000*%
%ADD129R,4.2000X4.2000*%
%ADD130O,1.0000X0.3000*%
%ADD131R,1.0000X0.3000*%
%ADD132R,0.6000X1.0500*%
%ADD133R,1.5000X0.4500*%
%ADD134R,0.4500X0.3000*%
%ADD135O,1.5500X0.4500*%
%ADD136R,2.3000X4.3000*%
%ADD137O,0.3000X0.8000*%
%ADD138O,0.8000X0.3000*%
%ADD139R,0.3000X0.8500*%
%ADD140R,2.5000X1.7500*%
%ADD141R,1.7780X0.4064*%
%ADD142R,1.3000X1.0000*%
%ADD143R,1.3000X0.6000*%
%ADD144O,1.0500X0.3000*%
%ADD145O,0.3000X1.0500*%
%ADD146R,3.3500X3.3500*%
%ADD147R,1.6000X3.4000*%
%ADD148R,3.4000X1.6000*%
%ADD149R,0.3000X1.0000*%
%ADD150R,0.7620X0.7620*%
%ADD151R,0.7620X0.7620*%
%ADD152C,0.1270*%
%ADD153C,1.0000*%
%ADD154C,0.3556*%
%ADD155C,0.1778*%
%ADD156R,0.2500X1.1500*%
%ADD157C,2.0000*%
%ADD158C,5.0000*%
%ADD159C,1.5000*%
%ADD160C,1.8000*%
%ADD161C,0.8000*%
%ADD162O,2.7000X1.7000*%
%ADD163O,1.5000X1.0000*%
%ADD164C,0.6000*%
%ADD165C,2.1000*%
%ADD166C,6.0000*%
%ADD167C,3.2000*%
%ADD168O,11.0000X2.0000*%
%ADD169C,0.4000*%
%ADD170C,0.4500*%
%ADD171C,0.4572*%
%ADD172C,1.0160*%
G04:AMPARAMS|DCode=173|XSize=2.8mm|YSize=2.8mm|CornerRadius=0mm|HoleSize=0mm|Usage=FLASHONLY|Rotation=0.000|XOffset=0mm|YOffset=0mm|HoleType=Round|Shape=Relief|Width=0.75mm|Gap=0.25mm|Entries=4|*
%AMTHD173*
7,0,0,2.8000,2.3000,0.7500,45*
%
%ADD173THD173*%
G04:AMPARAMS|DCode=174|XSize=4.2mm|YSize=4.2mm|CornerRadius=0mm|HoleSize=0mm|Usage=FLASHONLY|Rotation=0.000|XOffset=0mm|YOffset=0mm|HoleType=Round|Shape=Relief|Width=0.75mm|Gap=0.25mm|Entries=4|*
%AMTHD174*
7,0,0,4.2000,3.7000,0.7500,45*
%
%ADD174THD174*%
%ADD175C,1.3115*%
G04:AMPARAMS|DCode=176|XSize=2.4mm|YSize=2.4mm|CornerRadius=0mm|HoleSize=0mm|Usage=FLASHONLY|Rotation=0.000|XOffset=0mm|YOffset=0mm|HoleType=Round|Shape=Relief|Width=0.75mm|Gap=0.25mm|Entries=4|*
%AMTHD176*
7,0,0,2.4000,1.9000,0.7500,45*
%
%ADD176THD176*%
%ADD177C,1.2615*%
%ADD178C,1.0615*%
%ADD179C,1.4115*%
G04:AMPARAMS|DCode=180|XSize=2.5mm|YSize=2.5mm|CornerRadius=0mm|HoleSize=0mm|Usage=FLASHONLY|Rotation=0.000|XOffset=0mm|YOffset=0mm|HoleType=Round|Shape=Relief|Width=0.75mm|Gap=0.25mm|Entries=4|*
%AMTHD180*
7,0,0,2.5000,2.0000,0.7500,45*
%
%ADD180THD180*%
%ADD181C,1.7115*%
G04:AMPARAMS|DCode=182|XSize=2mm|YSize=2mm|CornerRadius=0mm|HoleSize=0mm|Usage=FLASHONLY|Rotation=0.000|XOffset=0mm|YOffset=0mm|HoleType=Round|Shape=Relief|Width=0.75mm|Gap=0.25mm|Entries=4|*
%AMTHD182*
7,0,0,2.0000,1.5000,0.7500,45*
%
%ADD182THD182*%
%ADD183C,0.9115*%
%AMTHOVALD184*
21,1,1.2000,2.3000,0,0,180.0*
1,1,2.3000,0.6000,0.0000*
1,1,2.3000,-0.6000,0.0000*
21,0,1.2000,1.8000,0,0,180.0*
1,0,1.8000,0.6000,0.0000*
1,0,1.8000,-0.6000,0.0000*
4,0,4,0.3348,0.2652,1.1480,1.0783,1.6783,0.5480,0.8652,-0.2652,0.3348,0.2652,0.0*
4,0,4,-0.8652,0.2652,-1.6783,-0.5480,-1.1480,-1.0783,-0.3348,-0.2652,-0.8652,0.2652,0.0*
4,0,4,0.8652,0.2652,1.6783,-0.5480,1.1480,-1.0783,0.3348,-0.2652,0.8652,0.2652,0.0*
4,0,4,-0.3348,0.2652,-1.1480,1.0783,-1.6783,0.5480,-0.8652,-0.2652,-0.3348,0.2652,0.0*
%
%ADD184THOVALD184*%

%ADD185C,1.3000*%
%ADD186C,1.1115*%
G04:AMPARAMS|DCode=187|XSize=2.2mm|YSize=2.2mm|CornerRadius=0mm|HoleSize=0mm|Usage=FLASHONLY|Rotation=0.000|XOffset=0mm|YOffset=0mm|HoleType=Round|Shape=Relief|Width=0.75mm|Gap=0.25mm|Entries=4|*
%AMTHD187*
7,0,0,2.2000,1.7000,0.7500,45*
%
%ADD187THD187*%
%ADD188C,1.8115*%
G04:AMPARAMS|DCode=189|XSize=2.9mm|YSize=2.9mm|CornerRadius=0mm|HoleSize=0mm|Usage=FLASHONLY|Rotation=0.000|XOffset=0mm|YOffset=0mm|HoleType=Round|Shape=Relief|Width=0.75mm|Gap=0.25mm|Entries=4|*
%AMTHD189*
7,0,0,2.9000,2.4000,0.7500,45*
%
%ADD189THD189*%
%ADD190C,1.7615*%
%ADD191C,3.5865*%
%AMTHOVALD192*
21,1,9.0000,3.1000,0,0,0.0*
1,1,3.1000,-4.5000,0.0000*
1,1,3.1000,4.5000,0.0000*
21,0,9.0000,2.6000,0,0,0.0*
1,0,2.6000,-4.5000,0.0000*
1,0,2.6000,4.5000,0.0000*
4,0,4,-4.2348,-0.2652,-5.3308,-1.3612,-5.8612,-0.8308,-4.7652,0.2652,-4.2348,-0.2652,0.0*
4,0,4,4.7652,-0.2652,5.8612,0.8308,5.3308,1.3612,4.2348,0.2652,4.7652,-0.2652,0.0*
4,0,4,-4.7652,-0.2652,-5.8612,0.8308,-5.3308,1.3612,-4.2348,0.2652,-4.7652,-0.2652,0.0*
4,0,4,4.2348,-0.2652,5.3308,-1.3612,5.8612,-0.8308,4.7652,0.2652,4.2348,-0.2652,0.0*
%
%ADD192THOVALD192*%

%ADD193C,0.6115*%
%ADD194C,0.8000*%
%ADD195C,0.7131*%
%ADD196C,0.8115*%
%ADD197C,0.6147*%
%ADD198C,0.0800*%
%ADD199C,0.0800*%
%ADD200C,0.0900*%
%ADD201C,0.1250*%
%ADD202C,3.1115*%
%ADD203O,2.4115X1.2115*%
%ADD204O,11.0115X2.0115*%
%ADD205C,0.6615*%
D12*
X1127250Y402750D02*
X1334000D01*
X851750Y127250D02*
X1127250Y402750D01*
X808250Y83750D02*
X851750Y127250D01*
X623500Y83750D02*
X808250D01*
X327000D02*
X623500D01*
X308500Y102250D02*
X327000Y83750D01*
X258000Y152750D02*
X308500Y102250D01*
X193500Y152750D02*
X258000D01*
X169500Y176750D02*
X193500Y152750D01*
X169500Y176750D02*
Y362250D01*
Y582750D01*
X431750Y845000D01*
X472000Y885250D01*
X552750D01*
X572750D01*
X587000Y871000D01*
Y828250D02*
Y871000D01*
Y828250D02*
X658000Y757250D01*
X916500D01*
X935500Y776250D01*
X976260D01*
X1000799Y800789D01*
X1006250Y806240D01*
Y869750D01*
X1105250Y968750D01*
X1157500D01*
X1169064Y980314D01*
Y1013000D01*
Y1039516D01*
X1192250Y1062702D01*
X1197548Y1068000D01*
X1312250D01*
X1450500D01*
X1509500Y1009000D01*
Y816750D02*
Y1009000D01*
Y816750D02*
X1665250Y661000D01*
X1335997Y403903D02*
X1426344Y494250D01*
X1430000D01*
X1459000D01*
X1482250Y471000D01*
Y122000D02*
Y471000D01*
Y122000D02*
X1529250Y75000D01*
X1531477Y45023D02*
Y74403D01*
Y45023D02*
X1542250Y34250D01*
X1646250D01*
X1662750Y50750D01*
X1712250Y100250D01*
Y121750D01*
Y432750D01*
X1695000Y450000D02*
X1712250Y432750D01*
X1695000Y450000D02*
Y635754D01*
X1670500Y660254D02*
X1695000Y635754D01*
D172*
X-37754Y-21500D02*
G03*
X-37500Y-21754I254J0D01*
G01*
Y28504D02*
G03*
X-37754Y28250I0J-254D01*
G01*
Y1362901D02*
G03*
X-37500Y1362647I254J0D01*
G01*
Y1400754D02*
G03*
X-37754Y1400500I0J-254D01*
G01*
X22500Y1442754D02*
G03*
X22246Y1442500I0J-254D01*
G01*
X98500Y1452754D02*
G03*
X98246Y1452500I0J-254D01*
G01*
X1654754D02*
G03*
X1654500Y1452754I-254J0D01*
G01*
X1677661Y1435382D02*
G03*
X1677408Y1435636I-254J0D01*
G01*
X1695754Y1409382D02*
G03*
X1695500Y1409636I-254J0D01*
G01*
Y818746D02*
G03*
X1695754Y819000I0J254D01*
G01*
X1660754Y669996D02*
G03*
X1660754Y670000I-254J4D01*
G01*
X1660754Y669996D02*
G03*
X1670500Y660254I9746J4D01*
G01*
X1762679Y660180D02*
G03*
X1762500Y660254I-180J-180D01*
G01*
X1762681Y660178D02*
G03*
X1762677Y660181I-181J-178D01*
G01*
X1768754Y654000D02*
G03*
X1768679Y654180I-254J-0D01*
G01*
X1768754Y654000D02*
G03*
X1768679Y654180I-254J0D01*
G01*
Y15820D02*
G03*
X1768754Y16000I-180J180D01*
G01*
X1768679Y15820D02*
G03*
X1768754Y16000I-180J180D01*
G01*
X1768678Y15819D02*
G03*
X1768681Y15822I-178J181D01*
G01*
X1762500Y9746D02*
G03*
X1762679Y9821I0J254D01*
G01*
X1670500Y9746D02*
G03*
X1660754Y4I0J-9746D01*
G01*
X1660754Y0D02*
G03*
X1660754Y4I-254J0D01*
G01*
Y-27504D02*
G03*
X1660754Y-27500I-5254J4D01*
G01*
X1655500Y-32754D02*
G03*
X1660754Y-27504I0J5254D01*
G01*
X188246Y-32500D02*
G03*
X188500Y-32754I254J0D01*
G01*
X106100Y-21754D02*
G03*
X106354Y-21500I0J254D01*
G01*
X-37754D02*
Y28250D01*
X-37500Y28504D02*
X-17754D01*
Y1362647D01*
X-37500D02*
X-17754D01*
X-37754Y1362901D02*
Y1400500D01*
X-37500Y1400754D02*
X22246D01*
Y1442500D01*
X22500Y1442754D02*
X98246D01*
Y1452500D01*
X98500Y1452754D02*
X1654500D01*
X1654754Y1435645D02*
Y1452500D01*
Y1435645D02*
X1654763Y1435636D01*
X1677408D01*
X1677661Y1409636D02*
Y1435382D01*
Y1409636D02*
X1695500D01*
X1695754Y819000D02*
Y1409382D01*
X1667605Y818746D02*
X1695500D01*
X1660754Y811895D02*
X1667605Y818746D01*
X1660754Y670000D02*
Y811895D01*
X1670500Y660254D02*
X1762500D01*
X1762679Y660180D02*
X1762681Y660178D01*
X1762677Y660181D02*
X1768681Y654177D01*
X1768754Y654000D01*
Y16000D02*
Y654000D01*
X1768679Y15820D02*
X1768754Y16000D01*
X1768678Y15819D02*
X1768679Y15820D01*
X1762677Y9819D02*
X1768681Y15822D01*
X1762677Y9819D02*
X1762679Y9821D01*
X1670500Y9746D02*
X1762500D01*
X1660754Y-27500D02*
Y0D01*
X1660754Y-27500D02*
X1660754D01*
X188500Y-32754D02*
X1655500D01*
X188246Y-32500D02*
Y-16754D01*
X106354D02*
X188246D01*
X106354Y-21500D02*
Y-16754D01*
X-37500Y-21754D02*
X106100D01*
D175*
X1299750Y43250D02*
D03*
X1349750D02*
D03*
D177*
X266500Y14500D02*
D03*
D178*
X283500D02*
D03*
D179*
X17250Y725776D02*
D03*
Y680776D02*
D03*
X791250Y149750D02*
D03*
Y49750D02*
D03*
D181*
X813000Y636500D02*
D03*
X474750Y1141500D02*
D03*
X133250Y479000D02*
D03*
X1092750Y318500D02*
D03*
X1488750Y1243750D02*
D03*
X42250Y738276D02*
D03*
Y668276D02*
D03*
X660125Y1331201D02*
D03*
X690625Y787401D02*
D03*
X660125Y631201D02*
D03*
X690625Y87400D02*
D03*
D182*
X745800Y1373300D02*
D03*
D183*
X783900Y1373300D02*
D03*
X783900Y1386000D02*
D03*
X771200Y1373300D02*
D03*
X771200Y1386000D02*
D03*
X758500Y1373300D02*
D03*
X758500Y1386000D02*
D03*
X745800D02*
D03*
X733100Y1373300D02*
D03*
X733100Y1386000D02*
D03*
D185*
X1621326Y1185294D02*
D03*
X1609326Y1177294D02*
D03*
X1621500Y1299000D02*
D03*
X1609500Y1291000D02*
D03*
D186*
X1609326Y1193294D02*
D03*
Y1161294D02*
D03*
X1621326Y1169294D02*
D03*
X1609500Y1307000D02*
D03*
Y1275000D02*
D03*
X1621500Y1283000D02*
D03*
D188*
X1513250Y85750D02*
D03*
X1471250Y85750D02*
D03*
Y30750D02*
D03*
X1513250D02*
D03*
D190*
X1486500Y352600D02*
D03*
X1476500Y480900D02*
D03*
X1593750Y472800D02*
D03*
X1603750Y344500D02*
D03*
D191*
X1643500Y1375000D02*
D03*
X1493500D02*
D03*
D193*
X1540499Y922251D02*
D03*
X1533000Y922250D02*
D03*
X1525500Y922250D02*
D03*
X1518000D02*
D03*
X1548000D02*
D03*
X1555500Y922250D02*
D03*
X1563000D02*
D03*
X1518000Y914750D02*
D03*
X1525500D02*
D03*
X1533000D02*
D03*
X1540500D02*
D03*
X1548000D02*
D03*
X1555500Y914750D02*
D03*
X1563000Y914750D02*
D03*
Y929750D02*
D03*
X1555500Y929750D02*
D03*
X1548000D02*
D03*
X1540500Y929750D02*
D03*
X1533000D02*
D03*
X1525500D02*
D03*
X1518000D02*
D03*
X1549750Y167750D02*
D03*
X1537750D02*
D03*
X1549750Y155750D02*
D03*
X1537750D02*
D03*
X1549750Y143750D02*
D03*
X1537750D02*
D03*
X1549750Y131750D02*
D03*
X1537750Y131750D02*
D03*
X1622000Y205000D02*
D03*
Y215000D02*
D03*
X1612000D02*
D03*
Y205000D02*
D03*
X1602000D02*
D03*
Y215000D02*
D03*
X1632000Y215000D02*
D03*
Y205000D02*
D03*
Y195000D02*
D03*
X1622000D02*
D03*
X1612000D02*
D03*
X1602000D02*
D03*
Y225000D02*
D03*
X1612000D02*
D03*
X1622000Y225000D02*
D03*
X1632000Y225000D02*
D03*
X1622000Y95000D02*
D03*
Y105000D02*
D03*
X1612000D02*
D03*
Y95000D02*
D03*
X1602000D02*
D03*
Y105000D02*
D03*
X1632000D02*
D03*
Y95000D02*
D03*
Y85000D02*
D03*
X1622000D02*
D03*
X1612000D02*
D03*
X1602000D02*
D03*
Y115000D02*
D03*
X1612000D02*
D03*
X1622000D02*
D03*
X1632000D02*
D03*
X86250Y204500D02*
D03*
X98250D02*
D03*
X86250Y192500D02*
D03*
X98250D02*
D03*
X86250Y180500D02*
D03*
X98250D02*
D03*
X86250Y168500D02*
D03*
X98250Y168500D02*
D03*
X491024Y1089053D02*
D03*
X1472500Y1305750D02*
D03*
X334500Y85000D02*
D03*
X268250Y1368250D02*
D03*
X185750Y1382250D02*
D03*
X150250Y1092250D02*
D03*
X261750Y430000D02*
D03*
X264750Y418250D02*
D03*
X139500Y144500D02*
D03*
X80500Y133500D02*
D03*
X49750Y1034500D02*
D03*
X1054250Y841250D02*
D03*
X1003500Y1130500D02*
D03*
X1058500Y237750D02*
D03*
X389500Y456500D02*
D03*
X553500Y373500D02*
D03*
X348250Y1173250D02*
D03*
X385250Y1387250D02*
D03*
X142500Y1355250D02*
D03*
X48500Y1125000D02*
D03*
X68750Y1162750D02*
D03*
X1589000Y103000D02*
D03*
X1590358Y213101D02*
D03*
X139007Y115006D02*
D03*
X150000Y139500D02*
D03*
X166500Y140250D02*
D03*
X197750Y160500D02*
D03*
X782000Y1283250D02*
D03*
X1054000Y1083000D02*
D03*
X1114064Y1090828D02*
D03*
X1084128Y1120750D02*
D03*
X1014750Y901250D02*
D03*
X1004250Y941250D02*
D03*
X1074250Y1051750D02*
D03*
X1124250Y1051250D02*
D03*
X1115250Y1042500D02*
D03*
X1111750Y1039750D02*
D03*
X1104000Y1060500D02*
D03*
X582750Y1157000D02*
D03*
X757250Y1250500D02*
D03*
X1153500Y1121000D02*
D03*
X1408000Y1310500D02*
D03*
Y1318500D02*
D03*
Y1294500D02*
D03*
X1399409Y1302621D02*
D03*
X1408000Y1302500D02*
D03*
X647425Y1173601D02*
D03*
X279500Y432000D02*
D03*
X338250Y416000D02*
D03*
X351750Y427250D02*
D03*
X375018Y443272D02*
D03*
X970000Y302250D02*
D03*
X971500Y332250D02*
D03*
X1042000Y293500D02*
D03*
X1040750Y321750D02*
D03*
X334774Y246488D02*
D03*
X1206000Y476750D02*
D03*
X26251Y240262D02*
D03*
Y224511D02*
D03*
X33749Y240262D02*
D03*
X97500Y737500D02*
D03*
X436750Y914500D02*
D03*
X168250Y1388000D02*
D03*
X84500Y1228000D02*
D03*
X97255Y1115054D02*
D03*
X354267Y874049D02*
D03*
X23251Y1198308D02*
D03*
X10501D02*
D03*
X83750Y1149500D02*
D03*
X78250Y1162000D02*
D03*
X81250Y1167750D02*
D03*
X139250Y1179500D02*
D03*
X114750Y1178250D02*
D03*
X130250Y1185250D02*
D03*
X112094Y1150620D02*
D03*
X155169Y1155870D02*
D03*
X206500Y1413000D02*
D03*
X210010Y1359566D02*
D03*
X235000Y1359055D02*
D03*
X215011Y1344566D02*
D03*
X132250Y1301000D02*
D03*
X139007Y1311564D02*
D03*
X163250Y1319250D02*
D03*
X167000Y1316000D02*
D03*
X182759Y1331565D02*
D03*
X197260Y1326815D02*
D03*
X136000Y610500D02*
D03*
X106250Y602500D02*
D03*
X196078Y338250D02*
D03*
X197510Y355767D02*
D03*
X133000Y409000D02*
D03*
X109750Y413250D02*
D03*
X111500Y455250D02*
D03*
X60750Y448500D02*
D03*
X95750Y424750D02*
D03*
X57750Y425250D02*
D03*
X87250Y473250D02*
D03*
X34750Y478750D02*
D03*
X442750Y178500D02*
D03*
X408750Y172500D02*
D03*
X416000D02*
D03*
X200000Y215750D02*
D03*
X107000Y100250D02*
D03*
X70000Y132500D02*
D03*
X52250Y144000D02*
D03*
X49000Y149102D02*
D03*
X133764Y220750D02*
D03*
X136250Y376750D02*
D03*
X109500Y381500D02*
D03*
X1234000Y1110750D02*
D03*
X1075000Y728500D02*
D03*
X1336750Y830750D02*
D03*
X1341566Y818290D02*
D03*
X1335315Y812790D02*
D03*
X994064Y1080828D02*
D03*
X1342250Y1116750D02*
D03*
X109012Y363493D02*
D03*
X226000Y908000D02*
D03*
X1509250Y950500D02*
D03*
X566150Y91800D02*
D03*
X575350D02*
D03*
X1482000Y1300021D02*
D03*
X1436000Y725500D02*
D03*
X1436500Y763250D02*
D03*
Y740250D02*
D03*
X825750Y851250D02*
D03*
X792447Y258750D02*
D03*
X776038Y283514D02*
D03*
X821290Y208010D02*
D03*
X829790Y233011D02*
D03*
X1084064Y990828D02*
D03*
X1113500Y1060500D02*
D03*
X1348816Y752287D02*
D03*
X1348566Y770038D02*
D03*
Y783038D02*
D03*
X1329763Y751424D02*
D03*
X1348508Y797816D02*
D03*
Y814010D02*
D03*
X1329763Y809825D02*
D03*
X1287813Y822040D02*
D03*
Y795789D02*
D03*
X1327565Y793789D02*
D03*
X1247750Y742000D02*
D03*
X1247561Y755037D02*
D03*
X1233810Y742036D02*
D03*
X1287813Y739036D02*
D03*
X1277812Y729036D02*
D03*
X1268250Y717750D02*
D03*
X1258061Y709285D02*
D03*
X1245561Y785288D02*
D03*
X1247811Y776038D02*
D03*
X1244314Y765725D02*
D03*
X1233810Y755287D02*
D03*
X994298Y759787D02*
D03*
Y773288D02*
D03*
X975048Y776538D02*
D03*
X1164500Y701500D02*
D03*
X1174500Y713500D02*
D03*
X1155806Y709285D02*
D03*
X1141500Y723546D02*
D03*
X1107804Y718035D02*
D03*
X955299Y719870D02*
D03*
X983682D02*
D03*
X1029800Y710535D02*
D03*
X1045051Y711785D02*
D03*
X1052301Y719285D02*
D03*
X1061302Y728286D02*
D03*
X1072802Y712535D02*
D03*
X1096553Y721535D02*
D03*
X1086000Y725937D02*
D03*
X1099054Y737536D02*
D03*
X1184558Y779788D02*
D03*
Y721285D02*
D03*
X1174539Y729078D02*
D03*
Y742500D02*
D03*
Y755750D02*
D03*
X1184558Y766037D02*
D03*
X1174314Y769824D02*
D03*
X1153750Y778000D02*
D03*
X1153806Y763287D02*
D03*
Y736036D02*
D03*
X1124350Y735649D02*
D03*
X1124314Y777202D02*
D03*
Y763328D02*
D03*
X1113500Y767500D02*
D03*
X1103500Y758000D02*
D03*
X1061052Y741786D02*
D03*
X1075803Y742536D02*
D03*
X1084803Y751787D02*
D03*
X1073750Y773250D02*
D03*
X1064478Y777750D02*
D03*
X1053801Y782038D02*
D03*
X1024314Y791000D02*
D03*
X1003549Y768288D02*
D03*
X1083400Y764196D02*
D03*
X1016477Y697273D02*
D03*
X984223Y707527D02*
D03*
X940429Y705000D02*
D03*
X970500Y707000D02*
D03*
X959500Y760500D02*
D03*
X965299Y729870D02*
D03*
X749537Y802039D02*
D03*
X744786Y778288D02*
D03*
X772538Y777788D02*
D03*
X744786Y785538D02*
D03*
X772538Y785788D02*
D03*
X806289Y787538D02*
D03*
X812250Y772750D02*
D03*
X820290Y772788D02*
D03*
X829000Y772750D02*
D03*
X814500Y1119500D02*
D03*
X817250Y1096250D02*
D03*
X811290Y1072052D02*
D03*
X841291Y1071052D02*
D03*
X840791Y808289D02*
D03*
X816540D02*
D03*
X809818Y819725D02*
D03*
X819500Y830250D02*
D03*
X850000Y820750D02*
D03*
X869542Y841291D02*
D03*
X860500Y831000D02*
D03*
X838500Y830750D02*
D03*
X847250Y841000D02*
D03*
X856750Y850500D02*
D03*
X838750Y850750D02*
D03*
X785788Y981798D02*
D03*
X765500Y1009500D02*
D03*
X790500Y1020000D02*
D03*
X798750Y971000D02*
D03*
X852750Y1113250D02*
D03*
X853000Y1096750D02*
D03*
X851500Y1081000D02*
D03*
X837750Y1098250D02*
D03*
X778250Y1022250D02*
D03*
X816000Y1059750D02*
D03*
X824500Y1053500D02*
D03*
X824040Y1032550D02*
D03*
X812500Y1025250D02*
D03*
X796000Y1058500D02*
D03*
X782538Y1061302D02*
D03*
X778288Y1040301D02*
D03*
X780538Y1009549D02*
D03*
X815790Y990298D02*
D03*
X786038Y990048D02*
D03*
X812000Y1008000D02*
D03*
X815290Y910794D02*
D03*
X1328250Y1030500D02*
D03*
Y1041000D02*
D03*
Y1051000D02*
D03*
X1321064Y1064802D02*
D03*
X1304500Y1060750D02*
D03*
X1303814Y1051051D02*
D03*
Y1040801D02*
D03*
Y1030550D02*
D03*
X1437320Y1039551D02*
D03*
X1174064Y1070828D02*
D03*
X1289500Y1081500D02*
D03*
X1133805Y1218059D02*
D03*
X1125743Y1225530D02*
D03*
X1109554Y1238060D02*
D03*
X1104304Y1226560D02*
D03*
X1085750Y1230500D02*
D03*
X1094303Y1203559D02*
D03*
X1276200Y950400D02*
D03*
X1304750Y907750D02*
D03*
X1304064Y922295D02*
D03*
X1304000Y941250D02*
D03*
X1276812Y920545D02*
D03*
X1276500Y906750D02*
D03*
X1124250Y1070750D02*
D03*
X1268562Y762287D02*
D03*
X1278000Y771500D02*
D03*
X1268312Y776288D02*
D03*
Y792039D02*
D03*
X924000Y910750D02*
D03*
X904000D02*
D03*
X924000Y900750D02*
D03*
X954000Y860750D02*
D03*
X904000Y830750D02*
D03*
X923500Y851000D02*
D03*
X1074052Y841291D02*
D03*
X1044051Y801289D02*
D03*
X1043801Y785038D02*
D03*
X968297Y808289D02*
D03*
X968797Y785538D02*
D03*
X983548Y801289D02*
D03*
X983250Y785250D02*
D03*
X1000500D02*
D03*
X1000799Y800789D02*
D03*
X948750Y1236500D02*
D03*
X957797Y1236560D02*
D03*
X973548Y1236310D02*
D03*
X921500Y1236500D02*
D03*
X912500Y1236250D02*
D03*
X904500Y1236500D02*
D03*
X956500Y1174750D02*
D03*
X925000Y1174250D02*
D03*
X710925Y168801D02*
D03*
X810750Y575250D02*
D03*
X326733Y172008D02*
D03*
X343267Y177758D02*
D03*
X335492Y185517D02*
D03*
X342767Y169758D02*
D03*
X1352816Y96755D02*
D03*
X815500Y1421000D02*
D03*
X862000Y1284250D02*
D03*
X848750Y1281750D02*
D03*
X839000Y1285500D02*
D03*
X821000Y1282250D02*
D03*
X809750Y1283750D02*
D03*
X799250Y1284500D02*
D03*
X961750Y1170500D02*
D03*
X949500Y1166750D02*
D03*
X937500Y1166000D02*
D03*
X930250Y1164250D02*
D03*
X922000Y1163000D02*
D03*
X912250Y1163250D02*
D03*
X994064Y950828D02*
D03*
Y960828D02*
D03*
X1004064Y950828D02*
D03*
X1014142Y950514D02*
D03*
X1024000Y950750D02*
D03*
X1034378Y960906D02*
D03*
X609325Y818001D02*
D03*
X934250Y1120500D02*
D03*
X251250Y243000D02*
D03*
X263750D02*
D03*
X276514Y243012D02*
D03*
X928750Y78750D02*
D03*
X1141000Y90250D02*
D03*
X1453500Y1063500D02*
D03*
X1282813Y79754D02*
D03*
X1454500Y902500D02*
D03*
X1454571Y919045D02*
D03*
X162250Y845000D02*
D03*
X213500Y807500D02*
D03*
X211750Y826750D02*
D03*
X368750Y705000D02*
D03*
X360750Y716250D02*
D03*
X601000Y716000D02*
D03*
X592000Y710750D02*
D03*
X210000Y765750D02*
D03*
X334250Y834500D02*
D03*
X202750Y834000D02*
D03*
X201500Y805000D02*
D03*
X193500D02*
D03*
X389000Y771000D02*
D03*
Y761000D02*
D03*
X469750Y685750D02*
D03*
X466000Y659750D02*
D03*
X405750Y645750D02*
D03*
X405500Y635500D02*
D03*
X319750Y726750D02*
D03*
X319250Y740500D02*
D03*
X317750Y754750D02*
D03*
X453250Y726750D02*
D03*
X458500Y740750D02*
D03*
X459500Y754750D02*
D03*
X590750D02*
D03*
X591375Y769551D02*
D03*
X572500Y768250D02*
D03*
X622025Y805301D02*
D03*
X609325D02*
D03*
X541000Y885500D02*
D03*
X279500Y874750D02*
D03*
X262750Y873750D02*
D03*
X255250Y865750D02*
D03*
X522250Y645750D02*
D03*
X516000Y635500D02*
D03*
X743000Y536250D02*
D03*
X801500Y600000D02*
D03*
X798750Y563500D02*
D03*
X814750Y537000D02*
D03*
X805000Y513000D02*
D03*
X756250Y538250D02*
D03*
X762000Y512500D02*
D03*
X1074064Y880828D02*
D03*
X1084064Y890828D02*
D03*
X310250Y390750D02*
D03*
X303250Y381750D02*
D03*
X331250Y409500D02*
D03*
X321000Y400250D02*
D03*
X153500Y626250D02*
D03*
X955547Y1300933D02*
D03*
X675783Y1338572D02*
D03*
X689284D02*
D03*
X676033Y1322822D02*
D03*
X688533D02*
D03*
X702783Y1338822D02*
D03*
X716283D02*
D03*
X703033Y1323071D02*
D03*
X715533D02*
D03*
X1174064Y930828D02*
D03*
X1184000Y930000D02*
D03*
X723625Y105301D02*
D03*
X609179Y1334034D02*
D03*
X609179Y1321533D02*
D03*
X593428Y1334783D02*
D03*
X593250Y1321750D02*
D03*
X715533Y1353071D02*
D03*
X703033D02*
D03*
X716283Y1368822D02*
D03*
X702783D02*
D03*
X1314064Y78004D02*
D03*
X1305314Y69003D02*
D03*
X1346066Y82004D02*
D03*
X1275915Y115976D02*
D03*
X1717250Y645500D02*
D03*
X1726500Y68500D02*
D03*
X192500Y373500D02*
D03*
X69750Y276750D02*
D03*
X112762Y312740D02*
D03*
X60750Y273500D02*
D03*
X147014Y227236D02*
D03*
X152514Y183984D02*
D03*
X164265Y165733D02*
D03*
X165015Y222736D02*
D03*
X190516D02*
D03*
X187016Y246987D02*
D03*
X170515Y254988D02*
D03*
X121263Y301240D02*
D03*
X105512Y301490D02*
D03*
X61010Y336992D02*
D03*
X72510Y324241D02*
D03*
X110262Y327741D02*
D03*
X156515Y304240D02*
D03*
X175516Y308490D02*
D03*
X187016Y318491D02*
D03*
X195266Y332991D02*
D03*
Y362243D02*
D03*
X118763Y358743D02*
D03*
X119250Y258000D02*
D03*
X93000Y277500D02*
D03*
X95262Y298490D02*
D03*
X87750Y292250D02*
D03*
X81511Y298490D02*
D03*
X66750Y313000D02*
D03*
X42509Y309990D02*
D03*
X19008Y303490D02*
D03*
X25250Y297750D02*
D03*
X31759Y303490D02*
D03*
X54010Y338992D02*
D03*
X39509Y347492D02*
D03*
X17992Y398005D02*
D03*
X41759Y397744D02*
D03*
Y387494D02*
D03*
Y406745D02*
D03*
X75511Y398995D02*
D03*
Y406495D02*
D03*
X126013Y448495D02*
D03*
X154764D02*
D03*
X179766D02*
D03*
X192266D02*
D03*
X100500Y149000D02*
D03*
X83261Y148482D02*
D03*
X120250Y172500D02*
D03*
X124250Y179000D02*
D03*
X117750Y184500D02*
D03*
X124500Y188500D02*
D03*
X123250Y197250D02*
D03*
X119000Y203750D02*
D03*
X67500Y174000D02*
D03*
X62750Y178750D02*
D03*
X68000Y184000D02*
D03*
X62750Y189250D02*
D03*
X68500Y194000D02*
D03*
X65750Y210000D02*
D03*
X119750Y164000D02*
D03*
X67250Y166500D02*
D03*
X73761Y160483D02*
D03*
X110762D02*
D03*
X103262Y158983D02*
D03*
X81011Y158733D02*
D03*
X79000Y216500D02*
D03*
X103262Y213986D02*
D03*
X110762Y212736D02*
D03*
X821000Y938250D02*
D03*
X815290Y891043D02*
D03*
X50000Y352750D02*
D03*
X543777Y855042D02*
D03*
X125508Y350193D02*
D03*
X130509Y363694D02*
D03*
X1435557Y377601D02*
D03*
X1423306D02*
D03*
X1413556Y376351D02*
D03*
X1246789Y301267D02*
D03*
X1263528Y321411D02*
D03*
X1508574Y1140557D02*
D03*
X1546826Y1140307D02*
D03*
X1555500Y957500D02*
D03*
X1516000Y957250D02*
D03*
X1525750D02*
D03*
X345262Y206024D02*
D03*
X435262D02*
D03*
X420262D02*
D03*
X390262D02*
D03*
X375262Y206024D02*
D03*
X360262D02*
D03*
X334774Y231488D02*
D03*
Y261488D02*
D03*
Y276488D02*
D03*
Y291488D02*
D03*
Y306488D02*
D03*
X334774Y321488D02*
D03*
X360238Y346976D02*
D03*
X375238D02*
D03*
X390238Y346976D02*
D03*
X405238D02*
D03*
X420238D02*
D03*
X435238D02*
D03*
X450238D02*
D03*
X475727Y321512D02*
D03*
X475727Y306512D02*
D03*
Y276512D02*
D03*
Y231512D02*
D03*
X513750Y211750D02*
D03*
X475727Y246512D02*
D03*
Y261512D02*
D03*
X1064478Y794250D02*
D03*
Y810750D02*
D03*
X1103804Y784788D02*
D03*
X1113500Y790500D02*
D03*
X1113750Y807750D02*
D03*
X1278062Y832291D02*
D03*
X1277812Y846541D02*
D03*
X1257811Y832291D02*
D03*
X1258061Y846541D02*
D03*
X1074000Y787250D02*
D03*
X1073750Y819750D02*
D03*
X1213750Y810000D02*
D03*
Y794500D02*
D03*
X1204250Y785000D02*
D03*
X634725Y830701D02*
D03*
Y818001D02*
D03*
X596625D02*
D03*
Y843401D02*
D03*
X596625Y118001D02*
D03*
X550000Y869000D02*
D03*
X647425Y818001D02*
D03*
X573000Y816250D02*
D03*
X558500Y817000D02*
D03*
X550777Y830006D02*
D03*
X572008Y856508D02*
D03*
X647425Y856101D02*
D03*
X546000Y155750D02*
D03*
X574028Y157008D02*
D03*
X560750Y117500D02*
D03*
X575250Y116750D02*
D03*
X553027Y168508D02*
D03*
Y130506D02*
D03*
X609325Y118001D02*
D03*
X634725Y130701D02*
D03*
Y156101D02*
D03*
Y118001D02*
D03*
X609325Y105301D02*
D03*
X622025D02*
D03*
X1104250Y880750D02*
D03*
X1104064Y890828D02*
D03*
X596625Y448201D02*
D03*
X673276Y397326D02*
D03*
X660301Y435449D02*
D03*
X660125Y448201D02*
D03*
X622025Y321201D02*
D03*
Y308501D02*
D03*
X634725Y359301D02*
D03*
X710925Y486301D02*
D03*
Y473601D02*
D03*
X596625Y359301D02*
D03*
X609325Y346601D02*
D03*
X596625Y321201D02*
D03*
X1154064Y920828D02*
D03*
X1144250Y920750D02*
D03*
X634725Y232301D02*
D03*
X622025Y257701D02*
D03*
X609325Y245001D02*
D03*
Y206901D02*
D03*
Y156101D02*
D03*
Y168801D02*
D03*
Y283101D02*
D03*
X596625Y181501D02*
D03*
Y219601D02*
D03*
Y295801D02*
D03*
X1558000Y63750D02*
D03*
X1594500Y140250D02*
D03*
X1569077Y128006D02*
D03*
X1581000Y136000D02*
D03*
X1589495Y250077D02*
D03*
X1629495D02*
D03*
X1634505Y238923D02*
D03*
X1645923Y232495D02*
D03*
Y187495D02*
D03*
X1634495Y181077D02*
D03*
X1629505Y169923D02*
D03*
X1589505D02*
D03*
X1588078Y192505D02*
D03*
Y207505D02*
D03*
Y227505D02*
D03*
X1594505Y238923D02*
D03*
X1619505D02*
D03*
X1645923Y212495D02*
D03*
X1657077Y207505D02*
D03*
X1619495Y181077D02*
D03*
X1594495D02*
D03*
X1534750Y102553D02*
D03*
X1536750Y81553D02*
D03*
Y59053D02*
D03*
X1528250Y178250D02*
D03*
X1520574Y174258D02*
D03*
X1589505Y59922D02*
D03*
X1634505Y128923D02*
D03*
X1629495Y140077D02*
D03*
X1645923Y122495D02*
D03*
Y77495D02*
D03*
X1634495Y71077D02*
D03*
X1629505Y59922D02*
D03*
X1619505Y128923D02*
D03*
X1657077Y97505D02*
D03*
X1645923Y102495D02*
D03*
X1619495Y71077D02*
D03*
X1594495D02*
D03*
X1588078Y117505D02*
D03*
Y82505D02*
D03*
Y97505D02*
D03*
X1728250Y20000D02*
D03*
Y87500D02*
D03*
Y110000D02*
D03*
Y132500D02*
D03*
Y155000D02*
D03*
Y177500D02*
D03*
Y200000D02*
D03*
Y222500D02*
D03*
Y245000D02*
D03*
Y267500D02*
D03*
Y290000D02*
D03*
Y312500D02*
D03*
Y335000D02*
D03*
Y357500D02*
D03*
Y380000D02*
D03*
Y402500D02*
D03*
Y425000D02*
D03*
Y447500D02*
D03*
Y470000D02*
D03*
Y492500D02*
D03*
Y515000D02*
D03*
Y537500D02*
D03*
Y560000D02*
D03*
Y582500D02*
D03*
Y605000D02*
D03*
Y627500D02*
D03*
Y650000D02*
D03*
X609325Y486301D02*
D03*
X660125D02*
D03*
Y524401D02*
D03*
X1144064Y900828D02*
D03*
X660125Y562501D02*
D03*
X596625Y881501D02*
D03*
X647425Y868801D02*
D03*
X710925Y906901D02*
D03*
X723625Y894201D02*
D03*
X609325Y983101D02*
D03*
X994064Y820828D02*
D03*
X660125Y805301D02*
D03*
X672825D02*
D03*
X698225D02*
D03*
X660125Y818001D02*
D03*
X609325Y868801D02*
D03*
Y856101D02*
D03*
X685525Y818001D02*
D03*
X660125Y830701D02*
D03*
X698225Y906901D02*
D03*
X634725Y919601D02*
D03*
X710925Y970401D02*
D03*
Y919601D02*
D03*
X698225Y970401D02*
D03*
X710925Y983101D02*
D03*
Y1008501D02*
D03*
X622025Y1033901D02*
D03*
X904064Y970828D02*
D03*
X924064Y830828D02*
D03*
X914000Y960250D02*
D03*
X904064Y940828D02*
D03*
X622025Y906901D02*
D03*
X723625Y805301D02*
D03*
X913250Y1030000D02*
D03*
X1164064Y990828D02*
D03*
X1154064D02*
D03*
X1144064D02*
D03*
X1084064Y970828D02*
D03*
X1104064D02*
D03*
X1114064D02*
D03*
X1124064D02*
D03*
X1084064Y980828D02*
D03*
X1094064Y990828D02*
D03*
Y980828D02*
D03*
X1104064D02*
D03*
X1114064D02*
D03*
X1124064D02*
D03*
X1104064Y990828D02*
D03*
X1114064D02*
D03*
X1124064D02*
D03*
X1094064Y970828D02*
D03*
X710925Y868801D02*
D03*
Y830701D02*
D03*
Y818001D02*
D03*
Y843401D02*
D03*
X685525D02*
D03*
X698750Y856500D02*
D03*
X698225Y868801D02*
D03*
X710925Y881501D02*
D03*
X685525D02*
D03*
X634725D02*
D03*
X685525Y894201D02*
D03*
X710925D02*
D03*
X685525Y932301D02*
D03*
X622025Y945001D02*
D03*
X634725Y957701D02*
D03*
X698225D02*
D03*
X723625D02*
D03*
X685525Y970401D02*
D03*
X647425Y983101D02*
D03*
X634725Y995801D02*
D03*
X685525Y1008501D02*
D03*
X698225D02*
D03*
X710925Y995801D02*
D03*
X723625Y1021201D02*
D03*
X698225D02*
D03*
X647425D02*
D03*
X622025D02*
D03*
X710925Y1033901D02*
D03*
X698225Y537101D02*
D03*
X710925Y118001D02*
D03*
X685525D02*
D03*
X698225Y499001D02*
D03*
Y486301D02*
D03*
X710925Y600601D02*
D03*
X698225D02*
D03*
X685525D02*
D03*
Y587901D02*
D03*
X698225D02*
D03*
X710925D02*
D03*
X698225Y575201D02*
D03*
X685525Y562501D02*
D03*
X698225D02*
D03*
X710925Y549801D02*
D03*
X698225D02*
D03*
X685525D02*
D03*
X609325Y562501D02*
D03*
X622025Y549801D02*
D03*
X609325Y524401D02*
D03*
X622025Y511701D02*
D03*
X634725Y524401D02*
D03*
X698225D02*
D03*
Y511701D02*
D03*
X723625Y524401D02*
D03*
Y511701D02*
D03*
Y473601D02*
D03*
Y460901D02*
D03*
X698225Y473601D02*
D03*
Y460901D02*
D03*
X685525D02*
D03*
X634725Y486301D02*
D03*
X622025Y473601D02*
D03*
Y435501D02*
D03*
X634725Y448201D02*
D03*
X710925D02*
D03*
Y435501D02*
D03*
X685525Y422801D02*
D03*
X698225D02*
D03*
X723625D02*
D03*
X698225Y410101D02*
D03*
X723625D02*
D03*
X710925Y397401D02*
D03*
Y384701D02*
D03*
X685500Y385250D02*
D03*
X609325Y410101D02*
D03*
X634725D02*
D03*
X622025Y397401D02*
D03*
X634725Y372001D02*
D03*
X698225D02*
D03*
Y359301D02*
D03*
X723625Y372001D02*
D03*
Y359301D02*
D03*
X710925Y333901D02*
D03*
Y346601D02*
D03*
X685525D02*
D03*
X698225Y321201D02*
D03*
X723625D02*
D03*
Y308501D02*
D03*
X710925Y295801D02*
D03*
X698225Y308501D02*
D03*
X685525D02*
D03*
X634725Y295801D02*
D03*
X685525Y270401D02*
D03*
X710925Y283101D02*
D03*
X723625Y270401D02*
D03*
X710925Y245001D02*
D03*
X723625Y257701D02*
D03*
X698225Y270401D02*
D03*
Y257701D02*
D03*
X685525Y232301D02*
D03*
X710925D02*
D03*
X698225Y219601D02*
D03*
X723625D02*
D03*
Y206901D02*
D03*
X710925Y194201D02*
D03*
X698225Y206901D02*
D03*
X685525Y194201D02*
D03*
X634725Y219601D02*
D03*
Y181501D02*
D03*
X685525D02*
D03*
X710925D02*
D03*
Y143401D02*
D03*
X685525D02*
D03*
Y130701D02*
D03*
X710925D02*
D03*
X1174064Y950828D02*
D03*
X1094064Y920828D02*
D03*
X1084064D02*
D03*
X1144064Y930828D02*
D03*
X1094064Y900828D02*
D03*
X1094064Y1000828D02*
D03*
X1224064Y830828D02*
D03*
X1244064Y840828D02*
D03*
X1234064Y860828D02*
D03*
X1214064Y850828D02*
D03*
X1224064Y880828D02*
D03*
X1204064Y870828D02*
D03*
Y820828D02*
D03*
X1194064Y840828D02*
D03*
X1184064Y860828D02*
D03*
X1174064Y880828D02*
D03*
Y830828D02*
D03*
X1154064Y870828D02*
D03*
X1153750Y820750D02*
D03*
X1144064Y840828D02*
D03*
X1134064Y930828D02*
D03*
Y910828D02*
D03*
Y870828D02*
D03*
Y860828D02*
D03*
X1174064Y940828D02*
D03*
X1164064D02*
D03*
X1154064D02*
D03*
X1144064D02*
D03*
X1134064D02*
D03*
X1124064D02*
D03*
Y930828D02*
D03*
X1123750Y880750D02*
D03*
X1124064Y830828D02*
D03*
X1164064Y950828D02*
D03*
X1154064D02*
D03*
X1144064D02*
D03*
X1134064D02*
D03*
X1124064D02*
D03*
X1114064D02*
D03*
Y940828D02*
D03*
Y930828D02*
D03*
Y900828D02*
D03*
Y850828D02*
D03*
X1164064Y960828D02*
D03*
X1154064D02*
D03*
X1144064D02*
D03*
X1134064D02*
D03*
X1104064Y950828D02*
D03*
Y940828D02*
D03*
Y930828D02*
D03*
Y920828D02*
D03*
Y820828D02*
D03*
X1174064Y970828D02*
D03*
X1164064D02*
D03*
X1154064D02*
D03*
X1144064D02*
D03*
X1134064D02*
D03*
X1094064Y950828D02*
D03*
Y940828D02*
D03*
Y930828D02*
D03*
Y840828D02*
D03*
X1084064Y860828D02*
D03*
Y910828D02*
D03*
Y930828D02*
D03*
Y940828D02*
D03*
Y950828D02*
D03*
X1164064Y980828D02*
D03*
X1154064D02*
D03*
X1144064D02*
D03*
X1134064D02*
D03*
X1214064Y1040828D02*
D03*
X1224064D02*
D03*
X1234064Y1030828D02*
D03*
X1244064D02*
D03*
X1214064Y1020828D02*
D03*
X1204064Y1030828D02*
D03*
X1194064D02*
D03*
X1184064Y1040828D02*
D03*
Y1020828D02*
D03*
X1174064D02*
D03*
Y1040828D02*
D03*
X1164064D02*
D03*
Y1030828D02*
D03*
Y1020828D02*
D03*
X1154064D02*
D03*
X1144064Y1030828D02*
D03*
Y1020828D02*
D03*
X1134064D02*
D03*
Y1030828D02*
D03*
Y1040828D02*
D03*
X1124064D02*
D03*
Y1030828D02*
D03*
Y1020828D02*
D03*
X1114064D02*
D03*
Y1030828D02*
D03*
X1104064Y1040828D02*
D03*
Y1030828D02*
D03*
Y1020828D02*
D03*
X1094064Y1040828D02*
D03*
Y1030828D02*
D03*
Y1020828D02*
D03*
Y1010828D02*
D03*
X1104064D02*
D03*
X1114064D02*
D03*
X1124064D02*
D03*
X1134064D02*
D03*
X1144064D02*
D03*
X1154064D02*
D03*
X1164064D02*
D03*
X1194064D02*
D03*
X1204064D02*
D03*
X1184064Y1000828D02*
D03*
X1174064D02*
D03*
X1164064D02*
D03*
X1154064D02*
D03*
X1144064D02*
D03*
X1134064D02*
D03*
X1124064D02*
D03*
X1114064D02*
D03*
X1104064D02*
D03*
X1084064Y1010828D02*
D03*
Y1020828D02*
D03*
Y1030828D02*
D03*
Y1040828D02*
D03*
X924064D02*
D03*
X934064D02*
D03*
X944064Y1030828D02*
D03*
X954064D02*
D03*
X964064Y1040828D02*
D03*
X984064D02*
D03*
Y1030828D02*
D03*
X994064Y1040828D02*
D03*
Y1030828D02*
D03*
X1014064Y1040828D02*
D03*
Y1030828D02*
D03*
X1024064D02*
D03*
Y1040828D02*
D03*
X1034064D02*
D03*
Y1030828D02*
D03*
X1044064Y1040828D02*
D03*
Y1030828D02*
D03*
X1054064D02*
D03*
Y1040828D02*
D03*
X1064064Y1030828D02*
D03*
Y1040828D02*
D03*
X710500Y856500D02*
D03*
X974064Y1040828D02*
D03*
X647425Y945001D02*
D03*
X647250Y906750D02*
D03*
X596625Y995801D02*
D03*
Y957701D02*
D03*
Y919601D02*
D03*
X672825Y856101D02*
D03*
Y843401D02*
D03*
X660125Y868801D02*
D03*
X660250Y907250D02*
D03*
X672825Y894201D02*
D03*
Y932301D02*
D03*
X660125Y945001D02*
D03*
X672825Y970401D02*
D03*
X660125Y983101D02*
D03*
X672825Y1008501D02*
D03*
X660125Y1021201D02*
D03*
X609325D02*
D03*
X698225Y105301D02*
D03*
X710925Y156101D02*
D03*
X685525Y613301D02*
D03*
X698225D02*
D03*
Y156101D02*
D03*
Y143401D02*
D03*
X647425Y105301D02*
D03*
Y156101D02*
D03*
Y194201D02*
D03*
Y270401D02*
D03*
Y308501D02*
D03*
Y384701D02*
D03*
Y422801D02*
D03*
Y460901D02*
D03*
Y499001D02*
D03*
Y537101D02*
D03*
X660125Y105301D02*
D03*
Y397401D02*
D03*
X659500Y359250D02*
D03*
X660125Y321201D02*
D03*
Y283101D02*
D03*
Y245001D02*
D03*
Y206901D02*
D03*
Y168801D02*
D03*
Y118001D02*
D03*
Y130701D02*
D03*
X672825Y105301D02*
D03*
Y575201D02*
D03*
Y537101D02*
D03*
Y499001D02*
D03*
Y308501D02*
D03*
Y346601D02*
D03*
Y270401D02*
D03*
Y194201D02*
D03*
Y232301D02*
D03*
Y156101D02*
D03*
Y143401D02*
D03*
X954064Y940828D02*
D03*
X924064D02*
D03*
X1054250Y850750D02*
D03*
X1044250Y840750D02*
D03*
X1033750D02*
D03*
X914064Y1010828D02*
D03*
X924064D02*
D03*
X954064D02*
D03*
X964064D02*
D03*
X1064064Y1020828D02*
D03*
Y1010828D02*
D03*
X1054064D02*
D03*
X1044064D02*
D03*
Y1000828D02*
D03*
X1034064D02*
D03*
X1024064D02*
D03*
X1014064D02*
D03*
X1004064D02*
D03*
X994064D02*
D03*
X984064D02*
D03*
X974064D02*
D03*
X964064D02*
D03*
X994064Y1010828D02*
D03*
X1004064D02*
D03*
X1014064D02*
D03*
X1024064D02*
D03*
X1034064D02*
D03*
X1054064Y1020828D02*
D03*
X1044064D02*
D03*
X1034064D02*
D03*
X1024064D02*
D03*
X1014064D02*
D03*
X1004064D02*
D03*
X994064D02*
D03*
X984064D02*
D03*
X974064D02*
D03*
X964064D02*
D03*
X934000Y1020500D02*
D03*
X954064Y980828D02*
D03*
X984064D02*
D03*
X994064D02*
D03*
X1004064D02*
D03*
X1064064Y950828D02*
D03*
Y940828D02*
D03*
Y930828D02*
D03*
Y830828D02*
D03*
X1044500Y820750D02*
D03*
X1054064Y900828D02*
D03*
Y930828D02*
D03*
Y940828D02*
D03*
Y950828D02*
D03*
X1043750Y951000D02*
D03*
X1044064Y940828D02*
D03*
Y930828D02*
D03*
Y920828D02*
D03*
Y870828D02*
D03*
X1034064Y890828D02*
D03*
Y910828D02*
D03*
Y930828D02*
D03*
Y940828D02*
D03*
Y950828D02*
D03*
X1024064Y940828D02*
D03*
Y930828D02*
D03*
Y910828D02*
D03*
Y860828D02*
D03*
X1014064Y830828D02*
D03*
Y880828D02*
D03*
Y930828D02*
D03*
Y940828D02*
D03*
X1004064Y970828D02*
D03*
Y960828D02*
D03*
Y900828D02*
D03*
Y850828D02*
D03*
X994064Y870828D02*
D03*
Y920828D02*
D03*
Y970828D02*
D03*
X984064D02*
D03*
Y960828D02*
D03*
Y950828D02*
D03*
Y940828D02*
D03*
Y890828D02*
D03*
Y840828D02*
D03*
X964250Y830750D02*
D03*
X974064Y860828D02*
D03*
X964064Y880828D02*
D03*
X974064Y910828D02*
D03*
Y950828D02*
D03*
Y970828D02*
D03*
X964064D02*
D03*
X964000Y950250D02*
D03*
X953750Y850750D02*
D03*
Y900750D02*
D03*
X954064Y960828D02*
D03*
X944064D02*
D03*
Y930828D02*
D03*
Y920828D02*
D03*
Y870828D02*
D03*
X934064Y840828D02*
D03*
Y890828D02*
D03*
Y930828D02*
D03*
X934000Y950250D02*
D03*
X924000D02*
D03*
X924064Y920828D02*
D03*
Y860828D02*
D03*
X904064Y850828D02*
D03*
Y900828D02*
D03*
Y920828D02*
D03*
X914064D02*
D03*
Y940828D02*
D03*
X1054064Y1000828D02*
D03*
Y920828D02*
D03*
X1064064D02*
D03*
X1044064Y910828D02*
D03*
X974064Y940828D02*
D03*
Y930828D02*
D03*
X953750Y920750D02*
D03*
X1064064Y970828D02*
D03*
X1024064Y990828D02*
D03*
Y980828D02*
D03*
X1034064D02*
D03*
Y990828D02*
D03*
X1044064D02*
D03*
Y980828D02*
D03*
X1054064D02*
D03*
Y990828D02*
D03*
X1064064Y980828D02*
D03*
X1044064Y970828D02*
D03*
X1034064D02*
D03*
X1024064D02*
D03*
X1014064Y980828D02*
D03*
Y990828D02*
D03*
Y970828D02*
D03*
X1054064D02*
D03*
X934064Y910828D02*
D03*
X924064Y880828D02*
D03*
X1064064Y1000828D02*
D03*
X914250Y990500D02*
D03*
X924392Y991014D02*
D03*
X934392D02*
D03*
X954064Y990828D02*
D03*
X944128Y981406D02*
D03*
X934064Y1010828D02*
D03*
X924000Y1020500D02*
D03*
X934064Y970828D02*
D03*
X904250Y990500D02*
D03*
X647425Y575201D02*
D03*
X724500Y575250D02*
D03*
X723625Y562501D02*
D03*
X647425Y600601D02*
D03*
X634725Y587901D02*
D03*
X609325Y613301D02*
D03*
X596250Y601000D02*
D03*
X1154064Y850828D02*
D03*
X1194000Y941250D02*
D03*
X1194064Y980828D02*
D03*
X1204064D02*
D03*
X1234064D02*
D03*
X1244064D02*
D03*
X1184064Y970828D02*
D03*
X1214064D02*
D03*
X1224064D02*
D03*
X1194064Y960828D02*
D03*
X1204064D02*
D03*
X1234064D02*
D03*
X1244064D02*
D03*
X1184064Y950828D02*
D03*
X1214064D02*
D03*
X1224064D02*
D03*
X1204064Y940828D02*
D03*
X1234064D02*
D03*
X1244064D02*
D03*
X1204064Y930828D02*
D03*
X1214064D02*
D03*
X1224064D02*
D03*
X1204064Y920828D02*
D03*
X1224064D02*
D03*
X1234000Y920750D02*
D03*
X1244000D02*
D03*
X1184064Y910828D02*
D03*
X1234064D02*
D03*
X1214064Y900828D02*
D03*
X1194064Y890828D02*
D03*
X1244064D02*
D03*
X1194064Y920828D02*
D03*
X1214064D02*
D03*
X961000Y1370620D02*
D03*
X963000Y1353870D02*
D03*
X1094064Y1080828D02*
D03*
X1074064Y1070828D02*
D03*
X1104064Y1110828D02*
D03*
X1094064Y1100828D02*
D03*
X1260000Y1119750D02*
D03*
X1290911Y1334629D02*
D03*
X1343779Y1350473D02*
D03*
X1004000Y1161000D02*
D03*
X1054250D02*
D03*
X1074064Y1120828D02*
D03*
X1054142Y1100514D02*
D03*
X596625Y1072001D02*
D03*
X914064Y1060828D02*
D03*
X622025Y1122801D02*
D03*
X609325Y1110101D02*
D03*
X710925Y1072001D02*
D03*
X904064Y1050828D02*
D03*
X964064Y1050828D02*
D03*
X1084064Y1150828D02*
D03*
X964000Y1286870D02*
D03*
X1009652Y1318494D02*
D03*
Y1326495D02*
D03*
X1081660Y1326494D02*
D03*
X1073660Y1310493D02*
D03*
X1081660Y1334495D02*
D03*
X1065658Y1326494D02*
D03*
X1084064Y1100828D02*
D03*
X1073659Y1302492D02*
D03*
Y1294491D02*
D03*
X1081660Y1310493D02*
D03*
X1017653Y1326495D02*
D03*
X1009652Y1398503D02*
D03*
Y1390502D02*
D03*
Y1382501D02*
D03*
Y1374500D02*
D03*
Y1294491D02*
D03*
X1017653D02*
D03*
X1009652Y1302492D02*
D03*
X1017653D02*
D03*
X1009652Y1310493D02*
D03*
X1017653Y1334496D02*
D03*
X1081660Y1294491D02*
D03*
Y1302492D02*
D03*
X1073659Y1334496D02*
D03*
X1081660Y1366499D02*
D03*
Y1374500D02*
D03*
Y1382501D02*
D03*
Y1390502D02*
D03*
Y1398503D02*
D03*
X984064Y1150828D02*
D03*
X944000Y1131250D02*
D03*
X953500Y1111250D02*
D03*
X974064Y1120828D02*
D03*
X994000Y1131000D02*
D03*
X1004064Y1140828D02*
D03*
X1014000Y1141000D02*
D03*
X1034000Y1150000D02*
D03*
X1064250Y1090750D02*
D03*
X1064000Y1050000D02*
D03*
X1054064Y1060828D02*
D03*
Y1050828D02*
D03*
X1044064D02*
D03*
X1043750Y1081000D02*
D03*
X1044064Y1130828D02*
D03*
X1034064Y1050828D02*
D03*
X984064D02*
D03*
X954064D02*
D03*
X944064D02*
D03*
X934064D02*
D03*
X924064D02*
D03*
X914064D02*
D03*
X954064Y1060828D02*
D03*
X1024000Y1070750D02*
D03*
X1024064Y1080828D02*
D03*
X1004064Y1110828D02*
D03*
X984000Y1100500D02*
D03*
X984064Y1070828D02*
D03*
X974064D02*
D03*
X964064Y1090828D02*
D03*
X924064Y1070828D02*
D03*
X1084064Y1050828D02*
D03*
X1094064D02*
D03*
X1104064D02*
D03*
X1114000Y1100500D02*
D03*
X1114064Y1050828D02*
D03*
X1134064Y1070578D02*
D03*
Y1050828D02*
D03*
X1144064D02*
D03*
Y1150828D02*
D03*
X1154064Y1130828D02*
D03*
Y1081078D02*
D03*
X1164064Y1060828D02*
D03*
X1163500Y1111000D02*
D03*
Y1161000D02*
D03*
X1174314Y1140828D02*
D03*
Y1090828D02*
D03*
X1184064Y1050828D02*
D03*
Y1070828D02*
D03*
Y1090828D02*
D03*
Y1120828D02*
D03*
X1194064Y1100828D02*
D03*
Y1050828D02*
D03*
X1204064D02*
D03*
Y1070828D02*
D03*
Y1080828D02*
D03*
Y1130828D02*
D03*
X1214064Y1050828D02*
D03*
X1224064D02*
D03*
X1234064D02*
D03*
X1244064D02*
D03*
X1214064Y1060828D02*
D03*
X1234064Y1070828D02*
D03*
X1224064Y1090828D02*
D03*
X1214064Y1110828D02*
D03*
X1234000Y1120500D02*
D03*
X1224064Y1140828D02*
D03*
X1214064D02*
D03*
X1244064Y1150828D02*
D03*
X1214064Y1160828D02*
D03*
X1024064Y1050828D02*
D03*
X1014064D02*
D03*
X1084000Y1060250D02*
D03*
X698225Y1237101D02*
D03*
X685525Y1211701D02*
D03*
X698225Y1199001D02*
D03*
Y1186301D02*
D03*
X672825Y1313301D02*
D03*
X685525D02*
D03*
X698225D02*
D03*
X723625Y1300601D02*
D03*
X698225D02*
D03*
X685525D02*
D03*
X672825Y1287901D02*
D03*
X685525D02*
D03*
X698225D02*
D03*
X723625Y1275201D02*
D03*
X698225D02*
D03*
X685525D02*
D03*
Y1262501D02*
D03*
X698225D02*
D03*
X710925Y1249801D02*
D03*
X698225D02*
D03*
X685525D02*
D03*
X672825D02*
D03*
X660125Y1262501D02*
D03*
X622025Y1211701D02*
D03*
X647425D02*
D03*
X660125Y1224401D02*
D03*
X672825Y1211701D02*
D03*
X710925Y1237101D02*
D03*
X698250Y1224250D02*
D03*
X698225Y1211701D02*
D03*
X723625Y1160901D02*
D03*
X685525D02*
D03*
X672825Y1173601D02*
D03*
X634725Y1186301D02*
D03*
X622025Y1173601D02*
D03*
X660125Y1148201D02*
D03*
X710925D02*
D03*
Y1135501D02*
D03*
X672825D02*
D03*
X685525Y1122801D02*
D03*
X698225Y1110101D02*
D03*
X710925Y1097401D02*
D03*
Y1084701D02*
D03*
X685525D02*
D03*
X672825Y1097401D02*
D03*
X660125Y1110101D02*
D03*
X634725Y1072001D02*
D03*
X673250Y1059750D02*
D03*
X710925Y1046601D02*
D03*
X1065659Y1358498D02*
D03*
Y1366499D02*
D03*
X1174749Y1366508D02*
D03*
Y1358507D02*
D03*
X1190750Y1398512D02*
D03*
Y1390511D02*
D03*
Y1382510D02*
D03*
Y1374509D02*
D03*
Y1366508D02*
D03*
X1182749Y1334505D02*
D03*
X1190750Y1326504D02*
D03*
X1174748Y1318503D02*
D03*
X1182749D02*
D03*
X1190750D02*
D03*
Y1310502D02*
D03*
X1189840Y1302380D02*
D03*
X1182590Y1302130D02*
D03*
X1126743Y1334505D02*
D03*
X1118742Y1326504D02*
D03*
Y1318503D02*
D03*
Y1310502D02*
D03*
X1126743Y1302501D02*
D03*
X1118742D02*
D03*
X1126743Y1294500D02*
D03*
X1118742D02*
D03*
Y1366508D02*
D03*
Y1374509D02*
D03*
Y1382510D02*
D03*
Y1390511D02*
D03*
Y1398512D02*
D03*
X1282911Y1366632D02*
D03*
Y1358631D02*
D03*
X1298912Y1398636D02*
D03*
Y1390635D02*
D03*
Y1382634D02*
D03*
Y1374633D02*
D03*
Y1366632D02*
D03*
Y1326628D02*
D03*
X1290911Y1318627D02*
D03*
X1298912D02*
D03*
Y1310626D02*
D03*
Y1302625D02*
D03*
X1290911D02*
D03*
X1298912Y1294624D02*
D03*
X1290911D02*
D03*
X1234905Y1334629D02*
D03*
X1226904Y1326628D02*
D03*
X1234905D02*
D03*
X1226904Y1318627D02*
D03*
Y1310626D02*
D03*
X1234905Y1302625D02*
D03*
X1226904D02*
D03*
X1234905Y1294624D02*
D03*
X1226904D02*
D03*
Y1366632D02*
D03*
Y1374633D02*
D03*
Y1382634D02*
D03*
Y1390635D02*
D03*
Y1398636D02*
D03*
X1391409Y1366628D02*
D03*
Y1358627D02*
D03*
X1407410Y1398632D02*
D03*
Y1390631D02*
D03*
Y1382630D02*
D03*
Y1374629D02*
D03*
Y1366628D02*
D03*
X1399409Y1334625D02*
D03*
X1407410Y1326624D02*
D03*
X1399409Y1318623D02*
D03*
Y1294620D02*
D03*
X1343403Y1334625D02*
D03*
X1335402Y1326624D02*
D03*
X1343403D02*
D03*
X1335402Y1318623D02*
D03*
Y1310622D02*
D03*
X1343403Y1302621D02*
D03*
X1335402D02*
D03*
X1343403Y1294620D02*
D03*
X1335402D02*
D03*
Y1366628D02*
D03*
Y1374629D02*
D03*
Y1382630D02*
D03*
Y1390631D02*
D03*
Y1398632D02*
D03*
X1182750Y1294500D02*
D03*
X1174340Y1293880D02*
D03*
X1144500Y1101250D02*
D03*
X1126743Y1350506D02*
D03*
X1182749D02*
D03*
X1234905Y1350630D02*
D03*
X1290911D02*
D03*
X1399409Y1350626D02*
D03*
X1073659Y1350497D02*
D03*
X1017653D02*
D03*
X1123750Y1140500D02*
D03*
X1134250Y1121000D02*
D03*
X1125250Y1091500D02*
D03*
X1391408Y1326623D02*
D03*
X1282910Y1326627D02*
D03*
X1154000Y1110500D02*
D03*
X1134741Y1326504D02*
D03*
X1009652Y1366499D02*
D03*
X912750Y1360370D02*
D03*
X912750Y1342370D02*
D03*
Y1324370D02*
D03*
Y1306370D02*
D03*
Y1396370D02*
D03*
X609325Y1186301D02*
D03*
X1064250Y1141000D02*
D03*
X596625Y1262501D02*
D03*
Y1224401D02*
D03*
X944000Y1141250D02*
D03*
X924000Y1131250D02*
D03*
X993500Y1070750D02*
D03*
X1004064Y1100828D02*
D03*
X710925Y1275201D02*
D03*
X914064Y1150828D02*
D03*
X609325Y1148201D02*
D03*
X1044064Y1100828D02*
D03*
X1044064Y1090828D02*
D03*
X1034064Y1100828D02*
D03*
X710925Y1160901D02*
D03*
Y1211701D02*
D03*
X1104000Y1130500D02*
D03*
X710925Y1173601D02*
D03*
X698225Y1160901D02*
D03*
Y1148201D02*
D03*
X609400Y1250100D02*
D03*
X620750Y1225750D02*
D03*
X698224Y1072000D02*
D03*
X660125Y1072001D02*
D03*
X710925Y1224401D02*
D03*
X634725Y1135501D02*
D03*
X647425Y1084701D02*
D03*
X634725Y1249801D02*
D03*
X648250Y1237000D02*
D03*
X710925Y1262501D02*
D03*
X1024750Y1111000D02*
D03*
X609325Y1097401D02*
D03*
X954064Y1160828D02*
D03*
X964064Y1140828D02*
D03*
X634725Y1059301D02*
D03*
X685525Y1046601D02*
D03*
X1004064Y1050828D02*
D03*
X725000Y1061000D02*
D03*
X914064Y1080828D02*
D03*
X944064Y1090828D02*
D03*
X954250Y1081250D02*
D03*
X914000Y1100500D02*
D03*
X710925Y1122801D02*
D03*
Y1110101D02*
D03*
X634725Y1097401D02*
D03*
X622025Y1059301D02*
D03*
X1194500Y1141000D02*
D03*
Y1151000D02*
D03*
X1717750Y312500D02*
D03*
X1714375Y627500D02*
D03*
X1561250Y258750D02*
D03*
Y236250D02*
D03*
X1561250Y213750D02*
D03*
X1561250Y191250D02*
D03*
X1547750Y258750D02*
D03*
X1547750Y236250D02*
D03*
X1547750Y213750D02*
D03*
X1547750Y191250D02*
D03*
X1537000Y214303D02*
D03*
X1537000Y236803D02*
D03*
X1537000Y259303D02*
D03*
X1556750Y243750D02*
D03*
X1556750Y221250D02*
D03*
X1556750Y198750D02*
D03*
Y177250D02*
D03*
X1537000Y191803D02*
D03*
X1558250Y123500D02*
D03*
X1556500Y89500D02*
D03*
Y43000D02*
D03*
X1543750Y115750D02*
D03*
X1547750Y58250D02*
D03*
X1547750Y80750D02*
D03*
X1546500Y99750D02*
D03*
X1560000Y101000D02*
D03*
Y81000D02*
D03*
Y56000D02*
D03*
X1536250Y116000D02*
D03*
X1528250Y121250D02*
D03*
X1558000Y111750D02*
D03*
X1520250Y124000D02*
D03*
X1563000Y1201750D02*
D03*
X1577250Y1196500D02*
D03*
X1530500Y1215500D02*
D03*
X1559500Y1165500D02*
D03*
X1558250Y1174250D02*
D03*
X710925Y524401D02*
D03*
X685525Y511701D02*
D03*
X723625Y537101D02*
D03*
X609325Y1287901D02*
D03*
Y1313301D02*
D03*
X596625Y1287901D02*
D03*
X622025Y1313301D02*
D03*
X634725D02*
D03*
X647425Y1300601D02*
D03*
X622025Y1287901D02*
D03*
X647425Y1313301D02*
D03*
X634725Y1300601D02*
D03*
X660125D02*
D03*
X634900Y1287726D02*
D03*
X710925Y1300601D02*
D03*
Y1186301D02*
D03*
X634725Y1173601D02*
D03*
X994000Y1110750D02*
D03*
X1154064Y900828D02*
D03*
X1164064Y900828D02*
D03*
X1174064Y900828D02*
D03*
X1154064Y840828D02*
D03*
X596625Y143401D02*
D03*
X647425Y613301D02*
D03*
X634725Y600601D02*
D03*
X647425Y587901D02*
D03*
X660125Y600601D02*
D03*
X609325Y575201D02*
D03*
X622025Y600601D02*
D03*
X660125Y613301D02*
D03*
X672825Y460901D02*
D03*
X822750Y1391250D02*
D03*
X828500Y1327750D02*
D03*
X839000D02*
D03*
X849000D02*
D03*
X859000D02*
D03*
X869000Y1328000D02*
D03*
X868500Y1343750D02*
D03*
X858500D02*
D03*
X848500D02*
D03*
X838500D02*
D03*
X828500D02*
D03*
Y1314000D02*
D03*
X838500Y1313750D02*
D03*
X868500Y1314000D02*
D03*
X869000Y1298000D02*
D03*
X859000Y1297750D02*
D03*
X849000D02*
D03*
X839000D02*
D03*
X828500D02*
D03*
X848500Y1314000D02*
D03*
X858500D02*
D03*
X912750Y1378370D02*
D03*
X896294Y1396438D02*
D03*
X896294Y1360438D02*
D03*
Y1324438D02*
D03*
X896294Y1306183D02*
D03*
Y1342183D02*
D03*
X896000Y1378120D02*
D03*
X1301750Y1259750D02*
D03*
Y1249250D02*
D03*
X1293000Y1233250D02*
D03*
X1252250Y1259750D02*
D03*
X1250250Y1248750D02*
D03*
X1262250Y1266750D02*
D03*
X1247750Y1233250D02*
D03*
X1233500Y1212000D02*
D03*
X1243250Y1202500D02*
D03*
X1317500Y1225750D02*
D03*
X1334250Y1224250D02*
D03*
X1307000Y1215750D02*
D03*
X1253500Y1131250D02*
D03*
X1264000Y1131500D02*
D03*
X1258561Y1161057D02*
D03*
X1234064Y1100828D02*
D03*
X1244000Y1100750D02*
D03*
X1294250Y1071250D02*
D03*
X1277000Y1132000D02*
D03*
X1275000Y1164250D02*
D03*
X1287063Y1120555D02*
D03*
X1273028Y1120581D02*
D03*
X1288500Y1100500D02*
D03*
X1113900Y1184854D02*
D03*
X1095303Y1235560D02*
D03*
X1083053Y1248311D02*
D03*
X1069552Y1246811D02*
D03*
X1070802Y1260562D02*
D03*
X1093250Y1262750D02*
D03*
X1098250Y1249000D02*
D03*
X1135305Y1209559D02*
D03*
X1144556Y1206059D02*
D03*
X1171676Y1210032D02*
D03*
X1185439Y1199253D02*
D03*
X1119250Y1265250D02*
D03*
X1134500Y1265750D02*
D03*
X1151306Y1275062D02*
D03*
X1139000Y1280750D02*
D03*
X1122250Y1276250D02*
D03*
X913750Y1141000D02*
D03*
X895250Y1139000D02*
D03*
X944046Y1150556D02*
D03*
X944250Y1162250D02*
D03*
X924000Y1141250D02*
D03*
Y1150750D02*
D03*
X892997Y1080189D02*
D03*
X895544Y1061302D02*
D03*
X923795Y1090553D02*
D03*
X934000Y1100500D02*
D03*
X944000Y1080750D02*
D03*
Y1061000D02*
D03*
Y1070750D02*
D03*
X1006550Y1344935D02*
D03*
X1362975Y1331125D02*
D03*
X1150897Y1334195D02*
D03*
X1114000Y1160750D02*
D03*
X1004000Y990750D02*
D03*
X710925Y613301D02*
D03*
X735250Y551000D02*
D03*
X742500Y561000D02*
D03*
X743250Y576250D02*
D03*
X735000Y586500D02*
D03*
X724250Y588000D02*
D03*
X742500Y600750D02*
D03*
X727000Y612500D02*
D03*
X759500Y612250D02*
D03*
X776500Y600750D02*
D03*
X759750Y588250D02*
D03*
X743000Y636000D02*
D03*
X742750Y627000D02*
D03*
X775500Y636000D02*
D03*
X775250Y627000D02*
D03*
X710500Y636000D02*
D03*
X710250Y627000D02*
D03*
X605250Y624000D02*
D03*
X605500Y633000D02*
D03*
X637750Y624000D02*
D03*
X638000Y633000D02*
D03*
X659000Y1345500D02*
D03*
X632750Y1342500D02*
D03*
X623280Y1334065D02*
D03*
X622750Y1322750D02*
D03*
X730536Y1287563D02*
D03*
X730786Y1313064D02*
D03*
X675783Y1368572D02*
D03*
X689284D02*
D03*
X676033Y1352822D02*
D03*
X688533D02*
D03*
X685525Y575201D02*
D03*
X1411000Y126500D02*
D03*
X1376750Y127250D02*
D03*
X1420337Y153946D02*
D03*
X1420000Y144500D02*
D03*
X1368000Y144250D02*
D03*
X1367584Y153946D02*
D03*
X1384000Y174250D02*
D03*
X1410086Y166446D02*
D03*
X1377835Y166947D02*
D03*
X1404023Y174250D02*
D03*
X1429250Y154000D02*
D03*
X1360000Y177000D02*
D03*
X1431056Y299710D02*
D03*
X1479441Y324788D02*
D03*
X1374696Y324538D02*
D03*
X1326301Y300210D02*
D03*
X1211250Y78500D02*
D03*
X1149584Y78446D02*
D03*
X1150000Y68750D02*
D03*
X1202000Y69000D02*
D03*
X1202337Y78446D02*
D03*
X1158750Y51750D02*
D03*
X1193000Y51000D02*
D03*
X1186023Y98750D02*
D03*
X1159835Y91447D02*
D03*
X1192086Y90947D02*
D03*
X1166000Y98750D02*
D03*
X953450Y88750D02*
D03*
X979536Y80947D02*
D03*
X947285Y81447D02*
D03*
X973473Y88750D02*
D03*
X980450Y41000D02*
D03*
X946200Y41750D02*
D03*
X989787Y68446D02*
D03*
X989450Y59000D02*
D03*
X937450Y58750D02*
D03*
X937034Y68446D02*
D03*
X998700Y68500D02*
D03*
X974064Y1050828D02*
D03*
X887750Y1147500D02*
D03*
X851750Y1139750D02*
D03*
Y1132250D02*
D03*
X934000Y920750D02*
D03*
X1534250Y957250D02*
D03*
X472250Y183750D02*
D03*
X321250Y363750D02*
D03*
X475727Y291512D02*
D03*
X459500Y259500D02*
D03*
X1141806Y14501D02*
D03*
X280031Y1358879D02*
D03*
X1255750Y276250D02*
D03*
X1274125Y297185D02*
D03*
X1266875Y312686D02*
D03*
X1432280Y387337D02*
D03*
X1034064Y1110828D02*
D03*
X1044064Y1060828D02*
D03*
X882500Y1165750D02*
D03*
X894250Y1155750D02*
D03*
X1349500Y-1750D02*
D03*
X1386568Y21251D02*
D03*
X1430070Y67003D02*
D03*
X1362066Y72503D02*
D03*
Y59503D02*
D03*
X1417819Y21751D02*
D03*
Y8500D02*
D03*
Y-3000D02*
D03*
X1386568Y-2500D02*
D03*
X1327565Y46002D02*
D03*
X1452821Y69253D02*
D03*
X1214064Y990828D02*
D03*
X1204064D02*
D03*
X1224064Y1010828D02*
D03*
X1214064Y1010828D02*
D03*
X1251500Y1010750D02*
D03*
X365000Y381750D02*
D03*
X816750Y149750D02*
D03*
X1668500Y154750D02*
D03*
X1688500Y155000D02*
D03*
X33749Y224511D02*
D03*
X50749Y224511D02*
D03*
Y240262D02*
D03*
X43251Y224511D02*
D03*
Y240262D02*
D03*
X202760Y624779D02*
D03*
X202760Y660279D02*
D03*
X202760Y707279D02*
D03*
X203010Y742279D02*
D03*
X202760Y777279D02*
D03*
X80754Y697034D02*
D03*
X103505Y698784D02*
D03*
X80504Y731536D02*
D03*
X103005Y732286D02*
D03*
X47502Y797039D02*
D03*
X59003Y780288D02*
D03*
X418520Y1035800D02*
D03*
Y1015800D02*
D03*
X415770Y1081053D02*
D03*
X399770Y1081303D02*
D03*
X361268Y1035800D02*
D03*
X361518Y1077553D02*
D03*
X404270Y1010799D02*
D03*
X418730Y1005799D02*
D03*
Y995799D02*
D03*
X404270Y1000799D02*
D03*
X418730Y985799D02*
D03*
X404270Y990799D02*
D03*
Y980799D02*
D03*
X353267Y961297D02*
D03*
X415770Y936296D02*
D03*
X404270Y951046D02*
D03*
X485274Y950796D02*
D03*
X550027Y1019550D02*
D03*
X552527Y963297D02*
D03*
X522525Y1029300D02*
D03*
X524952Y974335D02*
D03*
X492774Y1069552D02*
D03*
X468023Y1063302D02*
D03*
Y1043051D02*
D03*
X284014Y346267D02*
D03*
X268263D02*
D03*
X251012Y322016D02*
D03*
X233261Y331766D02*
D03*
Y278264D02*
D03*
X335250Y336250D02*
D03*
X459272Y291514D02*
D03*
X376768Y167508D02*
D03*
X358768Y168008D02*
D03*
X454000Y167500D02*
D03*
X436500Y167250D02*
D03*
X360268Y330516D02*
D03*
X375268D02*
D03*
X472273Y387269D02*
D03*
X515775Y343017D02*
D03*
X298765Y216511D02*
D03*
Y249012D02*
D03*
Y261263D02*
D03*
X296765Y305265D02*
D03*
Y292514D02*
D03*
X405770Y385769D02*
D03*
X435771D02*
D03*
X449522Y385519D02*
D03*
X516525Y308515D02*
D03*
X498250Y248500D02*
D03*
X209760Y988298D02*
D03*
X190509Y983298D02*
D03*
X209760Y978048D02*
D03*
X190509Y973298D02*
D03*
X209760Y968047D02*
D03*
X190509Y963297D02*
D03*
Y953547D02*
D03*
X226511Y958047D02*
D03*
X229761Y948796D02*
D03*
X209760Y938296D02*
D03*
X190509Y933296D02*
D03*
X209760Y928295D02*
D03*
X190509Y923295D02*
D03*
X209760Y918045D02*
D03*
X190509Y913295D02*
D03*
Y903044D02*
D03*
X150007Y846791D02*
D03*
X145257Y882793D02*
D03*
X155258D02*
D03*
X160258Y863542D02*
D03*
X115256Y882793D02*
D03*
X110255Y863542D02*
D03*
X105255Y882793D02*
D03*
X95255D02*
D03*
X100255Y846791D02*
D03*
X22251Y954297D02*
D03*
X22501Y904294D02*
D03*
X113756Y1101554D02*
D03*
X95005D02*
D03*
X85254Y1023550D02*
D03*
X80254Y1042801D02*
D03*
X75254Y1023550D02*
D03*
X70253Y1042801D02*
D03*
X65253Y1023550D02*
D03*
X60503Y1042801D02*
D03*
X95255Y1023550D02*
D03*
X49752Y1013549D02*
D03*
X30501Y1008299D02*
D03*
X49752Y1003049D02*
D03*
X138500Y1051000D02*
D03*
X150007Y1023550D02*
D03*
X159250Y1047250D02*
D03*
X160008Y1023550D02*
D03*
X157750Y1061750D02*
D03*
X170258Y1023550D02*
D03*
X175259Y1042801D02*
D03*
X115256Y1023550D02*
D03*
X110505Y1042801D02*
D03*
X227500Y999500D02*
D03*
X49752Y908294D02*
D03*
X22500Y886250D02*
D03*
X30501Y913045D02*
D03*
X49752Y918045D02*
D03*
X30501Y923295D02*
D03*
X49752Y927795D02*
D03*
X30501Y933046D02*
D03*
X49752Y938296D02*
D03*
X27500Y939750D02*
D03*
X49752Y958047D02*
D03*
X30501Y963047D02*
D03*
X49752Y968047D02*
D03*
X30501Y973047D02*
D03*
X49752Y978298D02*
D03*
X30501Y983048D02*
D03*
Y993048D02*
D03*
X70253Y882793D02*
D03*
X65000Y860250D02*
D03*
X60753Y882793D02*
D03*
X8000Y1262061D02*
D03*
X73504Y1250561D02*
D03*
X23001Y1142306D02*
D03*
X10251D02*
D03*
X34002Y1138556D02*
D03*
X488774Y810546D02*
D03*
X477273Y806546D02*
D03*
X431521Y795045D02*
D03*
X492274Y874049D02*
D03*
X243262Y1070302D02*
D03*
X365768Y1245561D02*
D03*
X365518Y1317314D02*
D03*
X250000Y1337000D02*
D03*
X253512Y1367567D02*
D03*
X295014Y1344566D02*
D03*
X304765D02*
D03*
X310015Y1359066D02*
D03*
X315015Y1344566D02*
D03*
X322500Y1367750D02*
D03*
X325016Y1344566D02*
D03*
X330266Y1359066D02*
D03*
X342767Y1321815D02*
D03*
X357267Y1326815D02*
D03*
X342767Y1291813D02*
D03*
X342517Y1256811D02*
D03*
X342767Y1241811D02*
D03*
X357267Y1236560D02*
D03*
X342767Y1231810D02*
D03*
X396519Y1322565D02*
D03*
X406500Y1314250D02*
D03*
X396519Y1305565D02*
D03*
Y1279565D02*
D03*
X406500Y1271250D02*
D03*
Y1254250D02*
D03*
X396519Y1262565D02*
D03*
X316015Y1176307D02*
D03*
X320016Y1199059D02*
D03*
X325016Y1184558D02*
D03*
X330016Y1199059D02*
D03*
X305015D02*
D03*
X300015Y1184558D02*
D03*
X295014Y1199059D02*
D03*
X290014Y1184558D02*
D03*
X584029Y1182308D02*
D03*
X296765Y1391818D02*
D03*
X305250Y1401000D02*
D03*
X313765Y1391818D02*
D03*
X197260Y1306814D02*
D03*
X208000Y1275750D02*
D03*
X197260Y1261812D02*
D03*
X174758Y1257811D02*
D03*
X197260Y1246811D02*
D03*
X182759Y1241561D02*
D03*
X209750Y1236500D02*
D03*
X182759Y1232060D02*
D03*
X197260Y1226810D02*
D03*
X182759Y1221810D02*
D03*
X197260Y1216809D02*
D03*
X182759Y1211559D02*
D03*
X285014Y1199059D02*
D03*
X270013Y1184558D02*
D03*
X264763Y1199059D02*
D03*
X250012Y1184558D02*
D03*
X245012Y1199059D02*
D03*
X230011D02*
D03*
X219761D02*
D03*
X215011Y1184558D02*
D03*
X225261Y1166557D02*
D03*
X279750Y1139250D02*
D03*
X149509Y817040D02*
D03*
X141000Y808500D02*
D03*
X132509Y817040D02*
D03*
X124000Y808500D02*
D03*
X1004000Y1030000D02*
D03*
X491774Y798046D02*
D03*
X252012Y1054551D02*
D03*
X325766Y1042301D02*
D03*
Y1054551D02*
D03*
Y1067302D02*
D03*
Y1080053D02*
D03*
X1470572Y1125055D02*
D03*
Y1054801D02*
D03*
X1458071D02*
D03*
X852292Y1397818D02*
D03*
X857792Y1382818D02*
D03*
X852292Y1428070D02*
D03*
X842541Y1408069D02*
D03*
X847500Y1418000D02*
D03*
X241762Y1117804D02*
D03*
X213760Y1110804D02*
D03*
X233011Y1104054D02*
D03*
X175009Y1123805D02*
D03*
X155758Y1116805D02*
D03*
X175009Y1110804D02*
D03*
X155758Y1104304D02*
D03*
X37250Y1429500D02*
D03*
X112750Y1405500D02*
D03*
X82000Y17000D02*
D03*
X265750Y35250D02*
D03*
X284250D02*
D03*
X265750Y3750D02*
D03*
X153500Y591250D02*
D03*
Y661250D02*
D03*
Y708750D02*
D03*
Y778750D02*
D03*
X786038Y1406819D02*
D03*
X752250Y1401500D02*
D03*
X681533Y1393318D02*
D03*
X712785Y1416819D02*
D03*
X701784Y1399568D02*
D03*
X713035Y1389068D02*
D03*
X655032Y1419819D02*
D03*
X650532Y1408569D02*
D03*
X685750Y1403000D02*
D03*
X655750D02*
D03*
X728036Y1418569D02*
D03*
X583778Y1354316D02*
D03*
X533529Y651184D02*
D03*
X502775Y1299813D02*
D03*
X483274Y557027D02*
D03*
X168758Y1168557D02*
D03*
X130751Y1280750D02*
D03*
X139257Y1290814D02*
D03*
X130751Y1260750D02*
D03*
X139257Y1270814D02*
D03*
Y1250814D02*
D03*
X170758Y1087553D02*
D03*
X770038Y549527D02*
D03*
X765500Y473500D02*
D03*
X817750Y426750D02*
D03*
X820000Y372750D02*
D03*
X108505Y684533D02*
D03*
X561750Y76250D02*
D03*
X7250Y691250D02*
D03*
X1587328Y30752D02*
D03*
X1350750Y825250D02*
D03*
X890875Y1174375D02*
D03*
X777500Y1283250D02*
D03*
X1278250Y859500D02*
D03*
X1257500Y860500D02*
D03*
X1215250Y274250D02*
D03*
X1375250Y350500D02*
D03*
X1681000Y179750D02*
D03*
X1685750Y136750D02*
D03*
X1676750Y105500D02*
D03*
X1498500Y809250D02*
D03*
X759185Y1419249D02*
D03*
X798000Y1421000D02*
D03*
X1348000Y64500D02*
D03*
X217000Y80000D02*
D03*
X502250Y19750D02*
D03*
X236000Y73000D02*
D03*
X497000Y31750D02*
D03*
X241500Y81250D02*
D03*
X466500Y33000D02*
D03*
X240750Y993000D02*
D03*
X218011Y1005799D02*
D03*
X256750Y83500D02*
D03*
X459000Y38000D02*
D03*
X205500Y91750D02*
D03*
X196000Y105750D02*
D03*
X149257Y1068302D02*
D03*
X507275Y1007049D02*
D03*
Y999799D02*
D03*
X558750Y619000D02*
D03*
X386019Y1006299D02*
D03*
X404290Y1020886D02*
D03*
X170758Y1068302D02*
D03*
X411520Y1302314D02*
D03*
X416270Y1288563D02*
D03*
X96750Y831000D02*
D03*
X42750Y826250D02*
D03*
X157750Y1170000D02*
D03*
X113500Y1126000D02*
D03*
X9000Y888000D02*
D03*
X481250Y185000D02*
D03*
X468250Y167250D02*
D03*
X130500Y1045250D02*
D03*
X216250Y1047750D02*
D03*
X206000Y1059000D02*
D03*
X140507Y1021050D02*
D03*
X400500Y1116500D02*
D03*
X410000Y1155250D02*
D03*
X273750Y1329000D02*
D03*
X299500Y1329500D02*
D03*
X233000Y1042750D02*
D03*
X227500Y1070500D02*
D03*
X208750Y1081750D02*
D03*
X64250Y988250D02*
D03*
X16500Y966250D02*
D03*
X887000Y1416750D02*
D03*
X895000Y1416120D02*
D03*
X176500Y1196250D02*
D03*
X144750Y1194250D02*
D03*
X206500Y1187750D02*
D03*
X159500Y1139250D02*
D03*
X139000Y1214000D02*
D03*
X255012Y1199059D02*
D03*
X240012Y1184558D02*
D03*
X138750Y1232500D02*
D03*
X405750Y1378500D02*
D03*
X446500Y48000D02*
D03*
X459000D02*
D03*
X12750Y809000D02*
D03*
X461500Y1204500D02*
D03*
X543250Y1194500D02*
D03*
X326000Y1096750D02*
D03*
X293000Y875250D02*
D03*
X348500Y662250D02*
D03*
X153500Y743750D02*
D03*
X194767Y753521D02*
D03*
Y758771D02*
D03*
X194760Y793789D02*
D03*
Y788539D02*
D03*
X479000Y1311250D02*
D03*
X346250Y906500D02*
D03*
X11750Y916250D02*
D03*
X1204000Y214000D02*
D03*
X1270562Y255263D02*
D03*
X595500Y28250D02*
D03*
X586500Y32500D02*
D03*
X521500Y174000D02*
D03*
X524750Y182250D02*
D03*
X534250Y200551D02*
D03*
Y213251D02*
D03*
X584500Y232750D02*
D03*
X571500Y232250D02*
D03*
X194760Y671039D02*
D03*
Y676289D02*
D03*
Y636039D02*
D03*
Y641289D02*
D03*
X136257Y644781D02*
D03*
X121750Y601250D02*
D03*
X194759Y606289D02*
D03*
Y601039D02*
D03*
X194760Y723785D02*
D03*
X204250Y718250D02*
D03*
X199510Y577778D02*
D03*
X255250Y1303500D02*
D03*
X369750Y1326750D02*
D03*
X415000Y1265750D02*
D03*
X424000Y1263000D02*
D03*
X462500Y1260500D02*
D03*
X465750Y1240250D02*
D03*
X725285Y1224560D02*
D03*
X736000Y1237000D02*
D03*
X746500Y1237250D02*
D03*
X482000Y1203500D02*
D03*
X491500Y1208750D02*
D03*
X484750Y1219500D02*
D03*
X45250Y1315250D02*
D03*
X36000Y1311750D02*
D03*
X23500Y1314500D02*
D03*
X221500Y1282500D02*
D03*
X233250Y1289500D02*
D03*
X213250Y1300750D02*
D03*
X5000Y800750D02*
D03*
X250Y812000D02*
D03*
X306750Y33000D02*
D03*
X259250Y70000D02*
D03*
X184900Y943000D02*
D03*
X193500Y555250D02*
D03*
X195250Y540500D02*
D03*
X198000Y528500D02*
D03*
X319250Y99250D02*
D03*
X312500Y92750D02*
D03*
X320000Y79250D02*
D03*
X854000Y967000D02*
D03*
X841541Y963297D02*
D03*
X860250Y974000D02*
D03*
X860292Y982548D02*
D03*
X860250Y990250D02*
D03*
X882043Y933546D02*
D03*
X866250Y948000D02*
D03*
X864503Y934965D02*
D03*
X857057Y942411D02*
D03*
X838500Y889000D02*
D03*
X843750Y882750D02*
D03*
X847500Y862250D02*
D03*
X867750Y860750D02*
D03*
X888250Y860500D02*
D03*
X924000Y890750D02*
D03*
X914295Y870792D02*
D03*
X902294D02*
D03*
X901794Y881043D02*
D03*
X901750Y890750D02*
D03*
X890000Y881000D02*
D03*
X879500Y891000D02*
D03*
X868000D02*
D03*
X842250Y866500D02*
D03*
X944000Y860750D02*
D03*
X954000Y830750D02*
D03*
Y840750D02*
D03*
X934000Y880750D02*
D03*
X954000Y870750D02*
D03*
Y880750D02*
D03*
Y890750D02*
D03*
X1184137Y802968D02*
D03*
X1174500Y783250D02*
D03*
X1268250Y803750D02*
D03*
X1278562Y803289D02*
D03*
X1134000Y921750D02*
D03*
X1413319Y1061802D02*
D03*
X1395819D02*
D03*
X1378319D02*
D03*
X1360819D02*
D03*
X1344069D02*
D03*
X1336750Y1040750D02*
D03*
X1351250D02*
D03*
X1368000D02*
D03*
X1385500D02*
D03*
X1403000D02*
D03*
X1395750Y1031000D02*
D03*
X1413250D02*
D03*
X1378250D02*
D03*
X1360750D02*
D03*
X1344000D02*
D03*
X1352500Y1051000D02*
D03*
X1369750D02*
D03*
X1387250D02*
D03*
X1404750D02*
D03*
X1336815Y1051051D02*
D03*
X1404500Y1077250D02*
D03*
X1387000Y1077500D02*
D03*
X1395568Y1070552D02*
D03*
X1413319D02*
D03*
X1406250Y1091000D02*
D03*
X1388568Y1091053D02*
D03*
X1367317Y1070552D02*
D03*
X1377250Y1070500D02*
D03*
X1357250D02*
D03*
X1352566Y1090553D02*
D03*
X1352500Y1077500D02*
D03*
X1381817Y1090303D02*
D03*
X1357000Y1100750D02*
D03*
X1367250D02*
D03*
X1377500Y1101000D02*
D03*
X1341815Y1078553D02*
D03*
X1326250Y1091000D02*
D03*
X1335815Y1070552D02*
D03*
X1334815Y1100554D02*
D03*
X1324750Y1100500D02*
D03*
X1316564Y1121555D02*
D03*
X1326565Y1121055D02*
D03*
X1385500Y1145250D02*
D03*
X1370250Y1131250D02*
D03*
X1356000Y1130750D02*
D03*
X1359345Y1166366D02*
D03*
X1337250Y1145000D02*
D03*
X1415000Y1105750D02*
D03*
X1387750Y1100750D02*
D03*
X1399568Y1101304D02*
D03*
X1327565Y852042D02*
D03*
X1348000Y872000D02*
D03*
X1329250Y867250D02*
D03*
X1535500Y884500D02*
D03*
X1508750Y119250D02*
D03*
X954064Y820828D02*
D03*
X1328000Y763875D02*
D03*
Y780125D02*
D03*
X1589250Y143000D02*
D03*
X574028Y796289D02*
D03*
X561250Y796500D02*
D03*
X896294Y1284438D02*
D03*
X912500Y1288370D02*
D03*
Y1280870D02*
D03*
X986750Y1328620D02*
D03*
X1125805Y427521D02*
D03*
X1118805Y420521D02*
D03*
X1094303Y412770D02*
D03*
X415770Y1073802D02*
D03*
X438750Y782089D02*
D03*
X393000Y901089D02*
D03*
X391019Y618530D02*
D03*
X283514Y613530D02*
D03*
X299015Y628781D02*
D03*
X342017Y541776D02*
D03*
X348517Y525026D02*
D03*
X385019Y560777D02*
D03*
X287000Y648500D02*
D03*
X261750Y507500D02*
D03*
X269000Y512750D02*
D03*
X380769Y574278D02*
D03*
X359000Y656250D02*
D03*
X299250Y507500D02*
D03*
X256750Y581250D02*
D03*
X145989Y773795D02*
D03*
X145989Y586295D02*
D03*
X145989Y621295D02*
D03*
X145944Y656250D02*
D03*
X145989Y703795D02*
D03*
X146000Y738750D02*
D03*
X126511Y723795D02*
D03*
Y676295D02*
D03*
X126518Y753777D02*
D03*
X139750Y1083750D02*
D03*
X81750Y444250D02*
D03*
X390250Y428500D02*
D03*
X435750D02*
D03*
X519250Y873000D02*
D03*
Y910500D02*
D03*
X1620500Y526000D02*
D03*
X1668500Y432000D02*
D03*
X1611000Y498500D02*
D03*
X1596000Y516250D02*
D03*
X1597000Y509250D02*
D03*
X1565039Y1315071D02*
D03*
X1579289Y1309821D02*
D03*
X1561539Y1278821D02*
D03*
X1560289Y1287571D02*
D03*
X1532539Y1328821D02*
D03*
X1548865Y1253628D02*
D03*
X1510613Y1253878D02*
D03*
X196250Y91500D02*
D03*
X153500Y71500D02*
D03*
X207250Y82500D02*
D03*
X198500Y118750D02*
D03*
X228000Y116250D02*
D03*
X232250Y129500D02*
D03*
X251250Y125250D02*
D03*
X233500Y170038D02*
D03*
Y175750D02*
D03*
X301265Y402020D02*
D03*
X541250Y1056750D02*
D03*
X280000Y1162344D02*
D03*
X377000Y382500D02*
D03*
X358000Y382000D02*
D03*
X184000Y103750D02*
D03*
X187250Y137250D02*
D03*
X119000Y269500D02*
D03*
X1084250Y31000D02*
D03*
X1282500Y495750D02*
D03*
X1277500Y430750D02*
D03*
X86250Y238000D02*
D03*
X148750Y303500D02*
D03*
X163500Y302500D02*
D03*
X113250Y343500D02*
D03*
X119250Y375250D02*
D03*
X40000Y435500D02*
D03*
X31750Y343500D02*
D03*
D194*
X1655250Y535650D02*
D03*
Y541350D02*
D03*
X1692750Y259000D02*
D03*
X520750Y226750D02*
D03*
X1692750Y253500D02*
D03*
X520750Y221250D02*
D03*
X914000Y950250D02*
D03*
X863000Y762500D02*
D03*
X904000Y950250D02*
D03*
X857500Y762500D02*
D03*
X1639000Y541450D02*
D03*
Y535750D02*
D03*
X904064Y980828D02*
D03*
X831500Y762500D02*
D03*
X914064Y980828D02*
D03*
X837000Y762500D02*
D03*
X1648000Y467750D02*
D03*
Y473250D02*
D03*
X924064Y980828D02*
D03*
X844500Y785000D02*
D03*
X934064Y980828D02*
D03*
X850000Y785000D02*
D03*
X1656750Y517950D02*
D03*
Y512250D02*
D03*
X1653330Y577028D02*
D03*
X1647830D02*
D03*
X1704750Y202018D02*
D03*
X1700861Y198129D02*
D03*
X1676750Y568500D02*
D03*
X1704750Y179518D02*
D03*
X1700861Y175629D02*
D03*
X1634330Y568028D02*
D03*
X1638366Y563884D02*
D03*
X1692750Y641500D02*
D03*
Y636000D02*
D03*
Y619000D02*
D03*
Y613500D02*
D03*
X944064Y940828D02*
D03*
X888952Y762500D02*
D03*
X934000Y940500D02*
D03*
X883452Y762500D02*
D03*
X1676750Y574200D02*
D03*
X924064Y960828D02*
D03*
X896548Y785000D02*
D03*
X934064Y960828D02*
D03*
X902048Y785000D02*
D03*
X1676500Y596700D02*
D03*
Y591000D02*
D03*
X1692750Y596500D02*
D03*
Y591000D02*
D03*
Y574000D02*
D03*
Y568500D02*
D03*
X1244064Y1010828D02*
D03*
X1234064D02*
D03*
X1673000Y394000D02*
D03*
Y388500D02*
D03*
X1214064Y1000828D02*
D03*
X1224064D02*
D03*
X1673000Y416500D02*
D03*
Y411000D02*
D03*
X1666331Y474773D02*
D03*
X1666250Y467650D02*
D03*
X954000Y950500D02*
D03*
X928000Y785000D02*
D03*
X944064Y950828D02*
D03*
X922500Y785000D02*
D03*
X1064064Y1160828D02*
D03*
X647425Y1262501D02*
D03*
X1064064Y1150828D02*
D03*
X634725Y1262501D02*
D03*
X1014064Y1150828D02*
D03*
X634725Y1021201D02*
D03*
X1004064Y1150828D02*
D03*
X634725Y1008501D02*
D03*
X1094064Y1070828D02*
D03*
X672825Y1084701D02*
D03*
X1084064Y1070828D02*
D03*
X672825Y1072001D02*
D03*
X609325Y1173601D02*
D03*
Y1160901D02*
D03*
X1084128Y1130750D02*
D03*
X355750Y402000D02*
D03*
X195500Y174400D02*
D03*
X350250Y402000D02*
D03*
X195500Y168900D02*
D03*
X520750Y826750D02*
D03*
X440000Y366000D02*
D03*
X520750Y821250D02*
D03*
X445500Y366000D02*
D03*
X534250Y839500D02*
D03*
X425000Y378000D02*
D03*
X534250Y834000D02*
D03*
X430500Y378000D02*
D03*
X520750Y852306D02*
D03*
X410000Y366000D02*
D03*
X520750Y846806D02*
D03*
X415500Y366000D02*
D03*
X1063142Y1081750D02*
D03*
X1084000Y1140500D02*
D03*
X660125Y1173601D02*
D03*
X1074064Y1140828D02*
D03*
X660125Y1160901D02*
D03*
X980436Y209814D02*
D03*
X351000Y251275D02*
D03*
X976405Y213845D02*
D03*
X351000Y256725D02*
D03*
X523000Y127250D02*
D03*
Y121750D02*
D03*
X303750Y241750D02*
D03*
X571500Y180250D02*
D03*
X566000D02*
D03*
X303750Y236250D02*
D03*
X195500Y350500D02*
D03*
Y345000D02*
D03*
X685525Y397401D02*
D03*
Y410101D02*
D03*
X1352500Y924750D02*
D03*
X723625Y397401D02*
D03*
X1352500Y930250D02*
D03*
X723625Y384701D02*
D03*
X1104064Y910828D02*
D03*
X1094064D02*
D03*
X1673000Y506750D02*
D03*
Y501250D02*
D03*
X1194000Y1020500D02*
D03*
X1204064Y1020828D02*
D03*
X1708333Y247262D02*
D03*
X1708280Y241549D02*
D03*
X964000Y1131000D02*
D03*
X964064Y1120828D02*
D03*
X596625Y868801D02*
D03*
Y856101D02*
D03*
X1074064Y1110828D02*
D03*
Y1100828D02*
D03*
X622025Y245001D02*
D03*
Y232301D02*
D03*
X769500Y1058500D02*
D03*
Y1053000D02*
D03*
X794650Y872350D02*
D03*
Y877850D02*
D03*
X769750Y885050D02*
D03*
Y890550D02*
D03*
X660125Y995801D02*
D03*
Y1008501D02*
D03*
X964064Y860828D02*
D03*
Y870828D02*
D03*
X994064Y1160828D02*
D03*
X984064D02*
D03*
X1337500Y982250D02*
D03*
Y976750D02*
D03*
X723625Y181501D02*
D03*
Y194201D02*
D03*
X1397500Y968500D02*
D03*
Y963000D02*
D03*
X723625Y245001D02*
D03*
Y232301D02*
D03*
X1337500Y950750D02*
D03*
Y956250D02*
D03*
X934064Y1000828D02*
D03*
X924064D02*
D03*
X795250Y821500D02*
D03*
Y827000D02*
D03*
X840250Y1020250D02*
D03*
Y1014750D02*
D03*
X723625Y1097401D02*
D03*
Y1084701D02*
D03*
X944000Y1020500D02*
D03*
X954000D02*
D03*
X944064Y1000828D02*
D03*
X954064D02*
D03*
X974064Y1030828D02*
D03*
X964000Y1030500D02*
D03*
X757050Y859650D02*
D03*
Y865150D02*
D03*
X984064Y1010828D02*
D03*
X974064D02*
D03*
X647425Y130701D02*
D03*
Y143401D02*
D03*
X672825Y168801D02*
D03*
Y181501D02*
D03*
X609325D02*
D03*
Y194201D02*
D03*
X672825Y295801D02*
D03*
Y283101D02*
D03*
X660125Y270401D02*
D03*
Y257701D02*
D03*
Y295801D02*
D03*
Y308501D02*
D03*
Y346601D02*
D03*
Y333901D02*
D03*
X672825D02*
D03*
Y321201D02*
D03*
X1234064Y890828D02*
D03*
X1224064D02*
D03*
X1234064Y870828D02*
D03*
X1224064D02*
D03*
X1214064Y890828D02*
D03*
X1204064D02*
D03*
X1194064Y870828D02*
D03*
X1204064Y860828D02*
D03*
Y840828D02*
D03*
X1194064Y850828D02*
D03*
X1204064D02*
D03*
X1194064Y860828D02*
D03*
X1224064Y900828D02*
D03*
X1234064D02*
D03*
X1214064Y910828D02*
D03*
X1224064D02*
D03*
X1184064Y880828D02*
D03*
Y870828D02*
D03*
X1204064Y900828D02*
D03*
X1194064D02*
D03*
X1184064Y920828D02*
D03*
X1174064D02*
D03*
X1174064Y850828D02*
D03*
X1164064D02*
D03*
X1124064Y870828D02*
D03*
X1114064D02*
D03*
X1134064Y840828D02*
D03*
Y850828D02*
D03*
X1114064Y890828D02*
D03*
Y880828D02*
D03*
X634725Y435501D02*
D03*
Y422801D02*
D03*
X1104064Y840828D02*
D03*
Y830828D02*
D03*
X1074064Y860828D02*
D03*
X1064064D02*
D03*
X622025Y537101D02*
D03*
Y524401D02*
D03*
X660125Y549801D02*
D03*
Y537101D02*
D03*
X660125Y881501D02*
D03*
Y894201D02*
D03*
X994064Y840828D02*
D03*
X1004064D02*
D03*
X609325Y906901D02*
D03*
Y919601D02*
D03*
X1004064Y830828D02*
D03*
Y820828D02*
D03*
X984064Y830828D02*
D03*
X974064Y820828D02*
D03*
X672825Y881501D02*
D03*
Y868801D02*
D03*
X984064Y820828D02*
D03*
X994064Y830828D02*
D03*
Y850828D02*
D03*
X984064D02*
D03*
X596625Y894201D02*
D03*
X609325D02*
D03*
X622025Y995801D02*
D03*
Y983101D02*
D03*
Y970401D02*
D03*
Y957701D02*
D03*
X994064Y910828D02*
D03*
X984064D02*
D03*
X672825Y957701D02*
D03*
Y945001D02*
D03*
X660125Y919601D02*
D03*
Y932301D02*
D03*
X596625D02*
D03*
Y945001D02*
D03*
X1003750Y871250D02*
D03*
X1004064Y860828D02*
D03*
X672825Y906901D02*
D03*
Y919601D02*
D03*
X1004064Y890828D02*
D03*
X994064D02*
D03*
X660125Y1135501D02*
D03*
Y1122801D02*
D03*
X672825D02*
D03*
Y1110101D02*
D03*
X622025Y1097401D02*
D03*
Y1110101D02*
D03*
X660125Y1084701D02*
D03*
Y1097401D02*
D03*
X622025Y1072001D02*
D03*
Y1084701D02*
D03*
X685525Y1059301D02*
D03*
Y1072001D02*
D03*
X647425D02*
D03*
Y1059301D02*
D03*
Y1033901D02*
D03*
Y1046601D02*
D03*
X634725Y1033901D02*
D03*
Y1046601D02*
D03*
X994064Y1050828D02*
D03*
X994064Y1060828D02*
D03*
X964000Y1070500D02*
D03*
X964064Y1080828D02*
D03*
X698225Y1046601D02*
D03*
Y1033901D02*
D03*
X1104064Y1091078D02*
D03*
X1103750Y1100750D02*
D03*
X1084064Y1080828D02*
D03*
Y1090828D02*
D03*
X1064250Y1121250D02*
D03*
Y1131250D02*
D03*
X1034000Y1070750D02*
D03*
X1044000D02*
D03*
X1004064Y920828D02*
D03*
X1014064D02*
D03*
Y910828D02*
D03*
X1004064D02*
D03*
Y1070828D02*
D03*
Y1060828D02*
D03*
X974064Y1080828D02*
D03*
Y1090828D02*
D03*
X1053750Y1120750D02*
D03*
Y1130750D02*
D03*
X1074064Y1080828D02*
D03*
Y1090828D02*
D03*
X1104064Y1070828D02*
D03*
X1103628Y1081000D02*
D03*
X1094064Y820828D02*
D03*
Y830828D02*
D03*
X634725Y575201D02*
D03*
Y562501D02*
D03*
X1124064Y820828D02*
D03*
X1114064D02*
D03*
X647425Y473601D02*
D03*
Y486301D02*
D03*
X1134064Y820828D02*
D03*
Y830828D02*
D03*
X1014064Y820828D02*
D03*
X1024064D02*
D03*
X634725Y245001D02*
D03*
Y257701D02*
D03*
X1034064Y1160828D02*
D03*
X1044064D02*
D03*
X1014064D02*
D03*
X1024000Y1161000D02*
D03*
X974064Y1160828D02*
D03*
X964064D02*
D03*
X634725Y1275201D02*
D03*
X622025D02*
D03*
X634725Y1237101D02*
D03*
X622025D02*
D03*
X634725Y932301D02*
D03*
Y945001D02*
D03*
X647425Y919601D02*
D03*
Y932301D02*
D03*
X635000Y537000D02*
D03*
X634750Y550250D02*
D03*
X660125Y384701D02*
D03*
Y372001D02*
D03*
X622025Y575201D02*
D03*
X1014064Y870828D02*
D03*
X622025Y562501D02*
D03*
X1024064Y870828D02*
D03*
X622025Y856101D02*
D03*
Y843401D02*
D03*
X723625Y881501D02*
D03*
Y868801D02*
D03*
X974000Y1100500D02*
D03*
Y1111250D02*
D03*
X571500Y143000D02*
D03*
X566000D02*
D03*
X315750Y226750D02*
D03*
Y221250D02*
D03*
X510750Y326250D02*
D03*
Y331750D02*
D03*
X1344000Y945750D02*
D03*
X1349500D02*
D03*
X534250Y865104D02*
D03*
Y859604D02*
D03*
X523000Y146750D02*
D03*
Y152250D02*
D03*
X1104064Y870828D02*
D03*
Y860828D02*
D03*
X647425Y232301D02*
D03*
Y219601D02*
D03*
X1692750Y276000D02*
D03*
Y281500D02*
D03*
X1124064Y910828D02*
D03*
Y920828D02*
D03*
X660125Y587901D02*
D03*
Y575201D02*
D03*
X964064Y980828D02*
D03*
X974064D02*
D03*
X685525Y1021201D02*
D03*
Y1033901D02*
D03*
X723625Y830701D02*
D03*
Y818001D02*
D03*
X698225Y843401D02*
D03*
Y830701D02*
D03*
X723625Y945001D02*
D03*
Y932301D02*
D03*
X698225Y894201D02*
D03*
Y881501D02*
D03*
X685525Y856101D02*
D03*
X634725Y206901D02*
D03*
Y194201D02*
D03*
X685525Y435501D02*
D03*
X698225D02*
D03*
Y448201D02*
D03*
X685525D02*
D03*
X634725Y460901D02*
D03*
Y473601D02*
D03*
Y499001D02*
D03*
Y511701D02*
D03*
X1174064Y910828D02*
D03*
X1164064D02*
D03*
X1174064Y890828D02*
D03*
X1144064Y860828D02*
D03*
X1154064D02*
D03*
X1224064Y850828D02*
D03*
X1124064D02*
D03*
X1084064D02*
D03*
Y840828D02*
D03*
X1124064D02*
D03*
X1234064D02*
D03*
X1184064Y1030828D02*
D03*
X1174064D02*
D03*
X685525Y868801D02*
D03*
X609325Y549801D02*
D03*
Y537101D02*
D03*
X1214064Y840828D02*
D03*
X1224064D02*
D03*
X1214064Y860828D02*
D03*
X1224064D02*
D03*
X1174064Y870828D02*
D03*
Y860828D02*
D03*
X647425Y524401D02*
D03*
Y511701D02*
D03*
X1094064Y880828D02*
D03*
Y870828D02*
D03*
X660125Y232301D02*
D03*
Y219601D02*
D03*
X1174064Y840828D02*
D03*
X1184064D02*
D03*
X1154064Y890828D02*
D03*
X1164064D02*
D03*
X673000Y562250D02*
D03*
Y550000D02*
D03*
X1244064Y850828D02*
D03*
X1234064D02*
D03*
X1044064Y830828D02*
D03*
X1064064Y850828D02*
D03*
Y840828D02*
D03*
X914000Y1020500D02*
D03*
X904000D02*
D03*
X1044064Y900828D02*
D03*
X1034064D02*
D03*
X1024064Y890828D02*
D03*
X1034064Y880828D02*
D03*
X1024064D02*
D03*
X1034064Y870828D02*
D03*
X1014064Y860828D02*
D03*
X1044064Y850828D02*
D03*
X1034064D02*
D03*
X1024064D02*
D03*
X1014064D02*
D03*
X1024250Y840750D02*
D03*
X1014064Y840828D02*
D03*
X1054064Y830828D02*
D03*
X1024250Y830750D02*
D03*
X1064064Y880828D02*
D03*
X1054064D02*
D03*
X1114064Y920828D02*
D03*
Y910828D02*
D03*
X596625Y575201D02*
D03*
Y587901D02*
D03*
X1144064Y880828D02*
D03*
Y870828D02*
D03*
X1302750Y1008250D02*
D03*
Y1002750D02*
D03*
X1317750Y930250D02*
D03*
Y924750D02*
D03*
X1184064Y890828D02*
D03*
X1204064Y950828D02*
D03*
X1194064D02*
D03*
X1214064Y960828D02*
D03*
X1224064D02*
D03*
X1214064Y940828D02*
D03*
X1224064D02*
D03*
X698225Y1059301D02*
D03*
X710925D02*
D03*
X1204064Y1100828D02*
D03*
X1214064D02*
D03*
X1302750Y950750D02*
D03*
Y956250D02*
D03*
X954000Y785000D02*
D03*
X948500D02*
D03*
X415500Y187000D02*
D03*
X410000D02*
D03*
X430500Y175000D02*
D03*
X425000D02*
D03*
X445500Y187000D02*
D03*
X440000D02*
D03*
X460500Y175000D02*
D03*
X455000D02*
D03*
X1244064Y950828D02*
D03*
X1234064D02*
D03*
X1244064Y970828D02*
D03*
X1362750Y1014500D02*
D03*
X1234064Y970828D02*
D03*
X1362750Y1020000D02*
D03*
X1362250Y989750D02*
D03*
Y995250D02*
D03*
X1184064Y960828D02*
D03*
X1174064D02*
D03*
X1362750Y911750D02*
D03*
Y917250D02*
D03*
X1317750Y904250D02*
D03*
Y898750D02*
D03*
X1244064Y930828D02*
D03*
X1234064D02*
D03*
X1174064Y980828D02*
D03*
X1184064D02*
D03*
X1362250Y963000D02*
D03*
Y968500D02*
D03*
X1184064Y1010828D02*
D03*
X1174064D02*
D03*
X1302750Y982250D02*
D03*
Y976750D02*
D03*
X1214064Y980828D02*
D03*
X1224064D02*
D03*
X1194064Y970828D02*
D03*
X1204064D02*
D03*
X494750Y316750D02*
D03*
Y311250D02*
D03*
X1390750Y934000D02*
D03*
X1396250D02*
D03*
X510750Y301798D02*
D03*
Y296298D02*
D03*
X550250Y292000D02*
D03*
Y286500D02*
D03*
X520750Y256750D02*
D03*
X1704750Y584518D02*
D03*
X520750Y251250D02*
D03*
X1700861Y580629D02*
D03*
X510750Y271750D02*
D03*
X1704750Y607018D02*
D03*
X510750Y266250D02*
D03*
X1700861Y603129D02*
D03*
X1704750Y629518D02*
D03*
X1700861Y625629D02*
D03*
X460500Y382000D02*
D03*
X455000D02*
D03*
X596625Y1249801D02*
D03*
Y1237101D02*
D03*
X672825Y1199001D02*
D03*
Y1186301D02*
D03*
X647425Y1135501D02*
D03*
Y1148201D02*
D03*
Y1122801D02*
D03*
Y1110101D02*
D03*
X634725D02*
D03*
Y1122801D02*
D03*
X672825Y1224401D02*
D03*
Y1237101D02*
D03*
X660125D02*
D03*
Y1249801D02*
D03*
X672825Y1262501D02*
D03*
Y1275201D02*
D03*
X634725Y1148201D02*
D03*
Y1160901D02*
D03*
X1024064Y1120828D02*
D03*
X1014064Y1120828D02*
D03*
X1134250Y1131000D02*
D03*
Y1141000D02*
D03*
X984064Y920828D02*
D03*
X974064D02*
D03*
X1134250Y1160750D02*
D03*
Y1150750D02*
D03*
X1123750Y1160750D02*
D03*
Y1150750D02*
D03*
Y1130500D02*
D03*
Y1120500D02*
D03*
X1134250Y1111000D02*
D03*
Y1101000D02*
D03*
X1094064Y1150828D02*
D03*
Y1140828D02*
D03*
X1074064Y1130828D02*
D03*
X1014064Y1060828D02*
D03*
Y1070828D02*
D03*
X609325Y1135501D02*
D03*
X1094128Y1120656D02*
D03*
X609325Y1122801D02*
D03*
X1094000Y1111000D02*
D03*
X1024064Y1090828D02*
D03*
X1023750Y1100750D02*
D03*
X1014064Y1100828D02*
D03*
Y1110828D02*
D03*
X660125Y1199001D02*
D03*
Y1211701D02*
D03*
X609325Y257701D02*
D03*
Y270401D02*
D03*
X596625Y206901D02*
D03*
Y194201D02*
D03*
X672825Y257701D02*
D03*
X1234064Y880828D02*
D03*
X672825Y245001D02*
D03*
X1244064Y880828D02*
D03*
X660125Y156101D02*
D03*
Y143401D02*
D03*
X672825Y130701D02*
D03*
Y118001D02*
D03*
X685525Y295801D02*
D03*
X647425D02*
D03*
X634725Y321201D02*
D03*
Y333901D02*
D03*
Y346601D02*
D03*
X609325Y295801D02*
D03*
Y308501D02*
D03*
X672825Y435501D02*
D03*
Y448201D02*
D03*
X609325Y460901D02*
D03*
X660125D02*
D03*
Y473601D02*
D03*
X672825Y486301D02*
D03*
Y473601D02*
D03*
X660125Y499001D02*
D03*
X672825Y511701D02*
D03*
Y524401D02*
D03*
X634725Y384701D02*
D03*
X698225Y397401D02*
D03*
Y384701D02*
D03*
X685525Y359301D02*
D03*
Y372001D02*
D03*
X647425Y397401D02*
D03*
Y410101D02*
D03*
X660125Y970401D02*
D03*
Y957701D02*
D03*
X672825Y983101D02*
D03*
Y995801D02*
D03*
X596625Y1021201D02*
D03*
Y1008501D02*
D03*
X609325Y1033901D02*
D03*
Y1046601D02*
D03*
X596625D02*
D03*
Y1059301D02*
D03*
Y1084701D02*
D03*
Y1097401D02*
D03*
X634725Y270401D02*
D03*
Y283101D02*
D03*
X1214064Y880828D02*
D03*
Y870828D02*
D03*
X672825Y830701D02*
D03*
Y818001D02*
D03*
X622025Y881501D02*
D03*
Y894201D02*
D03*
X660125Y856101D02*
D03*
Y843401D02*
D03*
X994064Y880828D02*
D03*
X1004064D02*
D03*
X994064Y860828D02*
D03*
X984064D02*
D03*
X974064Y870828D02*
D03*
X984064D02*
D03*
X672825Y1021201D02*
D03*
Y1033901D02*
D03*
X964064Y900828D02*
D03*
X974064D02*
D03*
X974064Y830828D02*
D03*
X964064Y820828D02*
D03*
X596625Y970401D02*
D03*
Y983101D02*
D03*
X974064Y840828D02*
D03*
X964064Y840828D02*
D03*
X974064Y850828D02*
D03*
X964064D02*
D03*
X974064Y880828D02*
D03*
X984064D02*
D03*
Y930828D02*
D03*
X994064D02*
D03*
X609325Y1084701D02*
D03*
Y1072001D02*
D03*
X964064Y910828D02*
D03*
Y920828D02*
D03*
X659500Y1058750D02*
D03*
Y1046000D02*
D03*
X974064Y890828D02*
D03*
X964064D02*
D03*
X984064Y900828D02*
D03*
X994064D02*
D03*
X660125Y511701D02*
D03*
X609325Y473601D02*
D03*
X1094064Y850828D02*
D03*
Y860828D02*
D03*
X634725Y397401D02*
D03*
X647425Y372001D02*
D03*
Y359301D02*
D03*
X634725Y308501D02*
D03*
X647425Y283101D02*
D03*
X698225D02*
D03*
Y295801D02*
D03*
X685525Y283101D02*
D03*
X596625Y245001D02*
D03*
Y232301D02*
D03*
X609325D02*
D03*
Y219601D02*
D03*
X1034064Y1090828D02*
D03*
Y1080828D02*
D03*
X647425Y1186301D02*
D03*
Y1199001D02*
D03*
X1054064Y1090828D02*
D03*
X634725Y1211701D02*
D03*
Y1199001D02*
D03*
X1064250Y1111000D02*
D03*
Y1101000D02*
D03*
X647425Y1224401D02*
D03*
X634725D02*
D03*
X660125Y1275201D02*
D03*
X1114250Y1140750D02*
D03*
X660125Y1287901D02*
D03*
X1114250Y1150750D02*
D03*
X609325Y1262501D02*
D03*
X1114064Y1120828D02*
D03*
X609325Y1275201D02*
D03*
X1114064Y1130828D02*
D03*
X1123750Y1101000D02*
D03*
Y1110750D02*
D03*
X609325Y1224401D02*
D03*
Y1237101D02*
D03*
Y1199001D02*
D03*
Y1211701D02*
D03*
X723625Y1173601D02*
D03*
X846250Y1061000D02*
D03*
Y1055500D02*
D03*
X723625Y1186301D02*
D03*
Y1148201D02*
D03*
X861000Y1038000D02*
D03*
X723625Y1135501D02*
D03*
X861000Y1032500D02*
D03*
X1134000Y1090500D02*
D03*
X1134064Y1080578D02*
D03*
X769750Y839750D02*
D03*
X914064Y1000828D02*
D03*
X769750Y834250D02*
D03*
X904064Y1000828D02*
D03*
X924064Y1030828D02*
D03*
X934064D02*
D03*
X763250Y935750D02*
D03*
X954064Y1040828D02*
D03*
X763250Y941250D02*
D03*
X944064Y1040828D02*
D03*
X1024064Y900828D02*
D03*
X1014064Y890828D02*
D03*
X1034064Y920828D02*
D03*
X1024064D02*
D03*
X609325Y511701D02*
D03*
X1064064Y910828D02*
D03*
X609325Y499001D02*
D03*
X1054064Y910828D02*
D03*
X622025Y499001D02*
D03*
X1054064Y890828D02*
D03*
X622025Y486301D02*
D03*
X1044064Y890828D02*
D03*
X596625Y422801D02*
D03*
X1064064Y870828D02*
D03*
X596625Y435501D02*
D03*
X1054064Y870828D02*
D03*
X685525Y219601D02*
D03*
X1164064Y870828D02*
D03*
X685525Y206901D02*
D03*
X1164064Y860828D02*
D03*
X1184064Y830828D02*
D03*
Y820828D02*
D03*
X1164064Y930828D02*
D03*
X1154064D02*
D03*
X723625Y499001D02*
D03*
X1352500Y898750D02*
D03*
X723625Y486301D02*
D03*
X1352500Y904250D02*
D03*
X723625Y448201D02*
D03*
X1397500Y911750D02*
D03*
X723625Y435501D02*
D03*
X1397500Y917250D02*
D03*
X710925Y372001D02*
D03*
X1402375Y937750D02*
D03*
X710925Y359301D02*
D03*
X1402375Y943250D02*
D03*
X698225Y181501D02*
D03*
Y168801D02*
D03*
X685525D02*
D03*
X1397500Y989750D02*
D03*
X685525Y156101D02*
D03*
X1397500Y995250D02*
D03*
X723625Y143401D02*
D03*
X1337500Y1002750D02*
D03*
X723625Y130701D02*
D03*
X1337500Y1008250D02*
D03*
X698225Y130701D02*
D03*
X1397500Y1014500D02*
D03*
X698225Y118001D02*
D03*
X1397500Y1020000D02*
D03*
X350000Y187000D02*
D03*
X355500D02*
D03*
X380000D02*
D03*
X385500D02*
D03*
X395000Y175000D02*
D03*
X400500Y175000D02*
D03*
X365000Y175000D02*
D03*
X370500D02*
D03*
X536500Y134500D02*
D03*
Y140000D02*
D03*
Y159548D02*
D03*
Y165048D02*
D03*
X400500Y378000D02*
D03*
X395000D02*
D03*
X510750Y236250D02*
D03*
Y241750D02*
D03*
X385548Y397500D02*
D03*
X391048D02*
D03*
X1113750Y1070750D02*
D03*
X622025Y1148201D02*
D03*
X1113750Y1080750D02*
D03*
X622025Y1135501D02*
D03*
X315750Y296250D02*
D03*
X563750Y842500D02*
D03*
X315750Y301750D02*
D03*
X569250Y842500D02*
D03*
X622025Y818001D02*
D03*
X1053750Y1110750D02*
D03*
X622025Y830701D02*
D03*
X1044064Y1110828D02*
D03*
X647425Y843401D02*
D03*
X1034064Y1120828D02*
D03*
X647425Y830701D02*
D03*
X1044064Y1120828D02*
D03*
X698225Y983101D02*
D03*
Y995801D02*
D03*
X647425Y957701D02*
D03*
X954064Y1140828D02*
D03*
X647425Y970401D02*
D03*
X954064Y1150828D02*
D03*
X685525Y945001D02*
D03*
X974000Y1130750D02*
D03*
X685525Y957701D02*
D03*
X974064Y1140828D02*
D03*
X698225Y932301D02*
D03*
X994000Y1120750D02*
D03*
X698225Y945001D02*
D03*
X1004064Y1120828D02*
D03*
X685525Y906901D02*
D03*
X984000Y1111250D02*
D03*
X685525Y919601D02*
D03*
X984064Y1120828D02*
D03*
X634725Y894201D02*
D03*
X964000Y1100500D02*
D03*
X634725Y906901D02*
D03*
X964000Y1111250D02*
D03*
X647425Y881501D02*
D03*
X994064Y1090828D02*
D03*
X647425Y894201D02*
D03*
X994064Y1100828D02*
D03*
X685525Y983101D02*
D03*
X984000Y1131250D02*
D03*
X685525Y995801D02*
D03*
X984064Y1140828D02*
D03*
X634725Y970401D02*
D03*
X994064Y1140828D02*
D03*
X634725Y983101D02*
D03*
X994064Y1150828D02*
D03*
X647425Y995801D02*
D03*
X1004064Y1090828D02*
D03*
X647425Y1008501D02*
D03*
X1014064Y1090828D02*
D03*
X698225Y1084701D02*
D03*
X1034250Y1130750D02*
D03*
X698225Y1097401D02*
D03*
X1034064Y1140828D02*
D03*
X685525Y1097401D02*
D03*
X1024064Y1150828D02*
D03*
X685525Y1110101D02*
D03*
X1024064Y1140828D02*
D03*
X698225Y1122801D02*
D03*
X1043750Y1140750D02*
D03*
X698225Y1135501D02*
D03*
X1044000Y1150250D02*
D03*
X685525Y1135501D02*
D03*
X1053750Y1140750D02*
D03*
X685525Y1148201D02*
D03*
X1053750Y1151000D02*
D03*
X672825Y1148201D02*
D03*
X1074064Y1150828D02*
D03*
X672825Y1160901D02*
D03*
X1074064Y1160828D02*
D03*
X622025Y1186301D02*
D03*
X1084064Y1160828D02*
D03*
X622025Y1199001D02*
D03*
X1094064Y1160828D02*
D03*
X974064Y960828D02*
D03*
X941000Y762500D02*
D03*
X964064Y960828D02*
D03*
X935500Y762500D02*
D03*
X941000Y746500D02*
D03*
X303750Y316750D02*
D03*
X935500Y746500D02*
D03*
X303750Y311250D02*
D03*
X315750Y326250D02*
D03*
X948500Y769000D02*
D03*
X315750Y331750D02*
D03*
X954000Y769000D02*
D03*
X622025Y1249801D02*
D03*
Y1262501D02*
D03*
X303750Y286750D02*
D03*
X303750Y281250D02*
D03*
X563750Y879750D02*
D03*
X569250D02*
D03*
X672825Y410101D02*
D03*
X1034064Y830828D02*
D03*
X672825Y422801D02*
D03*
X1034064Y820828D02*
D03*
X672825Y384701D02*
D03*
X1054064Y820828D02*
D03*
X672825Y372001D02*
D03*
X1064064Y820828D02*
D03*
X904064Y1040828D02*
D03*
X914064D02*
D03*
X647425Y346601D02*
D03*
X1144064Y820828D02*
D03*
X647425Y333901D02*
D03*
X1144064Y830828D02*
D03*
X1154064D02*
D03*
X698225Y346601D02*
D03*
X1164064Y830828D02*
D03*
X698225Y333901D02*
D03*
X1164500Y820750D02*
D03*
X685525Y333901D02*
D03*
X1174000Y820750D02*
D03*
X685525Y321201D02*
D03*
X596625Y384701D02*
D03*
Y372001D02*
D03*
X1214064Y820828D02*
D03*
X609325Y372001D02*
D03*
X1224064Y820828D02*
D03*
X609325Y359301D02*
D03*
X1234064Y820828D02*
D03*
X622025Y295801D02*
D03*
X1244064Y820828D02*
D03*
X622025Y283101D02*
D03*
X1234064Y830828D02*
D03*
X609325Y333901D02*
D03*
X1244064Y830828D02*
D03*
X609325Y321201D02*
D03*
X596625Y346601D02*
D03*
Y333901D02*
D03*
X1244064Y900828D02*
D03*
X596625Y270401D02*
D03*
X1244064Y910828D02*
D03*
X596625Y257701D02*
D03*
X1194064Y830828D02*
D03*
Y820828D02*
D03*
X1114064Y840828D02*
D03*
Y830828D02*
D03*
X647425Y435501D02*
D03*
Y448201D02*
D03*
X1134064Y900828D02*
D03*
Y890828D02*
D03*
X1154064Y910828D02*
D03*
X1144064D02*
D03*
X672825Y206901D02*
D03*
Y219601D02*
D03*
X596625Y168801D02*
D03*
Y156101D02*
D03*
X622025D02*
D03*
Y143401D02*
D03*
X1124064Y860828D02*
D03*
X1114064D02*
D03*
X622025Y130701D02*
D03*
Y118001D02*
D03*
X1044064Y860828D02*
D03*
X1054064D02*
D03*
X1064064Y900828D02*
D03*
Y890828D02*
D03*
X1124064Y900828D02*
D03*
Y890828D02*
D03*
X1204064Y880828D02*
D03*
X1194064D02*
D03*
X1204064Y830828D02*
D03*
X1214064D02*
D03*
X622025Y410101D02*
D03*
Y422801D02*
D03*
Y460901D02*
D03*
Y448201D02*
D03*
X698225Y245001D02*
D03*
Y232301D02*
D03*
X685525Y245001D02*
D03*
Y257701D02*
D03*
X660125Y194201D02*
D03*
Y181501D02*
D03*
X1204064Y910828D02*
D03*
X1194064D02*
D03*
X1244064Y870828D02*
D03*
Y860828D02*
D03*
X660125Y422801D02*
D03*
Y410101D02*
D03*
X647425Y168801D02*
D03*
X1154064Y880828D02*
D03*
X647425Y181501D02*
D03*
X1164064Y880828D02*
D03*
X647500Y549250D02*
D03*
X1084064Y830828D02*
D03*
X647500Y563000D02*
D03*
X1084064Y820828D02*
D03*
X964064Y1150828D02*
D03*
X974064D02*
D03*
X1688832Y311265D02*
D03*
Y304265D02*
D03*
Y293014D02*
D03*
Y286264D02*
D03*
Y271013D02*
D03*
Y264418D02*
D03*
X1673000Y523500D02*
D03*
Y529000D02*
D03*
X1204064Y1040828D02*
D03*
X1194064D02*
D03*
X1244064D02*
D03*
X1234064D02*
D03*
X1673500Y478452D02*
D03*
Y483952D02*
D03*
X1673000Y461500D02*
D03*
Y456000D02*
D03*
X1214000Y1030500D02*
D03*
X1224064Y1030828D02*
D03*
X1673000Y365750D02*
D03*
Y371250D02*
D03*
X1194064Y1000828D02*
D03*
X1204064D02*
D03*
X1673000Y343500D02*
D03*
Y349000D02*
D03*
X1224064Y990828D02*
D03*
X1234064D02*
D03*
X1672500Y517975D02*
D03*
Y512275D02*
D03*
X1676750Y549750D02*
D03*
Y555450D02*
D03*
X875999Y785001D02*
D03*
X954064Y970828D02*
D03*
X870499Y785001D02*
D03*
X944064Y970828D02*
D03*
X1693000Y549900D02*
D03*
Y555600D02*
D03*
X1676500Y613000D02*
D03*
Y618700D02*
D03*
X909500Y762500D02*
D03*
X924064Y930828D02*
D03*
X915000Y762500D02*
D03*
X914064Y930828D02*
D03*
X1676279Y641475D02*
D03*
Y635775D02*
D03*
X1653500Y636000D02*
D03*
X1704750Y134518D02*
D03*
X1650250Y640000D02*
D03*
X1700861Y130629D02*
D03*
X1592500Y589250D02*
D03*
X1589000Y593000D02*
D03*
X1704750Y112018D02*
D03*
X1700861Y108129D02*
D03*
D195*
X516000Y793750D02*
D03*
X478500Y787250D02*
D03*
X473000Y771750D02*
D03*
X380732Y780962D02*
D03*
X416476Y907250D02*
D03*
X383000Y875500D02*
D03*
X380732Y902376D02*
D03*
X379000Y925000D02*
D03*
X1662000Y236500D02*
D03*
X158000Y808250D02*
D03*
X166508Y816790D02*
D03*
X384750Y918250D02*
D03*
X370750Y909250D02*
D03*
X243500Y904750D02*
D03*
X944000Y1010750D02*
D03*
X267250Y890750D02*
D03*
X1094064Y890828D02*
D03*
X1084064Y880828D02*
D03*
X1244000Y1120500D02*
D03*
X1204064Y1160828D02*
D03*
Y1150828D02*
D03*
X1214064D02*
D03*
X1204064Y1140828D02*
D03*
Y1120828D02*
D03*
X1224064Y1150828D02*
D03*
X735250Y180750D02*
D03*
X739750Y206750D02*
D03*
X1691250Y57500D02*
D03*
X1703750D02*
D03*
X1709000Y41000D02*
D03*
X1682000Y52000D02*
D03*
X1685750Y29750D02*
D03*
X732750Y906500D02*
D03*
X731500Y919750D02*
D03*
X1526625Y187625D02*
D03*
X1569250Y49750D02*
D03*
Y94750D02*
D03*
Y117250D02*
D03*
X1575500Y132750D02*
D03*
X1582750Y142500D02*
D03*
X1571500Y172250D02*
D03*
X1578250Y167250D02*
D03*
X1496250Y137250D02*
D03*
X1511250Y132250D02*
D03*
X1496250Y147250D02*
D03*
X1511250Y142250D02*
D03*
X1496250Y157250D02*
D03*
X1511250Y152250D02*
D03*
Y162250D02*
D03*
X1496250Y167250D02*
D03*
X685525Y537101D02*
D03*
Y524401D02*
D03*
Y499001D02*
D03*
Y486301D02*
D03*
Y473601D02*
D03*
X1084064Y870828D02*
D03*
X1154064Y1030828D02*
D03*
Y1040828D02*
D03*
X1144064D02*
D03*
X1084064Y900828D02*
D03*
X964064Y940828D02*
D03*
X1184000Y941250D02*
D03*
X989750Y1312370D02*
D03*
X981500Y1320370D02*
D03*
X992500Y1382370D02*
D03*
X997500Y1374370D02*
D03*
X992500Y1390870D02*
D03*
X987500Y1398620D02*
D03*
X1244064Y1090828D02*
D03*
X1234064D02*
D03*
Y1080828D02*
D03*
X1244064D02*
D03*
Y1070828D02*
D03*
Y1060828D02*
D03*
X1234064D02*
D03*
X1154064Y1050828D02*
D03*
X1194064Y1060828D02*
D03*
X1204064D02*
D03*
X1194064Y1070828D02*
D03*
X1214064D02*
D03*
X1224064D02*
D03*
Y1060828D02*
D03*
Y1080828D02*
D03*
X1214064D02*
D03*
X1214000Y1091000D02*
D03*
X1094000Y1060250D02*
D03*
X1034064Y1060828D02*
D03*
X1024064D02*
D03*
X1204000Y1091000D02*
D03*
X685525Y1237101D02*
D03*
Y1224401D02*
D03*
Y1199001D02*
D03*
Y1186301D02*
D03*
Y1173601D02*
D03*
X931750Y1402370D02*
D03*
X951750Y1396370D02*
D03*
X941750Y1390370D02*
D03*
X942000Y1372370D02*
D03*
X952000Y1378370D02*
D03*
X932000Y1384370D02*
D03*
X942000Y1354370D02*
D03*
X952000Y1360370D02*
D03*
X932000Y1366370D02*
D03*
X942000Y1336370D02*
D03*
X952000Y1342370D02*
D03*
X932000Y1348370D02*
D03*
X941750Y1318370D02*
D03*
X951750Y1324370D02*
D03*
X931750Y1330370D02*
D03*
X941750Y1300370D02*
D03*
X951750Y1306370D02*
D03*
X931750Y1312370D02*
D03*
X931750Y1294370D02*
D03*
X1407410Y1350626D02*
D03*
X1194064Y1130828D02*
D03*
X1184064D02*
D03*
X1252752Y1321377D02*
D03*
Y1315877D02*
D03*
X1242904Y1326626D02*
D03*
X1183500Y1151000D02*
D03*
X1194500Y1161000D02*
D03*
X1025654Y1334496D02*
D03*
X1359404Y1350626D02*
D03*
X1351404Y1334625D02*
D03*
X1242906Y1334629D02*
D03*
X1134744Y1334505D02*
D03*
X1144590Y1321252D02*
D03*
X1144064Y1090828D02*
D03*
X1144590Y1315753D02*
D03*
X1144064Y1081078D02*
D03*
X1174748Y1302501D02*
D03*
X1361250Y1321373D02*
D03*
Y1315873D02*
D03*
X1359404Y1398632D02*
D03*
X1351403Y1390631D02*
D03*
X1359404D02*
D03*
Y1382630D02*
D03*
Y1374629D02*
D03*
Y1366628D02*
D03*
X1351403D02*
D03*
Y1374629D02*
D03*
Y1382630D02*
D03*
Y1358627D02*
D03*
X1359404D02*
D03*
X1335402Y1350626D02*
D03*
X1343403Y1318623D02*
D03*
Y1310622D02*
D03*
X1383408Y1398632D02*
D03*
X1391409D02*
D03*
X1383408Y1390631D02*
D03*
X1391409D02*
D03*
Y1382630D02*
D03*
Y1374629D02*
D03*
X1383408D02*
D03*
Y1382630D02*
D03*
Y1366628D02*
D03*
Y1358627D02*
D03*
X1399409Y1326624D02*
D03*
Y1310622D02*
D03*
X1351403Y1398632D02*
D03*
X1359404Y1334624D02*
D03*
Y1302621D02*
D03*
X1383408D02*
D03*
Y1310622D02*
D03*
Y1326624D02*
D03*
X1250906Y1398636D02*
D03*
X1242905Y1390635D02*
D03*
X1250906D02*
D03*
Y1382634D02*
D03*
Y1374633D02*
D03*
Y1366632D02*
D03*
X1242905D02*
D03*
Y1374633D02*
D03*
Y1382634D02*
D03*
Y1358631D02*
D03*
X1250906D02*
D03*
Y1350630D02*
D03*
X1226904D02*
D03*
X1234905Y1318627D02*
D03*
Y1310626D02*
D03*
X1274910Y1398636D02*
D03*
X1282911D02*
D03*
X1274910Y1390635D02*
D03*
X1282911D02*
D03*
Y1382634D02*
D03*
Y1374633D02*
D03*
X1274910D02*
D03*
Y1382634D02*
D03*
Y1366632D02*
D03*
Y1358631D02*
D03*
X1298912Y1350630D02*
D03*
X1290911Y1326628D02*
D03*
Y1310626D02*
D03*
X1242905Y1398636D02*
D03*
X1250906Y1302625D02*
D03*
X1274910D02*
D03*
Y1310626D02*
D03*
Y1326628D02*
D03*
X1142744Y1398512D02*
D03*
X1134743Y1390511D02*
D03*
X1142744D02*
D03*
Y1382510D02*
D03*
Y1374509D02*
D03*
Y1366508D02*
D03*
X1134743D02*
D03*
Y1374509D02*
D03*
Y1382510D02*
D03*
Y1358507D02*
D03*
X1142744D02*
D03*
Y1350506D02*
D03*
X1118742D02*
D03*
X1126743Y1318503D02*
D03*
Y1310502D02*
D03*
X1166748Y1398512D02*
D03*
X1174749D02*
D03*
X1166748Y1390511D02*
D03*
X1174749D02*
D03*
Y1382510D02*
D03*
Y1374509D02*
D03*
X1166748D02*
D03*
Y1382510D02*
D03*
Y1366508D02*
D03*
Y1358507D02*
D03*
X1190750Y1350506D02*
D03*
X1182749Y1326504D02*
D03*
Y1310502D02*
D03*
X1134743Y1398512D02*
D03*
X1142744Y1334504D02*
D03*
Y1302501D02*
D03*
X1166748Y1310502D02*
D03*
Y1326504D02*
D03*
X1057658Y1310493D02*
D03*
Y1302492D02*
D03*
X1025653Y1398503D02*
D03*
X1073659Y1326495D02*
D03*
X1081660Y1350497D02*
D03*
X1057658Y1358498D02*
D03*
Y1366499D02*
D03*
Y1382501D02*
D03*
Y1374500D02*
D03*
X1065659D02*
D03*
Y1382501D02*
D03*
Y1390502D02*
D03*
X1057750Y1390620D02*
D03*
X1065659Y1398503D02*
D03*
X1057658D02*
D03*
X1017653Y1318494D02*
D03*
X1009652Y1350497D02*
D03*
X1033654D02*
D03*
Y1358498D02*
D03*
X1025653D02*
D03*
Y1382501D02*
D03*
Y1374500D02*
D03*
Y1366499D02*
D03*
X1033654D02*
D03*
Y1374500D02*
D03*
Y1382501D02*
D03*
Y1390502D02*
D03*
X1025653D02*
D03*
X1033654Y1398503D02*
D03*
X1183500Y1161500D02*
D03*
X1174314Y1160828D02*
D03*
X1163500Y1151000D02*
D03*
X1174314Y1150828D02*
D03*
X1183500Y1141000D02*
D03*
X1163500D02*
D03*
Y1131000D02*
D03*
X1174314Y1130828D02*
D03*
X1214064D02*
D03*
X1194064Y1120828D02*
D03*
X1174314D02*
D03*
X1163500Y1121000D02*
D03*
X1174314Y1110828D02*
D03*
X1184064D02*
D03*
X1194064D02*
D03*
X1204064D02*
D03*
X1224064D02*
D03*
X1224000Y1131000D02*
D03*
X1224064Y1160828D02*
D03*
X1244064D02*
D03*
X1234064D02*
D03*
Y1150828D02*
D03*
Y1140828D02*
D03*
X1234000Y1131000D02*
D03*
X1244064Y1140828D02*
D03*
X1244000Y1131000D02*
D03*
X1244064Y1110828D02*
D03*
X1224064Y1100828D02*
D03*
X1184064D02*
D03*
X1174314D02*
D03*
X1163500Y1101000D02*
D03*
Y1091000D02*
D03*
X1194064Y1090828D02*
D03*
Y1080828D02*
D03*
X1184064D02*
D03*
X1163500Y1081000D02*
D03*
X1154064Y1090828D02*
D03*
Y1100828D02*
D03*
Y1140828D02*
D03*
Y1150828D02*
D03*
Y1160828D02*
D03*
X1144064D02*
D03*
Y1140828D02*
D03*
Y1130828D02*
D03*
Y1120828D02*
D03*
Y1110828D02*
D03*
X1154064Y1070578D02*
D03*
X1184064Y1060828D02*
D03*
X1174064D02*
D03*
X1154064D02*
D03*
X1174064Y1050828D02*
D03*
X1164064D02*
D03*
X1144500Y1060750D02*
D03*
X1057658Y1326495D02*
D03*
X1033654Y1334495D02*
D03*
X1065659Y1310493D02*
D03*
X1174064Y1080828D02*
D03*
X1164064Y1070828D02*
D03*
X1035500Y1321243D02*
D03*
Y1315743D02*
D03*
X1025654Y1302492D02*
D03*
X1017653Y1310493D02*
D03*
X1144064Y1070578D02*
D03*
X1604500Y158250D02*
D03*
X1614500Y163500D02*
D03*
X1663250Y181750D02*
D03*
X1664750Y202250D02*
D03*
X1594500Y151250D02*
D03*
X1614500Y146250D02*
D03*
X1671250Y128250D02*
D03*
X1663750Y106250D02*
D03*
X1604500Y48250D02*
D03*
X1614500Y55500D02*
D03*
X1669500Y72500D02*
D03*
X1663500Y93250D02*
D03*
Y216500D02*
D03*
X1614500Y254000D02*
D03*
X1602000Y261250D02*
D03*
X1560500Y205000D02*
D03*
X1560500Y227500D02*
D03*
Y250000D02*
D03*
X1547000Y200000D02*
D03*
X1547000Y222500D02*
D03*
Y245000D02*
D03*
X1560500Y182500D02*
D03*
X1560250Y72250D02*
D03*
X1546750Y67250D02*
D03*
Y89750D02*
D03*
X1546750Y44750D02*
D03*
X1540500Y108250D02*
D03*
X830291Y113006D02*
D03*
X824250Y93000D02*
D03*
X819291Y73004D02*
D03*
X813250Y52694D02*
D03*
X196000Y270500D02*
D03*
X370500Y381750D02*
D03*
X418520Y976048D02*
D03*
X404270Y971047D02*
D03*
X418520Y955797D02*
D03*
X499524Y956047D02*
D03*
X485274Y961047D02*
D03*
Y1055801D02*
D03*
X499524Y1050801D02*
D03*
X485274Y1045801D02*
D03*
X499524Y1041051D02*
D03*
X402020Y790545D02*
D03*
X413750Y1241250D02*
D03*
X406500Y1237250D02*
D03*
Y1220250D02*
D03*
X411750Y1229000D02*
D03*
X235000Y1161250D02*
D03*
X262500Y1151250D02*
D03*
X370518Y1077553D02*
D03*
X351517D02*
D03*
X346517Y1043301D02*
D03*
X370518Y1035800D02*
D03*
X380769Y1031550D02*
D03*
X501813Y780250D02*
D03*
X464523Y912301D02*
D03*
X1074064Y890828D02*
D03*
X451000Y1020750D02*
D03*
X455250Y996250D02*
D03*
X465250Y987250D02*
D03*
X478150Y985500D02*
D03*
X482250Y1009500D02*
D03*
X379250Y810789D02*
D03*
X941750Y1281370D02*
D03*
Y1286870D02*
D03*
X1214064Y1120828D02*
D03*
X1055750Y1339746D02*
D03*
X1164840Y1339756D02*
D03*
X1273002Y1339880D02*
D03*
X1381500Y1339876D02*
D03*
X1224064Y1120828D02*
D03*
X1055750Y1345246D02*
D03*
X1164840Y1345255D02*
D03*
X1273002Y1345380D02*
D03*
X1381500Y1345376D02*
D03*
X984064Y1090828D02*
D03*
X843750Y1131500D02*
D03*
X734250Y1211500D02*
D03*
X482250Y1193750D02*
D03*
X984064Y1080828D02*
D03*
X840250Y1120250D02*
D03*
X711250Y1199250D02*
D03*
X494500Y1183250D02*
D03*
X391019Y595779D02*
D03*
X380250Y643250D02*
D03*
X324250Y497000D02*
D03*
X311750Y507500D02*
D03*
X324250Y660750D02*
D03*
X296500Y492000D02*
D03*
X251500Y530750D02*
D03*
X444750Y881000D02*
D03*
D196*
X1714084Y335016D02*
D03*
X1079250Y262250D02*
D03*
X1096750D02*
D03*
X1114250D02*
D03*
X1131750D02*
D03*
X1128500Y238000D02*
D03*
X1088300Y236961D02*
D03*
X1074799D02*
D03*
X1357500Y153000D02*
D03*
X1306050Y141500D02*
D03*
X1088050Y66000D02*
D03*
X1139000Y78750D02*
D03*
X926950Y67500D02*
D03*
X875500Y56000D02*
D03*
X1415045Y534495D02*
D03*
X1659081Y27001D02*
D03*
X744537Y59197D02*
D03*
Y79197D02*
D03*
X766288Y90948D02*
D03*
X766287Y68253D02*
D03*
Y51002D02*
D03*
X165500Y189000D02*
D03*
X60000Y397250D02*
D03*
X95500Y341500D02*
D03*
X147264Y256988D02*
D03*
X49500Y325750D02*
D03*
X1440549Y433143D02*
D03*
X1395546Y479145D02*
D03*
X1395546Y458997D02*
D03*
X1388296Y443144D02*
D03*
X1381045Y422745D02*
D03*
X1425545Y459245D02*
D03*
X1425548Y478895D02*
D03*
X1416045Y496745D02*
D03*
X1400045Y534495D02*
D03*
X1401045Y496745D02*
D03*
X1383295Y531745D02*
D03*
Y516745D02*
D03*
Y501745D02*
D03*
X1365545Y432995D02*
D03*
X1373545Y454745D02*
D03*
X1373795Y476995D02*
D03*
X1207028Y401911D02*
D03*
X1206778Y379661D02*
D03*
X1198778Y357911D02*
D03*
X1216528Y426661D02*
D03*
X1216528Y441661D02*
D03*
X1216528Y456661D02*
D03*
X1234278Y421661D02*
D03*
X1233294Y459348D02*
D03*
X1248278Y459411D02*
D03*
X1249278Y421661D02*
D03*
X1197385Y448804D02*
D03*
X1198385Y432267D02*
D03*
X1187778Y421661D02*
D03*
X1186778Y459411D02*
D03*
X1171778D02*
D03*
X1172778Y421661D02*
D03*
X1155028Y441661D02*
D03*
X1155028Y426661D02*
D03*
X1155028Y351661D02*
D03*
Y366661D02*
D03*
X1155028Y381661D02*
D03*
X1155028Y396661D02*
D03*
X1155028Y411661D02*
D03*
X1258781Y403811D02*
D03*
X1258778Y384161D02*
D03*
X1214278Y347661D02*
D03*
X1221529Y368060D02*
D03*
X1228780Y383912D02*
D03*
X1228780Y404061D02*
D03*
X1273782Y358059D02*
D03*
X1715750Y87500D02*
D03*
Y155000D02*
D03*
Y222500D02*
D03*
Y447500D02*
D03*
Y560000D02*
D03*
X872375Y1133875D02*
D03*
X869750Y1153500D02*
D03*
X1037301Y1413439D02*
D03*
X1054052Y1413189D02*
D03*
X1146538Y1413199D02*
D03*
X1163142D02*
D03*
X1254698Y1413319D02*
D03*
X1271302D02*
D03*
X1379802D02*
D03*
X1363198D02*
D03*
X1338250Y1422500D02*
D03*
X1296250D02*
D03*
X1404750D02*
D03*
X1229750D02*
D03*
X1188090Y1422380D02*
D03*
X1121590D02*
D03*
X1079000Y1422370D02*
D03*
X1012500D02*
D03*
X982048Y1412689D02*
D03*
X829750Y1398000D02*
D03*
X795789Y1401318D02*
D03*
X781000Y1316500D02*
D03*
X790789Y1303314D02*
D03*
X800789Y1316314D02*
D03*
X760787Y1303314D02*
D03*
X751037Y1322065D02*
D03*
Y1310314D02*
D03*
X565000Y429851D02*
D03*
X1420087Y129945D02*
D03*
X1387250Y181500D02*
D03*
X1399750Y181250D02*
D03*
X1343833Y115694D02*
D03*
X1479340Y121194D02*
D03*
X1366584Y131195D02*
D03*
X1306081Y169697D02*
D03*
X1318582D02*
D03*
X1351083Y129445D02*
D03*
X1441088Y175197D02*
D03*
X1454088D02*
D03*
X1486340Y134695D02*
D03*
X1416587Y183947D02*
D03*
X1444250Y160250D02*
D03*
X1304500Y153750D02*
D03*
X1289197Y193413D02*
D03*
X1351083Y285202D02*
D03*
X1373835D02*
D03*
X1358000Y265250D02*
D03*
X1381500D02*
D03*
X1386835Y274702D02*
D03*
X1338083D02*
D03*
X1325082Y214449D02*
D03*
X1433837Y217199D02*
D03*
X1406250Y228000D02*
D03*
X1293331Y215949D02*
D03*
X1426087Y251701D02*
D03*
X1412586D02*
D03*
X1433837Y237200D02*
D03*
X1320082Y235700D02*
D03*
X1293581Y237700D02*
D03*
X1307831Y249201D02*
D03*
X1308500Y265750D02*
D03*
X1325750Y279750D02*
D03*
X1425750Y269500D02*
D03*
X1451500Y203500D02*
D03*
Y223500D02*
D03*
X1390750Y196000D02*
D03*
Y213500D02*
D03*
Y231000D02*
D03*
Y248500D02*
D03*
X1342750Y220000D02*
D03*
X1344083Y255201D02*
D03*
X1370834D02*
D03*
X1441083Y274206D02*
D03*
X1489835D02*
D03*
X1484500Y264754D02*
D03*
X1461000D02*
D03*
X1476835Y284706D02*
D03*
X1454083D02*
D03*
X1473834Y254705D02*
D03*
X1447083D02*
D03*
X1490340Y202448D02*
D03*
X1491750Y222750D02*
D03*
X1491500Y244500D02*
D03*
X1398304Y282959D02*
D03*
X1409305D02*
D03*
X1398304Y312961D02*
D03*
X1411055D02*
D03*
X1292799Y312461D02*
D03*
X1306300D02*
D03*
X1292549Y282460D02*
D03*
X1304300D02*
D03*
X1402000Y336000D02*
D03*
X1419500D02*
D03*
X1437000D02*
D03*
X1454500D02*
D03*
X1454500Y321000D02*
D03*
X1353250Y318000D02*
D03*
X1349750Y335250D02*
D03*
X1332250D02*
D03*
X1314750D02*
D03*
X1297250D02*
D03*
X1239000Y263000D02*
D03*
X1221500D02*
D03*
X1204000D02*
D03*
X1186500D02*
D03*
X1086300Y206959D02*
D03*
X1193055Y237461D02*
D03*
X1180304D02*
D03*
X1191305Y207460D02*
D03*
X1180304D02*
D03*
X1273500Y169000D02*
D03*
X1273750Y147250D02*
D03*
X1272340Y126948D02*
D03*
X1229083Y179205D02*
D03*
X1255834D02*
D03*
X1236084Y209206D02*
D03*
X1258835D02*
D03*
X1243000Y189254D02*
D03*
X1266500D02*
D03*
X1271835Y198706D02*
D03*
X1223083D02*
D03*
X1152834Y179701D02*
D03*
X1126083D02*
D03*
X1124750Y144500D02*
D03*
X1172750Y173000D02*
D03*
Y155500D02*
D03*
Y138000D02*
D03*
Y120500D02*
D03*
X1233500Y148000D02*
D03*
Y128000D02*
D03*
X1207750Y194000D02*
D03*
X1107750Y204250D02*
D03*
X1090500Y190250D02*
D03*
X1089831Y173701D02*
D03*
X1075581Y162200D02*
D03*
X1102082Y160200D02*
D03*
X1215837Y161700D02*
D03*
X1194586Y176201D02*
D03*
X1208087D02*
D03*
X1075331Y140449D02*
D03*
X1188250Y152500D02*
D03*
X1107082Y138949D02*
D03*
X1120083Y199202D02*
D03*
X1168835D02*
D03*
X1163500Y189750D02*
D03*
X1140000D02*
D03*
X1155835Y209702D02*
D03*
X1133083D02*
D03*
X1071197Y117913D02*
D03*
X1086500Y78250D02*
D03*
X1226250Y84750D02*
D03*
X1268340Y59195D02*
D03*
X1236088Y99697D02*
D03*
X1223088D02*
D03*
X1133083Y53945D02*
D03*
X1100582Y94197D02*
D03*
X1088081D02*
D03*
X1148584Y55695D02*
D03*
X1261340Y45694D02*
D03*
X1125833Y40194D02*
D03*
X1181750Y105750D02*
D03*
X1170500Y106000D02*
D03*
X1202087Y54445D02*
D03*
X1428582Y88216D02*
D03*
X1381250Y81500D02*
D03*
X1372250Y105500D02*
D03*
X1395830Y90967D02*
D03*
X1176101Y15467D02*
D03*
X1154500Y30250D02*
D03*
X1164100Y6216D02*
D03*
X1211250Y12250D02*
D03*
X1199852Y116722D02*
D03*
X987302Y106722D02*
D03*
X998803Y2717D02*
D03*
X943050Y20217D02*
D03*
X989537Y44445D02*
D03*
X956700Y96000D02*
D03*
X969200Y95750D02*
D03*
X913283Y30194D02*
D03*
X1048790Y35694D02*
D03*
X936034Y45695D02*
D03*
X875531Y84197D02*
D03*
X888032D02*
D03*
X920533Y43945D02*
D03*
X1010538Y89697D02*
D03*
X1023538D02*
D03*
X1055790Y49195D02*
D03*
X1013700Y74750D02*
D03*
X873950Y68250D02*
D03*
X858647Y107913D02*
D03*
X1061750Y128500D02*
D03*
X1034016Y170474D02*
D03*
X1015015D02*
D03*
X1025200Y119750D02*
D03*
X1024950Y140000D02*
D03*
X1051517Y180725D02*
D03*
X1025516D02*
D03*
X1003015D02*
D03*
X975264Y142223D02*
D03*
X989264Y166224D02*
D03*
X990000Y183250D02*
D03*
X975250Y169750D02*
D03*
X862750Y146250D02*
D03*
X961750Y179750D02*
D03*
X886014Y165470D02*
D03*
X890700Y144250D02*
D03*
X899765Y179971D02*
D03*
X922266D02*
D03*
X941250Y180000D02*
D03*
X911765Y169720D02*
D03*
X930766D02*
D03*
X951000Y169750D02*
D03*
X952700Y143750D02*
D03*
X957950Y116250D02*
D03*
X997765Y123972D02*
D03*
X894510Y119722D02*
D03*
X862750Y128500D02*
D03*
X1579327Y879795D02*
D03*
X1602500Y882750D02*
D03*
X1642500Y852750D02*
D03*
X1672456Y862828D02*
D03*
X1652578Y862794D02*
D03*
X1657500Y920250D02*
D03*
X1672422Y912706D02*
D03*
X1642422D02*
D03*
X1612456Y892828D02*
D03*
X1592578Y892794D02*
D03*
X1634330Y927797D02*
D03*
X1611830Y927797D02*
D03*
X1589330D02*
D03*
X1578750Y937750D02*
D03*
X1601250D02*
D03*
X1623750D02*
D03*
X1673250Y958750D02*
D03*
X1660831Y968799D02*
D03*
X1660831Y991299D02*
D03*
X1673250Y981250D02*
D03*
X1660831Y1013799D02*
D03*
X1673250Y1003750D02*
D03*
X1660831Y1036299D02*
D03*
X1673250Y1026250D02*
D03*
X1660831Y1058799D02*
D03*
X1673250Y1048750D02*
D03*
X1660831Y1081299D02*
D03*
X1673250Y1071250D02*
D03*
X1660831Y1103799D02*
D03*
X1673250Y1093750D02*
D03*
X1641169Y1093799D02*
D03*
Y1071299D02*
D03*
X1641169Y1048799D02*
D03*
X1641169Y1026299D02*
D03*
Y1003799D02*
D03*
Y981299D02*
D03*
Y958799D02*
D03*
X1611169Y958799D02*
D03*
X1611169Y991299D02*
D03*
X1596250Y981250D02*
D03*
X1611169Y1013799D02*
D03*
X1596250Y1003750D02*
D03*
X1611169Y1036299D02*
D03*
X1596250Y1026250D02*
D03*
X1611169Y1058799D02*
D03*
X1598750Y1048750D02*
D03*
X1611169Y1081299D02*
D03*
X1598750Y1071250D02*
D03*
X1611169Y1103799D02*
D03*
X1598750Y1093750D02*
D03*
X1595078Y957049D02*
D03*
X1632500Y862750D02*
D03*
X1662500Y852750D02*
D03*
X1635000Y892750D02*
D03*
X1625000Y882750D02*
D03*
X1657500Y892750D02*
D03*
X1647500Y882750D02*
D03*
X1675000Y892750D02*
D03*
X1651250Y949000D02*
D03*
X1669000Y943750D02*
D03*
X1656750Y935250D02*
D03*
X1610750Y974250D02*
D03*
X1576201Y1046331D02*
D03*
X1553701D02*
D03*
X1563750Y1058750D02*
D03*
X1531201Y1046331D02*
D03*
X1541250Y1058750D02*
D03*
X1518750D02*
D03*
X1563750Y1031250D02*
D03*
X1541250Y1031250D02*
D03*
X1518750Y1031250D02*
D03*
X1496250D02*
D03*
X1496250Y1058750D02*
D03*
X1508701Y1046331D02*
D03*
X1486201D02*
D03*
X1486201Y1073831D02*
D03*
X1496250Y1086250D02*
D03*
X1486201Y1101331D02*
D03*
X916250Y144250D02*
D03*
X911500Y130750D02*
D03*
X928295Y-2500D02*
D03*
X971797Y5250D02*
D03*
X827541Y31002D02*
D03*
X1435045Y396495D02*
D03*
X1594828Y1213061D02*
D03*
X1532250Y1225500D02*
D03*
X776288Y148257D02*
D03*
X1539075Y821291D02*
D03*
X1503750Y977000D02*
D03*
X1549075Y841209D02*
D03*
X1529075D02*
D03*
X18001Y285764D02*
D03*
X58253Y285514D02*
D03*
X61250Y248000D02*
D03*
X68750Y242000D02*
D03*
X1470500Y1026000D02*
D03*
X1488000Y1008000D02*
D03*
X866542Y1380817D02*
D03*
X505025Y1234560D02*
D03*
X535026Y1234310D02*
D03*
X390019Y1360066D02*
D03*
X507525Y1359816D02*
D03*
X474273Y1334565D02*
D03*
X474185Y1385523D02*
D03*
X423227Y1385435D02*
D03*
X423315Y1334477D02*
D03*
X593958Y1301750D02*
D03*
X527276Y1309314D02*
D03*
X528526Y1286563D02*
D03*
X572250Y1222750D02*
D03*
X550750Y1215000D02*
D03*
X584029Y1422819D02*
D03*
X570471D02*
D03*
Y1382681D02*
D03*
X584029D02*
D03*
X597319Y1409529D02*
D03*
Y1395972D02*
D03*
X543500Y1280500D02*
D03*
X556000Y1280750D02*
D03*
X569000Y1280500D02*
D03*
X582000D02*
D03*
X572750Y1239000D02*
D03*
X559278Y631181D02*
D03*
X545722D02*
D03*
Y671319D02*
D03*
X559278D02*
D03*
X557027Y466773D02*
D03*
X538026D02*
D03*
X552250Y403750D02*
D03*
X538000Y404000D02*
D03*
X557200Y531130D02*
D03*
X544200D02*
D03*
X531200Y531380D02*
D03*
X518700Y531130D02*
D03*
X534276Y1258061D02*
D03*
X547750Y491500D02*
D03*
X523526Y482273D02*
D03*
X510450Y501630D02*
D03*
X483524Y469023D02*
D03*
X494750Y559250D02*
D03*
X509500Y540000D02*
D03*
X465000Y484500D02*
D03*
X455568Y430061D02*
D03*
X479182Y417561D02*
D03*
Y442561D02*
D03*
X851750Y1375250D02*
D03*
X1507000Y831500D02*
D03*
X1495500Y898500D02*
D03*
X1505750Y898000D02*
D03*
X1609829Y445522D02*
D03*
Y407422D02*
D03*
X1586222Y353171D02*
D03*
X1470421Y456078D02*
D03*
Y379878D02*
D03*
X1470421Y417978D02*
D03*
X1679500Y324500D02*
D03*
X508750Y361250D02*
D03*
X495250Y377500D02*
D03*
X320016Y207510D02*
D03*
X331266Y196260D02*
D03*
X305015Y115756D02*
D03*
X285014Y127506D02*
D03*
X413250Y88500D02*
D03*
X435750D02*
D03*
X460750D02*
D03*
X488250D02*
D03*
X1215837Y141699D02*
D03*
X1074549Y206959D02*
D03*
X1633500Y315750D02*
D03*
X1534289Y1338821D02*
D03*
X1596867Y1326382D02*
D03*
D197*
X31250Y448250D02*
D03*
X36500Y338750D02*
D03*
D202*
X637275Y744651D02*
D03*
X91275Y769651D02*
D03*
X637275Y1374651D02*
D03*
X91275Y1335151D02*
D03*
Y635151D02*
D03*
X637275Y674651D02*
D03*
X91275Y69651D02*
D03*
X640275Y44651D02*
D03*
X0Y0D02*
D03*
X168500Y1429000D02*
D03*
D203*
X1659826Y1140794D02*
D03*
Y1213794D02*
D03*
X1660000Y1254500D02*
D03*
Y1327500D02*
D03*
D204*
X180500Y15500D02*
D03*
D205*
X392751Y276500D02*
D03*
X430250Y276500D02*
D03*
X430250Y301499D02*
D03*
X392751Y301500D02*
D03*
X430250Y289000D02*
D03*
X392751Y289000D02*
D03*
X430249Y264000D02*
D03*
X392750Y264001D02*
D03*
X430249Y251500D02*
D03*
X392750Y251501D02*
D03*
X417750Y276500D02*
D03*
X405250Y276500D02*
D03*
X380251Y276500D02*
D03*
X417750Y301499D02*
D03*
X417750Y289000D02*
D03*
X417750Y264000D02*
D03*
X417750Y251501D02*
D03*
X405251Y301500D02*
D03*
X405250Y289000D02*
D03*
X405250Y264000D02*
D03*
X405250Y251501D02*
D03*
X380251Y301500D02*
D03*
X380251Y289000D02*
D03*
X380251Y264001D02*
D03*
X380250Y251501D02*
D03*
X1349250Y972250D02*
D03*
X1348750Y998750D02*
D03*
X1322500Y972500D02*
D03*
X497250Y721500D02*
D03*
X421000D02*
D03*
X436000Y702000D02*
D03*
X527500Y699250D02*
D03*
X499750Y672500D02*
D03*
X468000Y698000D02*
D03*
X459000Y677250D02*
D03*
X356750Y909750D02*
D03*
X300000Y781500D02*
D03*
X255250Y828000D02*
D03*
X279250Y828500D02*
D03*
X280000Y804250D02*
D03*
X298250Y804000D02*
D03*
X166750Y352750D02*
D03*
Y342750D02*
D03*
Y332750D02*
D03*
X156750D02*
D03*
X146750D02*
D03*
Y342750D02*
D03*
Y352750D02*
D03*
X156750Y352750D02*
D03*
X156700Y342632D02*
D03*
X817750Y1369000D02*
D03*
X810250Y1374000D02*
D03*
Y1364000D02*
D03*
X825250Y1374000D02*
D03*
Y1364000D02*
D03*
X1525250Y1181250D02*
D03*
X1525250Y1191250D02*
D03*
X1535250D02*
D03*
Y1181250D02*
D03*
Y1171250D02*
D03*
X1525250D02*
D03*
X1515250D02*
D03*
Y1181250D02*
D03*
Y1191250D02*
D03*
X1176012Y71206D02*
D03*
X1183500Y71250D02*
D03*
Y78750D02*
D03*
X1176000D02*
D03*
X1168500D02*
D03*
Y71250D02*
D03*
Y63750D02*
D03*
X1176000D02*
D03*
X1183500D02*
D03*
X1401500Y139250D02*
D03*
X1394000D02*
D03*
X1386500D02*
D03*
Y146750D02*
D03*
Y154250D02*
D03*
X1394000D02*
D03*
X1401500D02*
D03*
Y146750D02*
D03*
X1394012Y146706D02*
D03*
X970950Y53750D02*
D03*
X963450D02*
D03*
X955950D02*
D03*
Y61250D02*
D03*
Y68750D02*
D03*
X963450D02*
D03*
X970950D02*
D03*
Y61250D02*
D03*
X963462Y61206D02*
D03*
X413000Y842539D02*
D03*
X433000Y842589D02*
D03*
X395500D02*
D03*
Y825089D02*
D03*
X413000D02*
D03*
X433000D02*
D03*
Y859989D02*
D03*
X413000D02*
D03*
X395500D02*
D03*
X318000Y581750D02*
D03*
X298000Y581800D02*
D03*
X335500D02*
D03*
Y564300D02*
D03*
X318000D02*
D03*
X298000D02*
D03*
Y599200D02*
D03*
X318000D02*
D03*
X335500D02*
D03*
X1517289Y1284571D02*
D03*
X1527289D02*
D03*
X1537289D02*
D03*
X1517289Y1294571D02*
D03*
X1527289D02*
D03*
X1517289Y1304571D02*
D03*
X1537289Y1294571D02*
D03*
X1527289Y1304571D02*
D03*
X1537289D02*
D03*
M02*
