M48
;Layer_Color=9474304
;FILE_FORMAT=4:4
METRIC,LZ
;TYPE=PLATED
T1F00S00C0.2000
T2F00S00C0.2032
T3F00S00C0.2500
T4F00S00C0.4000
T5F00S00C0.5000
T6F00S00C0.7000
T8F00S00C0.9000
T9F00S00C1.0000
T10F00S00C1.3000
T11F00S00C1.3500
T12F00S00C1.4000
T14F00S00C2.7000
T15F00S00C3.1750
%
T01
X0008175Y-000025
X00082Y00017
X00107Y0010025
X00139007Y00115006
X001395Y001445
X0015Y001395
X001665Y0014025
X0018725Y0013725
X001985Y0011875
X00196Y0010575
X00184Y0010375
X0019625Y000915
X002055Y0009175
X0020725Y000825
X00217Y0008
X002415Y0008125
X00236Y00073
X0025925Y0007
X0025675Y000835
X0025125Y0012525
X0023225Y001295
X00228Y0011625
X002335Y00170038
Y0017575
X001955Y001744
Y001689
X0019775Y001605
X00164265Y00165733
X00152514Y00183984
X001245Y001885
X0012425Y00179
X0012025Y001725
X0011975Y00164
X00110762Y00160483
X00103262Y00158983
X001005Y00149
X00083261Y00148482
X00081011Y00158733
X00073761Y00160483
X0006725Y001665
X000675Y00174
X0006275Y0017875
X00068Y00184
X0006275Y0018925
X000685Y00194
X0006575Y0021
X00079Y002165
X0008625Y002045
X0009825
X0009825Y001925
Y001805
X0008625
X0008625Y001925
X0008625Y001685
X0009825Y001685
X0011775Y001845
X0012325Y0019725
X00119Y0020375
X00110762Y00212736
X00103262Y00213986
X00133764Y0022075
X00147014Y00227236
X00165015Y00222736
X00190516
X002Y0021575
X00187016Y00246987
X00170515Y00254988
X00196Y002705
X00233261Y00278264
X0025125Y00243
X0026375
X00276514Y00243012
X00298765Y00249012
X0030375Y0024175
Y0023625
X0031575Y0022675
Y0022125
X00298765Y00216511
Y00261263
X0030375Y0028125
X0030375Y0028675
X00296765Y00292514
Y00305265
X0030375Y0031125
Y0031675
X0031575Y0032625
Y0033175
Y0030175
Y0029625
X00251012Y00322016
X00233261Y00331766
X00195266Y00332991
X00187016Y00318491
X00175516Y0030849
X001635Y003025
X00156515Y0030424
X0014875Y003035
X00121263Y0030124
X00105512Y0030149
X00095262Y0029849
X00081511
X0008775Y0029225
X00093Y002775
X0006975Y0027675
X0006075Y002735
X00050749Y00240262
X00043251
X00033749Y00240262
X00026251
Y00224511
X00033749
X00043251Y00224511
X00050749
X0008625Y00238
X0011925Y00258
X00119Y002695
X00112762Y0031274
X00110262Y00327741
X0007251Y00324241
X0006675Y00313
X00042509Y0030999
X00031759Y0030349
X0002525Y0029775
X00019008Y0030349
X00049Y00149102
X0005225Y00144
X0007Y001325
X000805Y001335
X001535Y000715
X0026575Y0003525
X0028425
X0030675Y00033
X0032Y0007925
X0031925Y0009925
X003125Y0009275
X00326733Y00172008
X0026575Y0000375
X003345Y00085
X00342767Y00169758
X00343267Y00177758
X00335492Y00185517
X0035Y00187
X003555
X00365Y00175
X003705
X00376768Y00167508
X00358768Y00168008
X00360262Y00206024
X00345262Y00206024
X00375262Y00206024
X00390262Y00206024
X003855Y00187
X0038
X00395Y00175
X004005Y00175
X0040875Y001725
X00416
X00425Y00175
X004305
X004365Y0016725
X0044275Y001785
X0044Y00187
X004455
X00455Y00175
X004605
X00454Y001675
X0046825Y0016725
X0047225Y0018375
X0048125Y00185
X0052475Y0018225
X005215Y00174
X00523Y0015225
Y0014675
Y0012725
Y0012175
X005365Y001345
Y0014
Y00159548
Y00165048
X00546Y0015575
X00553027Y00168508
X00566Y0018025
X005715
X00574028Y00157008
X005715Y00143
X00566
X00553027Y00130506
X0056075Y001175
X0057525Y0011675
X00596625Y00118001
X00609325
Y00105301
X00622025
Y00118001
X00634725
Y00130701
X00647425
Y00143401
Y00156101
X00634725
X00622025
X00609325
Y00168801
Y00181501
Y00194201
Y00206901
X00596625
Y00219601
Y00232301
X005845Y0023275
X005715Y0023225
X00596625Y00245001
X00609325
X00622025
Y00232301
X00634725
Y00245001
Y00257701
X00622025
X00609325
Y00270401
Y00283101
Y00295801
X00596625
Y00321201
X00609325
X00622025
Y00308501
X00609325
X00634725
Y00295801
X00647425
X00660125
X00672825
Y00283101
X00660125
Y00270401
Y00257701
Y00245001
Y00232301
X00647425
Y00219601
X00634725
Y00206901
Y00194201
Y00181501
X00647425
Y00194201
X00660125
Y00206901
Y00219601
X00672825
Y00232301
X00685525
Y00219601
X00698225
Y00206901
X00685525
Y00194201
Y00181501
X00672825
Y00168801
X00660125
Y00156101
X00672825
Y00143401
X00685525
Y00130701
Y00118001
X00672825
X00660125
Y00105301
X00647425
X00672825
X00698225
Y00118001
X00710925
Y00130701
Y00143401
Y00156101
Y00168801
Y00181501
X00723625
Y00194201
Y00206901
Y00219601
Y00232301
Y00245001
X00710925
Y00232301
X00698225
Y00245001
Y00257701
Y00270401
X00685525
X00672825
Y00257701
Y00245001
X00685525
Y00257701
Y00283101
Y00295801
Y00308501
X00698225
Y00321201
X00685525
X00672825
X00660125
Y00308501
X00647425
X00672825
X00698225Y00295801
X00710925
Y00283101
X00698225
X00723625Y00270401
Y00257701
Y00308501
Y00321201
X00634725
Y00283101
Y00270401
X00647425
Y00283101
X00622025
Y00295801
X00596625Y00270401
Y00257701
X00609325Y00232301
Y00219601
X00596625Y00194201
Y00181501
Y00168801
Y00156101
Y00143401
X00622025
Y00130701
X00660125
Y00143401
X00672825Y00130701
X00698225
Y00143401
Y00156101
Y00168801
Y00181501
X00710925Y00194201
X00672825
Y00206901
X00660125Y00181501
X00647425Y00168801
X00685525
Y00156101
X00723625Y00143401
Y00130701
Y00105301
X0057535Y000918
X0056615
X0056175Y0007625
X005865Y000325
X005955Y0002825
X0050225Y0001975
X00497Y0003175
X004665Y00033
X00459Y00038
Y00048
X004465
X00435262Y00206024
X00420262
X004155Y00187
X0041
X00475727Y00231512
Y00246512
Y00261512
Y00276512
Y00291512
Y00306512
X00475727Y00321512
X0049475Y0031675
Y0031125
X00516525Y00308515
X0051075Y00301798
Y00296298
X0051075Y0027175
Y0026625
X0052075Y0025675
Y0025125
X0051075Y0024175
Y0023625
X0052075Y0022675
Y0022125
X0051375Y0021175
X0053425Y00213251
Y00200551
X0049825Y002485
X004595Y002595
X00459272Y00291514
X0051075Y0032625
Y0033175
X0055025Y00292
Y002865
X00375268Y00330516
X00360268
X00334774Y00321488
X00334774Y00306488
Y00291488
Y00276488
Y00261488
Y00246488
Y00231488
X00351Y00251275
Y00256725
X0073975Y0020675
X0073525Y0018075
X0081675Y0014975
X00830291Y00113006
X0082425Y00093
X00819291Y00073004
X0081325Y00052694
X0093745Y0005875
X00937034Y00068446
X0092875Y0007875
X00947285Y00081447
X0095345Y0008875
X00973473
X00979536Y00080947
X00989787Y00068446
X009987Y000685
X0098945Y00059
X0098045Y00041
X009462Y0004175
X0108425Y00031
X010585Y0023775
X01042Y002935
X0104075Y0032175
X009715Y0033225
X0097Y0030225
X00976405Y00213845
X00980436Y00209814
X0082129Y0020801
X0082979Y00233011
X00792447Y0025875
X00776038Y00283514
X0121525Y0027425
X0125575Y0027625
X01246789Y00301267
X01274125Y00297185
X01266875Y00312686
X01263528Y00321411
X01270562Y00255263
X01326301Y0030021
X01374696Y00324538
X01431056Y0029971
X01479441Y00324788
X0149625Y0016725
Y0015725
X0149625Y0014725
X0149625Y0013725
X0151125Y0014225
X0151125Y0013225
X0150875Y0011925
X0151125Y0015225
Y0016225
X0142925Y00154
X01420337Y00153946
X0142Y001445
X01411Y001265
X0137675Y0012725
X01368Y0014425
X01367584Y00153946
X01377835Y00166947
X01384Y0017425
X01404023
X01410086Y00166446
X0136Y00177
X01352816Y00096755
X01346066Y00082004
X01348Y000645
X01362066Y00059503
Y00072503
X01314064Y00078004
X01305314Y00069003
X01282813Y00079754
X01280941Y00093247
X01275915Y00115976
X01298902Y00111208
X01293875Y00133937
X01327565Y00046002
X013495Y-0000175
X01386568Y-000025
Y0000875
Y00021251
X01417819Y00021751
Y00034002
Y000085
Y-00003
X0143007Y00067003
X01452821Y00069253
X0121125Y000785
X01202337Y00078446
X01202Y00069
X01193Y00051
X0115875Y0005175
X0115Y0006875
X01149584Y00078446
X01141Y0009025
X01159835Y00091447
X01166Y0009875
X01186023
X01192086Y00090947
X01141806Y00014501
X01204Y00214
X01537Y00214303
X0154775Y0021375
X01547Y002225
X0155675Y0022125
X015605Y002275
X0156125Y0023625
X0155675Y0024375
X015605Y0025
X0156125Y0025875
X0154775
X01537Y00259303
X01537Y00236803
X0154775Y0023625
X01547Y00245
X01547Y002
X0154775Y0019125
X01537Y00191803
X01526625Y00187625
X0152825Y0017825
X01520574Y00174258
X0153775Y0016775
X0154975
Y0015575
X0153775
Y0014375
X0154975
Y0013175
X0153775Y0013175
X0153625Y00116
X0154375Y0011575
X015405Y0010825
X0153475Y00102553
X015465Y0009975
X0154675Y0008975
X015565Y000895
X0156Y00081
X0156025Y0007225
X01558Y0006375
X0156Y00056
X0154775Y0005825
X0154675Y0006725
X0154775Y0008075
X0153675Y00081553
Y00059053
X0154675Y0004475
X015565Y00043
X0156925Y0004975
X01589505Y00059922
X01594495Y00071077
X01588078Y00082505
Y00097505
X01589Y00103
X01602Y00105
Y00095
X01612
X01622
Y00105
X01612
Y00115
X01622
X01632
Y00105
Y00095
Y00085
X01622
X01612
X01602
Y00115
X01588078Y00117505
X0156925Y0011725
X01569077Y00128006
X015755Y0013275
X01581Y00136
X0158275Y001425
X0158925Y00143
X015945Y0014025
Y0015125
X016045Y0015825
X016145Y001635
Y0014625
X01629495Y00140077
X01634505Y00128923
X01619505
X01645923Y00122495
Y00102495
X01657077Y00097505
X016635Y0009325
X0166375Y0010625
X0167675Y001055
X01700861Y00108129
X0170475Y00112018
Y00134518
X01700861Y00130629
X0168575Y0013675
X016885Y00155
X016685Y0015475
X0167125Y0012825
X016695Y000725
X01645923Y00077495
X01634495Y00071077
X01619495
X016145Y000555
X016045Y0004825
X01587328Y00030752
X01629505Y00059922
X01682Y00052
X0169125Y000575
X0170375
X01709Y00041
X0168575Y0002975
X0172825Y0002
X017265Y000685
X0172825Y000875
Y0011
Y001325
Y00155
Y001775
Y002
Y002225
Y00245
X01708333Y00247262
X0170828Y00241549
X0169275Y002535
Y00259
X01688832Y00264418
Y00271013
X0169275Y00276
Y002815
X01688832Y00286264
Y00293014
Y00304265
Y00311265
X0171775Y003125
X0172825
Y0029
Y002675
X0170475Y00202018
X01700861Y00198129
X0170475Y00179518
X01700861Y00175629
X01681Y0017975
X0166325Y0018175
X0166475Y0020225
X01657077Y00207505
X016635Y002165
X01662Y002365
X01645923Y00232495
X01634505Y00238923
X01619505
X01622Y00225
Y00215
Y00205
X01612
Y00215
X01602
Y00205
X01602Y00195
X01612
X01622
X01632
Y00205
Y00215
Y00225
X01612
X01602
X01588078Y00227505
X01590358Y00213101
X01588078Y00207505
Y00192505
X01594495Y00181077
X01589505Y00169923
X0157825Y0016725
X015715Y0017225
X0155675Y0017725
X015605Y001825
X0156125Y0019125
X0155675Y0019875
X015605Y00205
X0156125Y0021375
X01594505Y00238923
X01589495Y00250077
X01602Y0026125
X016145Y00254
X01629495Y00250077
X01645923Y00212495
X01645923Y00187495
X01634495Y00181077
X01619495
X01629505Y00169923
X0155825Y001235
X01558Y0011175
X0156Y00101
X0156925Y0009475
X0152825Y0012125
X0152025Y00124
X01673Y003435
Y00349
Y0036575
Y0037125
Y003885
Y00394
X01673Y00411
Y004165
X016685Y00432
X01673Y00456
Y004615
X0166625Y0046765
X01666331Y00474773
X016735Y00478452
Y00483952
X01673Y0050125
Y0050675
X016725Y00512275
Y00517975
X01673Y005235
Y00529
X0165525Y0053565
Y0054135
X01639Y0054145
Y0053575
X016205Y00526
X01596Y0051625
X01597Y0050925
X01611Y004985
X0165675Y0051225
Y0051795
X0167675Y0054975
Y0055545
Y005685
Y005742
X0169275Y00574
Y005685
X01693Y005556
Y005499
X01700861Y00580629
X0170475Y00584518
X0169275Y00591
Y005965
X01700861Y00603129
X0170475Y00607018
X0169275Y006135
Y00619
X01700861Y00625629
X0170475Y00629518
X01714375Y006275
X0172825
Y00605
Y005825
Y0056
Y005375
Y00515
Y004925
Y0047
Y004475
Y00425
Y004025
Y0038
Y003575
Y00335
X01648Y0046775
Y0047325
X01638366Y00563884
X0163433Y00568028
X0164783Y00577028
X0165333
X016765Y00591
Y005967
Y00613
Y006187
X01676279Y00635775
Y00641475
X0169275Y006415
Y00636
X0171725Y006455
X0172825Y0065
X0165025Y0064
X016535Y00636
X01589Y00593
X015925Y0058925
X01436Y007255
X01277812Y00729036
X0126825Y0071775
X01258061Y00709285
X01184558Y00721285
X01174539Y00729078
X011745Y007135
X011645Y007015
X01155806Y00709285
X011415Y00723546
X01206Y0047675
X012825Y0049575
X012775Y0043075
X01125805Y00427521
X0137525Y003505
X01413556Y00376351
X01423306Y00377601
X01435557
X0143228Y00387337
X01118805Y00420521
X01094303Y0041277
X0081775Y0042675
X0082Y0037275
X00805Y00513
X0081475Y00537
X0081075Y0057525
X0079875Y005635
X008015Y006
X007765Y0060075
X0077525Y00627
X007755Y00636
X00743
X0074275Y00627
X007425Y0060075
X00735Y005865
X0074325Y0057625
X007425Y00561
X0073525Y00551
X00743Y0053625
X0075625Y0053825
X00770038Y00549527
X00762Y005125
X007655Y004735
X0075975Y0058825
X007595Y0061225
X00727Y006125
X00940429Y00705
X00955299Y0071987
X00965299Y0072987
X009705Y00707
X00984223Y00707527
X00983682Y0071987
X01016477Y00697273
X010298Y00710535
X01045051Y00711785
X01052301Y00719285
X01061302Y00728286
X01075Y007285
X01086Y00725937
X01096553Y00721535
X01107804Y00718035
X01072802Y00712535
X007105Y00636
X0071025Y00627
X00710925Y00613301
Y00600601
X00698225
X00685525
Y00587901
X00698225
X00710925
X0072425Y00588
X007245Y0057525
X00723625Y00562501
X00698225
Y00575201
X00685525
Y00562501
Y00549801
X00698225
Y00537101
Y00524401
Y00511701
Y00499001
Y00486301
X00710925
Y00473601
X00723625
Y00460901
X00723625Y00448201
X00710925
Y00435501
X00723625
X00723625Y00422801
Y00410101
Y00397401
Y00384701
X00710925
Y00397401
X00698225
X00685525
X006855Y0038525
X00672825Y00384701
X00660125
Y00372001
X00647425
X00634725
Y00359301
Y00346601
Y00333901
X00647425
X00660125
Y00346601
X00672825
Y00333901
X00685525
Y00346601
Y00359301
X00698225
Y00372001
Y00384701
Y00410101
X00685525
Y00422801
X00698225
Y00435501
X00685525
Y00448201
Y00460901
X00698225
Y00473601
X00685525
Y00486301
Y00499001
X00672825
Y00486301
X00660125
X00647425
Y00473601
X00634725
Y00486301
Y00499001
Y00511701
X00622025
Y00524401
Y00537101
Y00549801
Y00562501
X00634725
X0063475Y0055025
X00635Y00537
X00647425Y00537101
X006475Y0054925
X00660125Y00549801
Y00537101
Y00524401
X00647425
X00634725
X00609325
Y00537101
Y00549801
Y00562501
Y00575201
X00622025
X00634725
X00647425
X006475Y00563
X00660125Y00562501
Y00575201
Y00587901
X00647425
Y00600601
Y00613301
X00660125
Y00600601
X00634725
Y00587901
X00622025Y00600601
X00609325Y00613301
X0060525Y00624
X006055Y00633
X00638
X0063775Y00624
X00685525Y00613301
X00698225
X00672825Y00575201
X00673Y0056225
Y0055
X00672825Y00537101
X00685525
Y00524401
Y00511701
X00672825
Y00524401
X00660125Y00511701
X00647425
Y00499001
X00660125
Y00473601
Y00460901
Y00448201
X00672825
Y00460901
Y00473601
X00647425Y00460901
X00634725
Y00448201
Y00435501
Y00422801
Y00410101
X00647425
Y00422801
Y00435501
Y00448201
X00622025
Y00435501
Y00422801
Y00410101
X00609325
X00622025Y00397401
X00634725
Y00384701
X00647425
Y00397401
X00660125
Y00410101
X00672825
Y00422801
Y00435501
X00660301Y00435449
X00660125Y00422801
X00673276Y00397326
X00672825Y00372001
X00685525
X00710925
X00723625
Y00359301
X00710925
Y00346601
Y00333901
X00698225
Y00346601
X00647425
Y00359301
X006595Y0035925
X00609325Y00359301
X00596625
Y00372001
Y00384701
X00609325Y00372001
Y00346601
Y00333901
X00596625
Y00346601
X005535Y003735
X00515775Y00343017
X00450238Y00346976
X00435238
X00420238
X00405238
X00390238
X00375238Y00346976
X00360238
X0033525Y0033625
X00358Y00382
X00365Y0038175
X003705
X00377Y003825
X00395Y00378
X004005
X0040577Y00385769
X0041Y00366
X004155
X00425Y00378
X004305
X00435771Y00385769
X00449522Y00385519
X00455Y00382
X004605
X00472273Y00387269
X004455Y00366
X0044
X0043575Y004285
X0039025
X003895Y004565
X00375018Y00443272
X0035175Y0042725
X0033825Y00416
X0033125Y004095
X0035025Y00402
X0035575
X00385548Y003975
X00391048
X00385019Y00560777
X00380769Y00574278
X00391019Y00595779
Y0061853
X004055Y006355
X0040575Y0064575
X0038025Y0064325
X00359Y0065625
X003485Y0066225
X0036875Y00705
X0036075Y0071625
X0045325Y0072675
X0046975Y0068575
X00466Y0065975
X0052225Y0064575
X00516Y006355
X00533529Y00651184
X0055875Y00619
X0059625Y00601
X00596625Y00587901
Y00575201
X00609325Y00511701
Y00499001
Y00486301
Y00473601
X00622025
Y00486301
Y00499001
Y00460901
X00609325
X00596625Y00448201
Y00435501
Y00422801
X00698225Y00448201
X00723625Y00486301
Y00499001
Y00511701
Y00524401
X00710925
Y00549801
X00723625Y00537101
X00483274Y00557027
X00342017Y00541776
X00348517Y00525026
X00592Y0071075
X00601Y00716
X0031975Y0072675
X0032425Y0066075
X00287Y006485
X00299015Y00628781
X00283514Y0061353
X0025675Y0058125
X002515Y0053075
X0026175Y005075
X00269Y0051275
X0029925Y005075
X0031175
X0032425Y00497
X002965Y00492
X002795Y00432
X0026175Y0043
X0026475Y0041825
X00301265Y0040202
X0031025Y0039075
X0030325Y0038175
X0032125Y0036375
X00321Y0040025
X00284014Y00346267
X00268263
X001955Y00345
Y003505
X0019751Y00355767
X00195266Y00362243
X001925Y003735
X00196078Y0033825
X00125508Y00350193
X00118763Y00358743
X00109012Y00363493
X001095Y003815
X0011925Y0037525
X0013625Y0037675
X00130509Y00363694
X0011325Y003435
X0006101Y00336992
X0005401Y00338992
X0005Y0035275
X00039509Y00347492
X0003175Y003435
X00041759Y00387494
Y00397744
Y00406745
X0004Y004355
X0005775Y0042525
X0006075Y004485
X0008175Y0044425
X0009575Y0042475
X0010975Y0041325
X00133Y00409
X00126013Y00448495
X001115Y0045525
X0008725Y0047325
X0003475Y0047875
X00017992Y00398005
X00075511Y00398995
Y00406495
X00154764Y00448495
X00179766
X00192266
X00198Y005285
X0019525Y005405
X001935Y0055525
X0019951Y00577778
X00194759Y00601039
Y00606289
X0020276Y00624779
X0019476Y00636039
Y00641289
X0020276Y00660279
X0019476Y00671039
Y00676289
X0020276Y00707279
X0020425Y0071825
X0019476Y00723785
X001535Y0070875
X00145989Y00703795
X00126511Y00723795
Y00676295
X00108505Y00684533
X00103505Y00698784
X00080754Y00697034
X0000725Y0069125
X00145944Y0065625
X001535Y0066125
X00136257Y00644781
X00145989Y00621295
X001535Y0062625
X00136Y006105
X0012175Y0060125
X0010625Y006025
X00145989Y00586295
X001535Y0059125
Y0074375
X00146Y0073875
X00126518Y00753777
X00145989Y00773795
X001535Y0077875
X00158Y0080825
X00166508Y0081679
X00149509Y0081704
X00132509
X00141Y008085
X00124
X0009675Y00831
X00100255Y00846791
Y00863542
X00110255
X00115256Y00882793
X00105255
X00095255
X00070253
X00060753
X00065Y0086025
X0004275Y0082625
X00047502Y00797039
X00059003Y00780288
X00080504Y00731536
X000975Y007375
X00103005Y00732286
X0020301Y00742279
X00194767Y00753521
Y00758771
X0021Y0076575
X0020276Y00777279
X0019476Y00788539
Y00793789
X001935Y00805
X002015
X002135Y008075
X0021175Y0082675
X0020275Y00834
X0016225Y00845
X00150007Y00846791
X00150257Y00863542
X00160258
X00155258Y00882793
X00145257
X00190509Y00903044
Y00913295
Y00923295
Y00933296
X001849Y00943
X00190509Y00953547
Y00963297
Y00973298
Y00983298
X0020976Y00988298
Y00978048
Y00968047
X0021025Y0095825
X00226511Y00958047
X00229761Y00948796
X0020976Y00938296
Y00928295
Y00918045
X0021Y0090825
X00226Y00908
X002435Y0090475
X0026725Y0089075
X0026275Y0087375
X0025525Y0086575
X002795Y0087475
X00293Y0087525
X0031775Y0075475
X0031925Y007405
X00325766Y01042301
Y01054551
Y01067302
Y01080053
X00326Y0109675
X00233011Y01104054
X00241762Y01117804
Y01124305
X0021376Y01110804
X0020875Y0108175
X00206Y01059
X0021625Y0104775
X00233Y0104275
X00252012Y01041801
Y01054551
X00243262Y01070302
Y01078303
X002275Y010705
X00170758Y01068302
X00170758Y01087553
X00158135Y01088553
X0015025Y0109225
X00155758Y01104304
Y01116805
X00175009Y01110804
Y01123805
X001135Y01126
X00113756Y01101554
X00095005
X00097255Y01115054
X0005875Y011045
X000485Y01125
X00069253Y01055801
X00070253Y01042801
X00060503
X0004975Y010345
X00049752Y01013549
Y01003049
X00030501Y01008299
Y00993048
Y00983048
Y00973047
Y00963047
X00022251Y00954297
Y00947296
X000275Y0093975
X00030501Y00933046
Y00923295
Y00913045
X00022501Y00904294
Y00896294
X000225Y0088625
X00009Y00888
X0001175Y0091625
X00049752Y00918045
Y00908294
Y00927795
Y00938296
Y00958047
Y00968047
Y00978298
X0006425Y0098825
X00065253Y0102355
X00075254
X00085254
X00095255
X00115256
X00110505Y01042801
X001305Y0104525
X001385Y01051
X0014825
X0015925Y0104725
X0015775Y0106175
X00149257Y01068302
X0013975Y0108375
X00140507Y0102105
X00150007Y0102355
X00160008
X00170258
X00175259Y01042801
X00218011Y01012549
Y01005799
X002275Y009995
X0024075Y00993
X00080254Y01042801
X000165Y0096625
X0001275Y00809
X0000025Y00812
X00005Y0080075
X0033425Y008345
X00354267Y00874049
X00383Y008755
X00380732Y00902376
X00393Y00901089
X0038475Y0091825
X00379Y00925
X0037075Y0090925
X0034625Y009065
X00353267Y00961297
X0040427Y00971047
Y00980799
Y00990799
Y01000799
Y01010799
X0040429Y01020886
X0041852Y010158
X0041873Y01005799
Y00995799
Y00985799
X0041852Y00976048
Y00955797
X0040427Y00951046
X0041577Y00936296
X00416476Y0090725
X0043675Y009145
X00464523Y00912301
X0044475Y00881
X00492274Y00874049
X0051925Y00873
X0052075Y00852306
Y00846806
Y0082675
Y0082125
X0053425Y00834
Y008395
Y00859604
Y00865104
X00543777Y00855042
X0055Y00869
X0056375Y0087975
X0056925
X00572008Y00856508
X0056925Y008425
X0056375
X00550777Y00830006
X005585Y00817
X00573Y0081625
X00574028Y00796289
X0056125Y007965
X005725Y0076825
X00591375Y00769551
X0059075Y0075475
X00609325Y00805301
Y00818001
X00596625
Y00843401
Y00856101
Y00868801
Y00881501
Y00894201
X00609325
Y00906901
Y00919601
X00596625
Y00932301
Y00945001
Y00957701
Y00970401
Y00983101
X00609325
X00622025
Y00995801
X00634725
Y01008501
Y01021201
Y01033901
X00647425
Y01046601
X006595Y01046
Y0105875
X00647425Y01059301
Y01072001
X00634725
X00622025
Y01084701
Y01097401
Y01110101
Y01122801
X00634725
X00647425
X00660125
X00672825
Y01110101
Y01097401
Y01084701
Y01072001
X0067325Y0105975
X00685525Y01059301
Y01072001
Y01084701
X00698225
X00710925
X00723625
Y01097401
X00710925
Y01110101
X00698225
Y01097401
X00685525
Y01110101
Y01122801
X00698225
X00710925
Y01072001
Y01059301
X00698225
Y01046601
Y01033901
X00685525
Y01021201
Y01008501
X00698225
X00710925
Y00995801
Y00983101
Y00970401
X00698225
Y00957701
X00685525
X00672825
Y00945001
Y00932301
X00660125
Y00919601
X0066025Y0090725
X00672825Y00906901
Y00919601
X00685525
Y00932301
Y00945001
X00698225
Y00932301
Y00906901
X00710925
Y00919601
X00723625Y00932301
Y00945001
Y00957701
X00685525Y00970401
X00672825
X00660125
Y00983101
Y00995801
Y01008501
X00672825
Y00995801
Y00983101
X00685525
X00698225
Y00995801
X00685525
X00698225Y01021201
X00723625
X00710925Y01033901
Y01046601
X00685525
X00672825Y01033901
Y01021201
X00660125
X00647425
Y01008501
Y00995801
Y00983101
Y00970401
Y00957701
X00634725
X00622025
Y00970401
X00634725
Y00983101
Y00945001
Y00932301
X00647425
Y00919601
X00634725
Y00906901
X0064725Y0090675
X00647425Y00894201
X00660125
Y00881501
X00672825
Y00868801
X00685525
Y00856101
Y00843401
X00698225
Y00830701
X00710925
X00723625
Y00818001
Y00805301
X00698225
X00672825
X00660125
Y00818001
X00647425
X00634725
Y00830701
X00622025
Y00843401
Y00856101
X00609325
Y00868801
X00622025Y00881501
X00634725
Y00894201
X00622025
Y00906901
Y00945001
X00647425
X00660125
Y00957701
X00672825Y00894201
X00685525
X00698225
Y00881501
Y00868801
X00710925
X00723625
Y00881501
Y00894201
X00710925
Y00881501
X00685525
Y00906901
X00672825Y00856101
Y00843401
Y00830701
X00660125
Y00843401
Y00856101
X00647425
Y00868801
X00660125
X00647425Y00881501
Y00843401
Y00830701
X00672825Y00818001
X00685525
X00710925
Y00843401
X007105Y008565
X0069875
X00622025Y00818001
Y00805301
X00516Y0079375
X00501813Y0078025
X00491774Y00798046
X00488774Y00810546
X00477273Y00806546
X004785Y0078725
X00473Y0077175
X004595Y0075475
X004585Y0074075
X0043875Y00782089
X00431521Y00795045
X0040202Y00790545
X00380732Y00780962
X00389Y00771
Y00761
X0037925Y00810789
X00386019Y01006299
X00380769Y0103155
X00370518Y010358
X00361268
X00346517Y01043301
X00351517Y01077553
X00361518
X00370518
X0039977Y01081303
X0041577Y01081053
Y01073802
X0041852Y010358
X00451Y0102075
X0045525Y0099625
X0046525Y0098725
X0047815Y009855
X0048225Y010095
X00507275Y01007049
Y00999799
X00524952Y00974335
X00552527Y00963297
X00550027Y0101955
X00522525Y010293
X00499524Y01041051
Y01050801
X00485274Y01055801
Y01045801
X00468023Y01043051
Y01063302
X00492774Y01069552
X00491024Y01089053
X0054125Y0105675
X00596625Y01059301
Y01072001
Y01084701
Y01097401
X00609325
Y01110101
Y01122801
X00634725Y01110101
Y01097401
X00660125
Y01084701
Y01072001
X00647425Y01084701
Y01110101
X00660125
X00698224Y01072
X00634725Y01059301
Y01046601
X00622025Y01033901
Y01021201
X00609325
X00596625
Y01008501
Y00995801
X00609325Y01033901
Y01046601
X00596625
X00622025Y01059301
X00609325Y01072001
Y01084701
X00499524Y00956047
X00485274Y00961047
Y00950796
X0051925Y009105
X00541Y008855
X004005Y011165
X00725Y01061
X007695Y010585
Y01053
X00782538Y01061302
X00796Y010585
X00816Y0105975
X008245Y010535
X0082404Y0103255
X008125Y0102525
X00812Y01008
X0081579Y00990298
X00786038Y00990048
X00785788Y00981798
X0079875Y00971
X00841541Y00963297
X00854Y00967
X0086025Y00974
X00860292Y00982548
X0086025Y0099025
X00861Y010325
Y01038
X0084625Y010555
Y01061
X00841291Y01071052
X008515Y01081
X00853Y0109675
X0085275Y0111325
X0084025Y0112025
X0083775Y0109825
X0081725Y0109625
X008145Y011195
X0081129Y01072052
X00778288Y01040301
X0077825Y0102225
X007905Y0102
X00780538Y01009549
X007655Y010095
X0076325Y0094125
Y0093575
X007315Y0091975
X0073275Y009065
X0076975Y0089055
Y0088505
X0079465Y0087785
Y0087235
X0081529Y00891043
Y00910794
X00821Y0093825
X00857057Y00942411
X0086625Y00948
X00864503Y00934965
X00882043Y00933546
X00904064Y00940828
X00904Y0095025
X00914
X00914064Y00940828
X00924064
X00924Y0095025
X00934
Y009405
X00934064Y00930828
X00944064
X00944064Y00940828
X00944064Y00950828
Y00960828
X00934064
X00924064
X00914Y0096025
X00904064Y00970828
Y00980828
X0090425Y009905
X0091425
X00914064Y00980828
X00924064Y00980828
X00934064
Y00970828
X00944064
X00954064
Y00980828
X00964064
X00974064
X00984064
X00994064
X01004064
X01004Y0099075
X01004064Y01000828
X01014064
X01024064
Y00990828
X01014064
Y00980828
X01024064
X01034064
Y00990828
Y01000828
X01044064
Y00990828
Y00980828
X01054064
Y00990828
Y01000828
Y01010828
X01064064
Y01000828
Y01020828
Y01030828
X01054064
X01044064
X01034064
X01024064
X01014064
Y01040828
X01024064
Y01050828
X01014064
Y01060828
X01024064
X01024Y0107075
X01034
X01034064Y01060828
Y01050828
Y01040828
X01044064
Y01050828
X01054064
Y01040828
X01064064
X01064Y0105
X0107425Y0105175
X01084064Y01050828
X01084Y0106025
X01094
X01094064Y01050828
Y01040828
X01104064
X0111175Y0103975
X0111525Y010425
X01114064Y01050828
X01104064
X01104Y010605
X011135
X0111375Y0107075
X01104064Y01070828
X01094064
X01084064
Y01080828
Y01090828
X01074064
X0106425Y0109075
X01063142Y0108175
X01054Y01083
X01054064Y01090828
X01054142Y01100514
X01044064Y01100828
X01044064Y01090828
X01034064Y01090828
Y01080828
X0104375Y01081
X01044Y0107075
X01044064Y01060828
X01054064
X01074064Y01070828
Y01080828
Y01100828
X0106425Y01101
Y01111
X01074064Y01110828
Y01120828
X01084128Y0112075
X01094128Y01120656
X01094Y01111
X01094064Y01100828
X0110375Y0110075
X01104064Y01091078
X01114064Y01090828
X01114Y011005
X0111375Y0108075
X01103628Y01081
X01094064Y01080828
X01084064Y01100828
X01104064Y01110828
X01114064Y01120828
X0106425Y0112125
X0105375Y0112075
X01044064Y01120828
X01044064Y01110828
X0105375Y0111075
X01034064Y01110828
X0102475Y01111
X01024064Y01120828
X01034064
X01014064Y01120828
Y01110828
X01004064
Y01100828
X01014064
X0102375Y0110075
X01024064Y01090828
Y01080828
X01014064Y01090828
X01004064
X00994064Y01090828
Y01080828
X00984064
X00974064
Y01090828
X00974Y011005
X00984
X00984064Y01090828
Y01070828
X009935Y0107075
X00994064Y01060828
X00994064Y01050828
X00984064Y01050828
Y01040828
X00974064
Y01030828
X00984064
X00994064
Y01040828
Y01020828
Y01010828
X00984064
X00974064
X00964064
X00954064
X00954Y010205
X00944
Y0101075
X00944064Y01000828
X00954064
X00964064
X00974064
X00984064
X00994064
X01004064Y01010828
X01014064
X01024064
X01034064
X01044064
Y01020828
X01054064
X01034064
X01024064
X01014064
X01004064
X01004Y0103
X01004064Y01050828
Y01060828
Y01070828
X01014064Y01070828
X00974064Y01070828
X00964Y010705
X00964064Y01080828
Y01090828
X00964Y011005
Y0111125
X00964064Y01120828
X00974064
X00974Y0111125
X00984
X00984064Y01120828
X00994Y0112075
Y0111075
X00994064Y01100828
X01004064Y01120828
X01034064Y01100828
X009535Y0111125
X0093425Y011205
X00934Y011005
X00944064Y01090828
X00944Y0108075
Y0107075
Y01061
X00944064Y01050828
Y01040828
X00934064
X00924064
Y01050828
X00934064
X00914064
Y01040828
X00904064
Y01050828
X00895544Y01061302
X00914064Y01060828
X00924064Y01070828
X00923795Y01090553
X00914064Y01080828
X00914Y011005
X00892997Y01080189
X0095425Y0108125
X00954064Y01060828
Y01050828
Y01040828
Y01030828
X00944064
X00934064
X00924064
X00924Y010205
X00924064Y01010828
X00924064Y01000828
X00934064
Y01010828
X00934Y010205
X00914
X00914064Y01010828
X00914064Y01000828
X00904064
X00904Y010205
X0091325Y0103
X00924392Y00991014
X00934392
X00944128Y00981406
X00954064Y00990828
X00964064Y00970828
X00974064
X00984064
X00994064
X01004064
Y00960828
X00994064Y00960828
Y00950828
X01004064
X0100425Y0094125
X01014064Y00940828
X01014142Y00950514
X01024Y0095075
X01024064Y00940828
Y00930828
X01014064
Y00920828
X01024064
Y00910828
X01014064
X01004064
X00994064
X00984064
X00974064
Y00920828
X00984064
X00994064
X01004064
Y00900828
Y00890828
X00994064
Y00900828
X00984064
Y00890828
X00974064
Y00900828
X00964064
Y00890828
Y00880828
Y00870828
Y00860828
X00974064
X00984064
Y00850828
Y00840828
X00994064
Y00850828
X01004064
Y00840828
X01014064
Y00850828
X01024064
Y00860828
X01014064
X01004064
X00994064
Y00870828
Y00880828
X01004064
X0100375Y0087125
X01014064Y00870828
X01024064
Y00880828
X01014064
Y00890828
X01024064
Y00900828
X0101475Y0090125
X01034064Y00900828
Y00890828
Y00880828
Y00870828
X01044064
X01054064
X01064064
X01064064Y00860828
X01074064
X01084064
Y00870828
Y00880828
X01074064
Y00890828
X01064064Y00890828
Y00900828
X01054064
Y00890828
X01044064
Y00900828
Y00910828
Y00920828
Y00930828
Y00940828
X01054064
Y00930828
X01064064
Y00940828
Y00950828
X01054064
X0104375Y00951
X01034064Y00950828
Y00940828
Y00930828
Y00920828
Y00910828
X01054064
Y00920828
X01064064
Y00910828
X01084064
X01094064
X01104064
Y00920828
X01094064
X01084064
X01084064Y00930828
Y00940828
X01094064
Y00930828
X01104064
Y00940828
X01114064
Y00930828
Y00920828
Y00910828
Y00900828
Y00890828
Y00880828
X0110425Y0088075
X01104064Y00870828
Y00860828
X01094064Y00860828
Y00870828
Y00880828
X01094064Y00890828
Y00900828
X01084064
Y00890828
X01104064Y00890828
X01114064Y00870828
Y00860828
Y00850828
Y00840828
X01104064
Y00830828
X01094064
Y00820828
X01104064
X01114064
X01114064Y00830828
X0111375Y0080775
X011135Y007905
X01103804Y00784788
X011135Y007675
X011035Y00758
X01099054Y00737536
X01075803Y00742536
X01061052Y00741786
X01084803Y00751787
X010834Y00764196
X0107375Y0077325
X01064478Y0077775
X01053801Y00782038
X01043801Y00785038
X01044051Y00801289
X010445Y0082075
X01054064Y00820828
X01064064
Y00830828
Y00840828
Y00850828
X0105425Y0085075
Y0084125
X0104425Y0084075
X01044064Y00830828
X01034064
X0102425Y0083075
Y0084075
X0103375
X01034064Y00850828
X01044064
X01044064Y00860828
X01054064
Y00880828
X01064064
X01074052Y00841291
X01084064Y00840828
Y00850828
X01094064
Y00840828
X01084064Y00830828
Y00820828
X0107375Y0081975
X01064478Y0081075
Y0079425
X01074Y0078725
X01024314Y00791
X010005Y0078525
X01000799Y00800789
X00983548Y00801289
X0098325Y0078525
X00968797Y00785538
X00975048Y00776538
X00994298Y00773288
Y00759787
X01003549Y00768288
X00954Y00769
X009485
X00941Y007625
X009355
X009355Y007465
X00941
X009595Y007605
X00954Y00785
X009485
X00928
X009225
X00902048Y00785
X00896548
X00875999Y00785001
X00870499
X0085Y00785
X008445
X00840791Y00808289
X0085Y0082075
X008605Y00831
X00869542Y00841291
X0086775Y0086075
X0088825Y008605
X0089Y00881
X00901794Y00881043
X0090175Y0089075
X00904064Y00900828
X00904Y0091075
X00904064Y00920828
X00914064
X00924064
X00924064Y00930828
X00914064
X00924Y0091075
Y0090075
Y0089075
X00924064Y00880828
X00934Y0088075
X00934064Y00890828
Y00910828
X00934Y0092075
X00944064Y00920828
X0095375Y0092075
X00964064Y00920828
Y00910828
X0095375Y0090075
X00954Y0089075
Y0088075
Y0087075
Y0086075
X00944
X00944064Y00870828
X0095375Y0085075
X00954Y0084075
Y0083075
X00954064Y00820828
X00964064
X00974064Y00820828
X00984064
Y00830828
X00994064
Y00820828
X01004064Y00820828
Y00830828
X01014064Y00830828
Y00820828
X01024064
X01034064
X01054064Y00830828
X00974064
X0096425Y0083075
X00964064Y00840828
Y00850828
X00974064
Y00840828
Y00870828
X00984064
Y00880828
X00974064
Y00930828
Y00940828
X00984064
Y00930828
X00994064
X00984064Y00950828
X00974064
Y00960828
X00984064
X00964064
X00954064
X00954Y009505
X00954064Y00940828
X00964064
X00964Y0095025
X00964064Y01020828
X00964Y010305
X00964064Y01040828
Y01050828
X00974064
X00974064Y01020828
X00984064
X01014064Y00970828
X01024064
X01034064
X01044064
X01054064
X01064064
Y00980828
X01084064
Y00990828
X01094064
Y01000828
Y01010828
Y01020828
X01104064
X01114064
Y01030828
X01104064
X01094064
X01084064
Y01020828
Y01010828
X01104064
X01114064
Y01000828
Y00990828
Y00980828
Y00970828
X01104064
Y00980828
X01094064
Y00970828
X01084064
Y00950828
X01094064
X01104064
X01114064
X01104064Y00990828
Y01000828
X01084064Y01040828
X01034378Y00960906
X00914295Y00870792
X00902294
X00904064Y00850828
X009235Y00851
X00924064Y00860828
X00934064Y00840828
X00924064Y00830828
X00904Y0083075
X008385
X0084725Y00841
X0083875Y0085075
X0082575Y0085125
X008195Y0083025
X00809818Y00819725
X0079525Y008215
Y00827
X0076975Y0083425
Y0083975
X0075705Y0085965
Y0086515
X00749537Y00802039
X00744786Y00785538
Y00778288
X00772538Y00777788
Y00785788
X00806289Y00787538
X0081225Y0077275
X0082029Y00772788
X00829Y0077275
X008315Y007625
X00837
X008575Y007625
X00863
X00883452
X00888952
X009095Y007625
X00915
X00968297Y00808289
X0081654
X0085675Y008505
X008475Y0086225
X0084225Y008665
X0084375Y0088275
X008385Y00889
X00868Y00891
X008795
X0084025Y0101475
Y0102025
X01124064Y01020828
X01134064
X01144064
X01154064
Y01030828
Y01040828
Y01050828
X01144064
Y01040828
Y01030828
X01134064
X01124064
Y01040828
X01134064
Y01050828
X0112425Y0105125
Y0107075
X01134064Y01070578
X01144064
X01154064
Y01060828
X011445Y0106075
X01164064Y01060828
X01174064
X01184064
Y01050828
Y01040828
Y01030828
X01174064
X01164064
Y01040828
X01174064
Y01050828
X01164064
Y01070828
X01174064
X01184064
X01194064
X01204064
Y01080828
X01214064
X01224064
Y01090828
X01234064
Y01080828
X01244064
Y01090828
X01244Y0110075
X01234064Y01100828
X01234Y0111075
Y011205
X01244
X01244064Y01110828
X01224064
X01214064
X01204064
Y01120828
X01194064
X01184064
X01174314
Y01110828
X01184064
X01194064
Y01100828
X01184064
X01174314
Y01090828
X01184064
Y01080828
X01194064
Y01090828
X01204Y01091
X01204064Y01100828
X01214064
X01214Y01091
X01224064Y01100828
Y01120828
X01214064
X0126Y0111975
X01273028Y01120581
X01287063Y01120555
X012885Y011005
X012895Y010815
X0129425Y0107125
X013045Y0106075
X01303814Y01051051
Y01040801
Y0103055
X0130275Y0100825
Y0100275
Y0098225
Y0097675
X0130275Y0095625
Y0095075
X01304Y0094125
X01304064Y00922295
X0130475Y0090775
X0131775Y0090425
Y0089875
X0131775Y0092475
Y0093025
X013525Y0093025
Y0092475
X0136275Y0091725
Y0091175
X013525Y0090425
Y0089875
X01348Y00872
X0132925Y0086725
X01327565Y00852042
X0133675Y0083075
X01341566Y0081829
X01348508Y0081401
X0135075Y0082525
X01335315Y0081279
X01329763Y00809825
X01327565Y00793789
X01328Y00780125
Y00763875
X01329763Y00751424
X01348816Y00752287
X01348566Y00770038
Y00783038
X01348508Y00797816
X01287813Y00795789
X01278562Y00803289
X0126825Y0080375
X01268312Y00792039
Y00776288
X01268562Y00762287
X01278Y007715
X01247811Y00776038
X01245561Y00785288
X01244314Y00765725
X01247561Y00755037
X0124775Y00742
X0123381Y00742036
Y00755287
X0122456Y00749787
X012245Y0076375
X0122456Y00778038
X01213809Y00779038
Y00768037
X01204Y007685
X0120425Y00785
X0121375Y007945
Y0081
X01214064Y00820828
X01224064
X01234064
X01244064
Y00830828
X01234064
X01234064Y00840828
X01244064
X01244064Y00850828
X01234064
X01224064
X01214064
Y00840828
X01224064
Y00830828
X01214064
X01204064
X01194064
X01184064
Y00820828
X01194064
X01204064
Y00840828
Y00850828
Y00860828
X01194064
Y00870828
X01184064
Y00880828
X01174064
X01164064
Y00890828
Y00900828
X01154064Y00900828
X01154064Y00890828
Y00880828
Y00870828
Y00860828
X01144064
X01134064
X01124064
Y00870828
X01134064
X01144064
Y00880828
Y00900828
Y00910828
X01134064
X01124064
Y00920828
Y00930828
X01134064
X01134Y0092175
X0114425Y0092075
X01154064Y00920828
X01154064Y00910828
X01164064
X01174064
Y00920828
X01184064
X01184Y0093
X01174064Y00930828
Y00940828
X01164064
Y00930828
X01154064
X01144064
X01144064Y00940828
X01154064
Y00950828
X01164064
X01174064
X01184064
X01184Y0094125
X01194
X01194064Y00950828
Y00960828
X01204064
Y00950828
X01214064
X01224064
Y00960828
X01214064
Y00970828
X01224064
X01234064
Y00980828
Y00990828
X01224064
X01214064
X01204064
X01204064Y00980828
X01194064
X01184064
Y00970828
X01174064
X01164064
Y00960828
X01174064
X01184064
X01194064Y00970828
X01204064
X01214064Y00980828
X01224064
Y01000828
X01214064
Y01010828
Y01020828
X01214Y010305
X01204064Y01030828
Y01020828
Y01010828
X01194064
X01194Y010205
X01184064Y01020828
X01174064
X01164064
Y01010828
X01174064
Y01000828
X01164064
Y00990828
Y00980828
X01174064
X01154064
Y00990828
X01144064
X01144064Y00980828
Y00970828
Y00960828
Y00950828
X01134064
X01124064
Y00940828
X01134064
Y00960828
Y00970828
X01124064Y00970828
Y00980828
Y00990828
Y01000828
X01134064
Y01010828
X01124064
X01144064
X01154064
Y01000828
X01144064
X01134064Y00980828
X01154064Y00970828
Y00960828
X01184064Y01000828
Y01010828
X01194064Y01000828
X01204064
X01224064Y01010828
X01234064Y01010828
X01244064
X012515Y0101075
X01244064Y01030828
X01234064
Y01040828
Y01050828
Y01060828
X01244064
Y01070828
X01234064
X01224064
X01214064
Y01060828
X01224064
Y01050828
Y01040828
X01214064
Y01050828
X01204064
Y01040828
X01194064
Y01050828
Y01060828
X01204064
X01194064Y01030828
X01224064
X01244064Y01040828
Y01050828
Y00980828
Y00970828
Y00960828
X01234064
Y00950828
Y00940828
Y00930828
X01224064
X01214064
Y00940828
X01224064
X01204064
Y00930828
Y00920828
X01194064
X01194064Y00910828
Y00900828
Y00890828
X01204064
Y00900828
X01214064
Y00890828
X01224064
Y00900828
X01234064
Y00890828
X01244064
X01244064Y00900828
Y00910828
X01244Y0092075
X01234
X01234064Y00910828
X01224064
X01214064
X01204064
X01184064
Y00890828
X01174064
X01174064Y00900828
X01174064Y00870828
X01164064
Y00860828
X01174064
X01184064
X01174064Y00850828
X01164064
X01154064
Y00840828
X01144064
X01134064
Y00850828
X01124064
Y00840828
Y00830828
X01134064
Y00820828
X01124064
X01144064
X0115375Y0082075
X01154064Y00830828
X01144064
X01164064
X01174064
Y00840828
X01184064
X01194064
Y00850828
X01204064Y00870828
X01214064
X01224064
X01234064
Y00860828
X01224064
X01214064
Y00880828
X01224064
X01234064
X01244064
Y00870828
Y00860828
X012575Y008605
X01258061Y00846541
X01257811Y00832291
X01278062
X01277812Y00846541
X0127825Y008595
X01287813Y0082204
Y00739036
X0122456Y00733036
X01174539Y007425
Y0075575
X01174314Y00769824
X011745Y0078325
X01184558Y00779788
Y00766037
X01153806Y00763287
X0115375Y00778
X01124314Y00777202
Y00763328
X0112435Y00735649
X01153806Y00736036
X011645Y0082075
X01174
X01184137Y00802968
X01194064Y00880828
X01204064
X01214064Y00920828
X01224064
X01244064Y00930828
Y00940828
Y00950828
X012762Y009504
X01276812Y00920545
X012765Y0090675
X013375Y0095075
Y0095625
X01344Y0094575
X013495
X0136225Y00963
Y009685
Y0098975
Y0099525
X0136275Y010145
Y0102
X0136075Y01031
X01344
X0132825Y010305
Y01041
X0133675Y0104075
X01336815Y01051051
X0132825Y01051
X01321064Y01064802
X01335815Y01070552
X01341815Y01078553
X013525Y010775
X0135725Y010705
X01367317Y01070552
X0137725Y010705
X01378319Y01061802
X01395819
X01395568Y01070552
X01387Y010775
X01388568Y01091053
X01381817Y01090303
X013775Y01101
X0136725Y0110075
X01357
X01352566Y01090553
X0132625Y01091
X0132475Y011005
X01334815Y01100554
X0134225Y0111675
X01326565Y01121055
X01316564Y01121555
X01344069Y01061802
X01360819
X013525Y01051
X0135125Y0104075
X01368
X0136975Y01051
X0138725
X013855Y0104075
X0137825Y01031
X0139575
X013975Y0102
Y010145
X013975Y0099525
Y0098975
Y009685
Y00963
X01402375Y0094325
Y0093775
X0139625Y00934
X0139075
X013975Y0091725
Y0091175
X01454571Y00919045
X014545Y009025
X01518Y0091475
Y0092225
Y0092975
X01516Y0095725
X0150925Y009505
X01470572Y01054801
X01458071
X014535Y010635
X01450071Y01099054
X01462821
X0143732Y01098804
X01415Y0110575
X01399568Y01101304
X0138775Y0110075
X0140625Y01091
X014045Y0107725
X01413319Y01070552
Y01061802
X0140475Y01051
X01403Y0104075
X0141325Y01031
X0143732Y01039551
X01470572Y01125055
X013375Y0100825
Y0100275
Y0098225
Y0097675
X01174064Y01080828
X011635Y01081
X01154064Y01081078
Y01090828
X011635Y01091
Y01101
X01154064Y01100828
X01154Y011105
X011635Y01111
Y01121
X011535
X01144064Y01120828
X0113425Y01121
Y01111
X01144064Y01110828
X011445Y0110125
X0113425Y01101
X0112375
Y0111075
Y011205
X0112525Y010915
X01134Y010905
X01134064Y01080578
X01144064Y01081078
Y01090828
X01134064Y00900828
Y00890828
X01124064
Y00900828
X0112375Y0088075
X014365Y0076325
Y0074025
X014985Y0080925
X015355Y008845
X01533Y0091475
X015405
X01548
Y0092225
Y0092975
X015555
X015555Y0092225
X01563
X01563Y0091475
X015555Y0091475
X01563Y0092975
X015405
X01540499Y00922251
X01533Y0092225
X015255Y0092225
Y0092975
X01533
X015255Y0091475
X0152575Y0095725
X0153425
X015555Y009575
X01546826Y01140307
X015595Y011655
X0155825Y0117425
X01563Y0120175
X0157725Y011965
X015305Y012155
X01548865Y01253628
X01561539Y01278821
X01560289Y01287571
X01565039Y01315071
X01579289Y01309821
X01532539Y01328821
X01482Y01300021
X014725Y0130575
X01408Y013025
Y013105
Y013185
X0140741Y01326624
X01399409
Y01334625
Y01350626
X0140741
Y01366628
Y01374629
Y0138263
Y01390631
Y01398632
X01391409
X01383408
Y01390631
X01391409
Y0138263
Y01374629
Y01366628
Y01358627
X01383408
Y01366628
Y01374629
Y0138263
X01359404
Y01390631
Y01398632
X01351403
Y01390631
Y0138263
Y01374629
X01359404
Y01366628
X01351403
Y01358627
X01359404
Y01350626
X01343779Y01350473
X01335402Y01350626
Y01366628
Y01374629
Y0138263
Y01390631
Y01398632
X01298912Y01398636
Y01390635
Y01382634
Y01374633
Y01366632
X01282911
Y01358631
X0127491
Y01366632
Y01374633
X01282911
Y01382634
Y01390635
Y01398636
X0127491
Y01390635
Y01382634
X01250906
Y01390635
Y01398636
X01242905
Y01390635
Y01382634
Y01374633
X01250906
Y01366632
X01242905
Y01358631
X01250906
Y0135063
X01234905
X01226904
Y01366632
Y01374633
Y01382634
Y01390635
Y01398636
X0119075Y01398512
Y01390511
Y0138251
Y01374509
Y01366508
X01174749
Y01358507
X01166748
Y01366508
Y01374509
X01174749
Y0138251
Y01390511
Y01398512
X01166748
Y01390511
Y0138251
X01142744
Y01390511
Y01398512
X01134743
Y01390511
Y0138251
Y01374509
X01142744
Y01366508
X01134743
Y01358507
X01142744
Y01350506
X01126743
Y01334505
X01134744
X01142744Y01334504
X01150897Y01334195
X0114459Y01321252
Y01315753
X01142744Y01302501
X01126743
Y012945
Y01310502
Y01318503
X01134741Y01326504
X01166748
X0116484Y01339756
Y01345255
X01182749Y01350506
X0119075
X01182749Y01334505
Y01326504
X0119075
Y01318503
X01182749
X01174748
X01166748Y01310502
X01174748Y01302501
X0118259Y0130213
X0118984Y0130238
X0119075Y01310502
X01182749
X0118275Y012945
X0117434Y0129388
X01151306Y01275062
X01139Y0128075
X011345Y0126575
X0112225Y0127625
X01125743Y0122553
X01133805Y01218059
X01135305Y01209559
X01144556Y01206059
X01171676Y01210032
X01185439Y01199253
X011835Y011615
X01174314Y01160828
Y01150828
X011835Y01151
Y01141
X01174314Y01140828
Y01130828
X01184064
X01194064
X01204064
Y01140828
X011945Y01141
Y01151
X01204064Y01150828
Y01160828
X011945Y01161
X01214064Y01160828
X01224064
Y01150828
X01214064
Y01140828
X01224064
X01224Y01131
X01234
X01234064Y01140828
Y01150828
X01244064
Y01160828
X01234064
X01258561Y01161057
X01275Y0116425
X01277Y01132
X01264Y011315
X012535Y0113125
X01244Y01131
X01244064Y01140828
X01214064Y01130828
X011635Y01131
X01154064Y01130828
Y01140828
X011635Y01141
Y01151
X01154064Y01150828
X01144064
X0113425Y0115075
Y01141
X01144064Y01140828
Y01130828
X0113425Y01131
X0112375Y011305
Y011405
Y0115075
Y0116075
X0113425
X01144064Y01160828
X01154064
X011635Y01161
X012335Y01212
X0124325Y012025
X0124775Y0123325
X0125025Y0124875
X0125225Y0125975
X0126225Y0126675
X0130175Y0125975
Y0124925
X01293Y0123325
X01307Y0121575
X013175Y0122575
X0133425Y0122425
X01335402Y0129462
Y01302621
Y01310622
Y01318623
Y01326624
X01343403
Y01334625
X01351404
X01359404Y01334624
X01362975Y01331125
X0136125Y01321373
Y01315873
X01359404Y01302621
X01343403
Y0129462
Y01310622
Y01318623
X01298912Y01318627
Y01326628
X01290911
Y01334629
Y0135063
X01298912
X01273002Y0134538
Y0133988
X0127491Y01326628
X0128291Y01326627
X01290911Y01318627
Y01310626
X01298912
Y01302625
X01290911
Y01294624
X01298912
X0127491Y01302625
Y01310626
X01252752Y01315877
Y01321377
X01242904Y01326626
X01234905Y01326628
Y01334629
X01242906
X01226904Y01326628
Y01318627
Y01310626
Y01302625
X01234905
Y01294624
X01226904
X01234905Y01310626
Y01318627
X01250906Y01302625
X01383408Y01302621
Y01310622
X01399409
Y01302621
Y0129462
X01408Y012945
X01399409Y01318623
X01391408Y01326623
X01383408Y01326624
X013815Y01339876
Y01345376
X01359345Y01166366
X01356Y0113075
X0137025Y0113125
X013855Y0114525
X0133725Y01145
X01508574Y01140557
X01510613Y01253878
X0111925Y0126525
X0109325Y0126275
X0109825Y01249
X01083053Y01248311
X01069552Y01246811
X01070802Y01260562
X01073659Y01294491
Y01302492
X0108166
Y01310493
X0107366
X01065659
X01057658
Y01302492
Y01326495
X01065658Y01326494
X01073659Y01326495
Y01334496
X0108166Y01334495
Y01326494
Y01350497
X01073659
X01065659Y01358498
Y01366499
X01057658
Y01358498
X0105575Y01345246
Y01339746
X01033654Y01334495
X01025654Y01334496
X01017653
Y01326495
X01009652
Y01318494
Y01310493
Y01302492
Y01294491
X01017653
Y01302492
X01025654
X01017653Y01310493
Y01318494
X010355Y01321243
Y01315743
X01033654Y01350497
Y01358498
X01025653
Y01366499
Y013745
Y01382501
X01033654
Y013745
Y01366499
X01009652
Y013745
Y01382501
Y01390502
Y01398503
X01025653
Y01390502
X01033654
Y01398503
X01057658
X0105775Y0139062
X01065659Y01390502
Y01382501
X01057658
Y013745
X01065659
X0108166
Y01366499
Y01382501
Y01390502
Y01398503
X01065659
X01118742Y01398512
Y01390511
Y0138251
Y01374509
Y01366508
Y01350506
Y01326504
Y01318503
Y01310502
Y01302501
Y012945
X0108166Y01294491
X0108575Y012305
X01095303Y0123556
X01109554Y0123806
X01104304Y0122656
X01094303Y01203559
X011139Y01184854
X01114Y0116075
X0111425Y0115075
Y0114075
X01114064Y01130828
X01104Y011305
X01084128Y0113075
X01084Y011405
X01074064Y01140828
X0106425Y01141
Y0113125
X01074064Y01130828
Y01150828
X01064064
Y01160828
X0105425Y01161
X01044064Y01160828
X01034064
X01024Y01161
X01014064Y01160828
X01014064Y01150828
X01014Y01141
X01004064Y01140828
Y01150828
X00994064
Y01160828
X00984064
X00974064
X00964064
X00954064
Y01150828
Y01140828
X00964064
X00964Y01131
X00974Y0113075
X00974064Y01140828
X00984064
X00984Y0113125
X00994Y01131
X00994064Y01140828
X010035Y011305
X01024064Y01140828
X01034064
X01034Y0115
X01044Y0115025
X0104375Y0114075
X0105375
Y0113075
X01044064Y01130828
X0103425Y0113075
X01024064Y01150828
X0105375Y01151
X01074064Y01160828
X01084064
Y01150828
X01094064
Y01140828
Y01160828
X01004Y01161
X00984064Y01150828
X00974064
X00964064
X00944046Y01150556
X00944Y0114125
Y0113125
X00924
Y0114125
Y0115075
X00914064Y01150828
X0091375Y01141
X0089525Y01139
X0088775Y011475
X0089425Y0115575
X008825Y0116575
X00890875Y01174375
X0091225Y0116325
X00922Y01163
X0093025Y0116425
X009375Y01166
X0094425Y0116225
X009495Y0116675
X009565Y0117475
X0096175Y011705
X00925Y0117425
X009215Y012365
X009125Y0123625
X009045Y012365
X0094875
X00957797Y0123656
X00973548Y0123631
X00964Y0128687
X0094175Y0128687
Y0128137
X0094175Y0130037
X00955547Y01300933
X0095175Y0130637
X0095175Y0132437
X0094175Y0131837
X0093175Y0131237
X0093175Y0133037
X00942Y0133637
X00952Y0134237
Y0136037
X00942Y0135437
X00932Y0134837
Y0136637
X00942Y0137237
X00952Y0137837
X00961Y0137062
X00963Y0135387
X0098675Y0132862
X009815Y0132037
X0098975Y0131237
X0100655Y01344935
X01009652Y01350497
X01017653
X009975Y0137437
X009925Y0138237
Y0139087
X009875Y0139862
X0095175Y0139637
X0094175Y0139037
X00932Y0138437
X0093175Y0140237
X0091275Y0139637
X00896294Y01396438
X00896Y0137812
X0091275Y0137837
X0091275Y0136037
X00896294Y01360438
X00896294Y01342183
X0091275Y0134237
Y0132437
X00896294Y01324438
X00896294Y01306183
X0091275Y0130637
X009125Y0128837
Y0128087
X00896294Y01284438
X00862Y0128425
X0084875Y0128175
X00839Y012855
Y0129775
X00849
X00859
X00869Y01298
X008685Y01314
X008585
X008485
X008385Y0131375
X008285Y01314
Y0132775
X00839
X00849
X00859
X00869Y01328
X008685Y0134375
X008585
X008485
X008385
X008285
Y0129775
X00821Y0128225
X0080975Y0128375
X0079925Y012845
X00782Y0128325
X007775Y0128325
X00730536Y01287563
X00730786Y01313064
X00736Y01237
X007465Y0123725
X0075725Y012505
X00725285Y0122456
X0073425Y012115
X0085175Y0113975
Y0113225
X0084375Y011315
X0093175Y0129437
X00895Y0141612
X00887Y0141675
X008475Y01418
X00852292Y0142807
X00842541Y01408069
X00852292Y01397818
X00857792Y01382818
X0082275Y0139125
X008155Y01421
X00798
X00786038Y01406819
X0075225Y014015
X00759185Y01419249
X00728036Y01418569
Y01402818
X00713035Y01389068
X00701784Y01399568
Y01406069
X0068575Y01403
X00681533Y01393318
X00675783Y01368572
X00689284
X00702783Y01368822
X00716283
X00715533Y01353071
X00703033
X00702783Y01338822
X00716283
X00715533Y01323071
X00703033
X00698225Y01313301
X00685525
X00688533Y01322822
X00676033
X00672825Y01313301
X00685525Y01300601
X00698225
Y01287901
X00685525
X00672825
Y01275201
X00685525
X00698225
Y01262501
X00685525
Y01249801
X00698225
Y01237101
X00710925
Y01249801
Y01262501
Y01275201
X00723625
Y01300601
X00710925
X00660125
X00647425
Y01313301
X00634725
X00622025
X0062275Y0132275
X0062328Y01334065
X00609179Y01334034
X00609179Y01321533
X00609325Y01313301
X0059325Y0132175
X00593428Y01334783
X00583778Y01354316
X0063275Y013425
X00659Y013455
X00675783Y01338572
X00689284
X00688533Y01352822
X00676033
X0065575Y01403
X00650532Y01408569
X00655032Y01419819
X00712785Y01416819
X00660125Y01287901
Y01275201
Y01262501
X00647425
X00634725
Y01275201
X00622025
Y01287901
X00609325
X00596625
Y01262501
Y01249801
Y01237101
Y01224401
X00609325
Y01237101
X00622025
X0062075Y0122575
X00622025Y01211701
X00634725
X00647425
X00660125
Y01224401
X00672825
Y01211701
X00685525
X00698225
X0069825Y0122425
X00710925Y01224401
Y01211701
X0071125Y0119925
X00698225Y01199001
Y01186301
X00685525
Y01199001
X00672825
Y01186301
Y01173601
X00660125
Y01160901
Y01148201
Y01135501
X00672825
X00685525
X00698225
X00710925
Y01148201
Y01160901
X00723625
Y01173601
X00710925
Y01186301
X00723625
Y01148201
Y01135501
X00698225Y01148201
Y01160901
X00685525
Y01173601
Y01148201
X00672825
Y01160901
X00647425Y01173601
X00634725
Y01186301
X00647425
Y01199001
X00660125
X00634725
X00622025
X00609325
Y01186301
Y01173601
Y01160901
Y01148201
Y01135501
X00622025
X00634725
X00647425
Y01148201
X00634725
Y01160901
X00622025Y01173601
Y01186301
X00609325Y01211701
X00634725Y01224401
Y01237101
Y01249801
X00622025
Y01262501
X00609325
X006094Y012501
X00609325Y01275201
X006349Y01287726
X00634725Y01300601
X00660125Y01249801
X00672825
Y01237101
X00685525
Y01224401
X00660125Y01237101
X0064825Y01237
X00647425Y01224401
X00672825Y01262501
X00622025Y01148201
X0058275Y01157
X00584029Y01182308
X0054325Y011945
X004945Y0118325
X0048225Y0119375
X00482Y012035
X004915Y0120875
X0048475Y012195
X004615Y012045
X0046575Y0124025
X004625Y012605
X00424Y01263
X00415Y0126575
X004065Y0127125
Y0125425
Y0123725
X0041375Y0124125
X0041175Y01229
X004065Y0122025
X00396519Y01262565
Y01279565
X003765Y01280512
X00365768Y01252811
Y01245561
X00357267Y0123656
X00342767Y0123181
Y01241811
X00342517Y01256811
X00342767Y01291813
Y01321815
X00357267Y01326815
X0036975Y0132675
X00365518Y01317314
Y01310564
X00396519Y01305565
Y01322565
X004065Y0131425
X0041152Y01302314
X0041627Y01288563
X00479Y0131125
X00502775Y01299813
X0040575Y013785
X0038525Y0138725
X00338767Y01386568
X00330266Y01359066
X00330016Y01199059
X0034825Y0117325
X0041Y0115525
X00325016Y01184558
X00316015Y01176307
X00308765
X00300015Y01184558
X00290014
X00295014Y01199059
X00305015
X00320016
X00285014
X00264763
X00255012
X00245012
X00230011
X00219761
X00215011Y01184558
X00225011
X00240012
X00250012
X00270013
X0028Y01162344
X0027975Y0113925
X002625Y0115125
X002535Y0116025
X00244Y011515
X00235Y0116125
X00225261Y01166557
X002065Y0118775
X0019726Y01216809
Y0122681
X00182759Y0122181
Y0123206
Y01241561
X00174758Y01250311
Y01257811
X0019726Y01261812
Y01246811
X0020975Y012365
X00208Y0127575
X002215Y012825
X0023325Y012895
X0021325Y0130075
X0019726Y01306814
Y01326815
X00207Y0132175
X00215011Y01344566
X0021001Y01359566
X00235Y01359055
X00246512Y01367567
X00253512
X0026825Y0136825
X00280031Y01358879
X00295014Y01344566
X00304765
X00315015
X00325016
X003225Y0136775
X00310015Y01359066
X00313765Y01391818
X00296765
X0030525Y01401
X00275013Y01391568
X0027375Y01329
X002995Y013295
X0025Y01337
X0025525Y013035
X00182759Y01331565
X00167Y01316
X0016325Y0131925
X00141757Y01324315
X00139007Y01311564
X0013225Y01301
X00139257Y01290814
X00130751Y0128075
X00139257Y01270814
X00130751Y0126075
X00139257Y01250814
X00145Y0123825
X0013875Y012325
X00145Y0122125
X00139Y01214
X00154758Y01212559
X00154508Y01202059
X0014475Y0119425
X0013925Y011795
X0013025Y0118525
X0011475Y0117825
X00112094Y0115062
X0008375Y011495
X0007825Y01162
X0008125Y0116775
X0006875Y0116275
X00049752Y01138806
X00034002Y01138556
X00023001Y01142306
X00010251
X00010501Y01198308
X00023251
X00008Y01262061
X000235Y013145
X00036Y0131175
X0004525Y0131525
X00073504Y01250561
X000845Y01228
X00154758Y01229559
X00182759Y01211559
X001765Y0119625
X00168758Y01168557
X0015775Y0117
X00155169Y0115587
X001595Y0113925
X001425Y0135525
X001815Y013675
X0018575Y0138225
X0016825Y01388
X002065Y01413
X0011875Y0142625
X0011275Y014055
X0003725Y014095
Y014295
T02
X000365Y0033875
X0003125Y0044825
T03
X0014675Y0033275
X0015675
X0016675
X00380251Y003015
X00392751Y003015
X00392751Y00289
X00392751Y002765
X0039275Y00264001
X0039275Y00251501
X0040525Y00251501
X0041775Y00251501
X00430249Y002515
X00430249Y00264
X0043025Y002765
X0043025Y00289
X0043025Y00301499
X0041775Y00301499
X0041775Y00289
X0041775Y002765
X0040525Y002765
X0040525Y00289
X00405251Y003015
X00380251Y00289
X00380251Y002765
X00380251Y00264001
X0038025Y00251501
X0040525Y00264
X0041775Y00264
X0095595Y0006875
Y0006125
Y0005375
X0096345
X00963462Y00061206
X0097095Y0006125
Y0005375
Y0006875
X0096345
X011685Y0007125
Y0006375
X01176
X01176012Y00071206
X011835Y0007125
Y0006375
Y0007875
X01176
X011685
X013865Y0013925
Y0014675
Y0015425
X01394
X014015
Y0014675
Y0013925
X01394
X01394012Y00146706
X005275Y0069925
X0049725Y007215
X0049975Y006725
X00459Y0067725
X00468Y00698
X00436Y00702
X00421Y007215
X003355Y005992
Y005818
Y005643
X00318
X00318Y0058175
X00318Y005992
X00298
Y005818
Y005643
X0016675Y0035275
Y0034275
X001567Y00342632
X0014675Y0034275
Y0035275
X0015675Y0035275
X003Y007815
X0029825Y00804
X0028Y0080425
X0027925Y008285
X0025525Y00828
X003955Y00825089
Y00842589
Y00859989
X00413
X00413Y00842539
X00413Y00825089
X00433
Y00842589
Y00859989
X0035675Y0090975
X013225Y009725
X0134925Y0097225
X0134875Y0099875
X0152525Y0117125
X0153525
Y0118125
X0152525
X0152525Y0119125
X0153525
X01537289Y01284571
X01527289
X01527289Y01294571
X01537289
Y01304571
X01527289
X01517289
Y01294571
Y01284571
X0151525Y0119125
Y0118125
Y0117125
X0082525Y01364
Y01374
X0081775Y01369
X0081025Y01374
Y01364
T04
X00018001Y00285764
X00058253Y00285514
X0006125Y00248
X0006875Y00242
X00147264Y00256988
X001655Y00189
X00320016Y0020751
X00305015Y00115756
X00285014Y00127506
X000495Y0032575
X00331266Y0019626
X0041325Y000885
X0043575
X0046075
X0048825
X00744537Y00079197
Y00059197
X00766287Y00051002
Y00068253
X00766288Y00090948
X00776288Y00148257
X0086275Y0014625
Y001285
X00858647Y00107913
X00875531Y00084197
X00888032
X0087395Y0006825
X008755Y00056
X00920533Y00043945
X00936034Y00045695
X0092695Y000675
X00913283Y00030194
X0094305Y00020217
X00928295Y-000025
X00971797Y0000525
X00998803Y00002717
X00989537Y00044445
X010137Y0007475
X01010538Y00089697
X01023538
X010252Y0011975
X0102495Y0014
X01034016Y00170474
X01025516Y00180725
X01015015Y00170474
X01003015Y00180725
X0099Y0018325
X00989264Y00166224
X0097525Y0016975
X0096175Y0017975
X0094125Y0018
X00922266Y00179971
X00930766Y0016972
X00911765
X00899765Y00179971
X00886014Y0016547
X008907Y0014425
X0091625
X009115Y0013075
X0089451Y00119722
X0095795Y0011625
X009567Y00096
X009692Y0009575
X00987302Y00106722
X00997765Y00123972
X00975264Y00142223
X009527Y0014375
X00951Y0016975
X01051517Y00180725
X01075581Y001622
X01075331Y00140449
X0106175Y001285
X01071197Y00117913
X01088081Y00094197
X01100582
X010865Y0007825
X0108805Y00066
X0105579Y00049195
X0104879Y00035694
X01107082Y00138949
X01102082Y001602
X01089831Y00173701
X010905Y0019025
X010863Y00206959
X01074549
X01074799Y00236961
X010883
X0109675Y0026225
X0111425
X0107925
X0110775Y0020425
X01120083Y00199202
X00827541Y00031002
X01125833Y00040194
X01133083Y00053945
X01148584Y00055695
X011545Y0003025
X011641Y00006216
X01176101Y00015467
X0121125Y0001225
X01202087Y00054445
X0122625Y0008475
X01223088Y00099697
X01236088
X012335Y00128
Y00148
X01215837Y00141699
Y001617
X01208087Y00176201
X01194586
X0117275Y00173
Y001555
Y00138
Y001205
X011705Y00106
X0118175Y0010575
X01199852Y00116722
X0118825Y001525
X01191305Y0020746
X01180304
X01168835Y00199202
X011635Y0018975
X01152834Y00179701
X0114Y0018975
X01126083Y00179701
X0112475Y001445
X01133083Y00209702
X01155835
X01180304Y00237461
X01193055
X011865Y00263
X01204
X012215
X01239
X01236084Y00209206
X01258835
X01271835Y00198706
X012665Y00189254
X01255834Y00179205
X01243Y00189254
X01229083Y00179205
X01223083Y00198706
X0120775Y00194
X01289197Y00193413
X01293331Y00215949
X01293581Y002377
X01307831Y00249201
X013085Y0026575
X013043Y0028246
X01292549
X01292799Y00312461
X013063
X0132575Y0027975
X01338083Y00274702
X01351083Y00285202
X01373835
X01386835Y00274702
X013815Y0026525
X01370834Y00255201
X01358Y0026525
X01344083Y00255201
X0134275Y0022
X01325082Y00214449
X01320082Y002357
X01318582Y00169697
X01306081
X013045Y0015375
X0130605Y001415
X0127375Y0014725
X0127234Y00126948
X012735Y00169
X013575Y00153
X01351083Y00129445
X01366584Y00131195
X0137225Y001055
X0138125Y000815
X0139583Y00090967
X01428582Y00088216
X01420087Y00129945
X0144425Y0016025
X01441088Y00175197
X01454088
X014515Y002035
Y002235
X01433837Y00217199
Y002372
X01426087Y00251701
X01412586
X0139075Y002485
Y00231
Y002135
Y00196
X0138725Y001815
X0139975Y0018125
X01416587Y00183947
X0140625Y00228
X01409305Y00282959
X01398304
Y00312961
X01411055
X014545Y00321
X01454083Y00284706
X01476835
X01489835Y00274206
X014845Y00264754
X01473834Y00254705
X01461Y00264754
X01447083Y00254705
X01441083Y00274206
X0142575Y002695
X014915Y002445
X0149175Y0022275
X0149034Y00202448
X0148634Y00134695
X0147934Y00121194
X01343833Y00115694
X0126834Y00059195
X0126134Y00045694
X01139Y0007875
X011285Y00238
X0113175Y0026225
X0135325Y00318
X016335Y0031575
X016795Y003245
X0171575Y002225
Y00155
Y000875
Y0004975
X01659081Y00027001
X01714084Y00335016
X0171575Y004475
X01609829Y00445522
Y00407422
X01586222Y00353171
X0171575Y0056
X01415045Y00534495
X01400045
X01383295Y00531745
Y00516745
Y00501745
X01401045Y00496745
X01416045Y00496745
X01425548Y00478895
X01425545Y00459245
X01395546Y00458997
X01395546Y00479145
X01373795Y00476995
X01373545Y00454745
X01388296Y00443144
X01381045Y00422745
X01365545Y00432995
X01321794Y00426745
X01321794Y00441745
X01321795Y00456745
X01321795Y00471745
X01321794Y00486745
X01321794Y00501745
X01321795Y00516745
X01321795Y00531745
X01338545Y00534495
X01353545Y00534495
X01364151Y00523888
X01365151Y00507351
X01354545Y00496745
X01339545
X01248278Y00459411
X01233294Y00459348
X01216528Y00456661
X01216528Y00441661
X01216528Y00426661
X01234278Y00421661
X01249278
X01258781Y00403811
X01258778Y00384161
X0122878Y00383912
X0122878Y00404061
X01207028Y00401911
X01206778Y00379661
X01221529Y0036806
X01214278Y00347661
X01198778Y00357911
X01155028Y00351661
Y00366661
X01155028Y00381661
X01155028Y00396661
X01155028Y00411661
Y00426661
X01155028Y00441661
X01171778Y00459411
X01186778
X01197385Y00448804
X01198385Y00432267
X01187778Y00421661
X01172778Y00421661
X01273782Y00358059
X0129725Y0033525
X0131475
X0133225
X0134975
X01402Y00336
X014195
X01437
X014545
X01470421Y00379878
X01470421Y00417978
X01470421Y00456078
X01440549Y00433143
X01435045Y00396495
X0055225Y0040375
X00538Y00404
X00565Y00429851
X00557027Y00466773
X00538026
X00523526Y00482273
X0051045Y0050163
X005187Y0053113
X005312Y0053138
X005442Y0053113
X005572
X0054775Y004915
X00483524Y00469023
X00479182Y00442561
Y00417561
X00455568Y00430061
X00465Y004845
X005095Y0054
X0049475Y0055925
X00545722Y00631181
X00559278
Y00671319
X00545722
X0049525Y003775
X0050875Y0036125
X000955Y003415
X0006Y0039725
X00124506Y00689284
X01507Y008315
X0150575Y00898
X014955Y008985
X0150375Y00977
X01488Y01008
X0149625Y0103125
X01486201Y01046331
X0149625Y0105875
X01508701Y01046331
X01486201Y01073831
X0149625Y0108625
X01486201Y01101331
X014705Y01026
X0151875Y0103125
X0154125Y0103125
X0156375Y0103125
X01553701Y01046331
X0156375Y0105875
X0154125Y0105875
X01531201Y01046331
X0151875Y0105875
X01576201Y01046331
X0159875Y0104875
X01611169Y01058799
Y01036299
Y01013799
Y00991299
X0161075Y0097425
X01611169Y00958799
X01595078Y00957049
X0159625Y0098125
Y0100375
Y0102625
X01641169Y01026299
Y01003799
Y00981299
Y00958799
X0165125Y00949
X0165675Y0093525
X016575Y0092025
X01672422Y00912706
X01675Y0089275
X016575
X016475Y0088275
X01635Y0089275
X01625Y0088275
X016025Y0088275
X01592578Y00892794
X01612456Y00892828
X0161183Y00927797
X0160125Y0093775
X0158933Y00927797
X0157875Y0093775
X0162375
X0163433Y00927797
X01642422Y00912706
X01669Y0094375
X0167325Y0095875
X01660831Y00968799
X01660831Y00991299
X0167325Y0098125
Y0100375
X01660831Y01013799
X01660831Y01036299
X0167325Y0102625
Y0104875
X01660831Y01058799
X01660831Y01081299
X0167325Y0107125
Y0109375
X01660831Y01103799
X01641169Y01093799
Y01071299
X01641169Y01048799
X01611169Y01081299
X0159875Y0107125
Y0109375
X01611169Y01103799
X01579327Y00879795
X01549075Y00841209
X01529075
X01539075Y00821291
X016425Y0085275
X016325Y0086275
X01652578Y00862794
X01672456Y00862828
X016625Y0085275
X01594828Y01213061
X0159225Y0125175
X0157425
X01568Y0124625
X0156025Y0125175
X0153225Y012255
X01534289Y01338821
X01596867Y01326382
X0140475Y014225
X01379802Y01413319
X01363198
X0133825Y014225
X0129625
X01271302Y01413319
X01254698
X0122975Y014225
X0118809Y0142238
X01163142Y01413199
X01146538
X0112159Y0142238
X01079Y0142237
X01054052Y01413189
X01037301Y01413439
X010125Y0142237
X00982048Y01412689
X00866542Y01380817
X0085175Y0137525
X0082975Y01398
X00795789Y01401318
X00800789Y01316314
X00781Y013165
X00790789Y01303314
X00760787
X00751037Y01310314
Y01322065
X0086975Y011535
X00872375Y01133875
X00530182Y01180061
Y01205061
X0055075Y01215
X0057225Y0122275
X0057275Y01239
X00535026Y0123431
X00534276Y01258061
X005435Y012805
X00556Y0128075
X00569Y012805
X00582
X00593958Y0130175
X00527276Y01309314
X00528526Y01286563
X00505025Y0123456
X00506568Y01192561
X00507525Y01359816
X00474273Y01334565
X00474185Y01385523
X00423227Y01385435
X00423315Y01334477
X00390019Y01360066
X00570471Y01382681
X00584029
X00597319Y01395972
Y01409529
X00584029Y01422819
X00570471
T05
X007331Y013733
X007458
X007458Y01386
X007585
X007712
X007839Y01386
X007839Y013733
X007712Y013733
X007585Y013733
X007331Y01386
T06
X01609326Y01161294
Y01177294
Y01193294
X01621326Y01185294
Y01169294
X016215Y01283
Y01299
X016095Y01307
Y01291
Y01275
T08
X0129975Y0004325
X0134975
T09
X0001725Y00680776
Y00725776
T10
X0109275Y003185
X00813Y006365
X0004225Y00668276
X0013325Y00479
X0004225Y00738276
X0148875Y0124375
X0047475Y011415
T11
X0160375Y003445
X0159375Y004728
X014765Y004809
X014865Y003526
T12
X0147125Y0003075
X0151325
Y0008575
X0147125Y0008575
T14
X0Y0
X00091275Y00069651
X00640275Y00044651
X00637275Y00674651
X00091275Y00635151
Y00769651
X00637275Y00744651
Y01374651
X001685Y01429
X00091275Y01335151
T15
X016435Y01375
X014935
M30
